<?xml version="1.0" encoding="UTF-8"?>
<!DOCTYPE svg PUBLIC "-//W3C//DTD SVG 1.1//EN" "http://www.w3.org/Graphics/SVG/1.1/DTD/svg11.dtd">
<svg width="923" height="335" xmlns="http://www.w3.org/2000/svg" x-original-source="Catalyst->Kernel: Kernel picks realm url
Catalyst->Kernel: Kernel fetches mapping pairs
Kernel->Renderer: send LoadParcelScenes message\nwith baseUrl and content mappings
Kernel->Renderer: create any sdk component\nwith src payload
Renderer->Renderer: Use baseUrl and mappings\nto solve full asset url."><defs><marker viewBox="0 0 5 5" markerWidth="5" markerHeight="5" orient="auto" refX="5" refY="2.5" id="markerArrowBlock"><path d="M 0 0 L 5 2.5 L 0 5 z"></path></marker><marker viewBox="0 0 9.6 16" markerWidth="4" markerHeight="16" orient="auto" refX="9.6" refY="8" id="markerArrowOpen"><path d="M 9.6,8 1.92,16 0,13.7 5.76,8 0,2.286 1.92,0 9.6,8 z"></path></marker></defs><rect x="10" y="10" width="88" height="32" stroke="#000000" fill="#ffffff" style="stroke-width: 2px;"></rect><text x="20" y="32" text-anchor="start" style="font: 14px Menlo, Monaco, &quot;Courier New&quot;, monospace;"><tspan x="20" y="32">Catalyst</tspan></text><rect x="10" y="273" width="88" height="32" stroke="#000000" fill="#ffffff" style="stroke-width: 2px;"></rect><text x="20" y="295" text-anchor="start" style="font: 14px Menlo, Monaco, &quot;Courier New&quot;, monospace;"><tspan x="20" y="295">Catalyst</tspan></text><line x1="54" x2="54" y1="42" y2="273" stroke="#000000" fill="none" style="stroke-width: 2px;"></line><rect x="274" y="10" width="71" height="32" stroke="#000000" fill="#ffffff" style="stroke-width: 2px;"></rect><text x="284" y="30" text-anchor="start" style="font: 14px Menlo, Monaco, &quot;Courier New&quot;, monospace;"><tspan x="284" y="30">Kernel</tspan></text><rect x="274" y="273" width="71" height="32" stroke="#000000" fill="#ffffff" style="stroke-width: 2px;"></rect><text x="284" y="293" text-anchor="start" style="font: 14px Menlo, Monaco, &quot;Courier New&quot;, monospace;"><tspan x="284" y="293">Kernel</tspan></text><line x1="309" x2="309" y1="42" y2="273" stroke="#000000" fill="none" style="stroke-width: 2px;"></line><rect x="563" y="10" width="88" height="32" stroke="#000000" fill="#ffffff" style="stroke-width: 2px;"></rect><text x="573" y="30" text-anchor="start" style="font: 14px Menlo, Monaco, &quot;Courier New&quot;, monospace;"><tspan x="573" y="30">Renderer</tspan></text><rect x="563" y="273" width="88" height="32" stroke="#000000" fill="#ffffff" style="stroke-width: 2px;"></rect><text x="573" y="293" text-anchor="start" style="font: 14px Menlo, Monaco, &quot;Courier New&quot;, monospace;"><tspan x="573" y="293">Renderer</tspan></text><line x1="607" x2="607" y1="42" y2="273" stroke="#000000" fill="none" style="stroke-width: 2px;"></line><text x="89" y="74" text-anchor="start" style="font: 14px Menlo, Monaco, &quot;Courier New&quot;, monospace;"><tspan x="89" y="74">Kernel picks realm url</tspan></text><line x1="54" x2="309" y1="79" y2="79" stroke="#000000" fill="none" marker-end="url(#markerArrowBlock)" style="stroke-width: 2px;"></line><text x="63" y="106" text-anchor="start" style="font: 14px Menlo, Monaco, &quot;Courier New&quot;, monospace;"><tspan x="63" y="106">Kernel fetches mapping pairs</tspan></text><line x1="54" x2="309" y1="111" y2="111" stroke="#000000" fill="none" marker-end="url(#markerArrowBlock)" style="stroke-width: 2px;"></line><text x="319" y="138" text-anchor="start" style="font: 14px Menlo, Monaco, &quot;Courier New&quot;, monospace;"><tspan x="319" y="138">send LoadParcelScenes message</tspan><tspan x="319" dy="1.2em">with baseUrl and content mappings</tspan></text><line x1="309" x2="607" y1="160" y2="160" stroke="#000000" fill="none" marker-end="url(#markerArrowBlock)" style="stroke-width: 2px;"></line><text x="357" y="187" text-anchor="start" style="font: 14px Menlo, Monaco, &quot;Courier New&quot;, monospace;"><tspan x="357" y="187">create any sdk component</tspan><tspan x="357" dy="1.2em">with src payload</tspan></text><line x1="309" x2="607" y1="209" y2="209" stroke="#000000" fill="none" marker-end="url(#markerArrowBlock)" style="stroke-width: 2px;"></line><line x1="607" x2="627" y1="224" y2="224" stroke="#000000" fill="none" style="stroke-width: 2px;"></line><line x1="627" x2="627" y1="224" y2="258" stroke="#000000" fill="none" style="stroke-width: 2px;"></line><line x1="627" x2="607" y1="258" y2="258" stroke="#000000" fill="none" marker-end="url(#markerArrowBlock)" style="stroke-width: 2px;"></line><text x="632" y="247" text-anchor="start" style="font: 14px Menlo, Monaco, &quot;Courier New&quot;, monospace;"><tspan x="632" y="247">Use baseUrl and mappings</tspan><tspan x="632" dy="1.2em">to solve full asset url.</tspan></text></svg>