<?xml version="1.0" encoding="UTF-8" standalone="no"?>
<!DOCTYPE svg PUBLIC "-//W3C//DTD SVG 1.1//EN"
 "http://www.w3.org/Graphics/SVG/1.1/DTD/svg11.dtd">
<!-- Generated by graphviz version 2.44.0 (20200518.1210)
 -->
<!-- Title: G Pages: 1 -->
<svg width="440pt" height="392pt"
 viewBox="0.00 0.00 440.03 392.00" xmlns="http://www.w3.org/2000/svg" xmlns:xlink="http://www.w3.org/1999/xlink">
<g id="graph0" class="graph" transform="scale(1 1) rotate(0) translate(4 388)">
<title>G</title>
<polygon fill="white" stroke="transparent" points="-4,4 -4,-388 436.03,-388 436.03,4 -4,4"/>
<!-- dao -->
<g id="node1" class="node">
<title>dao</title>
<path fill="none" stroke="black" d="M142.44,-384C142.44,-384 112.44,-384 112.44,-384 106.44,-384 100.44,-378 100.44,-372 100.44,-372 100.44,-360 100.44,-360 100.44,-354 106.44,-348 112.44,-348 112.44,-348 142.44,-348 142.44,-348 148.44,-348 154.44,-354 154.44,-360 154.44,-360 154.44,-372 154.44,-372 154.44,-378 148.44,-384 142.44,-384"/>
<text text-anchor="middle" x="127.44" y="-363" font-family="arial" font-size="10.00">DAO</text>
</g>
<!-- group -->
<g id="node2" class="node">
<title>group</title>
<path fill="none" stroke="black" d="M102.82,-300C102.82,-300 12.06,-300 12.06,-300 6.06,-300 0.06,-294 0.06,-288 0.06,-288 0.06,-276 0.06,-276 0.06,-270 6.06,-264 12.06,-264 12.06,-264 102.82,-264 102.82,-264 108.82,-264 114.82,-270 114.82,-276 114.82,-276 114.82,-288 114.82,-288 114.82,-294 108.82,-300 102.82,-300"/>
<text text-anchor="middle" x="57.44" y="-279" font-family="arial" font-size="10.00">Approver&#39;s Committee</text>
</g>
<!-- dao&#45;&gt;group -->
<g id="edge2" class="edge">
<title>dao&#45;&gt;group</title>
<path fill="none" stroke="blue" d="M100.25,-359.4C84.16,-354.54 65.05,-345.71 55.21,-330 51.62,-324.28 50.58,-317.35 50.82,-310.59"/>
<polygon fill="blue" stroke="blue" points="54.34,-310.65 52.07,-300.3 47.39,-309.81 54.34,-310.65"/>
<text text-anchor="middle" x="121.56" y="-321" font-family="arial" font-size="10.00"> Set Members (Add, Remove)</text>
</g>
<!-- com_member -->
<g id="node3" class="node">
<title>com_member</title>
<path fill="none" stroke="black" d="M117.72,-216C117.72,-216 33.17,-216 33.17,-216 27.17,-216 21.17,-210 21.17,-204 21.17,-204 21.17,-192 21.17,-192 21.17,-186 27.17,-180 33.17,-180 33.17,-180 117.72,-180 117.72,-180 123.72,-180 129.72,-186 129.72,-192 129.72,-192 129.72,-204 129.72,-204 129.72,-210 123.72,-216 117.72,-216"/>
<text text-anchor="middle" x="75.44" y="-195" font-family="arial" font-size="10.00">Committee Members</text>
</g>
<!-- group&#45;&gt;com_member -->
<g id="edge1" class="edge">
<title>group&#45;&gt;com_member</title>
<path fill="none" stroke="green" d="M61.26,-263.61C63.66,-252.66 66.81,-238.31 69.53,-225.92"/>
<polygon fill="green" stroke="green" points="72.97,-226.6 71.69,-216.08 66.13,-225.1 72.97,-226.6"/>
<text text-anchor="middle" x="82.89" y="-237" font-family="arial" font-size="10.00"> has N</text>
</g>
<!-- manager -->
<g id="node4" class="node">
<title>manager</title>
<path fill="none" stroke="black" d="M227.29,-120C227.29,-120 111.59,-120 111.59,-120 105.59,-120 99.59,-114 99.59,-108 99.59,-108 99.59,-96 99.59,-96 99.59,-90 105.59,-84 111.59,-84 111.59,-84 227.29,-84 227.29,-84 233.29,-84 239.29,-90 239.29,-96 239.29,-96 239.29,-108 239.29,-108 239.29,-114 233.29,-120 227.29,-120"/>
<text text-anchor="middle" x="169.44" y="-99" font-family="arial" font-size="10.00">Collections Owner/Manager</text>
</g>
<!-- com_member&#45;&gt;manager -->
<g id="edge4" class="edge">
<title>com_member&#45;&gt;manager</title>
<path fill="none" stroke="blue" d="M80,-179.76C84.11,-166.96 91.25,-149.76 102.42,-138 106.86,-133.31 112.08,-129.13 117.6,-125.44"/>
<polygon fill="blue" stroke="blue" points="119.75,-128.23 126.47,-120.04 116.11,-122.25 119.75,-128.23"/>
<text text-anchor="middle" x="144.95" y="-153" font-family="arial" font-size="10.00"> can approve/reject</text>
<text text-anchor="middle" x="144.95" y="-141" font-family="arial" font-size="10.00"> collections</text>
</g>
<!-- manager&#45;&gt;dao -->
<g id="edge3" class="edge">
<title>manager&#45;&gt;dao</title>
<path fill="none" stroke="green" d="M180.32,-120.17C183.22,-125.65 185.96,-131.89 187.44,-138 207.52,-220.94 229.94,-256 187.44,-330 182.02,-339.43 172.98,-346.56 163.53,-351.84"/>
<polygon fill="green" stroke="green" points="161.86,-348.76 154.46,-356.35 164.97,-355.03 161.86,-348.76"/>
<text text-anchor="middle" x="235.62" y="-237" font-family="arial" font-size="10.00"> &#160;owned by</text>
</g>
<!-- new_collection -->
<g id="node6" class="node">
<title>new_collection</title>
<path fill="none" stroke="black" d="M285.9,-36C285.9,-36 208.99,-36 208.99,-36 202.99,-36 196.99,-30 196.99,-24 196.99,-24 196.99,-12 196.99,-12 196.99,-6 202.99,0 208.99,0 208.99,0 285.9,0 285.9,0 291.9,0 297.9,-6 297.9,-12 297.9,-12 297.9,-24 297.9,-24 297.9,-30 291.9,-36 285.9,-36"/>
<text text-anchor="middle" x="247.44" y="-15" font-family="arial" font-size="10.00">Collection Contract</text>
</g>
<!-- manager&#45;&gt;new_collection -->
<g id="edge8" class="edge">
<title>manager&#45;&gt;new_collection</title>
<path fill="none" stroke="blue" d="M157.8,-83.77C152.99,-74.34 149.8,-62.81 155.87,-54 163.48,-42.94 175.1,-35.37 187.53,-30.2"/>
<polygon fill="blue" stroke="blue" points="188.95,-33.4 197.14,-26.68 186.55,-26.83 188.95,-33.4"/>
<text text-anchor="middle" x="189.23" y="-57" font-family="arial" font-size="10.00"> can reject &#160;&#160;&#160;&#160;&#160;&#160;</text>
</g>
<!-- factory -->
<g id="node5" class="node">
<title>factory</title>
<path fill="none" stroke="black" d="M352.45,-120C352.45,-120 280.44,-120 280.44,-120 274.44,-120 268.44,-114 268.44,-108 268.44,-108 268.44,-96 268.44,-96 268.44,-90 274.44,-84 280.44,-84 280.44,-84 352.45,-84 352.45,-84 358.45,-84 364.45,-90 364.45,-96 364.45,-96 364.45,-108 364.45,-108 364.45,-114 358.45,-120 352.45,-120"/>
<text text-anchor="middle" x="316.44" y="-99" font-family="arial" font-size="10.00">Collection Factory</text>
</g>
<!-- factory&#45;&gt;new_collection -->
<g id="edge6" class="edge">
<title>factory&#45;&gt;new_collection</title>
<path fill="none" stroke="blue" d="M310.73,-83.75C307.06,-74.32 301.62,-62.8 294.44,-54 291.15,-49.96 287.29,-46.14 283.23,-42.61"/>
<polygon fill="blue" stroke="blue" points="285.25,-39.74 275.27,-36.2 280.86,-45.2 285.25,-39.74"/>
<text text-anchor="middle" x="333.95" y="-57" font-family="arial" font-size="10.00"> &#160;is deployer of</text>
</g>
<!-- new_collection&#45;&gt;manager -->
<g id="edge7" class="edge">
<title>new_collection&#45;&gt;manager</title>
<path fill="none" stroke="green" d="M242.18,-36.03C238.59,-45.62 233.09,-57.37 225.44,-66 221.54,-70.4 216.96,-74.44 212.13,-78.09"/>
<polygon fill="green" stroke="green" points="210.04,-75.27 203.83,-83.85 214.04,-81.02 210.04,-75.27"/>
<text text-anchor="middle" x="256.23" y="-57" font-family="arial" font-size="10.00"> owned by</text>
</g>
<!-- creator -->
<g id="node7" class="node">
<title>creator</title>
<path fill="none" stroke="black" d="M348.07,-216C348.07,-216 284.82,-216 284.82,-216 278.82,-216 272.82,-210 272.82,-204 272.82,-204 272.82,-192 272.82,-192 272.82,-186 278.82,-180 284.82,-180 284.82,-180 348.07,-180 348.07,-180 354.07,-180 360.07,-186 360.07,-192 360.07,-192 360.07,-204 360.07,-204 360.07,-210 354.07,-216 348.07,-216"/>
<text text-anchor="middle" x="316.44" y="-195" font-family="arial" font-size="10.00">Content Creator</text>
</g>
<!-- creator&#45;&gt;factory -->
<g id="edge5" class="edge">
<title>creator&#45;&gt;factory</title>
<path fill="none" stroke="blue" d="M316.44,-179.76C316.44,-165.98 316.44,-146.4 316.44,-130.47"/>
<polygon fill="blue" stroke="blue" points="319.94,-130.13 316.44,-120.13 312.94,-130.13 319.94,-130.13"/>
<text text-anchor="middle" x="374.24" y="-147" font-family="arial" font-size="10.00"> can deploy new contracts</text>
</g>
</g>
</svg>
