<?xml version="1.0" encoding="UTF-8"?>
<!DOCTYPE svg PUBLIC "-//W3C//DTD SVG 1.1//EN" "http://www.w3.org/Graphics/SVG/1.1/DTD/svg11.dtd">
<svg width="410" height="163" xmlns="http://www.w3.org/2000/svg" x-original-source="quest_scene->unity: quest progress state(new state)"><defs><marker viewBox="0 0 5 5" markerWidth="5" markerHeight="5" orient="auto" refX="5" refY="2.5" id="markerArrowBlock"><path d="M 0 0 L 5 2.5 L 0 5 z"></path></marker><marker viewBox="0 0 9.6 16" markerWidth="4" markerHeight="16" orient="auto" refX="9.6" refY="8" id="markerArrowOpen"><path d="M 9.6,8 1.92,16 0,13.7 5.76,8 0,2.286 1.92,0 9.6,8 z"></path></marker></defs><rect x="10" y="10" width="113" height="34" style="stroke-width: 2px;" stroke="#000000" fill="#ffffff"></rect><text x="20" y="33" style="font: 14px Menlo, Monaco, &quot;Courier New&quot;, monospace;" text-anchor="start"><tspan x="20" y="33">quest_scene</tspan></text><rect x="10" y="99" width="113" height="34" style="stroke-width: 2px;" stroke="#000000" fill="#ffffff"></rect><text x="20" y="122" style="font: 14px Menlo, Monaco, &quot;Courier New&quot;, monospace;" text-anchor="start"><tspan x="20" y="122">quest_scene</tspan></text><line x1="66" x2="66" y1="44" y2="99" style="stroke-width: 2px;" stroke="#000000" fill="none"></line><rect x="317" y="10" width="63" height="34" style="stroke-width: 2px;" stroke="#000000" fill="#ffffff"></rect><text x="327" y="34" style="font: 14px Menlo, Monaco, &quot;Courier New&quot;, monospace;" text-anchor="start"><tspan x="327" y="34">unity</tspan></text><rect x="317" y="99" width="63" height="34" style="stroke-width: 2px;" stroke="#000000" fill="#ffffff"></rect><text x="327" y="123" style="font: 14px Menlo, Monaco, &quot;Courier New&quot;, monospace;" text-anchor="start"><tspan x="327" y="123">unity</tspan></text><line x1="348" x2="348" y1="44" y2="99" style="stroke-width: 2px;" stroke="#000000" fill="none"></line><text x="76" y="79" style="font: 14px Menlo, Monaco, &quot;Courier New&quot;, monospace;" text-anchor="start"><tspan x="76" y="79">quest progress state(new state)</tspan></text><line x1="66" x2="348" y1="84" y2="84" style="stroke-width: 2px;" stroke="#000000" fill="none" marker-end="url(#markerArrowBlock)"></line></svg>