<?xml version="1.0" encoding="UTF-8"?>
<!DOCTYPE svg PUBLIC "-//W3C//DTD SVG 1.1//EN" "http://www.w3.org/Graphics/SVG/1.1/DTD/svg11.dtd">
<svg width="559" height="295" xmlns="http://www.w3.org/2000/svg" x-original-source="quest_scene->controller: make some progress
controller->server: update quest state
server->controller: new state
controller->quest_scene: new state (return)
quest_scene->unity: quest progress state(new state)"><defs><marker viewBox="0 0 5 5" markerWidth="5" markerHeight="5" orient="auto" refX="5" refY="2.5" id="markerArrowBlock"><path d="M 0 0 L 5 2.5 L 0 5 z"></path></marker><marker viewBox="0 0 9.6 16" markerWidth="4" markerHeight="16" orient="auto" refX="9.6" refY="8" id="markerArrowOpen"><path d="M 9.6,8 1.92,16 0,13.7 5.76,8 0,2.286 1.92,0 9.6,8 z"></path></marker></defs><rect x="10" y="10" width="113" height="34" style="stroke-width: 2px;" stroke="#000000" fill="#ffffff"></rect><text x="20" y="33" style="font: 14px Menlo, Monaco, &quot;Courier New&quot;, monospace;" text-anchor="start"><tspan x="20" y="33">quest_scene</tspan></text><rect x="10" y="231" width="113" height="34" style="stroke-width: 2px;" stroke="#000000" fill="#ffffff"></rect><text x="20" y="254" style="font: 14px Menlo, Monaco, &quot;Courier New&quot;, monospace;" text-anchor="start"><tspan x="20" y="254">quest_scene</tspan></text><line x1="66" x2="66" y1="44" y2="231" style="stroke-width: 2px;" stroke="#000000" fill="none"></line><rect x="186" y="10" width="105" height="34" style="stroke-width: 2px;" stroke="#000000" fill="#ffffff"></rect><text x="196" y="32" style="font: 14px Menlo, Monaco, &quot;Courier New&quot;, monospace;" text-anchor="start"><tspan x="196" y="32">controller</tspan></text><rect x="186" y="231" width="105" height="34" style="stroke-width: 2px;" stroke="#000000" fill="#ffffff"></rect><text x="196" y="253" style="font: 14px Menlo, Monaco, &quot;Courier New&quot;, monospace;" text-anchor="start"><tspan x="196" y="253">controller</tspan></text><line x1="238" x2="238" y1="44" y2="231" style="stroke-width: 2px;" stroke="#000000" fill="none"></line><rect x="375" y="10" width="71" height="34" style="stroke-width: 2px;" stroke="#000000" fill="#ffffff"></rect><text x="385" y="31" style="font: 14px Menlo, Monaco, &quot;Courier New&quot;, monospace;" text-anchor="start"><tspan x="385" y="31">server</tspan></text><rect x="375" y="231" width="71" height="34" style="stroke-width: 2px;" stroke="#000000" fill="#ffffff"></rect><text x="385" y="252" style="font: 14px Menlo, Monaco, &quot;Courier New&quot;, monospace;" text-anchor="start"><tspan x="385" y="252">server</tspan></text><line x1="410" x2="410" y1="44" y2="231" style="stroke-width: 2px;" stroke="#000000" fill="none"></line><rect x="466" y="10" width="63" height="34" style="stroke-width: 2px;" stroke="#000000" fill="#ffffff"></rect><text x="476" y="34" style="font: 14px Menlo, Monaco, &quot;Courier New&quot;, monospace;" text-anchor="start"><tspan x="476" y="34">unity</tspan></text><rect x="466" y="231" width="63" height="34" style="stroke-width: 2px;" stroke="#000000" fill="#ffffff"></rect><text x="476" y="255" style="font: 14px Menlo, Monaco, &quot;Courier New&quot;, monospace;" text-anchor="start"><tspan x="476" y="255">unity</tspan></text><line x1="497" x2="497" y1="44" y2="231" style="stroke-width: 2px;" stroke="#000000" fill="none"></line><text x="76" y="78" style="font: 14px Menlo, Monaco, &quot;Courier New&quot;, monospace;" text-anchor="start"><tspan x="76" y="78">make some progress</tspan></text><line x1="66" x2="238" y1="83" y2="83" style="stroke-width: 2px;" stroke="#000000" fill="none" marker-end="url(#markerArrowBlock)"></line><text x="248" y="112" style="font: 14px Menlo, Monaco, &quot;Courier New&quot;, monospace;" text-anchor="start"><tspan x="248" y="112">update quest state</tspan></text><line x1="238" x2="410" y1="117" y2="117" style="stroke-width: 2px;" stroke="#000000" fill="none" marker-end="url(#markerArrowBlock)"></line><text x="286" y="143" style="font: 14px Menlo, Monaco, &quot;Courier New&quot;, monospace;" text-anchor="start"><tspan x="286" y="143">new state</tspan></text><line x1="410" x2="238" y1="148" y2="148" style="stroke-width: 2px;" stroke="#000000" fill="none" marker-end="url(#markerArrowBlock)"></line><text x="76" y="176" style="font: 14px Menlo, Monaco, &quot;Courier New&quot;, monospace;" text-anchor="start"><tspan x="76" y="176">new state (return)</tspan></text><line x1="238" x2="66" y1="181" y2="181" style="stroke-width: 2px;" stroke="#000000" fill="none" marker-end="url(#markerArrowBlock)"></line><text x="151" y="211" style="font: 14px Menlo, Monaco, &quot;Courier New&quot;, monospace;" text-anchor="start"><tspan x="151" y="211">quest progress state(new state)</tspan></text><line x1="66" x2="497" y1="216" y2="216" style="stroke-width: 2px;" stroke="#000000" fill="none" marker-end="url(#markerArrowBlock)"></line></svg>