<?xml version="1.0" encoding="UTF-8"?>
<!DOCTYPE svg PUBLIC "-//W3C//DTD SVG 1.1//EN" "http://www.w3.org/Graphics/SVG/1.1/DTD/svg11.dtd">
<svg width="497" height="468" xmlns="http://www.w3.org/2000/svg" x-original-source="&quot;peer-a&quot; -> &quot;peer-b&quot;: GET /pointer-changes
&quot;peer-b&quot; -> &quot;peer-a&quot;: GET /pointer-changes
&quot;new-peer&quot; -> &quot;peer-a&quot;: GET /snapshots
&quot;peer-a&quot; -> &quot;new-peer&quot;: GET /snapshots
&quot;new-peer&quot; -> &quot;peer-b&quot;: GET /snapshots
&quot;peer-b&quot; -> &quot;new-peer&quot;: GET /snapshots
&quot;new-peer&quot; -> &quot;peer-a&quot;: GET /pointer-changes
&quot;peer-a&quot; -> &quot;new-peer&quot;: GET /pointer-changes
&quot;new-peer&quot; -> &quot;peer-b&quot;: GET /pointer-changes
&quot;peer-b&quot; -> &quot;new-peer&quot;: GET /pointer-changes"><defs><marker viewBox="0 0 5 5" markerWidth="5" markerHeight="5" orient="auto" refX="5" refY="2.5" id="markerArrowBlock"><path d="M 0 0 L 5 2.5 L 0 5 z"></path></marker><marker viewBox="0 0 9.6 16" markerWidth="4" markerHeight="16" orient="auto" refX="9.6" refY="8" id="markerArrowOpen"><path d="M 9.6,8 1.92,16 0,13.7 5.76,8 0,2.286 1.92,0 9.6,8 z"></path></marker></defs><rect x="10" y="10" width="71" height="34" stroke="#000000" fill="#ffffff" style="stroke-width: 2px;"></rect><text x="20" y="32" text-anchor="start" style="font: 14px Menlo, Monaco, &quot;Courier New&quot;, monospace;"><tspan x="20" y="32">peer-a</tspan></text><rect x="10" y="404" width="71" height="34" stroke="#000000" fill="#ffffff" style="stroke-width: 2px;"></rect><text x="20" y="426" text-anchor="start" style="font: 14px Menlo, Monaco, &quot;Courier New&quot;, monospace;"><tspan x="20" y="426">peer-a</tspan></text><line x1="45" x2="45" y1="44" y2="404" stroke="#000000" fill="none" style="stroke-width: 2px;"></line><rect x="199" y="10" width="71" height="34" stroke="#000000" fill="#ffffff" style="stroke-width: 2px;"></rect><text x="209" y="34" text-anchor="start" style="font: 14px Menlo, Monaco, &quot;Courier New&quot;, monospace;"><tspan x="209" y="34">peer-b</tspan></text><rect x="199" y="404" width="71" height="34" stroke="#000000" fill="#ffffff" style="stroke-width: 2px;"></rect><text x="209" y="428" text-anchor="start" style="font: 14px Menlo, Monaco, &quot;Courier New&quot;, monospace;"><tspan x="209" y="428">peer-b</tspan></text><line x1="234" x2="234" y1="44" y2="404" stroke="#000000" fill="none" style="stroke-width: 2px;"></line><rect x="379" y="10" width="88" height="34" stroke="#000000" fill="#ffffff" style="stroke-width: 2px;"></rect><text x="389" y="32" text-anchor="start" style="font: 14px Menlo, Monaco, &quot;Courier New&quot;, monospace;"><tspan x="389" y="32">new-peer</tspan></text><rect x="379" y="404" width="88" height="34" stroke="#000000" fill="#ffffff" style="stroke-width: 2px;"></rect><text x="389" y="426" text-anchor="start" style="font: 14px Menlo, Monaco, &quot;Courier New&quot;, monospace;"><tspan x="389" y="426">new-peer</tspan></text><line x1="423" x2="423" y1="44" y2="404" stroke="#000000" fill="none" style="stroke-width: 2px;"></line><text x="55" y="78" text-anchor="start" style="font: 14px Menlo, Monaco, &quot;Courier New&quot;, monospace;"><tspan x="55" y="78">GET /pointer-changes</tspan></text><line x1="45" x2="234" y1="83" y2="83" stroke="#000000" fill="none" marker-end="url(#markerArrowBlock)" style="stroke-width: 2px;"></line><text x="55" y="112" text-anchor="start" style="font: 14px Menlo, Monaco, &quot;Courier New&quot;, monospace;"><tspan x="55" y="112">GET /pointer-changes</tspan></text><line x1="234" x2="45" y1="117" y2="117" stroke="#000000" fill="none" marker-end="url(#markerArrowBlock)" style="stroke-width: 2px;"></line><text x="174" y="146" text-anchor="start" style="font: 14px Menlo, Monaco, &quot;Courier New&quot;, monospace;"><tspan x="174" y="146">GET /snapshots</tspan></text><line x1="423" x2="45" y1="151" y2="151" stroke="#000000" fill="none" marker-end="url(#markerArrowBlock)" style="stroke-width: 2px;"></line><text x="174" y="180" text-anchor="start" style="font: 14px Menlo, Monaco, &quot;Courier New&quot;, monospace;"><tspan x="174" y="180">GET /snapshots</tspan></text><line x1="45" x2="423" y1="185" y2="185" stroke="#000000" fill="none" marker-end="url(#markerArrowBlock)" style="stroke-width: 2px;"></line><text x="269" y="214" text-anchor="start" style="font: 14px Menlo, Monaco, &quot;Courier New&quot;, monospace;"><tspan x="269" y="214">GET /snapshots</tspan></text><line x1="423" x2="234" y1="219" y2="219" stroke="#000000" fill="none" marker-end="url(#markerArrowBlock)" style="stroke-width: 2px;"></line><text x="269" y="248" text-anchor="start" style="font: 14px Menlo, Monaco, &quot;Courier New&quot;, monospace;"><tspan x="269" y="248">GET /snapshots</tspan></text><line x1="234" x2="423" y1="253" y2="253" stroke="#000000" fill="none" marker-end="url(#markerArrowBlock)" style="stroke-width: 2px;"></line><text x="149" y="282" text-anchor="start" style="font: 14px Menlo, Monaco, &quot;Courier New&quot;, monospace;"><tspan x="149" y="282">GET /pointer-changes</tspan></text><line x1="423" x2="45" y1="287" y2="287" stroke="#000000" fill="none" marker-end="url(#markerArrowBlock)" style="stroke-width: 2px;"></line><text x="149" y="316" text-anchor="start" style="font: 14px Menlo, Monaco, &quot;Courier New&quot;, monospace;"><tspan x="149" y="316">GET /pointer-changes</tspan></text><line x1="45" x2="423" y1="321" y2="321" stroke="#000000" fill="none" marker-end="url(#markerArrowBlock)" style="stroke-width: 2px;"></line><text x="244" y="350" text-anchor="start" style="font: 14px Menlo, Monaco, &quot;Courier New&quot;, monospace;"><tspan x="244" y="350">GET /pointer-changes</tspan></text><line x1="423" x2="234" y1="355" y2="355" stroke="#000000" fill="none" marker-end="url(#markerArrowBlock)" style="stroke-width: 2px;"></line><text x="244" y="384" text-anchor="start" style="font: 14px Menlo, Monaco, &quot;Courier New&quot;, monospace;"><tspan x="244" y="384">GET /pointer-changes</tspan></text><line x1="234" x2="423" y1="389" y2="389" stroke="#000000" fill="none" marker-end="url(#markerArrowBlock)" style="stroke-width: 2px;"></line></svg>