<?xml version="1.0" encoding="UTF-8" standalone="no"?>
<!DOCTYPE svg PUBLIC "-//W3C//DTD SVG 1.1//EN"
 "http://www.w3.org/Graphics/SVG/1.1/DTD/svg11.dtd">
<!-- Generated by graphviz version 2.44.0 (20200518.1210)
 -->
<!-- Title: G Pages: 1 -->
<svg width="180pt" height="188pt"
 viewBox="0.00 0.00 179.67 188.00" xmlns="http://www.w3.org/2000/svg" xmlns:xlink="http://www.w3.org/1999/xlink">
<g id="graph0" class="graph" transform="scale(1 1) rotate(0) translate(4 184)">
<title>G</title>
<polygon fill="white" stroke="transparent" points="-4,4 -4,-184 175.67,-184 175.67,4 -4,4"/>
<!-- Back&#45;end requester -->
<g id="node1" class="node">
<title>Back&#45;end requester</title>
<ellipse fill="none" stroke="black" cx="85.84" cy="-162" rx="85.67" ry="18"/>
<text text-anchor="middle" x="85.84" y="-157.8" font-family="Times,serif" font-size="14.00">Back&#45;end requester</text>
</g>
<!-- Bridge -->
<g id="node2" class="node">
<title>Bridge</title>
<ellipse fill="none" stroke="black" cx="85.84" cy="-90" rx="37.14" ry="18"/>
<text text-anchor="middle" x="85.84" y="-85.8" font-family="Times,serif" font-size="14.00">Bridge</text>
</g>
<!-- Back&#45;end requester&#45;&gt;Bridge -->
<g id="edge1" class="edge">
<title>Back&#45;end requester&#45;&gt;Bridge</title>
<path fill="none" stroke="black" d="M85.84,-143.7C85.84,-135.98 85.84,-126.71 85.84,-118.11"/>
<polygon fill="black" stroke="black" points="89.34,-118.1 85.84,-108.1 82.34,-118.1 89.34,-118.1"/>
</g>
<!-- Feature -->
<g id="node3" class="node">
<title>Feature</title>
<ellipse fill="none" stroke="black" cx="85.84" cy="-18" rx="39.98" ry="18"/>
<text text-anchor="middle" x="85.84" y="-13.8" font-family="Times,serif" font-size="14.00">Feature</text>
</g>
<!-- Bridge&#45;&gt;Feature -->
<g id="edge2" class="edge">
<title>Bridge&#45;&gt;Feature</title>
<path fill="none" stroke="black" d="M85.84,-71.7C85.84,-63.98 85.84,-54.71 85.84,-46.11"/>
<polygon fill="black" stroke="black" points="89.34,-46.1 85.84,-36.1 82.34,-46.1 89.34,-46.1"/>
</g>
</g>
</svg>
