<?xml version="1.0" encoding="UTF-8"?>
<!DOCTYPE svg PUBLIC "-//W3C//DTD SVG 1.1//EN" "http://www.w3.org/Graphics/SVG/1.1/DTD/svg11.dtd">
<svg width="615" height="349" xmlns="http://www.w3.org/2000/svg" x-original-source="Service->Service: I exist
Unity->Kernel: Ask for auth headers
Kernel->Kernel: Compute headers\n
Kernel->Unity: Send headers
Unity->Service: Fetch
Service->Unity: Response
Unity->Unity: Transform response data"><defs><marker viewBox="0 0 5 5" markerWidth="5" markerHeight="5" orient="auto" refX="5" refY="2.5" id="markerArrowBlock"><path d="M 0 0 L 5 2.5 L 0 5 z"></path></marker><marker viewBox="0 0 9.6 16" markerWidth="4" markerHeight="16" orient="auto" refX="9.6" refY="8" id="markerArrowOpen"><path d="M 9.6,8 1.92,16 0,13.7 5.76,8 0,2.286 1.92,0 9.6,8 z"></path></marker></defs><rect x="10" y="10" width="79" height="31" stroke="#000000" fill="#ffffff" style="stroke-width: 2px;"></rect><text x="20" y="29" text-anchor="start" style="font: 14px Menlo, Monaco, &quot;Courier New&quot;, monospace;"><tspan x="20" y="29">Service</tspan></text><rect x="10" y="288" width="79" height="31" stroke="#000000" fill="#ffffff" style="stroke-width: 2px;"></rect><text x="20" y="307" text-anchor="start" style="font: 14px Menlo, Monaco, &quot;Courier New&quot;, monospace;"><tspan x="20" y="307">Service</tspan></text><line x1="49" x2="49" y1="41" y2="288" stroke="#000000" fill="none" style="stroke-width: 2px;"></line><rect x="117" y="10" width="63" height="31" stroke="#000000" fill="#ffffff" style="stroke-width: 2px;"></rect><text x="127" y="31" text-anchor="start" style="font: 14px Menlo, Monaco, &quot;Courier New&quot;, monospace;"><tspan x="127" y="31">Unity</tspan></text><rect x="117" y="288" width="63" height="31" stroke="#000000" fill="#ffffff" style="stroke-width: 2px;"></rect><text x="127" y="309" text-anchor="start" style="font: 14px Menlo, Monaco, &quot;Courier New&quot;, monospace;"><tspan x="127" y="309">Unity</tspan></text><line x1="148" x2="148" y1="41" y2="288" stroke="#000000" fill="none" style="stroke-width: 2px;"></line><rect x="347" y="10" width="71" height="31" stroke="#000000" fill="#ffffff" style="stroke-width: 2px;"></rect><text x="357" y="30" text-anchor="start" style="font: 14px Menlo, Monaco, &quot;Courier New&quot;, monospace;"><tspan x="357" y="30">Kernel</tspan></text><rect x="347" y="288" width="71" height="31" stroke="#000000" fill="#ffffff" style="stroke-width: 2px;"></rect><text x="357" y="308" text-anchor="start" style="font: 14px Menlo, Monaco, &quot;Courier New&quot;, monospace;"><tspan x="357" y="308">Kernel</tspan></text><line x1="382" x2="382" y1="41" y2="288" stroke="#000000" fill="none" style="stroke-width: 2px;"></line><line x1="49" x2="69" y1="61" y2="61" stroke="#000000" fill="none" style="stroke-width: 2px;"></line><line x1="69" x2="69" y1="61" y2="74" stroke="#000000" fill="none" style="stroke-width: 2px;"></line><line x1="69" x2="49" y1="74" y2="74" stroke="#000000" fill="none" marker-end="url(#markerArrowBlock)" style="stroke-width: 2px;"></line><text x="74" y="71" text-anchor="start" style="font: 14px Menlo, Monaco, &quot;Courier New&quot;, monospace;"><tspan x="74" y="71">I exist</tspan></text><text x="181" y="98" text-anchor="start" style="font: 14px Menlo, Monaco, &quot;Courier New&quot;, monospace;"><tspan x="181" y="98">Ask for auth headers</tspan></text><line x1="148" x2="382" y1="103" y2="103" stroke="#000000" fill="none" marker-end="url(#markerArrowBlock)" style="stroke-width: 2px;"></line><line x1="382" x2="402" y1="118" y2="118" stroke="#000000" fill="none" style="stroke-width: 2px;"></line><line x1="402" x2="402" y1="118" y2="152" stroke="#000000" fill="none" style="stroke-width: 2px;"></line><line x1="402" x2="382" y1="152" y2="152" stroke="#000000" fill="none" marker-end="url(#markerArrowBlock)" style="stroke-width: 2px;"></line><text x="407" y="141" text-anchor="start" style="font: 14px Menlo, Monaco, &quot;Courier New&quot;, monospace;"><tspan x="407" y="141">Compute headers</tspan><tspan x="407" dy="1.2em"></tspan></text><text x="215" y="176" text-anchor="start" style="font: 14px Menlo, Monaco, &quot;Courier New&quot;, monospace;"><tspan x="215" y="176">Send headers</tspan></text><line x1="382" x2="148" y1="181" y2="181" stroke="#000000" fill="none" marker-end="url(#markerArrowBlock)" style="stroke-width: 2px;"></line><text x="77" y="205" text-anchor="start" style="font: 14px Menlo, Monaco, &quot;Courier New&quot;, monospace;"><tspan x="77" y="205">Fetch</tspan></text><line x1="148" x2="49" y1="210" y2="210" stroke="#000000" fill="none" marker-end="url(#markerArrowBlock)" style="stroke-width: 2px;"></line><text x="65" y="236" text-anchor="start" style="font: 14px Menlo, Monaco, &quot;Courier New&quot;, monospace;"><tspan x="65" y="236">Response</tspan></text><line x1="49" x2="148" y1="241" y2="241" stroke="#000000" fill="none" marker-end="url(#markerArrowBlock)" style="stroke-width: 2px;"></line><line x1="148" x2="168" y1="256" y2="256" stroke="#000000" fill="none" style="stroke-width: 2px;"></line><line x1="168" x2="168" y1="256" y2="273" stroke="#000000" fill="none" style="stroke-width: 2px;"></line><line x1="168" x2="148" y1="273" y2="273" stroke="#000000" fill="none" marker-end="url(#markerArrowBlock)" style="stroke-width: 2px;"></line><text x="173" y="270" text-anchor="start" style="font: 14px Menlo, Monaco, &quot;Courier New&quot;, monospace;"><tspan x="173" y="270">Transform response data</tspan></text></svg>