<?xml version="1.0" encoding="UTF-8" standalone="no"?>
<!DOCTYPE svg PUBLIC "-//W3C//DTD SVG 1.1//EN"
 "http://www.w3.org/Graphics/SVG/1.1/DTD/svg11.dtd">
<!-- Generated by graphviz version 2.44.0 (20200518.1210)
 -->
<!-- Pages: 1 -->
<svg width="672pt" height="490pt"
 viewBox="0.00 0.00 672.00 490.00" xmlns="http://www.w3.org/2000/svg" xmlns:xlink="http://www.w3.org/1999/xlink">
<g id="graph0" class="graph" transform="scale(1 1) rotate(0) translate(4 486)">
<polygon fill="white" stroke="transparent" points="-4,4 -4,-486 668,-486 668,4 -4,4"/>
<g id="clust1" class="cluster">
<title>clusterL2</title>
<polygon fill="none" stroke="#00aaff" points="8,-256 8,-474 656,-474 656,-256 8,-256"/>
<text text-anchor="middle" x="332" y="-461" font-family="arial" font-size="10.00" fill="grey">L2</text>
</g>
<g id="clust2" class="cluster">
<title>clusterL1</title>
<polygon fill="none" stroke="green" points="133,-8 133,-237 607,-237 607,-8 133,-8"/>
<text text-anchor="middle" x="370" y="-224" font-family="arial" font-size="10.00" fill="grey">L1 Mainnet</text>
</g>
<!-- factory_l2 -->
<g id="node1" class="node">
<title>factory_l2</title>
<path fill="none" stroke="blue" d="M356.73,-446C356.73,-446 317.27,-446 317.27,-446 311.27,-446 305.27,-440 305.27,-434 305.27,-434 305.27,-422 305.27,-422 305.27,-416 311.27,-410 317.27,-410 317.27,-410 356.73,-410 356.73,-410 362.73,-410 368.73,-416 368.73,-422 368.73,-422 368.73,-434 368.73,-434 368.73,-440 362.73,-446 356.73,-446"/>
<text text-anchor="middle" x="337" y="-425" font-family="arial" font-size="10.00">Factory L2</text>
</g>
<!-- collection_l2_1 -->
<g id="node3" class="node">
<title>collection_l2_1</title>
<path fill="none" stroke="black" d="M101.62,-373C101.62,-373 28.38,-373 28.38,-373 22.38,-373 16.38,-367 16.38,-361 16.38,-361 16.38,-349 16.38,-349 16.38,-343 22.38,-337 28.38,-337 28.38,-337 101.62,-337 101.62,-337 107.62,-337 113.62,-343 113.62,-349 113.62,-349 113.62,-361 113.62,-361 113.62,-367 107.62,-373 101.62,-373"/>
<text text-anchor="middle" x="65" y="-352" font-family="arial" font-size="10.00">Collection 1 (data)</text>
</g>
<!-- factory_l2&#45;&gt;collection_l2_1 -->
<g id="edge7" class="edge">
<title>factory_l2&#45;&gt;collection_l2_1</title>
<path fill="none" stroke="blue" d="M305.36,-419.41C265.39,-409.74 194.27,-392.25 123.65,-373.13"/>
<polygon fill="blue" stroke="blue" points="124.26,-369.67 113.7,-370.42 122.43,-376.42 124.26,-369.67"/>
</g>
<!-- collection_l2_2 -->
<g id="node4" class="node">
<title>collection_l2_2</title>
<path fill="none" stroke="black" d="M208.28,-373C208.28,-373 143.72,-373 143.72,-373 137.72,-373 131.72,-367 131.72,-361 131.72,-361 131.72,-349 131.72,-349 131.72,-343 137.72,-337 143.72,-337 143.72,-337 208.28,-337 208.28,-337 214.28,-337 220.28,-343 220.28,-349 220.28,-349 220.28,-361 220.28,-361 220.28,-367 214.28,-373 208.28,-373"/>
<text text-anchor="middle" x="176" y="-352" font-family="arial" font-size="10.00">Collection (data)</text>
</g>
<!-- factory_l2&#45;&gt;collection_l2_2 -->
<g id="edge9" class="edge">
<title>factory_l2&#45;&gt;collection_l2_2</title>
<path fill="none" stroke="blue" d="M305.19,-412.97C282.01,-402.75 250.21,-388.72 223.95,-377.15"/>
<polygon fill="blue" stroke="blue" points="225.12,-373.84 214.56,-373 222.29,-380.24 225.12,-373.84"/>
</g>
<!-- collection_l2_3 -->
<g id="node5" class="node">
<title>collection_l2_3</title>
<path fill="none" stroke="black" d="M315.28,-373C315.28,-373 250.72,-373 250.72,-373 244.72,-373 238.72,-367 238.72,-361 238.72,-361 238.72,-349 238.72,-349 238.72,-343 244.72,-337 250.72,-337 250.72,-337 315.28,-337 315.28,-337 321.28,-337 327.28,-343 327.28,-349 327.28,-349 327.28,-361 327.28,-361 327.28,-367 321.28,-373 315.28,-373"/>
<text text-anchor="middle" x="283" y="-352" font-family="arial" font-size="10.00">Collection (data)</text>
</g>
<!-- factory_l2&#45;&gt;collection_l2_3 -->
<g id="edge11" class="edge">
<title>factory_l2&#45;&gt;collection_l2_3</title>
<path fill="none" stroke="blue" d="M323.93,-409.81C317.36,-401.18 309.28,-390.56 302.04,-381.03"/>
<polygon fill="blue" stroke="blue" points="304.79,-378.87 295.95,-373.03 299.22,-383.11 304.79,-378.87"/>
</g>
<!-- collection_l2_4 -->
<g id="node6" class="node">
<title>collection_l2_4</title>
<path fill="none" stroke="black" d="M422.28,-373C422.28,-373 357.72,-373 357.72,-373 351.72,-373 345.72,-367 345.72,-361 345.72,-361 345.72,-349 345.72,-349 345.72,-343 351.72,-337 357.72,-337 357.72,-337 422.28,-337 422.28,-337 428.28,-337 434.28,-343 434.28,-349 434.28,-349 434.28,-361 434.28,-361 434.28,-367 428.28,-373 422.28,-373"/>
<text text-anchor="middle" x="390" y="-352" font-family="arial" font-size="10.00">Collection (data)</text>
</g>
<!-- factory_l2&#45;&gt;collection_l2_4 -->
<g id="edge13" class="edge">
<title>factory_l2&#45;&gt;collection_l2_4</title>
<path fill="none" stroke="blue" d="M349.83,-409.81C356.21,-401.27 364.05,-390.77 371.1,-381.32"/>
<polygon fill="blue" stroke="blue" points="374.11,-383.14 377.29,-373.03 368.5,-378.95 374.11,-383.14"/>
</g>
<!-- collection_l2_5 -->
<g id="node7" class="node">
<title>collection_l2_5</title>
<path fill="none" stroke="black" d="M529.28,-373C529.28,-373 464.72,-373 464.72,-373 458.72,-373 452.72,-367 452.72,-361 452.72,-361 452.72,-349 452.72,-349 452.72,-343 458.72,-337 464.72,-337 464.72,-337 529.28,-337 529.28,-337 535.28,-337 541.28,-343 541.28,-349 541.28,-349 541.28,-361 541.28,-361 541.28,-367 535.28,-373 529.28,-373"/>
<text text-anchor="middle" x="497" y="-352" font-family="arial" font-size="10.00">Collection (data)</text>
</g>
<!-- factory_l2&#45;&gt;collection_l2_5 -->
<g id="edge15" class="edge">
<title>factory_l2&#45;&gt;collection_l2_5</title>
<path fill="none" stroke="blue" d="M368.99,-412.8C391.98,-402.6 423.36,-388.68 449.29,-377.17"/>
<polygon fill="blue" stroke="blue" points="450.85,-380.31 458.57,-373.05 448.01,-373.91 450.85,-380.31"/>
</g>
<!-- collection_l2_6 -->
<g id="node8" class="node">
<title>collection_l2_6</title>
<path fill="none" stroke="black" d="M636.28,-373C636.28,-373 571.72,-373 571.72,-373 565.72,-373 559.72,-367 559.72,-361 559.72,-361 559.72,-349 559.72,-349 559.72,-343 565.72,-337 571.72,-337 571.72,-337 636.28,-337 636.28,-337 642.28,-337 648.28,-343 648.28,-349 648.28,-349 648.28,-361 648.28,-361 648.28,-367 642.28,-373 636.28,-373"/>
<text text-anchor="middle" x="604" y="-352" font-family="arial" font-size="10.00">Collection (data)</text>
</g>
<!-- factory_l2&#45;&gt;collection_l2_6 -->
<g id="edge17" class="edge">
<title>factory_l2&#45;&gt;collection_l2_6</title>
<path fill="none" stroke="blue" d="M368.91,-419.51C408.81,-410.01 479.43,-392.77 549.66,-373.01"/>
<polygon fill="blue" stroke="blue" points="550.89,-376.3 559.56,-370.21 548.99,-369.57 550.89,-376.3"/>
</g>
<!-- bridge_l2 -->
<g id="node2" class="node">
<title>bridge_l2</title>
<path fill="none" stroke="blue" d="M353.29,-300C353.29,-300 318.71,-300 318.71,-300 312.71,-300 306.71,-294 306.71,-288 306.71,-288 306.71,-276 306.71,-276 306.71,-270 312.71,-264 318.71,-264 318.71,-264 353.29,-264 353.29,-264 359.29,-264 365.29,-270 365.29,-276 365.29,-276 365.29,-288 365.29,-288 365.29,-294 359.29,-300 353.29,-300"/>
<text text-anchor="middle" x="336" y="-279" font-family="arial" font-size="10.00">Bridge L2</text>
</g>
<!-- bridge_l1 -->
<g id="node10" class="node">
<title>bridge_l1</title>
<path fill="none" stroke="green" d="M353.29,-209C353.29,-209 318.71,-209 318.71,-209 312.71,-209 306.71,-203 306.71,-197 306.71,-197 306.71,-185 306.71,-185 306.71,-179 312.71,-173 318.71,-173 318.71,-173 353.29,-173 353.29,-173 359.29,-173 365.29,-179 365.29,-185 365.29,-185 365.29,-197 365.29,-197 365.29,-203 359.29,-209 353.29,-209"/>
<text text-anchor="middle" x="336" y="-188" font-family="arial" font-size="10.00">Bridge L1</text>
</g>
<!-- bridge_l2&#45;&gt;bridge_l1 -->
<g id="edge27" class="edge">
<title>bridge_l2&#45;&gt;bridge_l1</title>
<path fill="none" stroke="blue" d="M336,-263.84C336,-251.28 336,-233.98 336,-219.5"/>
<polygon fill="blue" stroke="blue" points="339.5,-219.11 336,-209.11 332.5,-219.11 339.5,-219.11"/>
</g>
<!-- collection_l2_1&#45;&gt;bridge_l2 -->
<g id="edge8" class="edge">
<title>collection_l2_1&#45;&gt;bridge_l2</title>
<path fill="none" stroke="blue" d="M113.7,-339.59C116.84,-338.7 119.96,-337.83 123,-337 183.47,-320.48 254.07,-302.92 296.88,-292.46"/>
<polygon fill="blue" stroke="blue" points="297.74,-295.85 306.62,-290.08 296.08,-289.05 297.74,-295.85"/>
</g>
<!-- collection_l2_2&#45;&gt;bridge_l2 -->
<g id="edge10" class="edge">
<title>collection_l2_2&#45;&gt;bridge_l2</title>
<path fill="none" stroke="blue" d="M214.32,-336.99C239.41,-325.86 272.08,-311.36 297.25,-300.2"/>
<polygon fill="blue" stroke="blue" points="298.78,-303.35 306.5,-296.09 295.94,-296.95 298.78,-303.35"/>
</g>
<!-- collection_l2_3&#45;&gt;bridge_l2 -->
<g id="edge12" class="edge">
<title>collection_l2_3&#45;&gt;bridge_l2</title>
<path fill="none" stroke="blue" d="M295.83,-336.81C302.21,-328.27 310.05,-317.77 317.1,-308.32"/>
<polygon fill="blue" stroke="blue" points="320.11,-310.14 323.29,-300.03 314.5,-305.95 320.11,-310.14"/>
</g>
<!-- collection_l2_4&#45;&gt;bridge_l2 -->
<g id="edge14" class="edge">
<title>collection_l2_4&#45;&gt;bridge_l2</title>
<path fill="none" stroke="blue" d="M376.93,-336.81C370.36,-328.18 362.28,-317.56 355.04,-308.03"/>
<polygon fill="blue" stroke="blue" points="357.79,-305.87 348.95,-300.03 352.22,-310.11 357.79,-305.87"/>
</g>
<!-- collection_l2_5&#45;&gt;bridge_l2 -->
<g id="edge16" class="edge">
<title>collection_l2_5&#45;&gt;bridge_l2</title>
<path fill="none" stroke="blue" d="M458.44,-336.99C433.11,-325.83 400.11,-311.27 374.74,-300.09"/>
<polygon fill="blue" stroke="blue" points="375.99,-296.81 365.43,-295.98 373.17,-303.22 375.99,-296.81"/>
</g>
<!-- collection_l2_6&#45;&gt;bridge_l2 -->
<g id="edge18" class="edge">
<title>collection_l2_6&#45;&gt;bridge_l2</title>
<path fill="none" stroke="blue" d="M559.56,-339.79C556.33,-338.82 553.12,-337.88 550,-337 489.42,-319.84 418.44,-302.46 375.37,-292.21"/>
<polygon fill="blue" stroke="blue" points="376.1,-288.79 365.57,-289.89 374.49,-295.6 376.1,-288.79"/>
</g>
<!-- factory_l1 -->
<g id="node9" class="node">
<title>factory_l1</title>
<path fill="none" stroke="green" d="M355.73,-136C355.73,-136 316.27,-136 316.27,-136 310.27,-136 304.27,-130 304.27,-124 304.27,-124 304.27,-112 304.27,-112 304.27,-106 310.27,-100 316.27,-100 316.27,-100 355.73,-100 355.73,-100 361.73,-100 367.73,-106 367.73,-112 367.73,-112 367.73,-124 367.73,-124 367.73,-130 361.73,-136 355.73,-136"/>
<text text-anchor="middle" x="336" y="-115" font-family="arial" font-size="10.00">Factory L1</text>
</g>
<!-- collection_l1_1 -->
<g id="node11" class="node">
<title>collection_l1_1</title>
<path fill="none" stroke="black" d="M197.23,-52C197.23,-52 152.77,-52 152.77,-52 146.77,-52 140.77,-46 140.77,-40 140.77,-40 140.77,-28 140.77,-28 140.77,-22 146.77,-16 152.77,-16 152.77,-16 197.23,-16 197.23,-16 203.23,-16 209.23,-22 209.23,-28 209.23,-28 209.23,-40 209.23,-40 209.23,-46 203.23,-52 197.23,-52"/>
<text text-anchor="middle" x="175" y="-31" font-family="arial" font-size="10.00">Collection 1</text>
</g>
<!-- factory_l1&#45;&gt;collection_l1_1 -->
<g id="edge1" class="edge">
<title>factory_l1&#45;&gt;collection_l1_1</title>
<path fill="none" stroke="blue" d="M304.19,-100.8C279.33,-88.14 244.53,-70.41 217.32,-56.55"/>
<polygon fill="blue" stroke="blue" points="218.9,-53.43 208.41,-52.01 215.73,-59.67 218.9,-53.43"/>
<text text-anchor="middle" x="274.44" y="-73" font-family="arial" font-size="10.00" fill="blue">mint</text>
</g>
<!-- collection_l1_2 -->
<g id="node12" class="node">
<title>collection_l1_2</title>
<path fill="none" stroke="black" d="M274.89,-52C274.89,-52 239.11,-52 239.11,-52 233.11,-52 227.11,-46 227.11,-40 227.11,-40 227.11,-28 227.11,-28 227.11,-22 233.11,-16 239.11,-16 239.11,-16 274.89,-16 274.89,-16 280.89,-16 286.89,-22 286.89,-28 286.89,-28 286.89,-40 286.89,-40 286.89,-46 280.89,-52 274.89,-52"/>
<text text-anchor="middle" x="257" y="-31" font-family="arial" font-size="10.00">Collection</text>
</g>
<!-- factory_l1&#45;&gt;collection_l1_2 -->
<g id="edge2" class="edge">
<title>factory_l1&#45;&gt;collection_l1_2</title>
<path fill="none" stroke="blue" d="M319.25,-99.61C307.96,-87.9 292.92,-72.29 280.46,-59.35"/>
<polygon fill="blue" stroke="blue" points="282.92,-56.86 273.46,-52.08 277.88,-61.71 282.92,-56.86"/>
</g>
<!-- collection_l1_3 -->
<g id="node13" class="node">
<title>collection_l1_3</title>
<path fill="none" stroke="black" d="M352.89,-52C352.89,-52 317.11,-52 317.11,-52 311.11,-52 305.11,-46 305.11,-40 305.11,-40 305.11,-28 305.11,-28 305.11,-22 311.11,-16 317.11,-16 317.11,-16 352.89,-16 352.89,-16 358.89,-16 364.89,-22 364.89,-28 364.89,-28 364.89,-40 364.89,-40 364.89,-46 358.89,-52 352.89,-52"/>
<text text-anchor="middle" x="335" y="-31" font-family="arial" font-size="10.00">Collection</text>
</g>
<!-- factory_l1&#45;&gt;collection_l1_3 -->
<g id="edge3" class="edge">
<title>factory_l1&#45;&gt;collection_l1_3</title>
<path fill="none" stroke="blue" d="M335.79,-99.61C335.66,-88.77 335.48,-74.6 335.33,-62.29"/>
<polygon fill="blue" stroke="blue" points="338.83,-62.04 335.21,-52.08 331.83,-62.13 338.83,-62.04"/>
</g>
<!-- collection_l1_4 -->
<g id="node14" class="node">
<title>collection_l1_4</title>
<path fill="none" stroke="black" d="M430.89,-52C430.89,-52 395.11,-52 395.11,-52 389.11,-52 383.11,-46 383.11,-40 383.11,-40 383.11,-28 383.11,-28 383.11,-22 389.11,-16 395.11,-16 395.11,-16 430.89,-16 430.89,-16 436.89,-16 442.89,-22 442.89,-28 442.89,-28 442.89,-40 442.89,-40 442.89,-46 436.89,-52 430.89,-52"/>
<text text-anchor="middle" x="413" y="-31" font-family="arial" font-size="10.00">Collection</text>
</g>
<!-- factory_l1&#45;&gt;collection_l1_4 -->
<g id="edge4" class="edge">
<title>factory_l1&#45;&gt;collection_l1_4</title>
<path fill="none" stroke="blue" d="M344.49,-99.81C349.64,-90.39 356.79,-78.87 365,-70 368.81,-65.88 373.17,-61.94 377.67,-58.28"/>
<polygon fill="blue" stroke="blue" points="380.03,-60.87 385.83,-52.01 375.77,-55.32 380.03,-60.87"/>
</g>
<!-- collection_l1_5 -->
<g id="node15" class="node">
<title>collection_l1_5</title>
<path fill="none" stroke="black" d="M508.89,-52C508.89,-52 473.11,-52 473.11,-52 467.11,-52 461.11,-46 461.11,-40 461.11,-40 461.11,-28 461.11,-28 461.11,-22 467.11,-16 473.11,-16 473.11,-16 508.89,-16 508.89,-16 514.89,-16 520.89,-22 520.89,-28 520.89,-28 520.89,-40 520.89,-40 520.89,-46 514.89,-52 508.89,-52"/>
<text text-anchor="middle" x="491" y="-31" font-family="arial" font-size="10.00">Collection</text>
</g>
<!-- factory_l1&#45;&gt;collection_l1_5 -->
<g id="edge5" class="edge">
<title>factory_l1&#45;&gt;collection_l1_5</title>
<path fill="none" stroke="blue" d="M350.23,-99.78C361.03,-86.79 374.3,-71.04 376,-70 403.18,-53.37 416.75,-61.36 451.21,-51.75"/>
<polygon fill="blue" stroke="blue" points="452.46,-55.03 460.97,-48.72 450.39,-48.34 452.46,-55.03"/>
</g>
<!-- collection_l1_6 -->
<g id="node16" class="node">
<title>collection_l1_6</title>
<path fill="none" stroke="black" d="M586.89,-52C586.89,-52 551.11,-52 551.11,-52 545.11,-52 539.11,-46 539.11,-40 539.11,-40 539.11,-28 539.11,-28 539.11,-22 545.11,-16 551.11,-16 551.11,-16 586.89,-16 586.89,-16 592.89,-16 598.89,-22 598.89,-28 598.89,-28 598.89,-40 598.89,-40 598.89,-46 592.89,-52 586.89,-52"/>
<text text-anchor="middle" x="569" y="-31" font-family="arial" font-size="10.00">Collection</text>
</g>
<!-- factory_l1&#45;&gt;collection_l1_6 -->
<g id="edge6" class="edge">
<title>factory_l1&#45;&gt;collection_l1_6</title>
<path fill="none" stroke="blue" d="M367.89,-107.26C404.69,-95.82 467.16,-75.76 529.31,-52.11"/>
<polygon fill="blue" stroke="blue" points="530.79,-55.29 538.87,-48.44 528.28,-48.76 530.79,-55.29"/>
</g>
<!-- bridge_l1&#45;&gt;bridge_l2 -->
<g id="edge26" class="edge">
<title>bridge_l1&#45;&gt;bridge_l2</title>
<path fill="none" stroke="blue" d="M342.74,-209.43C346.02,-219.97 348.89,-233.71 347,-246 346.59,-248.68 346.01,-251.44 345.33,-254.17"/>
<polygon fill="blue" stroke="blue" points="341.96,-253.22 342.55,-263.8 348.69,-255.17 341.96,-253.22"/>
</g>
<!-- bridge_l1&#45;&gt;factory_l1 -->
<g id="edge25" class="edge">
<title>bridge_l1&#45;&gt;factory_l1</title>
<path fill="none" stroke="blue" d="M336,-172.81C336,-164.79 336,-155.05 336,-146.07"/>
<polygon fill="blue" stroke="blue" points="339.5,-146.03 336,-136.03 332.5,-146.03 339.5,-146.03"/>
</g>
<!-- collection_l1_1&#45;&gt;bridge_l1 -->
<g id="edge19" class="edge">
<title>collection_l1_1&#45;&gt;bridge_l1</title>
<path fill="none" stroke="gray" stroke-dasharray="5,2" d="M209.13,-48.94C212.11,-50.02 215.1,-51.06 218,-52 288.21,-74.81 333.94,-40.04 377,-100 391.46,-120.13 376.57,-146.18 360.84,-165.07"/>
<polygon fill="gray" stroke="gray" points="358.11,-162.87 354.12,-172.69 363.36,-167.5 358.11,-162.87"/>
</g>
<!-- collection_l1_2&#45;&gt;bridge_l1 -->
<g id="edge20" class="edge">
<title>collection_l1_2&#45;&gt;bridge_l1</title>
<path fill="none" stroke="gray" stroke-dasharray="5,2" d="M286.98,-48.87C289.99,-50.02 293.03,-51.09 296,-52 337.92,-64.84 355.16,-47.84 393,-70 398.99,-73.51 397.38,-77.92 403,-82 420.43,-94.66 435.92,-82.16 448,-100 456.97,-113.25 456.51,-122.45 448,-136 443.66,-142.92 405.3,-160.53 374.67,-173.77"/>
<polygon fill="gray" stroke="gray" points="373.27,-170.57 365.46,-177.73 376.03,-177 373.27,-170.57"/>
</g>
<!-- collection_l1_3&#45;&gt;bridge_l1 -->
<g id="edge21" class="edge">
<title>collection_l1_3&#45;&gt;bridge_l1</title>
<path fill="none" stroke="gray" stroke-dasharray="5,2" d="M364.96,-48.11C376.53,-53.93 389.48,-61.4 400,-70 405.38,-74.39 404.05,-78.42 410,-82 443.47,-102.12 471.38,-69.69 496,-100 506.09,-112.42 505.78,-123.34 496,-136 476.62,-161.08 457.12,-144.15 427,-154 409.75,-159.64 391.05,-166.84 375.11,-173.32"/>
<polygon fill="gray" stroke="gray" points="373.5,-170.2 365.59,-177.24 376.17,-176.67 373.5,-170.2"/>
</g>
<!-- collection_l1_4&#45;&gt;bridge_l1 -->
<g id="edge22" class="edge">
<title>collection_l1_4&#45;&gt;bridge_l1</title>
<path fill="none" stroke="gray" stroke-dasharray="5,2" d="M423.04,-52.31C429.59,-62.24 438.96,-74.23 450,-82 470.69,-96.55 489.21,-79.48 504,-100 513.36,-112.98 513.43,-123.07 504,-136 504,-136 425.12,-161.35 375.46,-177.32"/>
<polygon fill="gray" stroke="gray" points="374.1,-174.08 365.65,-180.47 376.24,-180.74 374.1,-174.08"/>
</g>
<!-- collection_l1_5&#45;&gt;bridge_l1 -->
<g id="edge23" class="edge">
<title>collection_l1_5&#45;&gt;bridge_l1</title>
<path fill="none" stroke="gray" stroke-dasharray="5,2" d="M497.68,-52.15C506.99,-77.37 521.69,-122.89 512,-136 507.8,-141.68 425.53,-165.25 374.98,-179.3"/>
<polygon fill="gray" stroke="gray" points="374.02,-175.94 365.32,-181.98 375.89,-182.68 374.02,-175.94"/>
</g>
<!-- collection_l1_6&#45;&gt;bridge_l1 -->
<g id="edge24" class="edge">
<title>collection_l1_6&#45;&gt;bridge_l1</title>
<path fill="none" stroke="gray" stroke-dasharray="5,2" d="M564.63,-52.08C558.09,-74.35 543.69,-113.16 518,-136 478.12,-171.46 415.89,-183.66 375.53,-187.85"/>
<polygon fill="gray" stroke="gray" points="375.15,-184.37 365.51,-188.77 375.79,-191.34 375.15,-184.37"/>
</g>
</g>
</svg>
