<?xml version="1.0" encoding="UTF-8"?>
<!DOCTYPE svg PUBLIC "-//W3C//DTD SVG 1.1//EN" "http://www.w3.org/Graphics/SVG/1.1/DTD/svg11.dtd">
<svg width="857" height="355" xmlns="http://www.w3.org/2000/svg"><defs><marker viewBox="0 0 5 5" markerWidth="5" markerHeight="5" orient="auto" refX="5" refY="2.5" id="markerArrowBlock"><path d="M 0 0 L 5 2.5 L 0 5 z"></path></marker><marker viewBox="0 0 9.6 16" markerWidth="4" markerHeight="16" orient="auto" refX="9.6" refY="8" id="markerArrowOpen"><path d="M 9.6,8 1.92,16 0,13.7 5.76,8 0,2.286 1.92,0 9.6,8 z"></path></marker></defs><rect x="10" y="10" width="53" height="33" stroke="#000000" fill="#ffffff" style="stroke-width: 2px;"></rect><text x="20" y="31" text-anchor="start" style="font: 14px Menlo, Monaco, &quot;Courier New&quot;, monospace;"><tspan x="20" y="31">User</tspan></text><rect x="10" y="292" width="53" height="33" stroke="#000000" fill="#ffffff" style="stroke-width: 2px;"></rect><text x="20" y="314" text-anchor="start" style="font: 14px Menlo, Monaco, &quot;Courier New&quot;, monospace;"><tspan x="20" y="314">User</tspan></text><line x1="36" x2="36" y1="43" y2="292" stroke="#000000" fill="none" style="stroke-width: 2px;"></line><rect x="117" y="10" width="146" height="33" stroke="#000000" fill="#ffffff" style="stroke-width: 2px;"></rect><text x="127" y="33" text-anchor="start" style="font: 14px Menlo, Monaco, &quot;Courier New&quot;, monospace;"><tspan x="127" y="33">L2_Collection_1</tspan></text><rect x="117" y="292" width="146" height="33" stroke="#000000" fill="#ffffff" style="stroke-width: 2px;"></rect><text x="127" y="316" text-anchor="start" style="font: 14px Menlo, Monaco, &quot;Courier New&quot;, monospace;"><tspan x="127" y="316">L2_Collection_1</tspan></text><line x1="190" x2="190" y1="43" y2="292" stroke="#000000" fill="none" style="stroke-width: 2px;"></line><rect x="296" y="10" width="95" height="33" stroke="#000000" fill="#ffffff" style="stroke-width: 2px;"></rect><text x="306" y="33" text-anchor="start" style="font: 14px Menlo, Monaco, &quot;Courier New&quot;, monospace;"><tspan x="306" y="33">L2_Bridge</tspan></text><rect x="296" y="292" width="95" height="33" stroke="#000000" fill="#ffffff" style="stroke-width: 2px;"></rect><text x="306" y="316" text-anchor="start" style="font: 14px Menlo, Monaco, &quot;Courier New&quot;, monospace;"><tspan x="306" y="316">L2_Bridge</tspan></text><line x1="343" x2="343" y1="43" y2="292" stroke="#000000" fill="none" style="stroke-width: 2px;"></line><rect x="421" y="10" width="121" height="33" stroke="#000000" fill="#ffffff" style="stroke-width: 2px;"></rect><text x="431" y="33" text-anchor="start" style="font: 14px Menlo, Monaco, &quot;Courier New&quot;, monospace;"><tspan x="431" y="33">L2_Validator</tspan></text><rect x="421" y="292" width="121" height="33" stroke="#000000" fill="#ffffff" style="stroke-width: 2px;"></rect><text x="431" y="316" text-anchor="start" style="font: 14px Menlo, Monaco, &quot;Courier New&quot;, monospace;"><tspan x="431" y="316">L2_Validator</tspan></text><line x1="481" x2="481" y1="43" y2="292" stroke="#000000" fill="none" style="stroke-width: 2px;"></line><rect x="582" y="10" width="95" height="33" stroke="#000000" fill="#ffffff" style="stroke-width: 2px;"></rect><text x="592" y="33" text-anchor="start" style="font: 14px Menlo, Monaco, &quot;Courier New&quot;, monospace;"><tspan x="592" y="33">L1_Bridge</tspan></text><rect x="582" y="292" width="95" height="33" stroke="#000000" fill="#ffffff" style="stroke-width: 2px;"></rect><text x="592" y="316" text-anchor="start" style="font: 14px Menlo, Monaco, &quot;Courier New&quot;, monospace;"><tspan x="592" y="316">L1_Bridge</tspan></text><line x1="629" x2="629" y1="43" y2="292" stroke="#000000" fill="none" style="stroke-width: 2px;"></line><rect x="697" y="10" width="129" height="33" stroke="#000000" fill="#ffffff" style="stroke-width: 2px;"></rect><text x="707" y="33" text-anchor="start" style="font: 14px Menlo, Monaco, &quot;Courier New&quot;, monospace;"><tspan x="707" y="33">L1_Collection</tspan></text><rect x="697" y="292" width="129" height="33" stroke="#000000" fill="#ffffff" style="stroke-width: 2px;"></rect><text x="707" y="316" text-anchor="start" style="font: 14px Menlo, Monaco, &quot;Courier New&quot;, monospace;"><tspan x="707" y="316">L1_Collection</tspan></text><line x1="762" x2="762" y1="43" y2="292" stroke="#000000" fill="none" style="stroke-width: 2px;"></line><text x="307" y="76" text-anchor="start" style="font: 14px Menlo, Monaco, &quot;Courier New&quot;, monospace;"><tspan x="307" y="76">Transfer token_1 to L2</tspan></text><line x1="36" x2="762" y1="81" y2="81" stroke="#000000" fill="none" marker-end="url(#markerArrowBlock)" style="stroke-width: 2px;"></line><text x="645" y="109" text-anchor="start" style="font: 14px Menlo, Monaco, &quot;Courier New&quot;, monospace;"><tspan x="645" y="109">Burn token_1</tspan></text><line x1="762" x2="629" y1="114" y2="114" stroke="#000000" fill="none" marker-end="url(#markerArrowBlock)" style="stroke-width: 2px;"></line><text x="505" y="142" text-anchor="start" style="font: 14px Menlo, Monaco, &quot;Courier New&quot;, monospace;"><tspan x="505" y="142">Compute burn</tspan></text><line x1="481" x2="629" y1="147" y2="147" stroke="#000000" fill="none" stroke-dasharray="6px, 2px" marker-end="url(#markerArrowBlock)" style="stroke-width: 2px;"></line><line x1="481" x2="501" y1="162" y2="162" stroke="#000000" fill="none" style="stroke-width: 2px;"></line><line x1="501" x2="501" y1="162" y2="178" stroke="#000000" fill="none" style="stroke-width: 2px;"></line><line x1="501" x2="481" y1="178" y2="178" stroke="#000000" fill="none" marker-end="url(#markerArrowBlock)" style="stroke-width: 2px;"></line><text x="506" y="176" text-anchor="start" style="font: 14px Menlo, Monaco, &quot;Courier New&quot;, monospace;"><tspan x="506" y="176">Validate burn</tspan></text><text x="353" y="206" text-anchor="start" style="font: 14px Menlo, Monaco, &quot;Courier New&quot;, monospace;"><tspan x="353" y="206">Unlock token_1</tspan></text><line x1="481" x2="343" y1="211" y2="211" stroke="#000000" fill="none" marker-end="url(#markerArrowBlock)" style="stroke-width: 2px;"></line><text x="199" y="239" text-anchor="start" style="font: 14px Menlo, Monaco, &quot;Courier New&quot;, monospace;"><tspan x="199" y="239">Transfer token_1</tspan></text><line x1="343" x2="190" y1="244" y2="244" stroke="#000000" fill="none" stroke-dasharray="6px, 2px" marker-end="url(#markerArrowBlock)" style="stroke-width: 2px;"></line><text x="46" y="272" text-anchor="start" style="font: 14px Menlo, Monaco, &quot;Courier New&quot;, monospace;"><tspan x="46" y="272">Transfer token_1</tspan></text><line x1="190" x2="36" y1="277" y2="277" stroke="#000000" fill="none" marker-end="url(#markerArrowBlock)" style="stroke-width: 2px;"></line></svg>