<?xml version="1.0" encoding="UTF-8" standalone="no"?>
<!DOCTYPE svg PUBLIC "-//W3C//DTD SVG 1.1//EN"
 "http://www.w3.org/Graphics/SVG/1.1/DTD/svg11.dtd">
<!-- Generated by graphviz version 2.44.0 (20200518.1210)
 -->
<!-- Pages: 1 -->
<svg width="791pt" height="439pt"
 viewBox="0.00 0.00 791.48 439.00" xmlns="http://www.w3.org/2000/svg" xmlns:xlink="http://www.w3.org/1999/xlink">
<g id="graph0" class="graph" transform="scale(1 1) rotate(0) translate(4 435)">
<polygon fill="white" stroke="transparent" points="-4,4 -4,-435 787.48,-435 787.48,4 -4,4"/>
<g id="clust1" class="cluster">
<title>clusterL1</title>
<polygon fill="none" stroke="green" points="223,-267 223,-423 378,-423 378,-267 223,-267"/>
<text text-anchor="middle" x="300.5" y="-410" font-family="arial" font-size="10.00" fill="grey">L1 Ethereum</text>
</g>
<g id="clust2" class="cluster">
<title>clusterL2</title>
<polygon fill="none" stroke="blue" points="62,-8 62,-248 441,-248 441,-8 62,-8"/>
<text text-anchor="middle" x="251.5" y="-235" font-family="arial" font-size="10.00" fill="grey">L2 Main chain</text>
</g>
<!-- bridge_l1 -->
<g id="node1" class="node">
<title>bridge_l1</title>
<path fill="none" stroke="black" d="M277.29,-311C277.29,-311 242.71,-311 242.71,-311 236.71,-311 230.71,-305 230.71,-299 230.71,-299 230.71,-287 230.71,-287 230.71,-281 236.71,-275 242.71,-275 242.71,-275 277.29,-275 277.29,-275 283.29,-275 289.29,-281 289.29,-287 289.29,-287 289.29,-299 289.29,-299 289.29,-305 283.29,-311 277.29,-311"/>
<text text-anchor="middle" x="260" y="-290" font-family="arial" font-size="10.00">Bridge L1</text>
</g>
<!-- bridge_l2 -->
<g id="node3" class="node">
<title>bridge_l2</title>
<path fill="none" stroke="black" d="M276.68,-220C276.68,-220 243.32,-220 243.32,-220 237.32,-220 231.32,-214 231.32,-208 231.32,-208 231.32,-196 231.32,-196 231.32,-190 237.32,-184 243.32,-184 243.32,-184 276.68,-184 276.68,-184 282.68,-184 288.68,-190 288.68,-196 288.68,-196 288.68,-208 288.68,-208 288.68,-214 282.68,-220 276.68,-220"/>
<text text-anchor="middle" x="260" y="-199" font-family="arial" font-size="10.00">bridge L2</text>
</g>
<!-- bridge_l1&#45;&gt;bridge_l2 -->
<g id="edge11" class="edge">
<title>bridge_l1&#45;&gt;bridge_l2</title>
<path fill="none" stroke="blue" d="M260,-274.84C260,-262.28 260,-244.98 260,-230.5"/>
<polygon fill="blue" stroke="blue" points="263.5,-230.11 260,-220.11 256.5,-230.11 263.5,-230.11"/>
</g>
<!-- dao -->
<g id="node2" class="node">
<title>dao</title>
<path fill="none" stroke="black" d="M273,-395C273,-395 243,-395 243,-395 237,-395 231,-389 231,-383 231,-383 231,-371 231,-371 231,-365 237,-359 243,-359 243,-359 273,-359 273,-359 279,-359 285,-365 285,-371 285,-371 285,-383 285,-383 285,-389 279,-395 273,-395"/>
<text text-anchor="middle" x="258" y="-374" font-family="arial" font-size="10.00">DAO</text>
</g>
<!-- dao&#45;&gt;bridge_l1 -->
<g id="edge1" class="edge">
<title>dao&#45;&gt;bridge_l1</title>
<path fill="none" stroke="green" d="M258.42,-358.61C258.69,-347.77 259.03,-333.6 259.33,-321.29"/>
<polygon fill="green" stroke="green" points="262.84,-321.17 259.58,-311.08 255.84,-321 262.84,-321.17"/>
<text text-anchor="middle" x="319.29" y="-332" font-family="arial" font-size="10.00" fill="green"> &#160;Set protocol parameters &#160;&#160;</text>
</g>
<!-- collections_curator -->
<g id="node4" class="node">
<title>collections_curator</title>
<path fill="none" stroke="black" d="M310.5,-136C310.5,-136 233.5,-136 233.5,-136 227.5,-136 221.5,-130 221.5,-124 221.5,-124 221.5,-112 221.5,-112 221.5,-106 227.5,-100 233.5,-100 233.5,-100 310.5,-100 310.5,-100 316.5,-100 322.5,-106 322.5,-112 322.5,-112 322.5,-124 322.5,-124 322.5,-130 316.5,-136 310.5,-136"/>
<text text-anchor="middle" x="272" y="-115" font-family="arial" font-size="10.00">Collections Curator</text>
</g>
<!-- bridge_l2&#45;&gt;collections_curator -->
<g id="edge2" class="edge">
<title>bridge_l2&#45;&gt;collections_curator</title>
<path fill="none" stroke="blue" d="M259.43,-183.93C259.41,-174.96 259.8,-163.83 261.4,-154 261.83,-151.42 262.38,-148.77 263.03,-146.13"/>
<polygon fill="blue" stroke="blue" points="266.47,-146.81 265.8,-136.23 259.73,-144.92 266.47,-146.81"/>
<text text-anchor="middle" x="333.8" y="-157" font-family="arial" font-size="10.00" fill="blue">Set protocol parameters &#160;&#160;&#160;&#160;&#160;&#160;&#160;&#160;&#160;&#160;&#160;&#160;&#160;</text>
</g>
<!-- collection_1 -->
<g id="node5" class="node">
<title>collection_1</title>
<path fill="none" stroke="black" d="M131.79,-52C131.79,-52 82.21,-52 82.21,-52 76.21,-52 70.21,-46 70.21,-40 70.21,-40 70.21,-28 70.21,-28 70.21,-22 76.21,-16 82.21,-16 82.21,-16 131.79,-16 131.79,-16 137.79,-16 143.79,-22 143.79,-28 143.79,-28 143.79,-40 143.79,-40 143.79,-46 137.79,-52 131.79,-52"/>
<text text-anchor="middle" x="107" y="-31" font-family="arial" font-size="10.00">Collection L2</text>
</g>
<!-- collections_curator&#45;&gt;collection_1 -->
<g id="edge3" class="edge">
<title>collections_curator&#45;&gt;collection_1</title>
<path fill="none" stroke="blue" d="M221.43,-110.96C183.08,-105.37 134.57,-95.84 120.09,-82 114.75,-76.89 111.52,-69.79 109.6,-62.66"/>
<polygon fill="blue" stroke="blue" points="112.95,-61.57 107.61,-52.42 106.08,-62.9 112.95,-61.57"/>
<text text-anchor="middle" x="154.45" y="-73" font-family="arial" font-size="10.00" fill="blue"> approve/reject </text>
</g>
<!-- collection_2 -->
<g id="node6" class="node">
<title>collection_2</title>
<path fill="none" stroke="black" d="M223.79,-52C223.79,-52 174.21,-52 174.21,-52 168.21,-52 162.21,-46 162.21,-40 162.21,-40 162.21,-28 162.21,-28 162.21,-22 168.21,-16 174.21,-16 174.21,-16 223.79,-16 223.79,-16 229.79,-16 235.79,-22 235.79,-28 235.79,-28 235.79,-40 235.79,-40 235.79,-46 229.79,-52 223.79,-52"/>
<text text-anchor="middle" x="199" y="-31" font-family="arial" font-size="10.00">Collection L2</text>
</g>
<!-- collections_curator&#45;&gt;collection_2 -->
<g id="edge4" class="edge">
<title>collections_curator&#45;&gt;collection_2</title>
<path fill="none" stroke="blue" d="M221.19,-102.34C212.03,-97.37 203.64,-90.76 198.09,-82 194.49,-76.3 193.3,-69.38 193.35,-62.62"/>
<polygon fill="blue" stroke="blue" points="196.87,-62.6 194.28,-52.33 189.9,-61.97 196.87,-62.6"/>
<text text-anchor="middle" x="232.45" y="-73" font-family="arial" font-size="10.00" fill="blue"> approve/reject </text>
</g>
<!-- collection_3 -->
<g id="node7" class="node">
<title>collection_3</title>
<path fill="none" stroke="black" d="M315.79,-52C315.79,-52 266.21,-52 266.21,-52 260.21,-52 254.21,-46 254.21,-40 254.21,-40 254.21,-28 254.21,-28 254.21,-22 260.21,-16 266.21,-16 266.21,-16 315.79,-16 315.79,-16 321.79,-16 327.79,-22 327.79,-28 327.79,-28 327.79,-40 327.79,-40 327.79,-46 321.79,-52 315.79,-52"/>
<text text-anchor="middle" x="291" y="-31" font-family="arial" font-size="10.00">Collection L2</text>
</g>
<!-- collections_curator&#45;&gt;collection_3 -->
<g id="edge5" class="edge">
<title>collections_curator&#45;&gt;collection_3</title>
<path fill="none" stroke="blue" d="M270.58,-99.78C270.29,-90.78 270.65,-79.65 273.09,-70 273.82,-67.15 274.8,-64.26 275.95,-61.44"/>
<polygon fill="blue" stroke="blue" points="279.2,-62.73 280.27,-52.19 272.86,-59.77 279.2,-62.73"/>
<text text-anchor="middle" x="307.45" y="-73" font-family="arial" font-size="10.00" fill="blue"> approve/reject </text>
</g>
<!-- collection_4 -->
<g id="node8" class="node">
<title>collection_4</title>
<path fill="none" stroke="black" d="M407.79,-52C407.79,-52 358.21,-52 358.21,-52 352.21,-52 346.21,-46 346.21,-40 346.21,-40 346.21,-28 346.21,-28 346.21,-22 352.21,-16 358.21,-16 358.21,-16 407.79,-16 407.79,-16 413.79,-16 419.79,-22 419.79,-28 419.79,-28 419.79,-40 419.79,-40 419.79,-46 413.79,-52 407.79,-52"/>
<text text-anchor="middle" x="383" y="-31" font-family="arial" font-size="10.00">Collection L2</text>
</g>
<!-- collections_curator&#45;&gt;collection_4 -->
<g id="edge6" class="edge">
<title>collections_curator&#45;&gt;collection_4</title>
<path fill="none" stroke="blue" d="M312.84,-99.92C322.84,-94.86 333.19,-88.82 342,-82 350.05,-75.77 357.72,-67.78 364.19,-60.16"/>
<polygon fill="blue" stroke="blue" points="367.12,-62.1 370.72,-52.14 361.7,-57.69 367.12,-62.1"/>
<text text-anchor="middle" x="388.45" y="-73" font-family="arial" font-size="10.00" fill="blue"> approve/reject </text>
</g>
<!-- creator_1 -->
<g id="node9" class="node">
<title>creator_1</title>
<path fill="none" stroke="black" d="M42,-220C42,-220 12,-220 12,-220 6,-220 0,-214 0,-208 0,-208 0,-196 0,-196 0,-190 6,-184 12,-184 12,-184 42,-184 42,-184 48,-184 54,-190 54,-196 54,-196 54,-208 54,-208 54,-214 48,-220 42,-220"/>
<text text-anchor="middle" x="27" y="-199" font-family="arial" font-size="10.00">creator</text>
</g>
<!-- creator_1&#45;&gt;collections_curator -->
<g id="edge7" class="edge">
<title>creator_1&#45;&gt;collections_curator</title>
<path fill="none" stroke="black" d="M54.25,-185.72C55.51,-185.12 56.76,-184.54 58,-184 108.13,-161.96 167.96,-144.48 211.6,-133.22"/>
<polygon fill="black" stroke="black" points="212.66,-136.56 221.49,-130.71 210.94,-129.78 212.66,-136.56"/>
<text text-anchor="middle" x="192.74" y="-157" font-family="arial" font-size="10.00"> &#160;Publish/Vote/Challenge</text>
</g>
<!-- creator_2 -->
<g id="node10" class="node">
<title>creator_2</title>
<path fill="none" stroke="black" d="M491,-220C491,-220 461,-220 461,-220 455,-220 449,-214 449,-208 449,-208 449,-196 449,-196 449,-190 455,-184 461,-184 461,-184 491,-184 491,-184 497,-184 503,-190 503,-196 503,-196 503,-208 503,-208 503,-214 497,-220 491,-220"/>
<text text-anchor="middle" x="476" y="-199" font-family="arial" font-size="10.00">creator</text>
</g>
<!-- creator_2&#45;&gt;collections_curator -->
<g id="edge8" class="edge">
<title>creator_2&#45;&gt;collections_curator</title>
<path fill="none" stroke="black" d="M455.08,-183.94C441.95,-173.97 424.29,-161.84 407,-154 383.65,-143.41 356.53,-135.59 332.74,-130.07"/>
<polygon fill="black" stroke="black" points="333.3,-126.61 322.77,-127.84 331.77,-133.44 333.3,-126.61"/>
<text text-anchor="middle" x="483.74" y="-157" font-family="arial" font-size="10.00"> &#160;Publish/Vote/Challenge</text>
</g>
<!-- creator_3 -->
<g id="node11" class="node">
<title>creator_3</title>
<path fill="none" stroke="black" d="M576,-220C576,-220 546,-220 546,-220 540,-220 534,-214 534,-208 534,-208 534,-196 534,-196 534,-190 540,-184 546,-184 546,-184 576,-184 576,-184 582,-184 588,-190 588,-196 588,-196 588,-208 588,-208 588,-214 582,-220 576,-220"/>
<text text-anchor="middle" x="561" y="-199" font-family="arial" font-size="10.00">creator</text>
</g>
<!-- creator_3&#45;&gt;collections_curator -->
<g id="edge9" class="edge">
<title>creator_3&#45;&gt;collections_curator</title>
<path fill="none" stroke="black" d="M557.27,-183.54C554.15,-173.3 548.6,-161.02 539,-154 507.19,-130.73 401.48,-122.93 333,-120.32"/>
<polygon fill="black" stroke="black" points="332.88,-116.81 322.76,-119.95 332.63,-123.8 332.88,-116.81"/>
<text text-anchor="middle" x="603.74" y="-157" font-family="arial" font-size="10.00"> &#160;Publish/Vote/Challenge</text>
</g>
<!-- creator_4 -->
<g id="node12" class="node">
<title>creator_4</title>
<path fill="none" stroke="black" d="M708,-220C708,-220 678,-220 678,-220 672,-220 666,-214 666,-208 666,-208 666,-196 666,-196 666,-190 672,-184 678,-184 678,-184 708,-184 708,-184 714,-184 720,-190 720,-196 720,-196 720,-208 720,-208 720,-214 714,-220 708,-220"/>
<text text-anchor="middle" x="693" y="-199" font-family="arial" font-size="10.00">creator</text>
</g>
<!-- creator_4&#45;&gt;collections_curator -->
<g id="edge10" class="edge">
<title>creator_4&#45;&gt;collections_curator</title>
<path fill="none" stroke="black" d="M686.25,-183.73C681.21,-173.28 673.24,-160.72 662,-154 608.02,-121.74 428.37,-117.83 332.89,-118.14"/>
<polygon fill="black" stroke="black" points="332.78,-114.64 322.79,-118.19 332.81,-121.64 332.78,-114.64"/>
<text text-anchor="middle" x="728.74" y="-157" font-family="arial" font-size="10.00"> &#160;Publish/Vote/Challenge</text>
</g>
</g>
</svg>
