<?xml version="1.0" encoding="UTF-8"?>
<!DOCTYPE svg PUBLIC "-//W3C//DTD SVG 1.1//EN" "http://www.w3.org/Graphics/SVG/1.1/DTD/svg11.dtd">
<svg width="1498" height="394" xmlns="http://www.w3.org/2000/svg" x-original-source="participant User_1
participant User_2
participant User_3
participant L1_DAO
participant L1_Bridge
participant L2_Bridge
participant L2_Committee

User_1->L1_DAO: Create vote to add/remove someone from the committee: Vote_1
User_2->L1_DAO: Vote &quot;Yes&quot; on Vote_1
User_3->L1_DAO: Vote &quot;Yes&quot; on Vote_1
L1_DAO-->L1_DAO: Vote_1 passed
User_1->L1_DAO: Enact Vote_1 lock
L1_DAO->L1_Bridge: Add/Remove someone from the committee
L1_Bridge->L2_Bridge: Add/Remove someone from the committee
L2_Bridge->L2_Committee: Add/Remove someone"><defs><marker viewBox="0 0 5 5" markerWidth="5" markerHeight="5" orient="auto" refX="5" refY="2.5" id="markerArrowBlock"><path d="M 0 0 L 5 2.5 L 0 5 z"></path></marker><marker viewBox="0 0 9.6 16" markerWidth="4" markerHeight="16" orient="auto" refX="9.6" refY="8" id="markerArrowOpen"><path d="M 9.6,8 1.92,16 0,13.7 5.76,8 0,2.286 1.92,0 9.6,8 z"></path></marker></defs><rect x="10" y="10" width="71" height="34" stroke="#000000" fill="#ffffff" style="stroke-width: 2px;"></rect><text x="20" y="33" text-anchor="start" style="font: 14px Menlo, Monaco, &quot;Courier New&quot;, monospace;"><tspan x="20" y="33">User_1</tspan></text><rect x="10" y="330" width="71" height="34" stroke="#000000" fill="#ffffff" style="stroke-width: 2px;"></rect><text x="20" y="353" text-anchor="start" style="font: 14px Menlo, Monaco, &quot;Courier New&quot;, monospace;"><tspan x="20" y="353">User_1</tspan></text><line x1="45" x2="45" y1="44" y2="330" stroke="#000000" fill="none" style="stroke-width: 2px;"></line><rect x="101" y="10" width="71" height="34" stroke="#000000" fill="#ffffff" style="stroke-width: 2px;"></rect><text x="111" y="33" text-anchor="start" style="font: 14px Menlo, Monaco, &quot;Courier New&quot;, monospace;"><tspan x="111" y="33">User_2</tspan></text><rect x="101" y="330" width="71" height="34" stroke="#000000" fill="#ffffff" style="stroke-width: 2px;"></rect><text x="111" y="353" text-anchor="start" style="font: 14px Menlo, Monaco, &quot;Courier New&quot;, monospace;"><tspan x="111" y="353">User_2</tspan></text><line x1="136" x2="136" y1="44" y2="330" stroke="#000000" fill="none" style="stroke-width: 2px;"></line><rect x="192" y="10" width="71" height="34" stroke="#000000" fill="#ffffff" style="stroke-width: 2px;"></rect><text x="202" y="33" text-anchor="start" style="font: 14px Menlo, Monaco, &quot;Courier New&quot;, monospace;"><tspan x="202" y="33">User_3</tspan></text><rect x="192" y="330" width="71" height="34" stroke="#000000" fill="#ffffff" style="stroke-width: 2px;"></rect><text x="202" y="353" text-anchor="start" style="font: 14px Menlo, Monaco, &quot;Courier New&quot;, monospace;"><tspan x="202" y="353">User_3</tspan></text><line x1="227" x2="227" y1="44" y2="330" stroke="#000000" fill="none" style="stroke-width: 2px;"></line><rect x="536" y="10" width="71" height="34" stroke="#000000" fill="#ffffff" style="stroke-width: 2px;"></rect><text x="546" y="33" text-anchor="start" style="font: 14px Menlo, Monaco, &quot;Courier New&quot;, monospace;"><tspan x="546" y="33">L1_DAO</tspan></text><rect x="536" y="330" width="71" height="34" stroke="#000000" fill="#ffffff" style="stroke-width: 2px;"></rect><text x="546" y="353" text-anchor="start" style="font: 14px Menlo, Monaco, &quot;Courier New&quot;, monospace;"><tspan x="546" y="353">L1_DAO</tspan></text><line x1="571" x2="571" y1="44" y2="330" stroke="#000000" fill="none" style="stroke-width: 2px;"></line><rect x="855" y="10" width="96" height="34" stroke="#000000" fill="#ffffff" style="stroke-width: 2px;"></rect><text x="865" y="34" text-anchor="start" style="font: 14px Menlo, Monaco, &quot;Courier New&quot;, monospace;"><tspan x="865" y="34">L1_Bridge</tspan></text><rect x="855" y="330" width="96" height="34" stroke="#000000" fill="#ffffff" style="stroke-width: 2px;"></rect><text x="865" y="354" text-anchor="start" style="font: 14px Menlo, Monaco, &quot;Courier New&quot;, monospace;"><tspan x="865" y="354">L1_Bridge</tspan></text><line x1="903" x2="903" y1="44" y2="330" stroke="#000000" fill="none" style="stroke-width: 2px;"></line><rect x="1187" y="10" width="96" height="34" stroke="#000000" fill="#ffffff" style="stroke-width: 2px;"></rect><text x="1197" y="34" text-anchor="start" style="font: 14px Menlo, Monaco, &quot;Courier New&quot;, monospace;"><tspan x="1197" y="34">L2_Bridge</tspan></text><rect x="1187" y="330" width="96" height="34" stroke="#000000" fill="#ffffff" style="stroke-width: 2px;"></rect><text x="1197" y="354" text-anchor="start" style="font: 14px Menlo, Monaco, &quot;Courier New&quot;, monospace;"><tspan x="1197" y="354">L2_Bridge</tspan></text><line x1="1235" x2="1235" y1="44" y2="330" stroke="#000000" fill="none" style="stroke-width: 2px;"></line><rect x="1346" y="10" width="122" height="34" stroke="#000000" fill="#ffffff" style="stroke-width: 2px;"></rect><text x="1356" y="34" text-anchor="start" style="font: 14px Menlo, Monaco, &quot;Courier New&quot;, monospace;"><tspan x="1356" y="34">L2_Committee</tspan></text><rect x="1346" y="330" width="122" height="34" stroke="#000000" fill="#ffffff" style="stroke-width: 2px;"></rect><text x="1356" y="354" text-anchor="start" style="font: 14px Menlo, Monaco, &quot;Courier New&quot;, monospace;"><tspan x="1356" y="354">L2_Committee</tspan></text><line x1="1407" x2="1407" y1="44" y2="330" stroke="#000000" fill="none" style="stroke-width: 2px;"></line><text x="55" y="78" text-anchor="start" style="font: 14px Menlo, Monaco, &quot;Courier New&quot;, monospace;"><tspan x="55" y="78">Create vote to add/remove someone from the committee: Vote_1</tspan></text><line x1="45" x2="571" y1="83" y2="83" stroke="#000000" fill="none" marker-end="url(#markerArrowBlock)" style="stroke-width: 2px;"></line><text x="269" y="112" text-anchor="start" style="font: 14px Menlo, Monaco, &quot;Courier New&quot;, monospace;"><tspan x="269" y="112">Vote "Yes" on Vote_1</tspan></text><line x1="136" x2="571" y1="117" y2="117" stroke="#000000" fill="none" marker-end="url(#markerArrowBlock)" style="stroke-width: 2px;"></line><text x="315" y="146" text-anchor="start" style="font: 14px Menlo, Monaco, &quot;Courier New&quot;, monospace;"><tspan x="315" y="146">Vote "Yes" on Vote_1</tspan></text><line x1="227" x2="571" y1="151" y2="151" stroke="#000000" fill="none" marker-end="url(#markerArrowBlock)" style="stroke-width: 2px;"></line><line x1="571" x2="591" y1="166" y2="166" stroke="#000000" fill="none" stroke-dasharray="6px, 2px" style="stroke-width: 2px;"></line><line x1="591" x2="591" y1="166" y2="185" stroke="#000000" fill="none" stroke-dasharray="6px, 2px" style="stroke-width: 2px;"></line><line x1="591" x2="571" y1="185" y2="185" stroke="#000000" fill="none" stroke-dasharray="6px, 2px" marker-end="url(#markerArrowBlock)" style="stroke-width: 2px;"></line><text x="596" y="182" text-anchor="start" style="font: 14px Menlo, Monaco, &quot;Courier New&quot;, monospace;"><tspan x="596" y="182">Vote_1 passed</tspan></text><text x="236" y="214" text-anchor="start" style="font: 14px Menlo, Monaco, &quot;Courier New&quot;, monospace;"><tspan x="236" y="214">Enact Vote_1 lock</tspan></text><line x1="45" x2="571" y1="219" y2="219" stroke="#000000" fill="none" marker-end="url(#markerArrowBlock)" style="stroke-width: 2px;"></line><text x="581" y="246" text-anchor="start" style="font: 14px Menlo, Monaco, &quot;Courier New&quot;, monospace;"><tspan x="581" y="246">Add/Remove someone from the committee</tspan></text><line x1="571" x2="903" y1="251" y2="251" stroke="#000000" fill="none" marker-end="url(#markerArrowBlock)" style="stroke-width: 2px;"></line><text x="913" y="278" text-anchor="start" style="font: 14px Menlo, Monaco, &quot;Courier New&quot;, monospace;"><tspan x="913" y="278">Add/Remove someone from the committee</tspan></text><line x1="903" x2="1235" y1="283" y2="283" stroke="#000000" fill="none" marker-end="url(#markerArrowBlock)" style="stroke-width: 2px;"></line><text x="1245" y="310" text-anchor="start" style="font: 14px Menlo, Monaco, &quot;Courier New&quot;, monospace;"><tspan x="1245" y="310">Add/Remove someone</tspan></text><line x1="1235" x2="1407" y1="315" y2="315" stroke="#000000" fill="none" marker-end="url(#markerArrowBlock)" style="stroke-width: 2px;"></line></svg>