<?xml version="1.0" encoding="UTF-8"?>
<!DOCTYPE svg PUBLIC "-//W3C//DTD SVG 1.1//EN" "http://www.w3.org/Graphics/SVG/1.1/DTD/svg11.dtd">
<svg width="910" height="378" xmlns="http://www.w3.org/2000/svg" x-original-source="participant Curator
participant TP_Contract
participant Builder_UI
participant Builder_Server
participant Catalyst

Curator->Builder_UI: Get all the items to curate
Builder_UI -> Builder_Server: Fetch items
Builder_UI -> Builder_UI: Check items to be curated
Builder_UI -> Builder_UI: Generate merkle tree
Curator->TP_Contract: Send a transaction to submit\n the merkle tree root
Note over Curator: Loop x times
Curator->Catalyst: Deploy an item"><defs><marker viewBox="0 0 5 5" markerWidth="5" markerHeight="5" orient="auto" refX="5" refY="2.5" id="markerArrowBlock"><path d="M 0 0 L 5 2.5 L 0 5 z"></path></marker><marker viewBox="0 0 9.6 16" markerWidth="4" markerHeight="16" orient="auto" refX="9.6" refY="8" id="markerArrowOpen"><path d="M 9.6,8 1.92,16 0,13.7 5.76,8 0,2.286 1.92,0 9.6,8 z"></path></marker></defs><rect x="26" y="10" width="80" height="34" stroke="#000000" fill="#ffffff" style="stroke-width: 2px;"></rect><text x="36" y="32" text-anchor="start" style="font: 14px Menlo, Monaco, &quot;Courier New&quot;, monospace;"><tspan x="36" y="32">Curator</tspan></text><rect x="26" y="314" width="80" height="34" stroke="#000000" fill="#ffffff" style="stroke-width: 2px;"></rect><text x="36" y="336" text-anchor="start" style="font: 14px Menlo, Monaco, &quot;Courier New&quot;, monospace;"><tspan x="36" y="336">Curator</tspan></text><line x1="66" x2="66" y1="44" y2="314" stroke="#000000" fill="none" style="stroke-width: 2px;"></line><rect x="266" y="10" width="113" height="34" stroke="#000000" fill="#ffffff" style="stroke-width: 2px;"></rect><text x="276" y="33" text-anchor="start" style="font: 14px Menlo, Monaco, &quot;Courier New&quot;, monospace;"><tspan x="276" y="33">TP_Contract</tspan></text><rect x="266" y="314" width="113" height="34" stroke="#000000" fill="#ffffff" style="stroke-width: 2px;"></rect><text x="276" y="337" text-anchor="start" style="font: 14px Menlo, Monaco, &quot;Courier New&quot;, monospace;"><tspan x="276" y="337">TP_Contract</tspan></text><line x1="322" x2="322" y1="44" y2="314" stroke="#000000" fill="none" style="stroke-width: 2px;"></line><rect x="399" y="10" width="105" height="34" stroke="#000000" fill="#ffffff" style="stroke-width: 2px;"></rect><text x="409" y="34" text-anchor="start" style="font: 14px Menlo, Monaco, &quot;Courier New&quot;, monospace;"><tspan x="409" y="34">Builder_UI</tspan></text><rect x="399" y="314" width="105" height="34" stroke="#000000" fill="#ffffff" style="stroke-width: 2px;"></rect><text x="409" y="338" text-anchor="start" style="font: 14px Menlo, Monaco, &quot;Courier New&quot;, monospace;"><tspan x="409" y="338">Builder_UI</tspan></text><line x1="451" x2="451" y1="44" y2="314" stroke="#000000" fill="none" style="stroke-width: 2px;"></line><rect x="633" y="10" width="139" height="34" stroke="#000000" fill="#ffffff" style="stroke-width: 2px;"></rect><text x="643" y="34" text-anchor="start" style="font: 14px Menlo, Monaco, &quot;Courier New&quot;, monospace;"><tspan x="643" y="34">Builder_Server</tspan></text><rect x="633" y="314" width="139" height="34" stroke="#000000" fill="#ffffff" style="stroke-width: 2px;"></rect><text x="643" y="338" text-anchor="start" style="font: 14px Menlo, Monaco, &quot;Courier New&quot;, monospace;"><tspan x="643" y="338">Builder_Server</tspan></text><line x1="702" x2="702" y1="44" y2="314" stroke="#000000" fill="none" style="stroke-width: 2px;"></line><rect x="792" y="10" width="88" height="34" stroke="#000000" fill="#ffffff" style="stroke-width: 2px;"></rect><text x="802" y="34" text-anchor="start" style="font: 14px Menlo, Monaco, &quot;Courier New&quot;, monospace;"><tspan x="802" y="34">Catalyst</tspan></text><rect x="792" y="314" width="88" height="34" stroke="#000000" fill="#ffffff" style="stroke-width: 2px;"></rect><text x="802" y="338" text-anchor="start" style="font: 14px Menlo, Monaco, &quot;Courier New&quot;, monospace;"><tspan x="802" y="338">Catalyst</tspan></text><line x1="836" x2="836" y1="44" y2="314" stroke="#000000" fill="none" style="stroke-width: 2px;"></line><text x="144" y="75" text-anchor="start" style="font: 14px Menlo, Monaco, &quot;Courier New&quot;, monospace;"><tspan x="144" y="75">Get all the items to curate</tspan></text><line x1="66" x2="451" y1="80" y2="80" stroke="#000000" fill="none" marker-end="url(#markerArrowBlock)" style="stroke-width: 2px;"></line><text x="530" y="106" text-anchor="start" style="font: 14px Menlo, Monaco, &quot;Courier New&quot;, monospace;"><tspan x="530" y="106">Fetch items</tspan></text><line x1="451" x2="702" y1="111" y2="111" stroke="#000000" fill="none" marker-end="url(#markerArrowBlock)" style="stroke-width: 2px;"></line><line x1="451" x2="471" y1="126" y2="126" stroke="#000000" fill="none" style="stroke-width: 2px;"></line><line x1="471" x2="471" y1="126" y2="142" stroke="#000000" fill="none" style="stroke-width: 2px;"></line><line x1="471" x2="451" y1="142" y2="142" stroke="#000000" fill="none" marker-end="url(#markerArrowBlock)" style="stroke-width: 2px;"></line><text x="476" y="139" text-anchor="start" style="font: 14px Menlo, Monaco, &quot;Courier New&quot;, monospace;"><tspan x="476" y="139">Check items to be curated</tspan></text><line x1="451" x2="471" y1="157" y2="157" stroke="#000000" fill="none" style="stroke-width: 2px;"></line><line x1="471" x2="471" y1="157" y2="173" stroke="#000000" fill="none" style="stroke-width: 2px;"></line><line x1="471" x2="451" y1="173" y2="173" stroke="#000000" fill="none" marker-end="url(#markerArrowBlock)" style="stroke-width: 2px;"></line><text x="476" y="170" text-anchor="start" style="font: 14px Menlo, Monaco, &quot;Courier New&quot;, monospace;"><tspan x="476" y="170">Generate merkle tree</tspan></text><text x="75" y="199" text-anchor="start" style="font: 14px Menlo, Monaco, &quot;Courier New&quot;, monospace;"><tspan x="75" y="199">Send a transaction to submit</tspan><tspan x="75" dy="1.2em"> the merkle tree root</tspan></text><line x1="66" x2="322" y1="221" y2="221" stroke="#000000" fill="none" marker-end="url(#markerArrowBlock)" style="stroke-width: 2px;"></line><rect x="10" y="236" width="112" height="24" stroke="#000000" fill="#ffffff" style="stroke-width: 2px;"></rect><text x="15" y="255" text-anchor="start" style="font: 14px Menlo, Monaco, &quot;Courier New&quot;, monospace;"><tspan x="15" y="255">Loop x times</tspan></text><text x="391" y="294" text-anchor="start" style="font: 14px Menlo, Monaco, &quot;Courier New&quot;, monospace;"><tspan x="391" y="294">Deploy an item</tspan></text><line x1="66" x2="836" y1="299" y2="299" stroke="#000000" fill="none" marker-end="url(#markerArrowBlock)" style="stroke-width: 2px;"></line></svg>