<?xml version="1.0" encoding="UTF-8"?>
<!DOCTYPE svg PUBLIC "-//W3C//DTD SVG 1.1//EN" "http://www.w3.org/Graphics/SVG/1.1/DTD/svg11.dtd">
<svg width="604" height="255" xmlns="http://www.w3.org/2000/svg" x-original-source="participant Creator
participant TP_Contract
participant Builder_UI
participant Builder_Server

Creator->Builder_UI: Get all the items 
Builder_UI -> Builder_Server: Fetch items
Builder_UI -> Builder_UI: Generate merkle tree
Creator->Builder_Server: Send a signed message to review x items"><defs><marker viewBox="0 0 5 5" markerWidth="5" markerHeight="5" orient="auto" refX="5" refY="2.5" id="markerArrowBlock"><path d="M 0 0 L 5 2.5 L 0 5 z"></path></marker><marker viewBox="0 0 9.6 16" markerWidth="4" markerHeight="16" orient="auto" refX="9.6" refY="8" id="markerArrowOpen"><path d="M 9.6,8 1.92,16 0,13.7 5.76,8 0,2.286 1.92,0 9.6,8 z"></path></marker></defs><rect x="10" y="10" width="80" height="34" stroke="#000000" fill="#ffffff" style="stroke-width: 2px;"></rect><text x="20" y="32" text-anchor="start" style="font: 14px Menlo, Monaco, &quot;Courier New&quot;, monospace;"><tspan x="20" y="32">Creator</tspan></text><rect x="10" y="191" width="80" height="34" stroke="#000000" fill="#ffffff" style="stroke-width: 2px;"></rect><text x="20" y="213" text-anchor="start" style="font: 14px Menlo, Monaco, &quot;Courier New&quot;, monospace;"><tspan x="20" y="213">Creator</tspan></text><line x1="50" x2="50" y1="44" y2="191" stroke="#000000" fill="none" style="stroke-width: 2px;"></line><rect x="110" y="10" width="113" height="34" stroke="#000000" fill="#ffffff" style="stroke-width: 2px;"></rect><text x="120" y="33" text-anchor="start" style="font: 14px Menlo, Monaco, &quot;Courier New&quot;, monospace;"><tspan x="120" y="33">TP_Contract</tspan></text><rect x="110" y="191" width="113" height="34" stroke="#000000" fill="#ffffff" style="stroke-width: 2px;"></rect><text x="120" y="214" text-anchor="start" style="font: 14px Menlo, Monaco, &quot;Courier New&quot;, monospace;"><tspan x="120" y="214">TP_Contract</tspan></text><line x1="166" x2="166" y1="44" y2="191" stroke="#000000" fill="none" style="stroke-width: 2px;"></line><rect x="243" y="10" width="105" height="34" stroke="#000000" fill="#ffffff" style="stroke-width: 2px;"></rect><text x="253" y="34" text-anchor="start" style="font: 14px Menlo, Monaco, &quot;Courier New&quot;, monospace;"><tspan x="253" y="34">Builder_UI</tspan></text><rect x="243" y="191" width="105" height="34" stroke="#000000" fill="#ffffff" style="stroke-width: 2px;"></rect><text x="253" y="215" text-anchor="start" style="font: 14px Menlo, Monaco, &quot;Courier New&quot;, monospace;"><tspan x="253" y="215">Builder_UI</tspan></text><line x1="295" x2="295" y1="44" y2="191" stroke="#000000" fill="none" style="stroke-width: 2px;"></line><rect x="435" y="10" width="139" height="34" stroke="#000000" fill="#ffffff" style="stroke-width: 2px;"></rect><text x="445" y="34" text-anchor="start" style="font: 14px Menlo, Monaco, &quot;Courier New&quot;, monospace;"><tspan x="445" y="34">Builder_Server</tspan></text><rect x="435" y="191" width="139" height="34" stroke="#000000" fill="#ffffff" style="stroke-width: 2px;"></rect><text x="445" y="215" text-anchor="start" style="font: 14px Menlo, Monaco, &quot;Courier New&quot;, monospace;"><tspan x="445" y="215">Builder_Server</tspan></text><line x1="504" x2="504" y1="44" y2="191" stroke="#000000" fill="none" style="stroke-width: 2px;"></line><text x="100" y="75" text-anchor="start" style="font: 14px Menlo, Monaco, &quot;Courier New&quot;, monospace;"><tspan x="100" y="75">Get all the items</tspan></text><line x1="50" x2="295" y1="80" y2="80" stroke="#000000" fill="none" marker-end="url(#markerArrowBlock)" style="stroke-width: 2px;"></line><text x="353" y="106" text-anchor="start" style="font: 14px Menlo, Monaco, &quot;Courier New&quot;, monospace;"><tspan x="353" y="106">Fetch items</tspan></text><line x1="295" x2="504" y1="111" y2="111" stroke="#000000" fill="none" marker-end="url(#markerArrowBlock)" style="stroke-width: 2px;"></line><line x1="295" x2="315" y1="126" y2="126" stroke="#000000" fill="none" style="stroke-width: 2px;"></line><line x1="315" x2="315" y1="126" y2="142" stroke="#000000" fill="none" style="stroke-width: 2px;"></line><line x1="315" x2="295" y1="142" y2="142" stroke="#000000" fill="none" marker-end="url(#markerArrowBlock)" style="stroke-width: 2px;"></line><text x="320" y="139" text-anchor="start" style="font: 14px Menlo, Monaco, &quot;Courier New&quot;, monospace;"><tspan x="320" y="139">Generate merkle tree</tspan></text><text x="112" y="171" text-anchor="start" style="font: 14px Menlo, Monaco, &quot;Courier New&quot;, monospace;"><tspan x="112" y="171">Send a signed message to review x items</tspan></text><line x1="50" x2="504" y1="176" y2="176" stroke="#000000" fill="none" marker-end="url(#markerArrowBlock)" style="stroke-width: 2px;"></line></svg>