<?xml version="1.0" encoding="UTF-8"?>
<!DOCTYPE svg PUBLIC "-//W3C//DTD SVG 1.1//EN" "http://www.w3.org/Graphics/SVG/1.1/DTD/svg11.dtd">
<svg width="684" height="442" xmlns="http://www.w3.org/2000/svg" x-original-source="kernel->website: [stage: loading, signing: false]
Note over website: LoadingContainer
User->website: *Play*
Note over website: WalletSelector
User->website: *Selects provider*
website->kernel: [type:[AUTHENTICATE], payload: {provider}]
kernel->website: [signing: true]
Note over website: Spinner in WalletSelector
Note over kernel: Start Experience"><defs><marker viewBox="0 0 5 5" markerWidth="5" markerHeight="5" orient="auto" refX="5" refY="2.5" id="markerArrowBlock"><path d="M 0 0 L 5 2.5 L 0 5 z"></path></marker><marker viewBox="0 0 9.6 16" markerWidth="4" markerHeight="16" orient="auto" refX="9.6" refY="8" id="markerArrowOpen"><path d="M 9.6,8 1.92,16 0,13.7 5.76,8 0,2.286 1.92,0 9.6,8 z"></path></marker></defs><rect x="47" y="10" width="71" height="29" stroke="#000000" fill="#ffffff" style="stroke-width: 2px;"></rect><text x="57" y="29" text-anchor="start" style="font: 14px Menlo, Monaco, &quot;Courier New&quot;, monospace;"><tspan x="57" y="29">kernel</tspan></text><rect x="47" y="383" width="71" height="29" stroke="#000000" fill="#ffffff" style="stroke-width: 2px;"></rect><text x="57" y="402" text-anchor="start" style="font: 14px Menlo, Monaco, &quot;Courier New&quot;, monospace;"><tspan x="57" y="402">kernel</tspan></text><line x1="82" x2="82" y1="39" y2="383" stroke="#000000" fill="none" style="stroke-width: 2px;"></line><rect x="416" y="10" width="79" height="29" stroke="#000000" fill="#ffffff" style="stroke-width: 2px;"></rect><text x="426" y="29" text-anchor="start" style="font: 14px Menlo, Monaco, &quot;Courier New&quot;, monospace;"><tspan x="426" y="29">website</tspan></text><rect x="416" y="383" width="79" height="29" stroke="#000000" fill="#ffffff" style="stroke-width: 2px;"></rect><text x="426" y="402" text-anchor="start" style="font: 14px Menlo, Monaco, &quot;Courier New&quot;, monospace;"><tspan x="426" y="402">website</tspan></text><line x1="455" x2="455" y1="39" y2="383" stroke="#000000" fill="none" style="stroke-width: 2px;"></line><rect x="600" y="10" width="54" height="29" stroke="#000000" fill="#ffffff" style="stroke-width: 2px;"></rect><text x="610" y="28" text-anchor="start" style="font: 14px Menlo, Monaco, &quot;Courier New&quot;, monospace;"><tspan x="610" y="28">User</tspan></text><rect x="600" y="383" width="54" height="29" stroke="#000000" fill="#ffffff" style="stroke-width: 2px;"></rect><text x="610" y="401" text-anchor="start" style="font: 14px Menlo, Monaco, &quot;Courier New&quot;, monospace;"><tspan x="610" y="401">User</tspan></text><line x1="627" x2="627" y1="39" y2="383" stroke="#000000" fill="none" style="stroke-width: 2px;"></line><text x="134" y="71" text-anchor="start" style="font: 14px Menlo, Monaco, &quot;Courier New&quot;, monospace;"><tspan x="134" y="71">[stage: loading, signing: false]</tspan></text><line x1="82" x2="455" y1="76" y2="76" stroke="#000000" fill="none" marker-end="url(#markerArrowBlock)" style="stroke-width: 2px;"></line><rect x="383" y="91" width="145" height="22" stroke="#000000" fill="#ffffff" style="stroke-width: 2px;"></rect><text x="388" y="108" text-anchor="start" style="font: 14px Menlo, Monaco, &quot;Courier New&quot;, monospace;"><tspan x="388" y="108">LoadingContainer</tspan></text><text x="515" y="145" text-anchor="start" style="font: 14px Menlo, Monaco, &quot;Courier New&quot;, monospace;"><tspan x="515" y="145">*Play*</tspan></text><line x1="627" x2="455" y1="150" y2="150" stroke="#000000" fill="none" marker-end="url(#markerArrowBlock)" style="stroke-width: 2px;"></line><rect x="391" y="165" width="128" height="19" stroke="#000000" fill="#ffffff" style="stroke-width: 2px;"></rect><text x="396" y="179" text-anchor="start" style="font: 14px Menlo, Monaco, &quot;Courier New&quot;, monospace;"><tspan x="396" y="179">WalletSelector</tspan></text><text x="465" y="216" text-anchor="start" style="font: 14px Menlo, Monaco, &quot;Courier New&quot;, monospace;"><tspan x="465" y="216">*Selects provider*</tspan></text><line x1="627" x2="455" y1="221" y2="221" stroke="#000000" fill="none" marker-end="url(#markerArrowBlock)" style="stroke-width: 2px;"></line><text x="92" y="248" text-anchor="start" style="font: 14px Menlo, Monaco, &quot;Courier New&quot;, monospace;"><tspan x="92" y="248">[type:[AUTHENTICATE], payload: {provider}]</tspan></text><line x1="455" x2="82" y1="253" y2="253" stroke="#000000" fill="none" marker-end="url(#markerArrowBlock)" style="stroke-width: 2px;"></line><text x="205" y="280" text-anchor="start" style="font: 14px Menlo, Monaco, &quot;Courier New&quot;, monospace;"><tspan x="205" y="280">[signing: true]</tspan></text><line x1="82" x2="455" y1="285" y2="285" stroke="#000000" fill="none" marker-end="url(#markerArrowBlock)" style="stroke-width: 2px;"></line><rect x="345" y="300" width="221" height="22" stroke="#000000" fill="#ffffff" style="stroke-width: 2px;"></rect><text x="350" y="317" text-anchor="start" style="font: 14px Menlo, Monaco, &quot;Courier New&quot;, monospace;"><tspan x="350" y="317">Spinner in WalletSelector</tspan></text><rect x="10" y="342" width="145" height="21" stroke="#000000" fill="#ffffff" style="stroke-width: 2px;"></rect><text x="15" y="358" text-anchor="start" style="font: 14px Menlo, Monaco, &quot;Courier New&quot;, monospace;"><tspan x="15" y="358">Start Experience</tspan></text></svg>