<!--?xml version="1.0" encoding="UTF-8" standalone="no"?-->

<!-- Generated by graphviz version 2.44.0 (20200518.1210)
 -->
<!-- Title: G Pages: 1 -->
<svg width="144pt" height="222pt" viewBox="0.00 0.00 143.74 221.60" xmlns="http://www.w3.org/2000/svg" xmlns:xlink="http://www.w3.org/1999/xlink">
<g id="graph0" class="graph" transform="scale(1 1) rotate(0) translate(4 217.6)">
<title>G</title>
<polygon fill="white" stroke="transparent" points="-4,4 -4,-217.6 139.74,-217.6 139.74,4 -4,4"></polygon>
<!-- HUDFactory -->
<g id="node1" class="node">
<title>HUDFactory</title>
<polygon fill="none" stroke="black" points="112.45,-124.8 23.29,-124.8 23.29,-88.8 112.45,-88.8 112.45,-124.8"></polygon>
<text text-anchor="middle" x="67.87" y="-102.6" font-family="Times,serif" font-size="14.00">HUDFactory</text>
</g>
<!-- IHUDFactory -->
<g id="node2" class="node">
<title>IHUDFactory</title>
<polygon fill="none" stroke="black" points="114.61,-213.6 21.13,-213.6 21.13,-177.6 114.61,-177.6 114.61,-213.6"></polygon>
<text text-anchor="middle" x="67.87" y="-191.4" font-family="Times,serif" font-size="14.00">IHUDFactory</text>
</g>
<!-- HUDFactory&#45;&gt;IHUDFactory -->
<g id="edge1" class="edge">
<title>HUDFactory-&gt;IHUDFactory</title>
<path fill="none" stroke="black" stroke-dasharray="5,2" d="M67.87,-124.95C67.87,-137.08 67.87,-153.58 67.87,-167.48"></path>
<polygon fill="black" stroke="black" points="64.37,-167.49 67.87,-177.49 71.37,-167.49 64.37,-167.49"></polygon>
<text text-anchor="middle" x="100.53" y="-147" font-family="Times,serif" font-size="14.00">implements</text>
</g>
<!-- HUDDesktopFactory -->
<g id="node3" class="node">
<title>HUDDesktopFactory</title>
<polygon fill="none" stroke="black" points="135.61,-36 0.13,-36 0.13,0 135.61,0 135.61,-36"></polygon>
<text text-anchor="middle" x="67.87" y="-13.8" font-family="Times,serif" font-size="14.00">HUDDesktopFactory</text>
</g>
<!-- HUDDesktopFactory&#45;&gt;HUDFactory -->
<g id="edge2" class="edge">
<title>HUDDesktopFactory-&gt;HUDFactory</title>
<path fill="none" stroke="black" d="M67.87,-36.15C67.87,-48.28 67.87,-64.78 67.87,-78.68"></path>
<polygon fill="black" stroke="black" points="64.37,-78.69 67.87,-88.69 71.37,-78.69 64.37,-78.69"></polygon>
<text text-anchor="middle" x="89.25" y="-58.2" font-family="Times,serif" font-size="14.00">extends</text>
</g>
</g>
</svg>
