<?xml version="1.0" encoding="UTF-8"?>
<!DOCTYPE svg PUBLIC "-//W3C//DTD SVG 1.1//EN" "http://www.w3.org/Graphics/SVG/1.1/DTD/svg11.dtd">
<svg width="341" height="281" xmlns="http://www.w3.org/2000/svg" x-original-source="Kernel->Renderer: Load and show MinimapHUD
Kernel->Renderer: Load SignupHUD
Kernel->Renderer: Load SettingsPanelHUD
Kernel->Renderer: ...
Kernel->Renderer: Show SettingsPanelHUD
"><defs><marker viewBox="0 0 5 5" markerWidth="5" markerHeight="5" orient="auto" refX="5" refY="2.5" id="markerArrowBlock"><path d="M 0 0 L 5 2.5 L 0 5 z"></path></marker><marker viewBox="0 0 9.6 16" markerWidth="4" markerHeight="16" orient="auto" refX="9.6" refY="8" id="markerArrowOpen"><path d="M 9.6,8 1.92,16 0,13.7 5.76,8 0,2.286 1.92,0 9.6,8 z"></path></marker></defs><rect x="10" y="10" width="71" height="31" stroke="#000000" fill="#ffffff" style="stroke-width: 2px;"></rect><text x="20" y="31" text-anchor="start" style="font: 14px Menlo, Monaco, &quot;Courier New&quot;, monospace;"><tspan x="20" y="31">Kernel</tspan></text><rect x="10" y="220" width="71" height="31" stroke="#000000" fill="#ffffff" style="stroke-width: 2px;"></rect><text x="20" y="241" text-anchor="start" style="font: 14px Menlo, Monaco, &quot;Courier New&quot;, monospace;"><tspan x="20" y="241">Kernel</tspan></text><line x1="45" x2="45" y1="41" y2="220" stroke="#000000" fill="none" style="stroke-width: 2px;"></line><rect x="223" y="10" width="88" height="31" stroke="#000000" fill="#ffffff" style="stroke-width: 2px;"></rect><text x="233" y="31" text-anchor="start" style="font: 14px Menlo, Monaco, &quot;Courier New&quot;, monospace;"><tspan x="233" y="31">Renderer</tspan></text><rect x="223" y="220" width="88" height="31" stroke="#000000" fill="#ffffff" style="stroke-width: 2px;"></rect><text x="233" y="241" text-anchor="start" style="font: 14px Menlo, Monaco, &quot;Courier New&quot;, monospace;"><tspan x="233" y="241">Renderer</tspan></text><line x1="267" x2="267" y1="41" y2="220" stroke="#000000" fill="none" style="stroke-width: 2px;"></line><text x="55" y="75" text-anchor="start" style="font: 14px Menlo, Monaco, &quot;Courier New&quot;, monospace;"><tspan x="55" y="75">Load and show MinimapHUD</tspan></text><line x1="45" x2="267" y1="80" y2="80" stroke="#000000" fill="none" marker-end="url(#markerArrowBlock)" style="stroke-width: 2px;"></line><text x="97" y="109" text-anchor="start" style="font: 14px Menlo, Monaco, &quot;Courier New&quot;, monospace;"><tspan x="97" y="109">Load SignupHUD</tspan></text><line x1="45" x2="267" y1="114" y2="114" stroke="#000000" fill="none" marker-end="url(#markerArrowBlock)" style="stroke-width: 2px;"></line><text x="67" y="143" text-anchor="start" style="font: 14px Menlo, Monaco, &quot;Courier New&quot;, monospace;"><tspan x="67" y="143">Load SettingsPanelHUD</tspan></text><line x1="45" x2="267" y1="148" y2="148" stroke="#000000" fill="none" style="stroke-width: 2px;" marker-end="url(#markerArrowBlock)"></line><text x="143" y="166" text-anchor="start" style="font: 14px Menlo, Monaco, &quot;Courier New&quot;, monospace;"><tspan x="143" y="166">...</tspan></text><line x1="45" x2="267" y1="171" y2="171" stroke="#000000" fill="none" marker-end="url(#markerArrowBlock)" style="stroke-width: 2px;"></line><text x="67" y="200" text-anchor="start" style="font: 14px Menlo, Monaco, &quot;Courier New&quot;, monospace;"><tspan x="67" y="200">Show SettingsPanelHUD</tspan></text><line x1="45" x2="267" y1="205" y2="205" stroke="#000000" fill="none" marker-end="url(#markerArrowBlock)" style="stroke-width: 2px;"></line></svg>