<?xml version="1.0" encoding="UTF-8" standalone="no"?>
<!DOCTYPE svg PUBLIC "-//W3C//DTD SVG 1.1//EN"
 "http://www.w3.org/Graphics/SVG/1.1/DTD/svg11.dtd">
<!-- Generated by graphviz version 2.44.0 (20200518.1210)
 -->
<!-- Pages: 1 -->
<svg width="441pt" height="206pt"
 viewBox="0.00 0.00 441.04 206.00" xmlns="http://www.w3.org/2000/svg" xmlns:xlink="http://www.w3.org/1999/xlink">
<g id="graph0" class="graph" transform="scale(1 1) rotate(0) translate(4 202)">
<polygon fill="white" stroke="transparent" points="-4,4 -4,-202 437.04,-202 437.04,4 -4,4"/>
<!-- users -->
<g id="node1" class="node">
<title>users</title>
<path fill="none" stroke="black" d="M42,-170C42,-170 12,-170 12,-170 6,-170 0,-164 0,-158 0,-158 0,-146 0,-146 0,-140 6,-134 12,-134 12,-134 42,-134 42,-134 48,-134 54,-140 54,-146 54,-146 54,-158 54,-158 54,-164 48,-170 42,-170"/>
<text text-anchor="middle" x="27" y="-149" font-family="arial" font-size="10.00">users</text>
</g>
<!-- explorer -->
<g id="node2" class="node">
<title>explorer</title>
<path fill="none" stroke="black" d="M250.8,-198C250.8,-198 220.8,-198 220.8,-198 214.8,-198 208.8,-192 208.8,-186 208.8,-186 208.8,-174 208.8,-174 208.8,-168 214.8,-162 220.8,-162 220.8,-162 250.8,-162 250.8,-162 256.8,-162 262.8,-168 262.8,-174 262.8,-174 262.8,-186 262.8,-186 262.8,-192 256.8,-198 250.8,-198"/>
<text text-anchor="middle" x="235.8" y="-177" font-family="arial" font-size="10.00">explorer</text>
</g>
<!-- users&#45;&gt;explorer -->
<g id="edge1" class="edge">
<title>users&#45;&gt;explorer</title>
<path fill="none" stroke="orange" d="M54.06,-169.59C59.75,-172.62 65.9,-175.33 72,-177 114.19,-188.57 164.86,-187.24 198.34,-184.39"/>
<polygon fill="orange" stroke="orange" points="198.95,-187.85 208.58,-183.42 198.29,-180.88 198.95,-187.85"/>
<text text-anchor="middle" x="127.29" y="-189" font-family="arial" font-size="10.00" fill="orange">Perform primary sales</text>
</g>
<!-- users&#45;&gt;explorer -->
<!-- marketplace -->
<g id="node3" class="node">
<title>marketplace</title>
<path fill="none" stroke="black" d="M259.25,-144C259.25,-144 212.35,-144 212.35,-144 206.35,-144 200.35,-138 200.35,-132 200.35,-132 200.35,-120 200.35,-120 200.35,-114 206.35,-108 212.35,-108 212.35,-108 259.25,-108 259.25,-108 265.25,-108 271.25,-114 271.25,-120 271.25,-120 271.25,-132 271.25,-132 271.25,-138 265.25,-144 259.25,-144"/>
<text text-anchor="middle" x="235.8" y="-123" font-family="arial" font-size="10.00">marketplace</text>
</g>
<!-- users&#45;&gt;marketplace -->
<g id="edge2" class="edge">
<title>users&#45;&gt;marketplace</title>
<path fill="none" stroke="orange" d="M54.35,-143.98C60.12,-142.46 66.23,-141.03 72,-140 111.57,-132.96 157.2,-129.43 190.06,-127.67"/>
<polygon fill="orange" stroke="orange" points="190.45,-131.16 200.26,-127.16 190.1,-124.17 190.45,-131.16"/>
<text text-anchor="middle" x="127.29" y="-143" font-family="arial" font-size="10.00" fill="orange">Perform secondary sales</text>
</g>
<!-- users&#45;&gt;marketplace -->
<!-- collections -->
<g id="node4" class="node">
<title>collections</title>
<path fill="none" stroke="black" d="M420.88,-103C420.88,-103 382.53,-103 382.53,-103 376.53,-103 370.53,-97 370.53,-91 370.53,-91 370.53,-79 370.53,-79 370.53,-73 376.53,-67 382.53,-67 382.53,-67 420.88,-67 420.88,-67 426.88,-67 432.88,-73 432.88,-79 432.88,-79 432.88,-91 432.88,-91 432.88,-97 426.88,-103 420.88,-103"/>
<text text-anchor="middle" x="401.71" y="-82" font-family="arial" font-size="10.00">collections</text>
</g>
<!-- explorer&#45;&gt;collections -->
<g id="edge3" class="edge">
<title>explorer&#45;&gt;collections</title>
<path fill="none" stroke="orange" d="M262.94,-166.98C286.66,-154.94 322.4,-136.2 352.37,-118 357.09,-115.13 361.99,-111.99 366.77,-108.83"/>
<polygon fill="orange" stroke="orange" points="368.86,-111.64 375.2,-103.16 364.95,-105.84 368.86,-111.64"/>
</g>
<!-- marketplace&#45;&gt;collections -->
<g id="edge4" class="edge">
<title>marketplace&#45;&gt;collections</title>
<path fill="none" stroke="orange" d="M271.16,-117.41C297.21,-110.89 333.09,-101.91 360.48,-95.06"/>
<polygon fill="orange" stroke="orange" points="361.67,-98.37 370.52,-92.55 359.97,-91.58 361.67,-98.37"/>
</g>
<!-- creators -->
<g id="node5" class="node">
<title>creators</title>
<path fill="none" stroke="black" d="M250.8,-90C250.8,-90 220.8,-90 220.8,-90 214.8,-90 208.8,-84 208.8,-78 208.8,-78 208.8,-66 208.8,-66 208.8,-60 214.8,-54 220.8,-54 220.8,-54 250.8,-54 250.8,-54 256.8,-54 262.8,-60 262.8,-66 262.8,-66 262.8,-78 262.8,-78 262.8,-84 256.8,-90 250.8,-90"/>
<text text-anchor="middle" x="235.8" y="-69" font-family="arial" font-size="10.00">creators</text>
</g>
<!-- creators&#45;&gt;collections -->
<g id="edge5" class="edge">
<title>creators&#45;&gt;collections</title>
<path fill="none" stroke="orange" d="M263.13,-74.09C289.28,-76.16 329.73,-79.37 360.01,-81.77"/>
<polygon fill="orange" stroke="orange" points="360.01,-85.28 370.26,-82.58 360.56,-78.31 360.01,-85.28"/>
<text text-anchor="middle" x="320.7" y="-84" font-family="arial" font-size="10.00" fill="orange">create</text>
</g>
<!-- commiteee -->
<g id="node6" class="node">
<title>commiteee</title>
<path fill="none" stroke="black" d="M256.19,-36C256.19,-36 215.41,-36 215.41,-36 209.41,-36 203.41,-30 203.41,-24 203.41,-24 203.41,-12 203.41,-12 203.41,-6 209.41,0 215.41,0 215.41,0 256.19,0 256.19,0 262.19,0 268.19,-6 268.19,-12 268.19,-12 268.19,-24 268.19,-24 268.19,-30 262.19,-36 256.19,-36"/>
<text text-anchor="middle" x="235.8" y="-15" font-family="arial" font-size="10.00">commiteee</text>
</g>
<!-- commiteee&#45;&gt;collections -->
<g id="edge6" class="edge">
<title>commiteee&#45;&gt;collections</title>
<path fill="none" stroke="orange" d="M268.62,-28.33C292.08,-36.24 324.6,-47.83 352.37,-60 355.22,-61.25 358.14,-62.59 361.06,-63.98"/>
<polygon fill="orange" stroke="orange" points="359.79,-67.26 370.31,-68.53 362.88,-60.97 359.79,-67.26"/>
<text text-anchor="middle" x="320.7" y="-63" font-family="arial" font-size="10.00" fill="orange">approve/reject</text>
</g>
</g>
</svg>
