<?xml version="1.0" encoding="UTF-8"?>
<!DOCTYPE svg PUBLIC "-//W3C//DTD SVG 1.1//EN" "http://www.w3.org/Graphics/SVG/1.1/DTD/svg11.dtd">
<svg width="805" height="410" xmlns="http://www.w3.org/2000/svg" x-original-source="Kernel->Renderer: Send catalog JSON\nwith all the assets
Renderer->Renderer: Maps json info to <assetId, ContentProvider>
Kernel->Kernel: Stateful scene load begins
Kernel->Renderer: Map assetId to component id\nusing special message
Kernel->Renderer: Update component
Renderer->Renderer: Component checks if any assetId\nwas mapped to this component id
Renderer->Renderer: Inject mapped ContentProvider to LoadableShape\nuse scene ContentProvider otherwise"><defs><marker viewBox="0 0 5 5" markerWidth="5" markerHeight="5" orient="auto" refX="5" refY="2.5" id="markerArrowBlock"><path d="M 0 0 L 5 2.5 L 0 5 z"></path></marker><marker viewBox="0 0 9.6 16" markerWidth="4" markerHeight="16" orient="auto" refX="9.6" refY="8" id="markerArrowOpen"><path d="M 9.6,8 1.92,16 0,13.7 5.76,8 0,2.286 1.92,0 9.6,8 z"></path></marker></defs><rect x="10" y="10" width="71" height="29" stroke="#000000" fill="#ffffff" style="stroke-width: 2px;"></rect><text x="20" y="29" text-anchor="start" style="font: 14px Menlo, Monaco, &quot;Courier New&quot;, monospace;"><tspan x="20" y="29">Kernel</tspan></text><rect x="10" y="351" width="71" height="29" stroke="#000000" fill="#ffffff" style="stroke-width: 2px;"></rect><text x="20" y="370" text-anchor="start" style="font: 14px Menlo, Monaco, &quot;Courier New&quot;, monospace;"><tspan x="20" y="370">Kernel</tspan></text><line x1="45" x2="45" y1="39" y2="351" stroke="#000000" fill="none" style="stroke-width: 2px;"></line><rect x="260" y="10" width="88" height="29" stroke="#000000" fill="#ffffff" style="stroke-width: 2px;"></rect><text x="270" y="29" text-anchor="start" style="font: 14px Menlo, Monaco, &quot;Courier New&quot;, monospace;"><tspan x="270" y="29">Renderer</tspan></text><rect x="260" y="351" width="88" height="29" stroke="#000000" fill="#ffffff" style="stroke-width: 2px;"></rect><text x="270" y="370" text-anchor="start" style="font: 14px Menlo, Monaco, &quot;Courier New&quot;, monospace;"><tspan x="270" y="370">Renderer</tspan></text><line x1="304" x2="304" y1="39" y2="351" stroke="#000000" fill="none" style="stroke-width: 2px;"></line><text x="94" y="71" text-anchor="start" style="font: 14px Menlo, Monaco, &quot;Courier New&quot;, monospace;"><tspan x="94" y="71">Send catalog JSON</tspan><tspan x="94" dy="1.2em">with all the assets</tspan></text><line x1="45" x2="304" y1="93" y2="93" stroke="#000000" fill="none" marker-end="url(#markerArrowBlock)" style="stroke-width: 2px;"></line><line x1="304" x2="324" y1="108" y2="108" stroke="#000000" fill="none" style="stroke-width: 2px;"></line><line x1="324" x2="324" y1="108" y2="125" stroke="#000000" fill="none" style="stroke-width: 2px;"></line><line x1="324" x2="304" y1="125" y2="125" stroke="#000000" fill="none" marker-end="url(#markerArrowBlock)" style="stroke-width: 2px;"></line><text x="329" y="122" text-anchor="start" style="font: 14px Menlo, Monaco, &quot;Courier New&quot;, monospace;"><tspan x="329" y="122">Maps json info to &lt;assetId, ContentProvider&gt;</tspan></text><line x1="45" x2="65" y1="140" y2="140" stroke="#000000" fill="none" style="stroke-width: 2px;"></line><line x1="65" x2="65" y1="140" y2="157" stroke="#000000" fill="none" style="stroke-width: 2px;"></line><line x1="65" x2="45" y1="157" y2="157" stroke="#000000" fill="none" marker-end="url(#markerArrowBlock)" style="stroke-width: 2px;"></line><text x="70" y="154" text-anchor="start" style="font: 14px Menlo, Monaco, &quot;Courier New&quot;, monospace;"><tspan x="70" y="154">Stateful scene load begins</tspan></text><text x="61" y="184" text-anchor="start" style="font: 14px Menlo, Monaco, &quot;Courier New&quot;, monospace;"><tspan x="61" y="184">Map assetId to component id</tspan><tspan x="61" dy="1.2em">using special message</tspan></text><line x1="45" x2="304" y1="206" y2="206" stroke="#000000" fill="none" marker-end="url(#markerArrowBlock)" style="stroke-width: 2px;"></line><text x="107" y="233" text-anchor="start" style="font: 14px Menlo, Monaco, &quot;Courier New&quot;, monospace;"><tspan x="107" y="233">Update component</tspan></text><line x1="45" x2="304" y1="238" y2="238" stroke="#000000" fill="none" marker-end="url(#markerArrowBlock)" style="stroke-width: 2px;"></line><line x1="304" x2="324" y1="253" y2="253" stroke="#000000" fill="none" style="stroke-width: 2px;"></line><line x1="324" x2="324" y1="253" y2="287" stroke="#000000" fill="none" style="stroke-width: 2px;"></line><line x1="324" x2="304" y1="287" y2="287" stroke="#000000" fill="none" marker-end="url(#markerArrowBlock)" style="stroke-width: 2px;"></line><text x="329" y="276" text-anchor="start" style="font: 14px Menlo, Monaco, &quot;Courier New&quot;, monospace;"><tspan x="329" y="276">Component checks if any assetId</tspan><tspan x="329" dy="1.2em">was mapped to this component id</tspan></text><line x1="304" x2="324" y1="302" y2="302" stroke="#000000" fill="none" style="stroke-width: 2px;"></line><line x1="324" x2="324" y1="302" y2="336" stroke="#000000" fill="none" style="stroke-width: 2px;"></line><line x1="324" x2="304" y1="336" y2="336" stroke="#000000" fill="none" marker-end="url(#markerArrowBlock)" style="stroke-width: 2px;"></line><text x="329" y="325" text-anchor="start" style="font: 14px Menlo, Monaco, &quot;Courier New&quot;, monospace;"><tspan x="329" y="325">Inject mapped ContentProvider to LoadableShape</tspan><tspan x="329" dy="1.2em">use scene ContentProvider otherwise</tspan></text></svg>