<?xml version="1.0" encoding="UTF-8"?>
<!DOCTYPE svg PUBLIC "-//W3C//DTD SVG 1.1//EN" "http://www.w3.org/Graphics/SVG/1.1/DTD/svg11.dtd">
<svg width="810" height="461" xmlns="http://www.w3.org/2000/svg" x-original-source="Kernel->Renderer: Send catalog JSON\nwith all the assets
Renderer->Renderer: User places any asset into the world
Renderer->Renderer: Map assetId to component id\nin the internal map
Renderer->Kernel: Sends special message to\nreflect the assetId mapping
Renderer->Kernel: Update component with\n{ src:string } using stateful\nmessages.
Renderer->Renderer: Component checks if any assetId\nwas mapped to this component id
Renderer->Renderer: Inject mapped ContentProvider to LoadableShape\nuse scene ContentProvider otherwise"><defs><marker viewBox="0 0 5 5" markerWidth="5" markerHeight="5" orient="auto" refX="5" refY="2.5" id="markerArrowBlock"><path d="M 0 0 L 5 2.5 L 0 5 z"></path></marker><marker viewBox="0 0 9.6 16" markerWidth="4" markerHeight="16" orient="auto" refX="9.6" refY="8" id="markerArrowOpen"><path d="M 9.6,8 1.92,16 0,13.7 5.76,8 0,2.286 1.92,0 9.6,8 z"></path></marker></defs><rect x="10" y="10" width="71" height="29" stroke="#000000" fill="#ffffff" style="stroke-width: 2px;"></rect><text x="20" y="29" text-anchor="start" style="font: 14px Menlo, Monaco, &quot;Courier New&quot;, monospace;"><tspan x="20" y="29">Kernel</tspan></text><rect x="10" y="402" width="71" height="29" stroke="#000000" fill="#ffffff" style="stroke-width: 2px;"></rect><text x="20" y="421" text-anchor="start" style="font: 14px Menlo, Monaco, &quot;Courier New&quot;, monospace;"><tspan x="20" y="421">Kernel</tspan></text><line x1="45" x2="45" y1="39" y2="402" stroke="#000000" fill="none" style="stroke-width: 2px;"></line><rect x="265" y="10" width="88" height="29" stroke="#000000" fill="#ffffff" style="stroke-width: 2px;"></rect><text x="275" y="29" text-anchor="start" style="font: 14px Menlo, Monaco, &quot;Courier New&quot;, monospace;"><tspan x="275" y="29">Renderer</tspan></text><rect x="265" y="402" width="88" height="29" stroke="#000000" fill="#ffffff" style="stroke-width: 2px;"></rect><text x="275" y="421" text-anchor="start" style="font: 14px Menlo, Monaco, &quot;Courier New&quot;, monospace;"><tspan x="275" y="421">Renderer</tspan></text><line x1="309" x2="309" y1="39" y2="402" stroke="#000000" fill="none" style="stroke-width: 2px;"></line><text x="97" y="71" text-anchor="start" style="font: 14px Menlo, Monaco, &quot;Courier New&quot;, monospace;"><tspan x="97" y="71">Send catalog JSON</tspan><tspan x="97" dy="1.2em">with all the assets</tspan></text><line x1="45" x2="309" y1="93" y2="93" stroke="#000000" fill="none" marker-end="url(#markerArrowBlock)" style="stroke-width: 2px;"></line><line x1="309" x2="329" y1="108" y2="108" stroke="#000000" fill="none" style="stroke-width: 2px;"></line><line x1="329" x2="329" y1="108" y2="125" stroke="#000000" fill="none" style="stroke-width: 2px;"></line><line x1="329" x2="309" y1="125" y2="125" stroke="#000000" fill="none" marker-end="url(#markerArrowBlock)" style="stroke-width: 2px;"></line><text x="334" y="122" text-anchor="start" style="font: 14px Menlo, Monaco, &quot;Courier New&quot;, monospace;"><tspan x="334" y="122">User places any asset into the world</tspan></text><line x1="309" x2="329" y1="140" y2="140" stroke="#000000" fill="none" style="stroke-width: 2px;"></line><line x1="329" x2="329" y1="140" y2="174" stroke="#000000" fill="none" style="stroke-width: 2px;"></line><line x1="329" x2="309" y1="174" y2="174" stroke="#000000" fill="none" marker-end="url(#markerArrowBlock)" style="stroke-width: 2px;"></line><text x="334" y="163" text-anchor="start" style="font: 14px Menlo, Monaco, &quot;Courier New&quot;, monospace;"><tspan x="334" y="163">Map assetId to component id</tspan><tspan x="334" dy="1.2em">in the internal map</tspan></text><text x="63" y="201" text-anchor="start" style="font: 14px Menlo, Monaco, &quot;Courier New&quot;, monospace;"><tspan x="63" y="201">Sends special message to</tspan><tspan x="63" dy="1.2em">reflect the assetId mapping</tspan></text><line x1="309" x2="45" y1="223" y2="223" stroke="#000000" fill="none" marker-end="url(#markerArrowBlock)" style="stroke-width: 2px;"></line><text x="55" y="250" text-anchor="start" style="font: 14px Menlo, Monaco, &quot;Courier New&quot;, monospace;"><tspan x="55" y="250">Update component with</tspan><tspan x="55" dy="1.2em">{ src:string } using stateful</tspan><tspan x="55" dy="1.2em">messages.</tspan></text><line x1="309" x2="45" y1="289" y2="289" stroke="#000000" fill="none" marker-end="url(#markerArrowBlock)" style="stroke-width: 2px;"></line><line x1="309" x2="329" y1="304" y2="304" stroke="#000000" fill="none" style="stroke-width: 2px;"></line><line x1="329" x2="329" y1="304" y2="338" stroke="#000000" fill="none" style="stroke-width: 2px;"></line><line x1="329" x2="309" y1="338" y2="338" stroke="#000000" fill="none" marker-end="url(#markerArrowBlock)" style="stroke-width: 2px;"></line><text x="334" y="327" text-anchor="start" style="font: 14px Menlo, Monaco, &quot;Courier New&quot;, monospace;"><tspan x="334" y="327">Component checks if any assetId</tspan><tspan x="334" dy="1.2em">was mapped to this component id</tspan></text><line x1="309" x2="329" y1="353" y2="353" stroke="#000000" fill="none" style="stroke-width: 2px;"></line><line x1="329" x2="329" y1="353" y2="387" stroke="#000000" fill="none" style="stroke-width: 2px;"></line><line x1="329" x2="309" y1="387" y2="387" stroke="#000000" fill="none" marker-end="url(#markerArrowBlock)" style="stroke-width: 2px;"></line><text x="334" y="376" text-anchor="start" style="font: 14px Menlo, Monaco, &quot;Courier New&quot;, monospace;"><tspan x="334" y="376">Inject mapped ContentProvider to LoadableShape</tspan><tspan x="334" dy="1.2em">use scene ContentProvider otherwise</tspan></text></svg>