<?xml version="1.0" encoding="UTF-8"?>
<!DOCTYPE svg PUBLIC "-//W3C//DTD SVG 1.1//EN" "http://www.w3.org/Graphics/SVG/1.1/DTD/svg11.dtd">
<svg width="585" height="196" xmlns="http://www.w3.org/2000/svg" x-original-source="participant Committee_User
participant L2_Committee
participant L2_Collection_1

Committee_User->L2_Committee: Approve/Reject Collection_1
L2_Committee->L2_Collection_1: Approve/Reject"><defs><marker viewBox="0 0 5 5" markerWidth="5" markerHeight="5" orient="auto" refX="5" refY="2.5" id="markerArrowBlock"><path d="M 0 0 L 5 2.5 L 0 5 z"></path></marker><marker viewBox="0 0 9.6 16" markerWidth="4" markerHeight="16" orient="auto" refX="9.6" refY="8" id="markerArrowOpen"><path d="M 9.6,8 1.92,16 0,13.7 5.76,8 0,2.286 1.92,0 9.6,8 z"></path></marker></defs><rect x="10" y="10" width="139" height="34" stroke="#000000" fill="#ffffff" style="stroke-width: 2px;"></rect><text x="20" y="34" text-anchor="start" style="font: 14px Menlo, Monaco, &quot;Courier New&quot;, monospace;"><tspan x="20" y="34">Committee_User</tspan></text><rect x="10" y="132" width="139" height="34" stroke="#000000" fill="#ffffff" style="stroke-width: 2px;"></rect><text x="20" y="156" text-anchor="start" style="font: 14px Menlo, Monaco, &quot;Courier New&quot;, monospace;"><tspan x="20" y="156">Committee_User</tspan></text><line x1="79" x2="79" y1="44" y2="132" stroke="#000000" fill="none" style="stroke-width: 2px;"></line><rect x="266" y="10" width="122" height="34" stroke="#000000" fill="#ffffff" style="stroke-width: 2px;"></rect><text x="276" y="34" text-anchor="start" style="font: 14px Menlo, Monaco, &quot;Courier New&quot;, monospace;"><tspan x="276" y="34">L2_Committee</tspan></text><rect x="266" y="132" width="122" height="34" stroke="#000000" fill="#ffffff" style="stroke-width: 2px;"></rect><text x="276" y="156" text-anchor="start" style="font: 14px Menlo, Monaco, &quot;Courier New&quot;, monospace;"><tspan x="276" y="156">L2_Committee</tspan></text><line x1="327" x2="327" y1="44" y2="132" stroke="#000000" fill="none" style="stroke-width: 2px;"></line><rect x="408" y="10" width="147" height="34" stroke="#000000" fill="#ffffff" style="stroke-width: 2px;"></rect><text x="418" y="34" text-anchor="start" style="font: 14px Menlo, Monaco, &quot;Courier New&quot;, monospace;"><tspan x="418" y="34">L2_Collection_1</tspan></text><rect x="408" y="132" width="147" height="34" stroke="#000000" fill="#ffffff" style="stroke-width: 2px;"></rect><text x="418" y="156" text-anchor="start" style="font: 14px Menlo, Monaco, &quot;Courier New&quot;, monospace;"><tspan x="418" y="156">L2_Collection_1</tspan></text><line x1="481" x2="481" y1="44" y2="132" stroke="#000000" fill="none" style="stroke-width: 2px;"></line><text x="89" y="78" text-anchor="start" style="font: 14px Menlo, Monaco, &quot;Courier New&quot;, monospace;"><tspan x="89" y="78">Approve/Reject Collection_1</tspan></text><line x1="79" x2="327" y1="83" y2="83" stroke="#000000" fill="none" marker-end="url(#markerArrowBlock)" style="stroke-width: 2px;"></line><text x="344" y="112" text-anchor="start" style="font: 14px Menlo, Monaco, &quot;Courier New&quot;, monospace;"><tspan x="344" y="112">Approve/Reject</tspan></text><line x1="327" x2="481" y1="117" y2="117" stroke="#000000" fill="none" marker-end="url(#markerArrowBlock)" style="stroke-width: 2px;"></line></svg>