<?xml version="1.0" encoding="UTF-8" standalone="no"?>
<!DOCTYPE svg PUBLIC "-//W3C//DTD SVG 1.1//EN"
 "http://www.w3.org/Graphics/SVG/1.1/DTD/svg11.dtd">
<!-- Generated by graphviz version 2.44.0 (20200518.1210)
 -->
<!-- Pages: 1 -->
<svg width="433pt" height="355pt"
 viewBox="0.00 0.00 433.00 355.00" xmlns="http://www.w3.org/2000/svg" xmlns:xlink="http://www.w3.org/1999/xlink">
<g id="graph0" class="graph" transform="scale(1 1) rotate(0) translate(4 351)">
<polygon fill="white" stroke="transparent" points="-4,4 -4,-351 429,-351 429,4 -4,4"/>
<g id="clust1" class="cluster">
<title>clusterL1</title>
<polygon fill="none" stroke="green" points="164,-183 164,-339 254,-339 254,-183 164,-183"/>
<text text-anchor="middle" x="209" y="-326" font-family="arial" font-size="10.00" fill="grey">L1 Ethereum</text>
</g>
<g id="clust2" class="cluster">
<title>clusterL2</title>
<polygon fill="none" stroke="blue" points="8,-8 8,-164 417,-164 417,-8 8,-8"/>
<text text-anchor="middle" x="212.5" y="-151" font-family="arial" font-size="10.00" fill="grey">L2 Main chain</text>
</g>
<!-- bridge_l1 -->
<g id="node1" class="node">
<title>bridge_l1</title>
<path fill="none" stroke="black" d="M218.29,-227C218.29,-227 183.71,-227 183.71,-227 177.71,-227 171.71,-221 171.71,-215 171.71,-215 171.71,-203 171.71,-203 171.71,-197 177.71,-191 183.71,-191 183.71,-191 218.29,-191 218.29,-191 224.29,-191 230.29,-197 230.29,-203 230.29,-203 230.29,-215 230.29,-215 230.29,-221 224.29,-227 218.29,-227"/>
<text text-anchor="middle" x="201" y="-206" font-family="arial" font-size="10.00">Bridge L1</text>
</g>
<!-- bridge_l2 -->
<g id="node3" class="node">
<title>bridge_l2</title>
<path fill="none" stroke="black" d="M218.68,-136C218.68,-136 185.32,-136 185.32,-136 179.32,-136 173.32,-130 173.32,-124 173.32,-124 173.32,-112 173.32,-112 173.32,-106 179.32,-100 185.32,-100 185.32,-100 218.68,-100 218.68,-100 224.68,-100 230.68,-106 230.68,-112 230.68,-112 230.68,-124 230.68,-124 230.68,-130 224.68,-136 218.68,-136"/>
<text text-anchor="middle" x="202" y="-115" font-family="arial" font-size="10.00">bridge L2</text>
</g>
<!-- bridge_l1&#45;&gt;bridge_l2 -->
<g id="edge6" class="edge">
<title>bridge_l1&#45;&gt;bridge_l2</title>
<path fill="none" stroke="blue" d="M201.19,-190.84C201.33,-178.28 201.53,-160.98 201.69,-146.5"/>
<polygon fill="blue" stroke="blue" points="205.2,-146.15 201.81,-136.11 198.2,-146.07 205.2,-146.15"/>
</g>
<!-- entity -->
<g id="node2" class="node">
<title>entity</title>
<path fill="none" stroke="black" d="M214,-311C214,-311 184,-311 184,-311 178,-311 172,-305 172,-299 172,-299 172,-287 172,-287 172,-281 178,-275 184,-275 184,-275 214,-275 214,-275 220,-275 226,-281 226,-287 226,-287 226,-299 226,-299 226,-305 220,-311 214,-311"/>
<text text-anchor="middle" x="199" y="-290" font-family="arial" font-size="10.00">Entity</text>
</g>
<!-- entity&#45;&gt;bridge_l1 -->
<g id="edge1" class="edge">
<title>entity&#45;&gt;bridge_l1</title>
<path fill="none" stroke="green" d="M199.42,-274.61C199.69,-263.77 200.03,-249.6 200.33,-237.29"/>
<polygon fill="green" stroke="green" points="203.84,-237.17 200.58,-227.08 196.84,-237 203.84,-237.17"/>
<text text-anchor="middle" x="228.07" y="-248" font-family="arial" font-size="10.00" fill="green"> &#160;Act on L2 &#160;&#160;</text>
</g>
<!-- bridge_l2&#45;&gt;bridge_l1 -->
<g id="edge7" class="edge">
<title>bridge_l2&#45;&gt;bridge_l1</title>
<path fill="none" stroke="blue" d="M201.81,-136.11C201.67,-148.65 201.47,-165.95 201.31,-180.44"/>
<polygon fill="blue" stroke="blue" points="197.81,-180.8 201.19,-190.84 204.81,-180.88 197.81,-180.8"/>
</g>
<!-- collection_1 -->
<g id="node4" class="node">
<title>collection_1</title>
<path fill="none" stroke="black" d="M88.41,-52C88.41,-52 27.59,-52 27.59,-52 21.59,-52 15.59,-46 15.59,-40 15.59,-40 15.59,-28 15.59,-28 15.59,-22 21.59,-16 27.59,-16 27.59,-16 88.41,-16 88.41,-16 94.41,-16 100.41,-22 100.41,-28 100.41,-28 100.41,-40 100.41,-40 100.41,-46 94.41,-52 88.41,-52"/>
<text text-anchor="middle" x="58" y="-31" font-family="arial" font-size="10.00">Collection_1 L2</text>
</g>
<!-- bridge_l2&#45;&gt;collection_1 -->
<g id="edge2" class="edge">
<title>bridge_l2&#45;&gt;collection_1</title>
<path fill="none" stroke="blue" d="M173.28,-115.21C146.65,-112.16 107.3,-103.98 81.09,-82 74.87,-76.78 70.17,-69.47 66.7,-62.18"/>
<polygon fill="blue" stroke="blue" points="69.73,-60.35 62.7,-52.43 63.26,-63.01 69.73,-60.35"/>
<text text-anchor="middle" x="115.45" y="-73" font-family="arial" font-size="10.00" fill="blue"> approve/reject </text>
</g>
<!-- collection_2 -->
<g id="node5" class="node">
<title>collection_2</title>
<path fill="none" stroke="black" d="M191.41,-52C191.41,-52 130.59,-52 130.59,-52 124.59,-52 118.59,-46 118.59,-40 118.59,-40 118.59,-28 118.59,-28 118.59,-22 124.59,-16 130.59,-16 130.59,-16 191.41,-16 191.41,-16 197.41,-16 203.41,-22 203.41,-28 203.41,-28 203.41,-40 203.41,-40 203.41,-46 197.41,-52 191.41,-52"/>
<text text-anchor="middle" x="161" y="-31" font-family="arial" font-size="10.00">Collection_2 L2</text>
</g>
<!-- bridge_l2&#45;&gt;collection_2 -->
<g id="edge3" class="edge">
<title>bridge_l2&#45;&gt;collection_2</title>
<path fill="none" stroke="blue" d="M172.89,-100.57C166.54,-95.49 160.65,-89.28 157.09,-82 154.17,-76.01 153.5,-69.08 153.95,-62.42"/>
<polygon fill="blue" stroke="blue" points="157.44,-62.72 155.4,-52.32 150.51,-61.72 157.44,-62.72"/>
<text text-anchor="middle" x="191.45" y="-73" font-family="arial" font-size="10.00" fill="blue"> approve/reject </text>
</g>
<!-- collection_3 -->
<g id="node6" class="node">
<title>collection_3</title>
<path fill="none" stroke="black" d="M294.41,-52C294.41,-52 233.59,-52 233.59,-52 227.59,-52 221.59,-46 221.59,-40 221.59,-40 221.59,-28 221.59,-28 221.59,-22 227.59,-16 233.59,-16 233.59,-16 294.41,-16 294.41,-16 300.41,-16 306.41,-22 306.41,-28 306.41,-28 306.41,-40 306.41,-40 306.41,-46 300.41,-52 294.41,-52"/>
<text text-anchor="middle" x="264" y="-31" font-family="arial" font-size="10.00">Collection_3 L2</text>
</g>
<!-- bridge_l2&#45;&gt;collection_3 -->
<g id="edge4" class="edge">
<title>bridge_l2&#45;&gt;collection_3</title>
<path fill="none" stroke="blue" d="M215.15,-99.61C223.84,-88.12 235.37,-72.87 245.04,-60.07"/>
<polygon fill="blue" stroke="blue" points="247.84,-62.17 251.08,-52.08 242.26,-57.95 247.84,-62.17"/>
<text text-anchor="middle" x="270.45" y="-73" font-family="arial" font-size="10.00" fill="blue"> approve/reject </text>
</g>
<!-- collection_4 -->
<g id="node7" class="node">
<title>collection_4</title>
<path fill="none" stroke="black" d="M397.41,-52C397.41,-52 336.59,-52 336.59,-52 330.59,-52 324.59,-46 324.59,-40 324.59,-40 324.59,-28 324.59,-28 324.59,-22 330.59,-16 336.59,-16 336.59,-16 397.41,-16 397.41,-16 403.41,-16 409.41,-22 409.41,-28 409.41,-28 409.41,-40 409.41,-40 409.41,-46 403.41,-52 397.41,-52"/>
<text text-anchor="middle" x="367" y="-31" font-family="arial" font-size="10.00">Collection_4 L2</text>
</g>
<!-- bridge_l2&#45;&gt;collection_4 -->
<g id="edge5" class="edge">
<title>bridge_l2&#45;&gt;collection_4</title>
<path fill="none" stroke="blue" d="M230.87,-110.61C253.09,-104.98 284.11,-95.55 309,-82 320.56,-75.71 332.08,-67.01 341.77,-58.81"/>
<polygon fill="blue" stroke="blue" points="344.21,-61.31 349.43,-52.09 339.6,-56.05 344.21,-61.31"/>
<text text-anchor="middle" x="360.45" y="-73" font-family="arial" font-size="10.00" fill="blue"> approve/reject </text>
</g>
</g>
</svg>
