<?xml version="1.0" encoding="UTF-8"?>
<!DOCTYPE svg PUBLIC "-//W3C//DTD SVG 1.1//EN" "http://www.w3.org/Graphics/SVG/1.1/DTD/svg11.dtd">
<svg width="1505" height="476" xmlns="http://www.w3.org/2000/svg" x-original-source="participant Creator_1
participant Creator_2
participant Creator_3
participant Creator_4
participant Creator_5
participant L2_Collection_Curator

Creator_5->L2_Collection_Curator: Stake X MANA to publish collection_1
L2_Collection_Curator -> L2_Collection_1: Create collection
Creator_1->L2_Collection_Curator: Stake Z MANA to challenge collection_1
Creator_2->L2_Collection_Curator: Vote &quot;Yes&quot; on the collection_1 challenge: weight 1
Creator_3->L2_Collection_Curator: Vote &quot;Yes&quot; on the collection_1 challenge: weigh 1
Creator_4->L2_Collection_Curator: Vote &quot;No&quot; on the collection_1 challenge: weight 1
Creator_5->L2_Collection_Curator: Vote &quot;No&quot; on the collection_1 challenge: weight 0.1

Creator_1-->L2_Collection_Curator: Resolve challenge
Note right of L2_Collection_Curator: Challenge resolved: Passed (YES: 2 / No: 1.1)
L2_Collection_Curator->L2_Collection_1: Act based on challenge outcome"><defs><marker viewBox="0 0 5 5" markerWidth="5" markerHeight="5" orient="auto" refX="5" refY="2.5" id="markerArrowBlock"><path d="M 0 0 L 5 2.5 L 0 5 z"></path></marker><marker viewBox="0 0 9.6 16" markerWidth="4" markerHeight="16" orient="auto" refX="9.6" refY="8" id="markerArrowOpen"><path d="M 9.6,8 1.92,16 0,13.7 5.76,8 0,2.286 1.92,0 9.6,8 z"></path></marker></defs><rect x="10" y="10" width="96" height="34" stroke="#000000" fill="#ffffff" style="stroke-width: 2px;"></rect><text x="20" y="33" text-anchor="start" style="font: 14px Menlo, Monaco, &quot;Courier New&quot;, monospace;"><tspan x="20" y="33">Creator_1</tspan></text><rect x="10" y="412" width="96" height="34" stroke="#000000" fill="#ffffff" style="stroke-width: 2px;"></rect><text x="20" y="435" text-anchor="start" style="font: 14px Menlo, Monaco, &quot;Courier New&quot;, monospace;"><tspan x="20" y="435">Creator_1</tspan></text><line x1="58" x2="58" y1="44" y2="412" stroke="#000000" fill="none" style="stroke-width: 2px;"></line><rect x="126" y="10" width="96" height="34" stroke="#000000" fill="#ffffff" style="stroke-width: 2px;"></rect><text x="136" y="33" text-anchor="start" style="font: 14px Menlo, Monaco, &quot;Courier New&quot;, monospace;"><tspan x="136" y="33">Creator_2</tspan></text><rect x="126" y="412" width="96" height="34" stroke="#000000" fill="#ffffff" style="stroke-width: 2px;"></rect><text x="136" y="435" text-anchor="start" style="font: 14px Menlo, Monaco, &quot;Courier New&quot;, monospace;"><tspan x="136" y="435">Creator_2</tspan></text><line x1="174" x2="174" y1="44" y2="412" stroke="#000000" fill="none" style="stroke-width: 2px;"></line><rect x="242" y="10" width="96" height="34" stroke="#000000" fill="#ffffff" style="stroke-width: 2px;"></rect><text x="252" y="33" text-anchor="start" style="font: 14px Menlo, Monaco, &quot;Courier New&quot;, monospace;"><tspan x="252" y="33">Creator_3</tspan></text><rect x="242" y="412" width="96" height="34" stroke="#000000" fill="#ffffff" style="stroke-width: 2px;"></rect><text x="252" y="435" text-anchor="start" style="font: 14px Menlo, Monaco, &quot;Courier New&quot;, monospace;"><tspan x="252" y="435">Creator_3</tspan></text><line x1="290" x2="290" y1="44" y2="412" stroke="#000000" fill="none" style="stroke-width: 2px;"></line><rect x="358" y="10" width="96" height="34" stroke="#000000" fill="#ffffff" style="stroke-width: 2px;"></rect><text x="368" y="33" text-anchor="start" style="font: 14px Menlo, Monaco, &quot;Courier New&quot;, monospace;"><tspan x="368" y="33">Creator_4</tspan></text><rect x="358" y="412" width="96" height="34" stroke="#000000" fill="#ffffff" style="stroke-width: 2px;"></rect><text x="368" y="435" text-anchor="start" style="font: 14px Menlo, Monaco, &quot;Courier New&quot;, monospace;"><tspan x="368" y="435">Creator_4</tspan></text><line x1="406" x2="406" y1="44" y2="412" stroke="#000000" fill="none" style="stroke-width: 2px;"></line><rect x="474" y="10" width="96" height="34" stroke="#000000" fill="#ffffff" style="stroke-width: 2px;"></rect><text x="484" y="33" text-anchor="start" style="font: 14px Menlo, Monaco, &quot;Courier New&quot;, monospace;"><tspan x="484" y="33">Creator_5</tspan></text><rect x="474" y="412" width="96" height="34" stroke="#000000" fill="#ffffff" style="stroke-width: 2px;"></rect><text x="484" y="435" text-anchor="start" style="font: 14px Menlo, Monaco, &quot;Courier New&quot;, monospace;"><tspan x="484" y="435">Creator_5</tspan></text><line x1="522" x2="522" y1="44" y2="412" stroke="#000000" fill="none" style="stroke-width: 2px;"></line><rect x="873" y="10" width="198" height="34" stroke="#000000" fill="#ffffff" style="stroke-width: 2px;"></rect><text x="883" y="34" text-anchor="start" style="font: 14px Menlo, Monaco, &quot;Courier New&quot;, monospace;"><tspan x="883" y="34">L2_Collection_Curator</tspan></text><rect x="873" y="412" width="198" height="34" stroke="#000000" fill="#ffffff" style="stroke-width: 2px;"></rect><text x="883" y="436" text-anchor="start" style="font: 14px Menlo, Monaco, &quot;Courier New&quot;, monospace;"><tspan x="883" y="436">L2_Collection_Curator</tspan></text><line x1="972" x2="972" y1="44" y2="412" stroke="#000000" fill="none" style="stroke-width: 2px;"></line><rect x="1328" y="10" width="147" height="34" stroke="#000000" fill="#ffffff" style="stroke-width: 2px;"></rect><text x="1338" y="34" text-anchor="start" style="font: 14px Menlo, Monaco, &quot;Courier New&quot;, monospace;"><tspan x="1338" y="34">L2_Collection_1</tspan></text><rect x="1328" y="412" width="147" height="34" stroke="#000000" fill="#ffffff" style="stroke-width: 2px;"></rect><text x="1338" y="436" text-anchor="start" style="font: 14px Menlo, Monaco, &quot;Courier New&quot;, monospace;"><tspan x="1338" y="436">L2_Collection_1</tspan></text><line x1="1401" x2="1401" y1="44" y2="412" stroke="#000000" fill="none" style="stroke-width: 2px;"></line><text x="595" y="78" text-anchor="start" style="font: 14px Menlo, Monaco, &quot;Courier New&quot;, monospace;"><tspan x="595" y="78">Stake X MANA to publish collection_1</tspan></text><line x1="522" x2="972" y1="83" y2="83" stroke="#000000" fill="none" marker-end="url(#markerArrowBlock)" style="stroke-width: 2px;"></line><text x="1114" y="109" text-anchor="start" style="font: 14px Menlo, Monaco, &quot;Courier New&quot;, monospace;"><tspan x="1114" y="109">Create collection</tspan></text><line x1="972" x2="1401" y1="114" y2="114" stroke="#000000" fill="none" marker-end="url(#markerArrowBlock)" style="stroke-width: 2px;"></line><text x="354" y="143" text-anchor="start" style="font: 14px Menlo, Monaco, &quot;Courier New&quot;, monospace;"><tspan x="354" y="143">Stake Z MANA to challenge collection_1</tspan></text><line x1="58" x2="972" y1="148" y2="148" stroke="#000000" fill="none" marker-end="url(#markerArrowBlock)" style="stroke-width: 2px;"></line><text x="362" y="177" text-anchor="start" style="font: 14px Menlo, Monaco, &quot;Courier New&quot;, monospace;"><tspan x="362" y="177">Vote "Yes" on the collection_1 challenge: weight 1</tspan></text><line x1="174" x2="972" y1="182" y2="182" stroke="#000000" fill="none" marker-end="url(#markerArrowBlock)" style="stroke-width: 2px;"></line><text x="424" y="211" text-anchor="start" style="font: 14px Menlo, Monaco, &quot;Courier New&quot;, monospace;"><tspan x="424" y="211">Vote "Yes" on the collection_1 challenge: weigh 1</tspan></text><line x1="290" x2="972" y1="216" y2="216" stroke="#000000" fill="none" marker-end="url(#markerArrowBlock)" style="stroke-width: 2px;"></line><text x="482" y="245" text-anchor="start" style="font: 14px Menlo, Monaco, &quot;Courier New&quot;, monospace;"><tspan x="482" y="245">Vote "No" on the collection_1 challenge: weight 1</tspan></text><line x1="406" x2="972" y1="250" y2="250" stroke="#000000" fill="none" marker-end="url(#markerArrowBlock)" style="stroke-width: 2px;"></line><text x="532" y="279" text-anchor="start" style="font: 14px Menlo, Monaco, &quot;Courier New&quot;, monospace;"><tspan x="532" y="279">Vote "No" on the collection_1 challenge: weight 0.1</tspan></text><line x1="522" x2="972" y1="284" y2="284" stroke="#000000" fill="none" marker-end="url(#markerArrowBlock)" style="stroke-width: 2px;"></line><text x="443" y="313" text-anchor="start" style="font: 14px Menlo, Monaco, &quot;Courier New&quot;, monospace;"><tspan x="443" y="313">Resolve challenge</tspan></text><line x1="58" x2="972" y1="318" y2="318" stroke="#000000" fill="none" stroke-dasharray="6px, 2px" marker-end="url(#markerArrowBlock)" style="stroke-width: 2px;"></line><rect x="992" y="333" width="390" height="25" stroke="#000000" fill="#ffffff" style="stroke-width: 2px;"></rect><text x="997" y="353" text-anchor="start" style="font: 14px Menlo, Monaco, &quot;Courier New&quot;, monospace;"><tspan x="997" y="353">Challenge resolved: Passed (YES: 2 / No: 1.1)</tspan></text><text x="1060" y="392" text-anchor="start" style="font: 14px Menlo, Monaco, &quot;Courier New&quot;, monospace;"><tspan x="1060" y="392">Act based on challenge outcome</tspan></text><line x1="972" x2="1401" y1="397" y2="397" stroke="#000000" fill="none" marker-end="url(#markerArrowBlock)" style="stroke-width: 2px;"></line></svg>