<?xml version="1.0" encoding="UTF-8"?>
<!DOCTYPE svg PUBLIC "-//W3C//DTD SVG 1.1//EN" "http://www.w3.org/Graphics/SVG/1.1/DTD/svg11.dtd">
<svg width="1068" height="264" xmlns="http://www.w3.org/2000/svg" x-original-source="participant Committee_User
participant L1_Committee
participant L1_Bridge
participant L2_Bridge
participant L2_Collection_1

Committee_User->L1_Committee: Approve/Reject Collection_1
L1_Committee->L1_Bridge: Approve/Reject Collection_1
L1_Bridge->L2_Bridge: Approve/Reject Collection_1
L2_Bridge->L2_Collection_1: Approve/Reject"><defs><marker viewBox="0 0 5 5" markerWidth="5" markerHeight="5" orient="auto" refX="5" refY="2.5" id="markerArrowBlock"><path d="M 0 0 L 5 2.5 L 0 5 z"></path></marker><marker viewBox="0 0 9.6 16" markerWidth="4" markerHeight="16" orient="auto" refX="9.6" refY="8" id="markerArrowOpen"><path d="M 9.6,8 1.92,16 0,13.7 5.76,8 0,2.286 1.92,0 9.6,8 z"></path></marker></defs><rect x="10" y="10" width="139" height="34" stroke="#000000" fill="#ffffff" style="stroke-width: 2px;"></rect><text x="20" y="34" text-anchor="start" style="font: 14px Menlo, Monaco, &quot;Courier New&quot;, monospace;"><tspan x="20" y="34">Committee_User</tspan></text><rect x="10" y="200" width="139" height="34" stroke="#000000" fill="#ffffff" style="stroke-width: 2px;"></rect><text x="20" y="224" text-anchor="start" style="font: 14px Menlo, Monaco, &quot;Courier New&quot;, monospace;"><tspan x="20" y="224">Committee_User</tspan></text><line x1="79" x2="79" y1="44" y2="200" stroke="#000000" fill="none" style="stroke-width: 2px;"></line><rect x="266" y="10" width="122" height="34" stroke="#000000" fill="#ffffff" style="stroke-width: 2px;"></rect><text x="276" y="34" text-anchor="start" style="font: 14px Menlo, Monaco, &quot;Courier New&quot;, monospace;"><tspan x="276" y="34">L1_Committee</tspan></text><rect x="266" y="200" width="122" height="34" stroke="#000000" fill="#ffffff" style="stroke-width: 2px;"></rect><text x="276" y="224" text-anchor="start" style="font: 14px Menlo, Monaco, &quot;Courier New&quot;, monospace;"><tspan x="276" y="224">L1_Committee</tspan></text><line x1="327" x2="327" y1="44" y2="200" stroke="#000000" fill="none" style="stroke-width: 2px;"></line><rect x="527" y="10" width="96" height="34" stroke="#000000" fill="#ffffff" style="stroke-width: 2px;"></rect><text x="537" y="34" text-anchor="start" style="font: 14px Menlo, Monaco, &quot;Courier New&quot;, monospace;"><tspan x="537" y="34">L1_Bridge</tspan></text><rect x="527" y="200" width="96" height="34" stroke="#000000" fill="#ffffff" style="stroke-width: 2px;"></rect><text x="537" y="224" text-anchor="start" style="font: 14px Menlo, Monaco, &quot;Courier New&quot;, monospace;"><tspan x="537" y="224">L1_Bridge</tspan></text><line x1="575" x2="575" y1="44" y2="200" stroke="#000000" fill="none" style="stroke-width: 2px;"></line><rect x="775" y="10" width="96" height="34" stroke="#000000" fill="#ffffff" style="stroke-width: 2px;"></rect><text x="785" y="34" text-anchor="start" style="font: 14px Menlo, Monaco, &quot;Courier New&quot;, monospace;"><tspan x="785" y="34">L2_Bridge</tspan></text><rect x="775" y="200" width="96" height="34" stroke="#000000" fill="#ffffff" style="stroke-width: 2px;"></rect><text x="785" y="224" text-anchor="start" style="font: 14px Menlo, Monaco, &quot;Courier New&quot;, monospace;"><tspan x="785" y="224">L2_Bridge</tspan></text><line x1="823" x2="823" y1="44" y2="200" stroke="#000000" fill="none" style="stroke-width: 2px;"></line><rect x="891" y="10" width="147" height="34" stroke="#000000" fill="#ffffff" style="stroke-width: 2px;"></rect><text x="901" y="34" text-anchor="start" style="font: 14px Menlo, Monaco, &quot;Courier New&quot;, monospace;"><tspan x="901" y="34">L2_Collection_1</tspan></text><rect x="891" y="200" width="147" height="34" stroke="#000000" fill="#ffffff" style="stroke-width: 2px;"></rect><text x="901" y="224" text-anchor="start" style="font: 14px Menlo, Monaco, &quot;Courier New&quot;, monospace;"><tspan x="901" y="224">L2_Collection_1</tspan></text><line x1="964" x2="964" y1="44" y2="200" stroke="#000000" fill="none" style="stroke-width: 2px;"></line><text x="89" y="78" text-anchor="start" style="font: 14px Menlo, Monaco, &quot;Courier New&quot;, monospace;"><tspan x="89" y="78">Approve/Reject Collection_1</tspan></text><line x1="79" x2="327" y1="83" y2="83" stroke="#000000" fill="none" marker-end="url(#markerArrowBlock)" style="stroke-width: 2px;"></line><text x="337" y="112" text-anchor="start" style="font: 14px Menlo, Monaco, &quot;Courier New&quot;, monospace;"><tspan x="337" y="112">Approve/Reject Collection_1</tspan></text><line x1="327" x2="575" y1="117" y2="117" stroke="#000000" fill="none" marker-end="url(#markerArrowBlock)" style="stroke-width: 2px;"></line><text x="585" y="146" text-anchor="start" style="font: 14px Menlo, Monaco, &quot;Courier New&quot;, monospace;"><tspan x="585" y="146">Approve/Reject Collection_1</tspan></text><line x1="575" x2="823" y1="151" y2="151" stroke="#000000" fill="none" marker-end="url(#markerArrowBlock)" style="stroke-width: 2px;"></line><text x="834" y="180" text-anchor="start" style="font: 14px Menlo, Monaco, &quot;Courier New&quot;, monospace;"><tspan x="834" y="180">Approve/Reject</tspan></text><line x1="823" x2="964" y1="185" y2="185" stroke="#000000" fill="none" marker-end="url(#markerArrowBlock)" style="stroke-width: 2px;"></line></svg>