<?xml version="1.0" encoding="UTF-8"?>
<!DOCTYPE svg PUBLIC "-//W3C//DTD SVG 1.1//EN" "http://www.w3.org/Graphics/SVG/1.1/DTD/svg11.dtd">
<svg width="565" height="247" xmlns="http://www.w3.org/2000/svg"><defs><marker viewBox="0 0 5 5" markerWidth="5" markerHeight="5" orient="auto" refX="5" refY="2.5" id="markerArrowBlock"><path d="M 0 0 L 5 2.5 L 0 5 z"></path></marker><marker viewBox="0 0 9.6 16" markerWidth="4" markerHeight="16" orient="auto" refX="9.6" refY="8" id="markerArrowOpen"><path d="M 9.6,8 1.92,16 0,13.7 5.76,8 0,2.286 1.92,0 9.6,8 z"></path></marker></defs><rect x="10" y="10" width="53" height="33" style="stroke-width: 2px;" stroke="#000000" fill="#ffffff"></rect><text x="20" y="30" style="font: 14px Menlo, Monaco, &quot;Courier New&quot;, monospace;" text-anchor="start"><tspan x="20" y="30">user</tspan></text><rect x="10" y="184" width="53" height="33" style="stroke-width: 2px;" stroke="#000000" fill="#ffffff"></rect><text x="20" y="204" style="font: 14px Menlo, Monaco, &quot;Courier New&quot;, monospace;" text-anchor="start"><tspan x="20" y="204">user</tspan></text><line x1="36" x2="36" y1="43" y2="184" style="stroke-width: 2px;" stroke="#000000" fill="none"></line><rect x="97" y="10" width="87" height="33" style="stroke-width: 2px;" stroke="#000000" fill="#ffffff"></rect><text x="107" y="31" style="font: 14px Menlo, Monaco, &quot;Courier New&quot;, monospace;" text-anchor="start"><tspan x="107" y="31">renderer</tspan></text><rect x="97" y="184" width="87" height="33" style="stroke-width: 2px;" stroke="#000000" fill="#ffffff"></rect><text x="107" y="206" style="font: 14px Menlo, Monaco, &quot;Courier New&quot;, monospace;" text-anchor="start"><tspan x="107" y="206">renderer</tspan></text><line x1="140" x2="140" y1="43" y2="184" style="stroke-width: 2px;" stroke="#000000" fill="none"></line><rect x="204" y="10" width="70" height="33" style="stroke-width: 2px;" stroke="#000000" fill="#ffffff"></rect><text x="214" y="31" style="font: 14px Menlo, Monaco, &quot;Courier New&quot;, monospace;" text-anchor="start"><tspan x="214" y="31">worker</tspan></text><rect x="204" y="184" width="70" height="33" style="stroke-width: 2px;" stroke="#000000" fill="#ffffff"></rect><text x="214" y="206" style="font: 14px Menlo, Monaco, &quot;Courier New&quot;, monospace;" text-anchor="start"><tspan x="214" y="206">worker</tspan></text><line x1="239" x2="239" y1="43" y2="184" style="stroke-width: 2px;" stroke="#000000" fill="none"></line><rect x="400" y="10" width="45" height="33" style="stroke-width: 2px;" stroke="#000000" fill="#ffffff"></rect><text x="410" y="33" style="font: 14px Menlo, Monaco, &quot;Courier New&quot;, monospace;" text-anchor="start"><tspan x="410" y="33">p2p</tspan></text><rect x="400" y="184" width="45" height="33" style="stroke-width: 2px;" stroke="#000000" fill="#ffffff"></rect><text x="410" y="207" style="font: 14px Menlo, Monaco, &quot;Courier New&quot;, monospace;" text-anchor="start"><tspan x="410" y="207">p2p</tspan></text><line x1="422" x2="422" y1="43" y2="184" style="stroke-width: 2px;" stroke="#000000" fill="none"></line><rect x="465" y="10" width="70" height="33" style="stroke-width: 2px;" stroke="#000000" fill="#ffffff"></rect><text x="475" y="31" style="font: 14px Menlo, Monaco, &quot;Courier New&quot;, monospace;" text-anchor="start"><tspan x="475" y="31">kernel</tspan></text><rect x="465" y="184" width="70" height="33" style="stroke-width: 2px;" stroke="#000000" fill="#ffffff"></rect><text x="475" y="206" style="font: 14px Menlo, Monaco, &quot;Courier New&quot;, monospace;" text-anchor="start"><tspan x="475" y="206">kernel</tspan></text><line x1="500" x2="500" y1="43" y2="184" style="stroke-width: 2px;" stroke="#000000" fill="none"></line><text x="46" y="73" style="font: 14px Menlo, Monaco, &quot;Courier New&quot;, monospace;" text-anchor="start"><tspan x="46" y="73">save state</tspan></text><line x1="36" x2="140" y1="78" y2="78" style="stroke-width: 2px;" stroke="#000000" fill="none" marker-end="url(#markerArrowBlock)"></line><text x="173" y="101" style="font: 14px Menlo, Monaco, &quot;Courier New&quot;, monospace;" text-anchor="start"><tspan x="173" y="101">save</tspan></text><line x1="140" x2="239" y1="106" y2="106" style="stroke-width: 2px;" stroke="#000000" fill="none" marker-end="url(#markerArrowBlock)"></line><line x1="239" x2="259" y1="121" y2="121" style="stroke-width: 2px;" stroke="#000000" fill="none"></line><line x1="259" x2="259" y1="121" y2="136" style="stroke-width: 2px;" stroke="#000000" fill="none"></line><line x1="259" x2="239" y1="136" y2="136" style="stroke-width: 2px;" stroke="#000000" fill="none" marker-end="url(#markerArrowBlock)"></line><text x="264" y="134" style="font: 14px Menlo, Monaco, &quot;Courier New&quot;, monospace;" text-anchor="start"><tspan x="264" y="134">serialize scene</tspan></text><line x1="239" x2="259" y1="151" y2="151" style="stroke-width: 2px;" stroke="#000000" fill="none"></line><line x1="259" x2="259" y1="151" y2="169" style="stroke-width: 2px;" stroke="#000000" fill="none"></line><line x1="259" x2="239" y1="169" y2="169" style="stroke-width: 2px;" stroke="#000000" fill="none" marker-end="url(#markerArrowBlock)"></line><text x="264" y="166" style="font: 14px Menlo, Monaco, &quot;Courier New&quot;, monospace;" text-anchor="start"><tspan x="264" y="166">save JSON (POST?)</tspan></text></svg>