<?xml version="1.0" encoding="UTF-8"?>
<!DOCTYPE svg PUBLIC "-//W3C//DTD SVG 1.1//EN" "http://www.w3.org/Graphics/SVG/1.1/DTD/svg11.dtd">
<svg width="685" height="243" xmlns="http://www.w3.org/2000/svg" x-original-source="participant Desktop renderer as R

participant Kernel as K

R->K: StartAuthentication_Native\n{provider=null,isGuest=true}
K->K: Load or create guest session
K->R: Authenticated"><defs><marker viewBox="0 0 5 5" markerWidth="5" markerHeight="5" orient="auto" refX="5" refY="2.5" id="markerArrowBlock"><path d="M 0 0 L 5 2.5 L 0 5 z"></path></marker><marker viewBox="0 0 9.6 16" markerWidth="4" markerHeight="16" orient="auto" refX="9.6" refY="8" id="markerArrowOpen"><path d="M 9.6,8 1.92,16 0,13.7 5.76,8 0,2.286 1.92,0 9.6,8 z"></path></marker></defs><rect x="10" y="10" width="155" height="34" stroke="#000000" fill="#ffffff" style="stroke-width: 2px;"></rect><text x="20" y="34" text-anchor="start" style="font: 14px Menlo, Monaco, &quot;Courier New&quot;, monospace;"><tspan x="20" y="34">Desktop renderer</tspan></text><rect x="10" y="179" width="155" height="34" stroke="#000000" fill="#ffffff" style="stroke-width: 2px;"></rect><text x="20" y="203" text-anchor="start" style="font: 14px Menlo, Monaco, &quot;Courier New&quot;, monospace;"><tspan x="20" y="203">Desktop renderer</tspan></text><line x1="87" x2="87" y1="44" y2="179" stroke="#000000" fill="none" style="stroke-width: 2px;"></line><rect x="308" y="10" width="71" height="34" stroke="#000000" fill="#ffffff" style="stroke-width: 2px;"></rect><text x="318" y="32" text-anchor="start" style="font: 14px Menlo, Monaco, &quot;Courier New&quot;, monospace;"><tspan x="318" y="32">Kernel</tspan></text><rect x="308" y="179" width="71" height="34" stroke="#000000" fill="#ffffff" style="stroke-width: 2px;"></rect><text x="318" y="201" text-anchor="start" style="font: 14px Menlo, Monaco, &quot;Courier New&quot;, monospace;"><tspan x="318" y="201">Kernel</tspan></text><line x1="343" x2="343" y1="44" y2="179" stroke="#000000" fill="none" style="stroke-width: 2px;"></line><text x="97" y="77" text-anchor="start" style="font: 14px Menlo, Monaco, &quot;Courier New&quot;, monospace;"><tspan x="97" y="77">StartAuthentication_Native</tspan><tspan x="97" dy="1.2em">{provider=null,isGuest=true}</tspan></text><line x1="87" x2="343" y1="99" y2="99" stroke="#000000" fill="none" marker-end="url(#markerArrowBlock)" style="stroke-width: 2px;"></line><line x1="343" x2="363" y1="114" y2="114" stroke="#000000" fill="none" style="stroke-width: 2px;"></line><line x1="363" x2="363" y1="114" y2="133" stroke="#000000" fill="none" style="stroke-width: 2px;"></line><line x1="363" x2="343" y1="133" y2="133" stroke="#000000" fill="none" marker-end="url(#markerArrowBlock)" style="stroke-width: 2px;"></line><text x="368" y="130" text-anchor="start" style="font: 14px Menlo, Monaco, &quot;Courier New&quot;, monospace;"><tspan x="368" y="130">Load or create guest session</tspan></text><text x="160" y="159" text-anchor="start" style="font: 14px Menlo, Monaco, &quot;Courier New&quot;, monospace;"><tspan x="160" y="159">Authenticated</tspan></text><line x1="343" x2="87" y1="164" y2="164" stroke="#000000" fill="none" marker-end="url(#markerArrowBlock)" style="stroke-width: 2px;"></line></svg>