<?xml version="1.0" encoding="UTF-8"?>
<!DOCTYPE svg PUBLIC "-//W3C//DTD SVG 1.1//EN" "http://www.w3.org/Graphics/SVG/1.1/DTD/svg11.dtd">
<svg width="672" height="318" xmlns="http://www.w3.org/2000/svg" x-original-source="participant Launcher as L
participant Desktop renderer as R
participant NodeJS as N
participant Kernel as K

L->R: open process
R->N: Spawn NodeJS process
N->N: Load kernel
N->K: Initialize WS Connection
R-->K: WS Connection details
K->R: WS Connection"><defs><marker viewBox="0 0 5 5" markerWidth="5" markerHeight="5" orient="auto" refX="5" refY="2.5" id="markerArrowBlock"><path d="M 0 0 L 5 2.5 L 0 5 z"></path></marker><marker viewBox="0 0 9.6 16" markerWidth="4" markerHeight="16" orient="auto" refX="9.6" refY="8" id="markerArrowOpen"><path d="M 9.6,8 1.92,16 0,13.7 5.76,8 0,2.286 1.92,0 9.6,8 z"></path></marker></defs><rect x="10" y="10" width="88" height="34" stroke="#000000" fill="#ffffff" style="stroke-width: 2px;"></rect><text x="20" y="32" text-anchor="start" style="font: 14px Menlo, Monaco, &quot;Courier New&quot;, monospace;"><tspan x="20" y="32">Launcher</tspan></text><rect x="10" y="254" width="88" height="34" stroke="#000000" fill="#ffffff" style="stroke-width: 2px;"></rect><text x="20" y="276" text-anchor="start" style="font: 14px Menlo, Monaco, &quot;Courier New&quot;, monospace;"><tspan x="20" y="276">Launcher</tspan></text><line x1="54" x2="54" y1="44" y2="254" stroke="#000000" fill="none" style="stroke-width: 2px;"></line><rect x="118" y="10" width="155" height="34" stroke="#000000" fill="#ffffff" style="stroke-width: 2px;"></rect><text x="128" y="34" text-anchor="start" style="font: 14px Menlo, Monaco, &quot;Courier New&quot;, monospace;"><tspan x="128" y="34">Desktop renderer</tspan></text><rect x="118" y="254" width="155" height="34" stroke="#000000" fill="#ffffff" style="stroke-width: 2px;"></rect><text x="128" y="278" text-anchor="start" style="font: 14px Menlo, Monaco, &quot;Courier New&quot;, monospace;"><tspan x="128" y="278">Desktop renderer</tspan></text><line x1="195" x2="195" y1="44" y2="254" stroke="#000000" fill="none" style="stroke-width: 2px;"></line><rect x="349" y="10" width="71" height="34" stroke="#000000" fill="#ffffff" style="stroke-width: 2px;"></rect><text x="359" y="32" text-anchor="start" style="font: 14px Menlo, Monaco, &quot;Courier New&quot;, monospace;"><tspan x="359" y="32">NodeJS</tspan></text><rect x="349" y="254" width="71" height="34" stroke="#000000" fill="#ffffff" style="stroke-width: 2px;"></rect><text x="359" y="276" text-anchor="start" style="font: 14px Menlo, Monaco, &quot;Courier New&quot;, monospace;"><tspan x="359" y="276">NodeJS</tspan></text><line x1="384" x2="384" y1="44" y2="254" stroke="#000000" fill="none" style="stroke-width: 2px;"></line><rect x="571" y="10" width="71" height="34" stroke="#000000" fill="#ffffff" style="stroke-width: 2px;"></rect><text x="581" y="32" text-anchor="start" style="font: 14px Menlo, Monaco, &quot;Courier New&quot;, monospace;"><tspan x="581" y="32">Kernel</tspan></text><rect x="571" y="254" width="71" height="34" stroke="#000000" fill="#ffffff" style="stroke-width: 2px;"></rect><text x="581" y="276" text-anchor="start" style="font: 14px Menlo, Monaco, &quot;Courier New&quot;, monospace;"><tspan x="581" y="276">Kernel</tspan></text><line x1="606" x2="606" y1="44" y2="254" stroke="#000000" fill="none" style="stroke-width: 2px;"></line><text x="74" y="76" text-anchor="start" style="font: 14px Menlo, Monaco, &quot;Courier New&quot;, monospace;"><tspan x="74" y="76">open process</tspan></text><line x1="54" x2="195" y1="81" y2="81" stroke="#000000" fill="none" marker-end="url(#markerArrowBlock)" style="stroke-width: 2px;"></line><text x="205" y="110" text-anchor="start" style="font: 14px Menlo, Monaco, &quot;Courier New&quot;, monospace;"><tspan x="205" y="110">Spawn NodeJS process</tspan></text><line x1="195" x2="384" y1="115" y2="115" stroke="#000000" fill="none" marker-end="url(#markerArrowBlock)" style="stroke-width: 2px;"></line><line x1="384" x2="404" y1="130" y2="130" stroke="#000000" fill="none" style="stroke-width: 2px;"></line><line x1="404" x2="404" y1="130" y2="146" stroke="#000000" fill="none" style="stroke-width: 2px;"></line><line x1="404" x2="384" y1="146" y2="146" stroke="#000000" fill="none" marker-end="url(#markerArrowBlock)" style="stroke-width: 2px;"></line><text x="409" y="143" text-anchor="start" style="font: 14px Menlo, Monaco, &quot;Courier New&quot;, monospace;"><tspan x="409" y="143">Load kernel</tspan></text><text x="394" y="172" text-anchor="start" style="font: 14px Menlo, Monaco, &quot;Courier New&quot;, monospace;"><tspan x="394" y="172">Initialize WS Connection</tspan></text><line x1="384" x2="606" y1="177" y2="177" stroke="#000000" fill="none" marker-end="url(#markerArrowBlock)" style="stroke-width: 2px;"></line><text x="312" y="203" text-anchor="start" style="font: 14px Menlo, Monaco, &quot;Courier New&quot;, monospace;"><tspan x="312" y="203">WS Connection details</tspan></text><line x1="195" x2="606" y1="208" y2="208" stroke="#000000" fill="none" stroke-dasharray="6px, 2px" marker-end="url(#markerArrowBlock)" style="stroke-width: 2px;"></line><text x="346" y="234" text-anchor="start" style="font: 14px Menlo, Monaco, &quot;Courier New&quot;, monospace;"><tspan x="346" y="234">WS Connection</tspan></text><line x1="606" x2="195" y1="239" y2="239" stroke="#000000" fill="none" marker-end="url(#markerArrowBlock)" style="stroke-width: 2px;"></line></svg>