<?xml version="1.0" encoding="UTF-8" standalone="no"?>
<!DOCTYPE svg PUBLIC "-//W3C//DTD SVG 1.1//EN"
 "http://www.w3.org/Graphics/SVG/1.1/DTD/svg11.dtd">
<!-- Generated by graphviz version 2.44.0 (20200518.1210)
 -->
<!-- Pages: 1 -->
<svg width="518pt" height="320pt"
 viewBox="0.00 0.00 518.00 320.00" xmlns="http://www.w3.org/2000/svg" xmlns:xlink="http://www.w3.org/1999/xlink">
<g id="graph0" class="graph" transform="scale(1 1) rotate(0) translate(4 316)">
<polygon fill="white" stroke="transparent" points="-4,4 -4,-316 514,-316 514,4 -4,4"/>
<g id="clust1" class="cluster">
<title>clusterL2</title>
<polygon fill="none" stroke="#00aaff" points="8,-88 8,-304 502,-304 502,-88 8,-88"/>
<text text-anchor="middle" x="255" y="-291" font-family="arial" font-size="10.00" fill="grey">L2</text>
</g>
<g id="clust2" class="cluster">
<title>clusterL1</title>
<polygon fill="none" stroke="green" points="51,-8 51,-80 392,-80 392,-8 51,-8"/>
<text text-anchor="middle" x="221.5" y="-67" font-family="arial" font-size="10.00" fill="grey">L1 Mainnet</text>
</g>
<!-- factory_l2 -->
<g id="node1" class="node">
<title>factory_l2</title>
<path fill="none" stroke="blue" d="M288.73,-276C288.73,-276 249.27,-276 249.27,-276 243.27,-276 237.27,-270 237.27,-264 237.27,-264 237.27,-252 237.27,-252 237.27,-246 243.27,-240 249.27,-240 249.27,-240 288.73,-240 288.73,-240 294.73,-240 300.73,-246 300.73,-252 300.73,-252 300.73,-264 300.73,-264 300.73,-270 294.73,-276 288.73,-276"/>
<text text-anchor="middle" x="269" y="-255" font-family="arial" font-size="10.00">Factory L2</text>
</g>
<!-- collection_l2_1 -->
<g id="node3" class="node">
<title>collection_l2_1</title>
<path fill="none" stroke="black" d="M92.28,-204C92.28,-204 27.72,-204 27.72,-204 21.72,-204 15.72,-198 15.72,-192 15.72,-192 15.72,-180 15.72,-180 15.72,-174 21.72,-168 27.72,-168 27.72,-168 92.28,-168 92.28,-168 98.28,-168 104.28,-174 104.28,-180 104.28,-180 104.28,-192 104.28,-192 104.28,-198 98.28,-204 92.28,-204"/>
<text text-anchor="middle" x="60" y="-183" font-family="arial" font-size="10.00">Collection (data)</text>
</g>
<!-- factory_l2&#45;&gt;collection_l2_1 -->
<g id="edge1" class="edge">
<title>factory_l2&#45;&gt;collection_l2_1</title>
<path fill="none" stroke="blue" d="M237.26,-246.37C204.62,-235.44 153.19,-218.21 114.12,-205.13"/>
<polygon fill="blue" stroke="blue" points="115.07,-201.75 104.47,-201.89 112.84,-208.39 115.07,-201.75"/>
</g>
<!-- collection_l2_2 -->
<g id="node4" class="node">
<title>collection_l2_2</title>
<path fill="none" stroke="black" d="M169.89,-204C169.89,-204 134.11,-204 134.11,-204 128.11,-204 122.11,-198 122.11,-192 122.11,-192 122.11,-180 122.11,-180 122.11,-174 128.11,-168 134.11,-168 134.11,-168 169.89,-168 169.89,-168 175.89,-168 181.89,-174 181.89,-180 181.89,-180 181.89,-192 181.89,-192 181.89,-198 175.89,-204 169.89,-204"/>
<text text-anchor="middle" x="152" y="-183" font-family="arial" font-size="10.00">Collection</text>
</g>
<!-- factory_l2&#45;&gt;collection_l2_2 -->
<g id="edge3" class="edge">
<title>factory_l2&#45;&gt;collection_l2_2</title>
<path fill="none" stroke="blue" d="M240.38,-239.88C225.08,-230.72 206.06,-219.34 189.58,-209.48"/>
<polygon fill="blue" stroke="blue" points="191.11,-206.32 180.73,-204.19 187.52,-212.33 191.11,-206.32"/>
</g>
<!-- collection_l2_3 -->
<g id="node5" class="node">
<title>collection_l2_3</title>
<path fill="none" stroke="black" d="M247.89,-204C247.89,-204 212.11,-204 212.11,-204 206.11,-204 200.11,-198 200.11,-192 200.11,-192 200.11,-180 200.11,-180 200.11,-174 206.11,-168 212.11,-168 212.11,-168 247.89,-168 247.89,-168 253.89,-168 259.89,-174 259.89,-180 259.89,-180 259.89,-192 259.89,-192 259.89,-198 253.89,-204 247.89,-204"/>
<text text-anchor="middle" x="230" y="-183" font-family="arial" font-size="10.00">Collection</text>
</g>
<!-- factory_l2&#45;&gt;collection_l2_3 -->
<g id="edge5" class="edge">
<title>factory_l2&#45;&gt;collection_l2_3</title>
<path fill="none" stroke="blue" d="M259.36,-239.7C254.87,-231.64 249.44,-221.89 244.48,-212.98"/>
<polygon fill="blue" stroke="blue" points="247.45,-211.14 239.53,-204.1 241.34,-214.54 247.45,-211.14"/>
</g>
<!-- collection_l2_4 -->
<g id="node6" class="node">
<title>collection_l2_4</title>
<path fill="none" stroke="black" d="M325.89,-204C325.89,-204 290.11,-204 290.11,-204 284.11,-204 278.11,-198 278.11,-192 278.11,-192 278.11,-180 278.11,-180 278.11,-174 284.11,-168 290.11,-168 290.11,-168 325.89,-168 325.89,-168 331.89,-168 337.89,-174 337.89,-180 337.89,-180 337.89,-192 337.89,-192 337.89,-198 331.89,-204 325.89,-204"/>
<text text-anchor="middle" x="308" y="-183" font-family="arial" font-size="10.00">Collection</text>
</g>
<!-- factory_l2&#45;&gt;collection_l2_4 -->
<g id="edge7" class="edge">
<title>factory_l2&#45;&gt;collection_l2_4</title>
<path fill="none" stroke="blue" d="M278.64,-239.7C283.13,-231.64 288.56,-221.89 293.52,-212.98"/>
<polygon fill="blue" stroke="blue" points="296.66,-214.54 298.47,-204.1 290.55,-211.14 296.66,-214.54"/>
</g>
<!-- collection_l2_5 -->
<g id="node7" class="node">
<title>collection_l2_5</title>
<path fill="none" stroke="black" d="M403.89,-204C403.89,-204 368.11,-204 368.11,-204 362.11,-204 356.11,-198 356.11,-192 356.11,-192 356.11,-180 356.11,-180 356.11,-174 362.11,-168 368.11,-168 368.11,-168 403.89,-168 403.89,-168 409.89,-168 415.89,-174 415.89,-180 415.89,-180 415.89,-192 415.89,-192 415.89,-198 409.89,-204 403.89,-204"/>
<text text-anchor="middle" x="386" y="-183" font-family="arial" font-size="10.00">Collection</text>
</g>
<!-- factory_l2&#45;&gt;collection_l2_5 -->
<g id="edge9" class="edge">
<title>factory_l2&#45;&gt;collection_l2_5</title>
<path fill="none" stroke="blue" d="M297.62,-239.88C312.92,-230.72 331.94,-219.34 348.42,-209.48"/>
<polygon fill="blue" stroke="blue" points="350.48,-212.33 357.27,-204.19 346.89,-206.32 350.48,-212.33"/>
</g>
<!-- collection_l2_6 -->
<g id="node8" class="node">
<title>collection_l2_6</title>
<path fill="none" stroke="black" d="M481.89,-204C481.89,-204 446.11,-204 446.11,-204 440.11,-204 434.11,-198 434.11,-192 434.11,-192 434.11,-180 434.11,-180 434.11,-174 440.11,-168 446.11,-168 446.11,-168 481.89,-168 481.89,-168 487.89,-168 493.89,-174 493.89,-180 493.89,-180 493.89,-192 493.89,-192 493.89,-198 487.89,-204 481.89,-204"/>
<text text-anchor="middle" x="464" y="-183" font-family="arial" font-size="10.00">Collection</text>
</g>
<!-- factory_l2&#45;&gt;collection_l2_6 -->
<g id="edge11" class="edge">
<title>factory_l2&#45;&gt;collection_l2_6</title>
<path fill="none" stroke="blue" d="M300.65,-247.1C330.38,-237.62 376.26,-222.51 424.25,-204.15"/>
<polygon fill="blue" stroke="blue" points="425.8,-207.3 433.87,-200.43 423.28,-200.77 425.8,-207.3"/>
</g>
<!-- bridge_l2 -->
<g id="node2" class="node">
<title>bridge_l2</title>
<path fill="none" stroke="blue" d="M286.29,-132C286.29,-132 251.71,-132 251.71,-132 245.71,-132 239.71,-126 239.71,-120 239.71,-120 239.71,-108 239.71,-108 239.71,-102 245.71,-96 251.71,-96 251.71,-96 286.29,-96 286.29,-96 292.29,-96 298.29,-102 298.29,-108 298.29,-108 298.29,-120 298.29,-120 298.29,-126 292.29,-132 286.29,-132"/>
<text text-anchor="middle" x="269" y="-111" font-family="arial" font-size="10.00">Bridge L2</text>
</g>
<!-- bridge_l1 -->
<g id="node10" class="node">
<title>bridge_l1</title>
<path fill="none" stroke="green" d="M286.29,-52C286.29,-52 251.71,-52 251.71,-52 245.71,-52 239.71,-46 239.71,-40 239.71,-40 239.71,-28 239.71,-28 239.71,-22 245.71,-16 251.71,-16 251.71,-16 286.29,-16 286.29,-16 292.29,-16 298.29,-22 298.29,-28 298.29,-28 298.29,-40 298.29,-40 298.29,-46 292.29,-52 286.29,-52"/>
<text text-anchor="middle" x="269" y="-31" font-family="arial" font-size="10.00">Bridge L1</text>
</g>
<!-- bridge_l2&#45;&gt;bridge_l1 -->
<g id="edge16" class="edge">
<title>bridge_l2&#45;&gt;bridge_l1</title>
<path fill="none" stroke="blue" d="M274.72,-95.69C275.76,-85.89 276.01,-73.42 275.47,-62.33"/>
<polygon fill="blue" stroke="blue" points="278.96,-61.97 274.71,-52.26 271.98,-62.5 278.96,-61.97"/>
</g>
<!-- collection_l2_1&#45;&gt;bridge_l2 -->
<g id="edge2" class="edge">
<title>collection_l2_1&#45;&gt;bridge_l2</title>
<path fill="none" stroke="blue" d="M104.32,-170.15C141.56,-157.68 194.27,-140.03 229.94,-128.08"/>
<polygon fill="blue" stroke="blue" points="231.16,-131.37 239.53,-124.87 228.93,-124.73 231.16,-131.37"/>
</g>
<!-- collection_l2_2&#45;&gt;bridge_l2 -->
<g id="edge4" class="edge">
<title>collection_l2_2&#45;&gt;bridge_l2</title>
<path fill="none" stroke="blue" d="M180.62,-167.88C195.92,-158.72 214.94,-147.34 231.42,-137.48"/>
<polygon fill="blue" stroke="blue" points="233.48,-140.33 240.27,-132.19 229.89,-134.32 233.48,-140.33"/>
</g>
<!-- collection_l2_3&#45;&gt;bridge_l2 -->
<g id="edge6" class="edge">
<title>collection_l2_3&#45;&gt;bridge_l2</title>
<path fill="none" stroke="blue" d="M239.64,-167.7C244.13,-159.64 249.56,-149.89 254.52,-140.98"/>
<polygon fill="blue" stroke="blue" points="257.66,-142.54 259.47,-132.1 251.55,-139.14 257.66,-142.54"/>
</g>
<!-- collection_l2_4&#45;&gt;bridge_l2 -->
<g id="edge8" class="edge">
<title>collection_l2_4&#45;&gt;bridge_l2</title>
<path fill="none" stroke="blue" d="M298.36,-167.7C293.87,-159.64 288.44,-149.89 283.48,-140.98"/>
<polygon fill="blue" stroke="blue" points="286.45,-139.14 278.53,-132.1 280.34,-142.54 286.45,-139.14"/>
</g>
<!-- collection_l2_5&#45;&gt;bridge_l2 -->
<g id="edge10" class="edge">
<title>collection_l2_5&#45;&gt;bridge_l2</title>
<path fill="none" stroke="blue" d="M357.38,-167.88C342.08,-158.72 323.06,-147.34 306.58,-137.48"/>
<polygon fill="blue" stroke="blue" points="308.11,-134.32 297.73,-132.19 304.52,-140.33 308.11,-134.32"/>
</g>
<!-- collection_l2_6&#45;&gt;bridge_l2 -->
<g id="edge12" class="edge">
<title>collection_l2_6&#45;&gt;bridge_l2</title>
<path fill="none" stroke="blue" d="M433.87,-171.57C430.89,-170.33 427.89,-169.12 425,-168 385.64,-152.77 339.84,-137.49 308.09,-127.28"/>
<polygon fill="blue" stroke="blue" points="308.89,-123.86 298.3,-124.15 306.76,-130.53 308.89,-123.86"/>
</g>
<!-- factory_l1 -->
<g id="node9" class="node">
<title>factory_l1</title>
<path fill="none" stroke="black" d="M371.62,-52C371.62,-52 328.38,-52 328.38,-52 322.38,-52 316.38,-46 316.38,-40 316.38,-40 316.38,-28 316.38,-28 316.38,-22 322.38,-16 328.38,-16 328.38,-16 371.62,-16 371.62,-16 377.62,-16 383.62,-22 383.62,-28 383.62,-28 383.62,-40 383.62,-40 383.62,-46 377.62,-52 371.62,-52"/>
<text text-anchor="middle" x="350" y="-37" font-family="arial" font-size="10.00">Factory L1</text>
<text text-anchor="middle" x="350" y="-25" font-family="arial" font-size="10.00">(safeguard)</text>
</g>
<!-- bridge_l1&#45;&gt;bridge_l2 -->
<g id="edge15" class="edge">
<title>bridge_l1&#45;&gt;bridge_l2</title>
<path fill="none" stroke="blue" d="M263.29,-52.26C262.24,-62.05 261.99,-74.52 262.52,-85.61"/>
<polygon fill="blue" stroke="blue" points="259.04,-85.98 263.28,-95.69 266.02,-85.46 259.04,-85.98"/>
</g>
<!-- collection_l1_1 -->
<g id="node11" class="node">
<title>collection_l1_1</title>
<path fill="none" stroke="black" d="M209.18,-52C209.18,-52 70.82,-52 70.82,-52 64.82,-52 58.82,-46 58.82,-40 58.82,-40 58.82,-28 58.82,-28 58.82,-22 64.82,-16 70.82,-16 70.82,-16 209.18,-16 209.18,-16 215.18,-16 221.18,-22 221.18,-28 221.18,-28 221.18,-40 221.18,-40 221.18,-46 215.18,-52 209.18,-52"/>
<text text-anchor="middle" x="140" y="-31" font-family="arial" font-size="10.00">Collection (pointers &amp; ownership)</text>
</g>
<!-- bridge_l1&#45;&gt;collection_l1_1 -->
<g id="edge14" class="edge">
<title>bridge_l1&#45;&gt;collection_l1_1</title>
<path fill="none" stroke="gray" d="M239.61,-43.5C236.86,-44.13 234.1,-44.68 231.35,-45.16"/>
<polygon fill="gray" stroke="gray" points="230.79,-41.7 221.38,-46.58 231.77,-48.64 230.79,-41.7"/>
</g>
<!-- collection_l1_1&#45;&gt;bridge_l1 -->
<g id="edge13" class="edge">
<title>collection_l1_1&#45;&gt;bridge_l1</title>
<path fill="none" stroke="gray" d="M221.38,-21.42C224.13,-21.73 226.89,-22.1 229.64,-22.55"/>
<polygon fill="gray" stroke="gray" points="229.12,-26.02 239.61,-24.5 230.47,-19.15 229.12,-26.02"/>
</g>
</g>
</svg>
