<?xml version="1.0" encoding="UTF-8" standalone="no"?>
<!DOCTYPE svg PUBLIC "-//W3C//DTD SVG 1.1//EN"
 "http://www.w3.org/Graphics/SVG/1.1/DTD/svg11.dtd">
<!-- Generated by graphviz version 2.44.0 (20200518.1210)
 -->
<!-- Pages: 1 -->
<svg width="412pt" height="158pt"
 viewBox="0.00 0.00 411.57 158.00" xmlns="http://www.w3.org/2000/svg" xmlns:xlink="http://www.w3.org/1999/xlink">
<g id="graph0" class="graph" transform="scale(1 1) rotate(0) translate(4 154)">
<polygon fill="white" stroke="transparent" points="-4,4 -4,-154 407.57,-154 407.57,4 -4,4"/>
<!-- users -->
<g id="node1" class="node">
<title>users</title>
<path fill="none" stroke="black" d="M42,-144C42,-144 12,-144 12,-144 6,-144 0,-138 0,-132 0,-132 0,-120 0,-120 0,-114 6,-108 12,-108 12,-108 42,-108 42,-108 48,-108 54,-114 54,-120 54,-120 54,-132 54,-132 54,-138 48,-144 42,-144"/>
<text text-anchor="middle" x="27" y="-123" font-family="arial" font-size="10.00">users</text>
</g>
<!-- marketplace -->
<g id="node2" class="node">
<title>marketplace</title>
<path fill="none" stroke="black" d="M229.78,-144C229.78,-144 182.88,-144 182.88,-144 176.88,-144 170.88,-138 170.88,-132 170.88,-132 170.88,-120 170.88,-120 170.88,-114 176.88,-108 182.88,-108 182.88,-108 229.78,-108 229.78,-108 235.78,-108 241.78,-114 241.78,-120 241.78,-120 241.78,-132 241.78,-132 241.78,-138 235.78,-144 229.78,-144"/>
<text text-anchor="middle" x="206.33" y="-123" font-family="arial" font-size="10.00">marketplace</text>
</g>
<!-- users&#45;&gt;marketplace -->
<g id="edge1" class="edge">
<title>users&#45;&gt;marketplace</title>
<path fill="none" stroke="orange" d="M54.17,-126C82.19,-126 127.17,-126 160.79,-126"/>
<polygon fill="orange" stroke="orange" points="160.83,-129.5 170.83,-126 160.83,-122.5 160.83,-129.5"/>
<text text-anchor="middle" x="112.55" y="-141" font-family="arial" font-size="10.00" fill="orange">Perform primary &amp;</text>
<text text-anchor="middle" x="112.55" y="-129" font-family="arial" font-size="10.00" fill="orange"> secondary sales</text>
</g>
<!-- collections -->
<g id="node3" class="node">
<title>collections</title>
<path fill="none" stroke="black" d="M391.41,-90C391.41,-90 353.07,-90 353.07,-90 347.07,-90 341.07,-84 341.07,-78 341.07,-78 341.07,-66 341.07,-66 341.07,-60 347.07,-54 353.07,-54 353.07,-54 391.41,-54 391.41,-54 397.41,-54 403.41,-60 403.41,-66 403.41,-66 403.41,-78 403.41,-78 403.41,-84 397.41,-90 391.41,-90"/>
<text text-anchor="middle" x="372.24" y="-69" font-family="arial" font-size="10.00">collections</text>
</g>
<!-- marketplace&#45;&gt;collections -->
<g id="edge2" class="edge">
<title>marketplace&#45;&gt;collections</title>
<path fill="none" stroke="orange" d="M241.72,-114.71C264.71,-107.16 295.62,-97 322.9,-88 325.62,-87.1 328.42,-86.18 331.24,-85.25"/>
<polygon fill="orange" stroke="orange" points="332.42,-88.54 340.82,-82.08 330.22,-81.9 332.42,-88.54"/>
</g>
<!-- creators -->
<g id="node4" class="node">
<title>creators</title>
<path fill="none" stroke="black" d="M221.33,-90C221.33,-90 191.33,-90 191.33,-90 185.33,-90 179.33,-84 179.33,-78 179.33,-78 179.33,-66 179.33,-66 179.33,-60 185.33,-54 191.33,-54 191.33,-54 221.33,-54 221.33,-54 227.33,-54 233.33,-60 233.33,-66 233.33,-66 233.33,-78 233.33,-78 233.33,-84 227.33,-90 221.33,-90"/>
<text text-anchor="middle" x="206.33" y="-69" font-family="arial" font-size="10.00">creators</text>
</g>
<!-- creators&#45;&gt;collections -->
<g id="edge3" class="edge">
<title>creators&#45;&gt;collections</title>
<path fill="none" stroke="orange" d="M233.66,-72C259.81,-72 300.26,-72 330.54,-72"/>
<polygon fill="orange" stroke="orange" points="330.79,-75.5 340.79,-72 330.79,-68.5 330.79,-75.5"/>
<text text-anchor="middle" x="291.23" y="-75" font-family="arial" font-size="10.00" fill="orange">create</text>
</g>
<!-- commiteee -->
<g id="node5" class="node">
<title>commiteee</title>
<path fill="none" stroke="black" d="M226.72,-36C226.72,-36 185.94,-36 185.94,-36 179.94,-36 173.94,-30 173.94,-24 173.94,-24 173.94,-12 173.94,-12 173.94,-6 179.94,0 185.94,0 185.94,0 226.72,0 226.72,0 232.72,0 238.72,-6 238.72,-12 238.72,-12 238.72,-24 238.72,-24 238.72,-30 232.72,-36 226.72,-36"/>
<text text-anchor="middle" x="206.33" y="-15" font-family="arial" font-size="10.00">commiteee</text>
</g>
<!-- commiteee&#45;&gt;collections -->
<g id="edge4" class="edge">
<title>commiteee&#45;&gt;collections</title>
<path fill="none" stroke="orange" d="M238.73,-28.31C261.98,-35.94 294.42,-46.6 322.9,-56 325.62,-56.9 328.42,-57.82 331.24,-58.75"/>
<polygon fill="orange" stroke="orange" points="330.22,-62.1 340.82,-61.92 332.42,-55.46 330.22,-62.1"/>
<text text-anchor="middle" x="291.23" y="-59" font-family="arial" font-size="10.00" fill="orange">approve/reject</text>
</g>
</g>
</svg>
