<?xml version="1.0" encoding="UTF-8" standalone="no"?>
<!DOCTYPE svg PUBLIC "-//W3C//DTD SVG 1.1//EN"
 "http://www.w3.org/Graphics/SVG/1.1/DTD/svg11.dtd">
<!-- Generated by graphviz version 2.44.0 (20200518.1210)
 -->
<!-- Pages: 1 -->
<svg width="441pt" height="247pt"
 viewBox="0.00 0.00 441.04 247.00" xmlns="http://www.w3.org/2000/svg" xmlns:xlink="http://www.w3.org/1999/xlink">
<g id="graph0" class="graph" transform="scale(1 1) rotate(0) translate(4 243)">
<polygon fill="white" stroke="transparent" points="-4,4 -4,-243 437.04,-243 437.04,4 -4,4"/>
<!-- users -->
<g id="node1" class="node">
<title>users</title>
<path fill="none" stroke="black" d="M42,-178C42,-178 12,-178 12,-178 6,-178 0,-172 0,-166 0,-166 0,-154 0,-154 0,-148 6,-142 12,-142 12,-142 42,-142 42,-142 48,-142 54,-148 54,-154 54,-154 54,-166 54,-166 54,-172 48,-178 42,-178"/>
<text text-anchor="middle" x="27" y="-157" font-family="arial" font-size="10.00">users</text>
</g>
<!-- explorer -->
<g id="node2" class="node">
<title>explorer</title>
<path fill="none" stroke="black" d="M250.8,-223C250.8,-223 220.8,-223 220.8,-223 214.8,-223 208.8,-217 208.8,-211 208.8,-211 208.8,-199 208.8,-199 208.8,-193 214.8,-187 220.8,-187 220.8,-187 250.8,-187 250.8,-187 256.8,-187 262.8,-193 262.8,-199 262.8,-199 262.8,-211 262.8,-211 262.8,-217 256.8,-223 250.8,-223"/>
<text text-anchor="middle" x="235.8" y="-202" font-family="arial" font-size="10.00">explorer</text>
</g>
<!-- users&#45;&gt;explorer -->
<g id="edge1" class="edge">
<title>users&#45;&gt;explorer</title>
<path fill="none" stroke="orange" d="M36.55,-178.03C43.9,-191.24 55.88,-208.16 72,-216 112.23,-235.55 164.77,-226.8 199.13,-217.22"/>
<polygon fill="orange" stroke="orange" points="200.14,-220.57 208.75,-214.38 198.16,-213.86 200.14,-220.57"/>
<text text-anchor="middle" x="127.29" y="-230" font-family="arial" font-size="10.00" fill="orange">Perform primary sales</text>
</g>
<!-- users&#45;&gt;explorer -->
<!-- marketplace -->
<g id="node3" class="node">
<title>marketplace</title>
<path fill="none" stroke="black" d="M259.25,-144C259.25,-144 212.35,-144 212.35,-144 206.35,-144 200.35,-138 200.35,-132 200.35,-132 200.35,-120 200.35,-120 200.35,-114 206.35,-108 212.35,-108 212.35,-108 259.25,-108 259.25,-108 265.25,-108 271.25,-114 271.25,-120 271.25,-120 271.25,-132 271.25,-132 271.25,-138 265.25,-144 259.25,-144"/>
<text text-anchor="middle" x="235.8" y="-123" font-family="arial" font-size="10.00">marketplace</text>
</g>
<!-- users&#45;&gt;marketplace -->
<g id="edge2" class="edge">
<title>users&#45;&gt;marketplace</title>
<path fill="none" stroke="blue" d="M54.01,-163.15C85.2,-166.06 138.76,-168.3 182.57,-156 188.44,-154.35 194.35,-151.9 199.96,-149.09"/>
<polygon fill="blue" stroke="blue" points="201.99,-151.98 209.1,-144.12 198.64,-145.83 201.99,-151.98"/>
<text text-anchor="middle" x="127.29" y="-168" font-family="arial" font-size="10.00" fill="blue">Perform primary sales</text>
</g>
<!-- users&#45;&gt;marketplace -->
<g id="edge3" class="edge">
<title>users&#45;&gt;marketplace</title>
<path fill="none" stroke="orange" d="M54.05,-147.15C59.84,-144.75 66.03,-142.52 72,-141 111.09,-131.03 156.95,-127.51 190.02,-126.35"/>
<polygon fill="orange" stroke="orange" points="190.38,-129.84 200.28,-126.05 190.18,-122.84 190.38,-129.84"/>
<text text-anchor="middle" x="127.29" y="-144" font-family="arial" font-size="10.00" fill="orange">Perform secondary sales</text>
</g>
<!-- users&#45;&gt;marketplace -->
<g id="edge4" class="edge">
<title>users&#45;&gt;marketplace</title>
<path fill="none" stroke="blue" d="M38.49,-141.61C46.15,-130.18 57.67,-116.48 72,-110 109.57,-93.02 156.88,-100.44 190.8,-110.05"/>
<polygon fill="blue" stroke="blue" points="189.85,-113.42 200.43,-112.94 191.86,-106.71 189.85,-113.42"/>
<text text-anchor="middle" x="127.29" y="-113" font-family="arial" font-size="10.00" fill="blue">Bid</text>
</g>
<!-- users&#45;&gt;marketplace -->
<!-- collections -->
<g id="node4" class="node">
<title>collections</title>
<path fill="none" stroke="black" d="M420.88,-116C420.88,-116 382.53,-116 382.53,-116 376.53,-116 370.53,-110 370.53,-104 370.53,-104 370.53,-92 370.53,-92 370.53,-86 376.53,-80 382.53,-80 382.53,-80 420.88,-80 420.88,-80 426.88,-80 432.88,-86 432.88,-92 432.88,-92 432.88,-104 432.88,-104 432.88,-110 426.88,-116 420.88,-116"/>
<text text-anchor="middle" x="401.71" y="-95" font-family="arial" font-size="10.00">collections</text>
</g>
<!-- explorer&#45;&gt;collections -->
<g id="edge5" class="edge">
<title>explorer&#45;&gt;collections</title>
<path fill="none" stroke="orange" d="M263.13,-187.81C290.56,-169.9 333.72,-141.73 364.38,-121.71"/>
<polygon fill="orange" stroke="orange" points="366.61,-124.44 373.07,-116.04 362.78,-118.58 366.61,-124.44"/>
</g>
<!-- marketplace&#45;&gt;collections -->
<g id="edge6" class="edge">
<title>marketplace&#45;&gt;collections</title>
<path fill="none" stroke="orange" d="M271.16,-120.13C297.21,-115.68 333.09,-109.55 360.48,-104.87"/>
<polygon fill="orange" stroke="orange" points="361.26,-108.29 370.52,-103.16 360.08,-101.39 361.26,-108.29"/>
</g>
<!-- creators -->
<g id="node5" class="node">
<title>creators</title>
<path fill="none" stroke="black" d="M42,-66C42,-66 12,-66 12,-66 6,-66 0,-60 0,-54 0,-54 0,-42 0,-42 0,-36 6,-30 12,-30 12,-30 42,-30 42,-30 48,-30 54,-36 54,-42 54,-42 54,-54 54,-54 54,-60 48,-66 42,-66"/>
<text text-anchor="middle" x="27" y="-45" font-family="arial" font-size="10.00">creators</text>
</g>
<!-- stores -->
<g id="node6" class="node">
<title>stores</title>
<path fill="none" stroke="black" d="M250.8,-90C250.8,-90 220.8,-90 220.8,-90 214.8,-90 208.8,-84 208.8,-78 208.8,-78 208.8,-66 208.8,-66 208.8,-60 214.8,-54 220.8,-54 220.8,-54 250.8,-54 250.8,-54 256.8,-54 262.8,-60 262.8,-66 262.8,-66 262.8,-78 262.8,-78 262.8,-84 256.8,-90 250.8,-90"/>
<text text-anchor="middle" x="235.8" y="-69" font-family="arial" font-size="10.00">stores</text>
</g>
<!-- creators&#45;&gt;stores -->
<g id="edge7" class="edge">
<title>creators&#45;&gt;stores</title>
<path fill="none" stroke="blue" d="M54.06,-44.98C85.06,-42.12 138.22,-39.52 182.57,-49 188.08,-50.18 193.72,-51.97 199.16,-54.04"/>
<polygon fill="blue" stroke="blue" points="198.09,-57.38 208.67,-58 200.78,-50.92 198.09,-57.38"/>
<text text-anchor="middle" x="127.29" y="-52" font-family="arial" font-size="10.00" fill="blue">create</text>
</g>
<!-- stores&#45;&gt;collections -->
<g id="edge8" class="edge">
<title>stores&#45;&gt;collections</title>
<path fill="none" stroke="blue" d="M263.13,-76.18C289.28,-80.32 329.73,-86.74 360.01,-91.54"/>
<polygon fill="blue" stroke="blue" points="359.83,-95.06 370.26,-93.17 360.93,-88.15 359.83,-95.06"/>
<text text-anchor="middle" x="320.7" y="-93" font-family="arial" font-size="10.00" fill="blue">has</text>
</g>
<!-- commiteee -->
<g id="node7" class="node">
<title>commiteee</title>
<path fill="none" stroke="black" d="M256.19,-36C256.19,-36 215.41,-36 215.41,-36 209.41,-36 203.41,-30 203.41,-24 203.41,-24 203.41,-12 203.41,-12 203.41,-6 209.41,0 215.41,0 215.41,0 256.19,0 256.19,0 262.19,0 268.19,-6 268.19,-12 268.19,-12 268.19,-24 268.19,-24 268.19,-30 262.19,-36 256.19,-36"/>
<text text-anchor="middle" x="235.8" y="-15" font-family="arial" font-size="10.00">commiteee</text>
</g>
<!-- commiteee&#45;&gt;collections -->
<g id="edge9" class="edge">
<title>commiteee&#45;&gt;collections</title>
<path fill="none" stroke="orange" d="M268.6,-28.39C292.33,-36.67 325.21,-49.31 352.37,-64 357.94,-67.01 363.63,-70.55 369.06,-74.18"/>
<polygon fill="orange" stroke="orange" points="367.11,-77.08 377.33,-79.9 371.1,-71.33 367.11,-77.08"/>
<text text-anchor="middle" x="320.7" y="-67" font-family="arial" font-size="10.00" fill="orange">approve/reject</text>
</g>
</g>
</svg>
