<?xml version="1.0" encoding="UTF-8" standalone="no"?>
<!DOCTYPE svg PUBLIC "-//W3C//DTD SVG 1.1//EN"
 "http://www.w3.org/Graphics/SVG/1.1/DTD/svg11.dtd">
<!-- Generated by graphviz version 2.44.0 (20200518.1210)
 -->
<!-- Title: G Pages: 1 -->
<svg width="364pt" height="188pt"
 viewBox="0.00 0.00 364.02 188.00" xmlns="http://www.w3.org/2000/svg" xmlns:xlink="http://www.w3.org/1999/xlink">
<g id="graph0" class="graph" transform="scale(1 1) rotate(0) translate(4 184)">
<title>G</title>
<polygon fill="white" stroke="transparent" points="-4,4 -4,-184 360.02,-184 360.02,4 -4,4"/>
<!-- Systems -->
<g id="node1" class="node">
<title>Systems</title>
<ellipse fill="none" stroke="black" cx="170.8" cy="-162" rx="43.46" ry="18"/>
<text text-anchor="middle" x="170.8" y="-157.8" font-family="Times,serif" font-size="14.00">Systems</text>
</g>
<!-- Data -->
<g id="node2" class="node">
<title>Data</title>
<ellipse fill="none" stroke="black" cx="170.8" cy="-90" rx="29.03" ry="18"/>
<text text-anchor="middle" x="170.8" y="-85.8" font-family="Times,serif" font-size="14.00">Data</text>
</g>
<!-- Systems&#45;&gt;Data -->
<g id="edge1" class="edge">
<title>Systems&#45;&gt;Data</title>
<path fill="none" stroke="black" d="M170.8,-143.7C170.8,-135.98 170.8,-126.71 170.8,-118.11"/>
<polygon fill="black" stroke="black" points="174.3,-118.1 170.8,-108.1 167.3,-118.1 174.3,-118.1"/>
</g>
<!-- Assets -->
<g id="node3" class="node">
<title>Assets</title>
<ellipse fill="none" stroke="black" cx="77.8" cy="-18" rx="77.6" ry="18"/>
<text text-anchor="middle" x="77.8" y="-13.8" font-family="Times,serif" font-size="14.00">SO BaseVariable</text>
</g>
<!-- Data&#45;&gt;Assets -->
<g id="edge2" class="edge">
<title>Data&#45;&gt;Assets</title>
<path fill="none" stroke="black" d="M152.87,-75.5C140.16,-65.94 122.81,-52.88 107.99,-41.72"/>
<polygon fill="black" stroke="black" points="109.7,-38.63 99.61,-35.41 105.49,-44.22 109.7,-38.63"/>
</g>
<!-- Data_State -->
<g id="node4" class="node">
<title>Data_State</title>
<ellipse fill="none" stroke="black" cx="264.8" cy="-18" rx="91.43" ry="18"/>
<text text-anchor="middle" x="264.8" y="-13.8" font-family="Times,serif" font-size="14.00">POCO BaseVariable</text>
</g>
<!-- Data&#45;&gt;Data_State -->
<g id="edge3" class="edge">
<title>Data&#45;&gt;Data_State</title>
<path fill="none" stroke="black" d="M188.93,-75.5C201.8,-65.92 219.39,-52.81 234.4,-41.64"/>
<polygon fill="black" stroke="black" points="236.49,-44.45 242.42,-35.67 232.31,-38.83 236.49,-44.45"/>
</g>
</g>
</svg>
