<?xml version="1.0" encoding="UTF-8" standalone="no"?>
<!DOCTYPE svg PUBLIC "-//W3C//DTD SVG 1.1//EN"
 "http://www.w3.org/Graphics/SVG/1.1/DTD/svg11.dtd">
<!-- Generated by graphviz version 2.44.0 (20200518.1210)
 -->
<!-- Title: G Pages: 1 -->
<svg width="94pt" height="188pt"
 viewBox="0.00 0.00 94.45 188.00" xmlns="http://www.w3.org/2000/svg" xmlns:xlink="http://www.w3.org/1999/xlink">
<g id="graph0" class="graph" transform="scale(1 1) rotate(0) translate(4 184)">
<title>G</title>
<polygon fill="white" stroke="transparent" points="-4,4 -4,-184 90.45,-184 90.45,4 -4,4"/>
<!-- Systems -->
<g id="node1" class="node">
<title>Systems</title>
<ellipse fill="none" stroke="black" cx="43.23" cy="-162" rx="43.46" ry="18"/>
<text text-anchor="middle" x="43.23" y="-157.8" font-family="Times,serif" font-size="14.00">Systems</text>
</g>
<!-- Data -->
<g id="node2" class="node">
<title>Data</title>
<ellipse fill="none" stroke="black" cx="43.23" cy="-90" rx="29.03" ry="18"/>
<text text-anchor="middle" x="43.23" y="-85.8" font-family="Times,serif" font-size="14.00">Data</text>
</g>
<!-- Systems&#45;&gt;Data -->
<g id="edge1" class="edge">
<title>Systems&#45;&gt;Data</title>
<path fill="none" stroke="black" d="M43.23,-143.7C43.23,-135.98 43.23,-126.71 43.23,-118.11"/>
<polygon fill="black" stroke="black" points="46.73,-118.1 43.23,-108.1 39.73,-118.1 46.73,-118.1"/>
</g>
<!-- Assets -->
<g id="node3" class="node">
<title>Assets</title>
<ellipse fill="none" stroke="black" cx="43.23" cy="-18" rx="36.49" ry="18"/>
<text text-anchor="middle" x="43.23" y="-13.8" font-family="Times,serif" font-size="14.00">Assets</text>
</g>
<!-- Data&#45;&gt;Assets -->
<g id="edge2" class="edge">
<title>Data&#45;&gt;Assets</title>
<path fill="none" stroke="black" d="M43.23,-71.7C43.23,-63.98 43.23,-54.71 43.23,-46.11"/>
<polygon fill="black" stroke="black" points="46.73,-46.1 43.23,-36.1 39.73,-46.1 46.73,-46.1"/>
</g>
</g>
</svg>
