<?xml version="1.0" encoding="UTF-8"?>
<!DOCTYPE svg PUBLIC "-//W3C//DTD SVG 1.1//EN" "http://www.w3.org/Graphics/SVG/1.1/DTD/svg11.dtd">
<svg width="701" height="241" xmlns="http://www.w3.org/2000/svg" x-original-source="Content Creator -> Content Manager: Submit Collection\n(pays X MANA per item)
Committee Member -> Content Manager: Approve
Content Manager -> Marketplace: Enable Collection"><defs><marker viewBox="0 0 5 5" markerWidth="5" markerHeight="5" orient="auto" refX="5" refY="2.5" id="markerArrowBlock"><path d="M 0 0 L 5 2.5 L 0 5 z"></path></marker><marker viewBox="0 0 9.6 16" markerWidth="4" markerHeight="16" orient="auto" refX="9.6" refY="8" id="markerArrowOpen"><path d="M 9.6,8 1.92,16 0,13.7 5.76,8 0,2.286 1.92,0 9.6,8 z"></path></marker></defs><rect x="10" y="10" width="147" height="34" stroke="#000000" fill="#ffffff" style="stroke-width: 2px;"></rect><text x="20" y="32" text-anchor="start" style="font: 14px Menlo, Monaco, &quot;Courier New&quot;, monospace;"><tspan x="20" y="32">Content Creator</tspan></text><rect x="10" y="177" width="147" height="34" stroke="#000000" fill="#ffffff" style="stroke-width: 2px;"></rect><text x="20" y="199" text-anchor="start" style="font: 14px Menlo, Monaco, &quot;Courier New&quot;, monospace;"><tspan x="20" y="199">Content Creator</tspan></text><line x1="83" x2="83" y1="44" y2="177" stroke="#000000" fill="none" style="stroke-width: 2px;"></line><rect x="216" y="10" width="147" height="34" stroke="#000000" fill="#ffffff" style="stroke-width: 2px;"></rect><text x="226" y="34" text-anchor="start" style="font: 14px Menlo, Monaco, &quot;Courier New&quot;, monospace;"><tspan x="226" y="34">Content Manager</tspan></text><rect x="216" y="177" width="147" height="34" stroke="#000000" fill="#ffffff" style="stroke-width: 2px;"></rect><text x="226" y="201" text-anchor="start" style="font: 14px Menlo, Monaco, &quot;Courier New&quot;, monospace;"><tspan x="226" y="201">Content Manager</tspan></text><line x1="289" x2="289" y1="44" y2="177" stroke="#000000" fill="none" style="stroke-width: 2px;"></line><rect x="383" y="10" width="155" height="34" stroke="#000000" fill="#ffffff" style="stroke-width: 2px;"></rect><text x="393" y="32" text-anchor="start" style="font: 14px Menlo, Monaco, &quot;Courier New&quot;, monospace;"><tspan x="393" y="32">Committee Member</tspan></text><rect x="383" y="177" width="155" height="34" stroke="#000000" fill="#ffffff" style="stroke-width: 2px;"></rect><text x="393" y="199" text-anchor="start" style="font: 14px Menlo, Monaco, &quot;Courier New&quot;, monospace;"><tspan x="393" y="199">Committee Member</tspan></text><line x1="460" x2="460" y1="44" y2="177" stroke="#000000" fill="none" style="stroke-width: 2px;"></line><rect x="558" y="10" width="113" height="34" stroke="#000000" fill="#ffffff" style="stroke-width: 2px;"></rect><text x="568" y="34" text-anchor="start" style="font: 14px Menlo, Monaco, &quot;Courier New&quot;, monospace;"><tspan x="568" y="34">Marketplace</tspan></text><rect x="558" y="177" width="113" height="34" stroke="#000000" fill="#ffffff" style="stroke-width: 2px;"></rect><text x="568" y="201" text-anchor="start" style="font: 14px Menlo, Monaco, &quot;Courier New&quot;, monospace;"><tspan x="568" y="201">Marketplace</tspan></text><line x1="614" x2="614" y1="44" y2="177" stroke="#000000" fill="none" style="stroke-width: 2px;"></line><text x="93" y="75" text-anchor="start" style="font: 14px Menlo, Monaco, &quot;Courier New&quot;, monospace;"><tspan x="93" y="75">Submit Collection</tspan><tspan x="93" dy="1.2em">(pays X MANA per item)</tspan></text><line x1="83" x2="289" y1="97" y2="97" stroke="#000000" fill="none" marker-end="url(#markerArrowBlock)" style="stroke-width: 2px;"></line><text x="345" y="126" text-anchor="start" style="font: 14px Menlo, Monaco, &quot;Courier New&quot;, monospace;"><tspan x="345" y="126">Approve</tspan></text><line x1="460" x2="289" y1="131" y2="131" stroke="#000000" fill="none" marker-end="url(#markerArrowBlock)" style="stroke-width: 2px;"></line><text x="380" y="157" text-anchor="start" style="font: 14px Menlo, Monaco, &quot;Courier New&quot;, monospace;"><tspan x="380" y="157">Enable Collection</tspan></text><line x1="289" x2="614" y1="162" y2="162" stroke="#000000" fill="none" marker-end="url(#markerArrowBlock)" style="stroke-width: 2px;"></line></svg>