<?xml version="1.0" encoding="UTF-8"?>
<!DOCTYPE svg PUBLIC "-//W3C//DTD SVG 1.1//EN" "http://www.w3.org/Graphics/SVG/1.1/DTD/svg11.dtd">
<svg width="693" height="340" xmlns="http://www.w3.org/2000/svg" x-original-source="Content Creator -> Content Manager: Submit Collection\n(pay X MANA per item)
Committee Member -> Content Manager: Reject
Content Creator -> Content Creator: Modify items
Content Creator -> Content Manager: Re-submit
Committee Member -> Content Manager: Approve
Content Manager -> Marketplace: Enable Collection
"><defs><marker viewBox="0 0 5 5" markerWidth="5" markerHeight="5" orient="auto" refX="5" refY="2.5" id="markerArrowBlock"><path d="M 0 0 L 5 2.5 L 0 5 z"></path></marker><marker viewBox="0 0 9.6 16" markerWidth="4" markerHeight="16" orient="auto" refX="9.6" refY="8" id="markerArrowOpen"><path d="M 9.6,8 1.92,16 0,13.7 5.76,8 0,2.286 1.92,0 9.6,8 z"></path></marker></defs><rect x="10" y="10" width="147" height="34" stroke="#000000" fill="#ffffff" style="stroke-width: 2px;"></rect><text x="20" y="32" text-anchor="start" style="font: 14px Menlo, Monaco, &quot;Courier New&quot;, monospace;"><tspan x="20" y="32">Content Creator</tspan></text><rect x="10" y="276" width="147" height="34" stroke="#000000" fill="#ffffff" style="stroke-width: 2px;"></rect><text x="20" y="298" text-anchor="start" style="font: 14px Menlo, Monaco, &quot;Courier New&quot;, monospace;"><tspan x="20" y="298">Content Creator</tspan></text><line x1="83" x2="83" y1="44" y2="276" stroke="#000000" fill="none" style="stroke-width: 2px;"></line><rect x="208" y="10" width="147" height="34" stroke="#000000" fill="#ffffff" style="stroke-width: 2px;"></rect><text x="218" y="34" text-anchor="start" style="font: 14px Menlo, Monaco, &quot;Courier New&quot;, monospace;"><tspan x="218" y="34">Content Manager</tspan></text><rect x="208" y="276" width="147" height="34" stroke="#000000" fill="#ffffff" style="stroke-width: 2px;"></rect><text x="218" y="300" text-anchor="start" style="font: 14px Menlo, Monaco, &quot;Courier New&quot;, monospace;"><tspan x="218" y="300">Content Manager</tspan></text><line x1="281" x2="281" y1="44" y2="276" stroke="#000000" fill="none" style="stroke-width: 2px;"></line><rect x="375" y="10" width="155" height="34" stroke="#000000" fill="#ffffff" style="stroke-width: 2px;"></rect><text x="385" y="32" text-anchor="start" style="font: 14px Menlo, Monaco, &quot;Courier New&quot;, monospace;"><tspan x="385" y="32">Committee Member</tspan></text><rect x="375" y="276" width="155" height="34" stroke="#000000" fill="#ffffff" style="stroke-width: 2px;"></rect><text x="385" y="298" text-anchor="start" style="font: 14px Menlo, Monaco, &quot;Courier New&quot;, monospace;"><tspan x="385" y="298">Committee Member</tspan></text><line x1="452" x2="452" y1="44" y2="276" stroke="#000000" fill="none" style="stroke-width: 2px;"></line><rect x="550" y="10" width="113" height="34" stroke="#000000" fill="#ffffff" style="stroke-width: 2px;"></rect><text x="560" y="34" text-anchor="start" style="font: 14px Menlo, Monaco, &quot;Courier New&quot;, monospace;"><tspan x="560" y="34">Marketplace</tspan></text><rect x="550" y="276" width="113" height="34" stroke="#000000" fill="#ffffff" style="stroke-width: 2px;"></rect><text x="560" y="300" text-anchor="start" style="font: 14px Menlo, Monaco, &quot;Courier New&quot;, monospace;"><tspan x="560" y="300">Marketplace</tspan></text><line x1="606" x2="606" y1="44" y2="276" stroke="#000000" fill="none" style="stroke-width: 2px;"></line><text x="93" y="75" text-anchor="start" style="font: 14px Menlo, Monaco, &quot;Courier New&quot;, monospace;"><tspan x="93" y="75">Submit Collection</tspan><tspan x="93" dy="1.2em">(pay X MANA per item)</tspan></text><line x1="83" x2="281" y1="97" y2="97" stroke="#000000" fill="none" marker-end="url(#markerArrowBlock)" style="stroke-width: 2px;"></line><text x="341" y="126" text-anchor="start" style="font: 14px Menlo, Monaco, &quot;Courier New&quot;, monospace;"><tspan x="341" y="126">Reject</tspan></text><line x1="452" x2="281" y1="131" y2="131" stroke="#000000" fill="none" marker-end="url(#markerArrowBlock)" style="stroke-width: 2px;"></line><line x1="83" x2="103" y1="146" y2="146" stroke="#000000" fill="none" style="stroke-width: 2px;"></line><line x1="103" x2="103" y1="146" y2="165" stroke="#000000" fill="none" style="stroke-width: 2px;"></line><line x1="103" x2="83" y1="165" y2="165" stroke="#000000" fill="none" marker-end="url(#markerArrowBlock)" style="stroke-width: 2px;"></line><text x="108" y="162" text-anchor="start" style="font: 14px Menlo, Monaco, &quot;Courier New&quot;, monospace;"><tspan x="108" y="162">Modify items</tspan></text><text x="144" y="191" text-anchor="start" style="font: 14px Menlo, Monaco, &quot;Courier New&quot;, monospace;"><tspan x="144" y="191">Re-submit</tspan></text><line x1="83" x2="281" y1="196" y2="196" stroke="#000000" fill="none" marker-end="url(#markerArrowBlock)" style="stroke-width: 2px;"></line><text x="337" y="225" text-anchor="start" style="font: 14px Menlo, Monaco, &quot;Courier New&quot;, monospace;"><tspan x="337" y="225">Approve</tspan></text><line x1="452" x2="281" y1="230" y2="230" stroke="#000000" fill="none" marker-end="url(#markerArrowBlock)" style="stroke-width: 2px;"></line><text x="372" y="256" text-anchor="start" style="font: 14px Menlo, Monaco, &quot;Courier New&quot;, monospace;"><tspan x="372" y="256">Enable Collection</tspan></text><line x1="281" x2="606" y1="261" y2="261" stroke="#000000" fill="none" marker-end="url(#markerArrowBlock)" style="stroke-width: 2px;"></line></svg>