<?xml version="1.0" encoding="UTF-8" standalone="no"?>
<!DOCTYPE svg PUBLIC "-//W3C//DTD SVG 1.1//EN"
 "http://www.w3.org/Graphics/SVG/1.1/DTD/svg11.dtd">
<!-- Generated by graphviz version 2.44.0 (20200518.1210)
 -->
<!-- Title: G Pages: 1 -->
<svg width="127pt" height="337pt"
 viewBox="0.00 0.00 127.00 336.80" xmlns="http://www.w3.org/2000/svg" xmlns:xlink="http://www.w3.org/1999/xlink">
<g id="graph0" class="graph" transform="scale(1 1) rotate(0) translate(4 332.8)">
<title>G</title>
<polygon fill="white" stroke="transparent" points="-4,4 -4,-332.8 123,-332.8 123,4 -4,4"/>
<g id="clust1" class="cluster">
<title>cluster_0</title>
<polygon fill="none" stroke="black" points="8,-64 8,-284.8 111,-284.8 111,-64 8,-64"/>
<text text-anchor="middle" x="59.5" y="-268.2" font-family="Times,serif" font-size="14.00">HUDController</text>
</g>
<!-- a0 -->
<g id="node1" class="node">
<title>a0</title>
<polygon fill="lightgrey" stroke="black" points="86.1,-252 31.9,-252 31.9,-216 86.1,-216 86.1,-252"/>
<text text-anchor="middle" x="59" y="-229.8" font-family="Times,serif" font-size="14.00">Bridge</text>
</g>
<!-- a1 -->
<g id="node2" class="node">
<title>a1</title>
<polygon fill="lightgrey" stroke="black" points="88.26,-180 29.74,-180 29.74,-144 88.26,-144 88.26,-180"/>
<text text-anchor="middle" x="59" y="-157.8" font-family="Times,serif" font-size="14.00">Factory</text>
</g>
<!-- a0&#45;&gt;a1 -->
<g id="edge1" class="edge">
<title>a0&#45;&gt;a1</title>
<path fill="none" stroke="black" d="M59,-215.7C59,-207.98 59,-198.71 59,-190.11"/>
<polygon fill="black" stroke="black" points="62.5,-190.1 59,-180.1 55.5,-190.1 62.5,-190.1"/>
</g>
<!-- a2 -->
<g id="node3" class="node">
<title>a2</title>
<polygon fill="lightgrey" stroke="black" points="97.17,-108 20.83,-108 20.83,-72 97.17,-72 97.17,-108"/>
<text text-anchor="middle" x="59" y="-85.8" font-family="Times,serif" font-size="14.00">Composite</text>
</g>
<!-- a1&#45;&gt;a2 -->
<g id="edge2" class="edge">
<title>a1&#45;&gt;a2</title>
<path fill="none" stroke="black" d="M59,-143.7C59,-135.98 59,-126.71 59,-118.11"/>
<polygon fill="black" stroke="black" points="62.5,-118.1 59,-108.1 55.5,-118.1 62.5,-118.1"/>
</g>
<!-- a3 -->
<g id="node5" class="node">
<title>a3</title>
<polygon fill="none" stroke="black" points="109.92,-36 8.08,-36 8.08,0 109.92,0 109.92,-36"/>
<text text-anchor="middle" x="59" y="-13.8" font-family="Times,serif" font-size="14.00">HUD Elements</text>
</g>
<!-- a2&#45;&gt;a3 -->
<g id="edge4" class="edge">
<title>a2&#45;&gt;a3</title>
<path fill="none" stroke="black" d="M59,-61.67C59,-53.05 59,-43.79 59,-36.1"/>
<polygon fill="black" stroke="black" points="55.5,-61.7 59,-71.7 62.5,-61.7 55.5,-61.7"/>
</g>
<!-- start -->
<g id="node4" class="node">
<title>start</title>
<polygon fill="none" stroke="black" points="86.09,-328.8 35.91,-328.8 31.91,-324.8 31.91,-292.8 82.09,-292.8 86.09,-296.8 86.09,-328.8"/>
<polyline fill="none" stroke="black" points="82.09,-324.8 31.91,-324.8 "/>
<polyline fill="none" stroke="black" points="82.09,-324.8 82.09,-292.8 "/>
<polyline fill="none" stroke="black" points="82.09,-324.8 86.09,-328.8 "/>
<text text-anchor="middle" x="59" y="-306.6" font-family="Times,serif" font-size="14.00">Kernel</text>
</g>
<!-- start&#45;&gt;a0 -->
<g id="edge3" class="edge">
<title>start&#45;&gt;a0</title>
<path fill="none" stroke="black" d="M59,-292.45C59,-283.58 59,-272.56 59,-262.56"/>
<polygon fill="black" stroke="black" points="62.5,-262.25 59,-252.25 55.5,-262.25 62.5,-262.25"/>
</g>
</g>
</svg>
