<?xml version="1.0" encoding="UTF-8" standalone="no"?>
<!DOCTYPE svg PUBLIC "-//W3C//DTD SVG 1.1//EN"
 "http://www.w3.org/Graphics/SVG/1.1/DTD/svg11.dtd">
<!-- Generated by graphviz version 2.44.0 (20200518.1210)
 -->
<!-- Pages: 1 -->
<svg width="505pt" height="533pt"
 viewBox="0.00 0.00 505.00 533.00" xmlns="http://www.w3.org/2000/svg" xmlns:xlink="http://www.w3.org/1999/xlink">
<g id="graph0" class="graph" transform="scale(1 1) rotate(0) translate(4 529)">
<polygon fill="white" stroke="transparent" points="-4,4 -4,-529 501,-529 501,4 -4,4"/>
<g id="clust1" class="cluster">
<title>clusterL1</title>
<polygon fill="none" stroke="green" points="13,-272 13,-517 489,-517 489,-272 13,-272"/>
<text text-anchor="middle" x="251" y="-504" font-family="arial" font-size="10.00" fill="grey">L1 Ethereum</text>
</g>
<g id="clust2" class="cluster">
<title>clusterL2</title>
<polygon fill="none" stroke="blue" points="8,-8 8,-253 416,-253 416,-8 8,-8"/>
<text text-anchor="middle" x="212" y="-240" font-family="arial" font-size="10.00" fill="grey">L2 Main chain</text>
</g>
<!-- dao -->
<g id="node1" class="node">
<title>dao</title>
<path fill="none" stroke="black" d="M284,-408C284,-408 254,-408 254,-408 248,-408 242,-402 242,-396 242,-396 242,-384 242,-384 242,-378 248,-372 254,-372 254,-372 284,-372 284,-372 290,-372 296,-378 296,-384 296,-384 296,-396 296,-396 296,-402 290,-408 284,-408"/>
<text text-anchor="middle" x="269" y="-387" font-family="arial" font-size="10.00">DAO</text>
</g>
<!-- marketplace_l1 -->
<g id="node2" class="node">
<title>marketplace_l1</title>
<path fill="none" stroke="black" d="M251.35,-320C251.35,-320 190.65,-320 190.65,-320 184.65,-320 178.65,-314 178.65,-308 178.65,-308 178.65,-296 178.65,-296 178.65,-290 184.65,-284 190.65,-284 190.65,-284 251.35,-284 251.35,-284 257.35,-284 263.35,-290 263.35,-296 263.35,-296 263.35,-308 263.35,-308 263.35,-314 257.35,-320 251.35,-320"/>
<text text-anchor="middle" x="221" y="-299" font-family="arial" font-size="10.00">Marketplace L1</text>
</g>
<!-- dao&#45;&gt;marketplace_l1 -->
<g id="edge5" class="edge">
<title>dao&#45;&gt;marketplace_l1</title>
<path fill="none" stroke="green" d="M259.29,-371.6C252.48,-359.39 243.25,-342.87 235.56,-329.09"/>
<polygon fill="green" stroke="green" points="238.47,-327.11 230.54,-320.08 232.35,-330.52 238.47,-327.11"/>
<text text-anchor="middle" x="264.01" y="-345" font-family="arial" font-size="10.00" fill="green">set fee</text>
</g>
<!-- bid_l1 -->
<g id="node3" class="node">
<title>bid_l1</title>
<path fill="none" stroke="black" d="M323,-320C323,-320 293,-320 293,-320 287,-320 281,-314 281,-308 281,-308 281,-296 281,-296 281,-290 287,-284 293,-284 293,-284 323,-284 323,-284 329,-284 335,-290 335,-296 335,-296 335,-308 335,-308 335,-314 329,-320 323,-320"/>
<text text-anchor="middle" x="308" y="-299" font-family="arial" font-size="10.00">Bids L1</text>
</g>
<!-- dao&#45;&gt;bid_l1 -->
<g id="edge6" class="edge">
<title>dao&#45;&gt;bid_l1</title>
<path fill="none" stroke="green" d="M278.27,-371.7C281.16,-366.1 284.31,-359.83 287,-354 290.61,-346.18 294.28,-337.55 297.52,-329.65"/>
<polygon fill="green" stroke="green" points="300.86,-330.74 301.36,-320.16 294.37,-328.12 300.86,-330.74"/>
<text text-anchor="middle" x="306.01" y="-345" font-family="arial" font-size="10.00" fill="green">set fee</text>
</g>
<!-- bridge_marketplaces_management_proxy_l1 -->
<g id="node4" class="node">
<title>bridge_marketplaces_management_proxy_l1</title>
<path fill="none" stroke="black" d="M148.86,-324C148.86,-324 33.14,-324 33.14,-324 27.14,-324 21.14,-318 21.14,-312 21.14,-312 21.14,-292 21.14,-292 21.14,-286 27.14,-280 33.14,-280 33.14,-280 148.86,-280 148.86,-280 154.86,-280 160.86,-286 160.86,-292 160.86,-292 160.86,-312 160.86,-312 160.86,-318 154.86,-324 148.86,-324"/>
<text text-anchor="middle" x="91" y="-311" font-family="arial" font-size="10.00">Bridge</text>
<text text-anchor="middle" x="91" y="-299" font-family="arial" font-size="10.00"> Marketplaces Management</text>
<text text-anchor="middle" x="91" y="-287" font-family="arial" font-size="10.00"> Proxy L1</text>
</g>
<!-- dao&#45;&gt;bridge_marketplaces_management_proxy_l1 -->
<g id="edge3" class="edge">
<title>dao&#45;&gt;bridge_marketplaces_management_proxy_l1</title>
<path fill="none" stroke="green" d="M241.97,-375.94C216.03,-363.41 176.16,-344.14 143.9,-328.56"/>
<polygon fill="green" stroke="green" points="145.12,-325.26 134.59,-324.06 142.07,-331.56 145.12,-325.26"/>
<text text-anchor="middle" x="216.12" y="-345" font-family="arial" font-size="10.00" fill="green">Act on L2</text>
</g>
<!-- bridge_collections_management_proxy_l1 -->
<g id="node6" class="node">
<title>bridge_collections_management_proxy_l1</title>
<path fill="none" stroke="black" d="M469.3,-324C469.3,-324 364.7,-324 364.7,-324 358.7,-324 352.7,-318 352.7,-312 352.7,-312 352.7,-292 352.7,-292 352.7,-286 358.7,-280 364.7,-280 364.7,-280 469.3,-280 469.3,-280 475.3,-280 481.3,-286 481.3,-292 481.3,-292 481.3,-312 481.3,-312 481.3,-318 475.3,-324 469.3,-324"/>
<text text-anchor="middle" x="417" y="-311" font-family="arial" font-size="10.00">Bridge</text>
<text text-anchor="middle" x="417" y="-299" font-family="arial" font-size="10.00"> Collections Management</text>
<text text-anchor="middle" x="417" y="-287" font-family="arial" font-size="10.00"> Proxy L1</text>
</g>
<!-- dao&#45;&gt;bridge_collections_management_proxy_l1 -->
<g id="edge4" class="edge">
<title>dao&#45;&gt;bridge_collections_management_proxy_l1</title>
<path fill="none" stroke="green" d="M296.15,-373.23C317.33,-360.92 347.21,-343.55 371.96,-329.17"/>
<polygon fill="green" stroke="green" points="373.93,-332.07 380.82,-324.02 370.42,-326.02 373.93,-332.07"/>
<text text-anchor="middle" x="368.12" y="-345" font-family="arial" font-size="10.00" fill="green">Act on L2</text>
</g>
<!-- bridge_marketplaces_management_proxy_l2 -->
<g id="node8" class="node">
<title>bridge_marketplaces_management_proxy_l2</title>
<path fill="none" stroke="black" d="M148.86,-225C148.86,-225 33.14,-225 33.14,-225 27.14,-225 21.14,-219 21.14,-213 21.14,-213 21.14,-193 21.14,-193 21.14,-187 27.14,-181 33.14,-181 33.14,-181 148.86,-181 148.86,-181 154.86,-181 160.86,-187 160.86,-193 160.86,-193 160.86,-213 160.86,-213 160.86,-219 154.86,-225 148.86,-225"/>
<text text-anchor="middle" x="91" y="-212" font-family="arial" font-size="10.00">Bridge</text>
<text text-anchor="middle" x="91" y="-200" font-family="arial" font-size="10.00"> Marketplaces Management</text>
<text text-anchor="middle" x="91" y="-188" font-family="arial" font-size="10.00"> Proxy L2</text>
</g>
<!-- bid_l1&#45;&gt;bridge_marketplaces_management_proxy_l2 -->
<!-- bridge_collections_management_proxy_l2 -->
<g id="node10" class="node">
<title>bridge_collections_management_proxy_l2</title>
<path fill="none" stroke="black" d="M393.3,-225C393.3,-225 288.7,-225 288.7,-225 282.7,-225 276.7,-219 276.7,-213 276.7,-213 276.7,-193 276.7,-193 276.7,-187 282.7,-181 288.7,-181 288.7,-181 393.3,-181 393.3,-181 399.3,-181 405.3,-187 405.3,-193 405.3,-193 405.3,-213 405.3,-213 405.3,-219 399.3,-225 393.3,-225"/>
<text text-anchor="middle" x="341" y="-212" font-family="arial" font-size="10.00">Bridge</text>
<text text-anchor="middle" x="341" y="-200" font-family="arial" font-size="10.00"> Collections Management</text>
<text text-anchor="middle" x="341" y="-188" font-family="arial" font-size="10.00"> Proxy L2</text>
</g>
<!-- bid_l1&#45;&gt;bridge_collections_management_proxy_l2 -->
<!-- bridge_marketplaces_management_proxy_l1&#45;&gt;bridge_marketplaces_management_proxy_l2 -->
<g id="edge13" class="edge">
<title>bridge_marketplaces_management_proxy_l1&#45;&gt;bridge_marketplaces_management_proxy_l2</title>
<path fill="none" stroke="blue" d="M85.32,-279.95C84.17,-266.86 83.95,-249.79 84.65,-235.15"/>
<polygon fill="blue" stroke="blue" points="88.15,-235.22 85.33,-225.01 81.17,-234.75 88.15,-235.22"/>
</g>
<!-- bridge_marketplaces_management_proxy_l1&#45;&gt;bridge_marketplaces_management_proxy_l2 -->
<!-- bridge_marketplaces_management_proxy_l1&#45;&gt;bridge_collections_management_proxy_l2 -->
<!-- bridge_marketplaces_management_l1 -->
<g id="node5" class="node">
<title>bridge_marketplaces_management_l1</title>
<path fill="none" stroke="black" d="M184.86,-489C184.86,-489 69.14,-489 69.14,-489 63.14,-489 57.14,-483 57.14,-477 57.14,-477 57.14,-457 57.14,-457 57.14,-451 63.14,-445 69.14,-445 69.14,-445 184.86,-445 184.86,-445 190.86,-445 196.86,-451 196.86,-457 196.86,-457 196.86,-477 196.86,-477 196.86,-483 190.86,-489 184.86,-489"/>
<text text-anchor="middle" x="127" y="-476" font-family="arial" font-size="10.00">Bridge</text>
<text text-anchor="middle" x="127" y="-464" font-family="arial" font-size="10.00"> Marketplaces Management</text>
<text text-anchor="middle" x="127" y="-452" font-family="arial" font-size="10.00"> Impl</text>
</g>
<!-- bridge_marketplaces_management_l1&#45;&gt;dao -->
<!-- bridge_marketplaces_management_l1&#45;&gt;marketplace_l1 -->
<!-- bridge_marketplaces_management_l1&#45;&gt;bridge_marketplaces_management_proxy_l1 -->
<g id="edge1" class="edge">
<title>bridge_marketplaces_management_l1&#45;&gt;bridge_marketplaces_management_proxy_l1</title>
<path fill="none" stroke="black" stroke-dasharray="5,2" d="M120.11,-434.8C112.92,-402.27 101.86,-352.19 95.65,-324.06"/>
<polygon fill="black" stroke="black" points="116.72,-435.68 122.29,-444.69 123.55,-434.17 116.72,-435.68"/>
</g>
<!-- bridge_collections_management_proxy_l1&#45;&gt;bridge_collections_management_proxy_l2 -->
<g id="edge15" class="edge">
<title>bridge_collections_management_proxy_l1&#45;&gt;bridge_collections_management_proxy_l2</title>
<path fill="none" stroke="blue" d="M400.51,-279.95C389.75,-266.22 375.57,-248.12 363.75,-233.03"/>
<polygon fill="blue" stroke="blue" points="366.38,-230.72 357.46,-225.01 360.87,-235.04 366.38,-230.72"/>
</g>
<!-- bridge_collections_management_l1 -->
<g id="node7" class="node">
<title>bridge_collections_management_l1</title>
<path fill="none" stroke="black" d="M331.3,-489C331.3,-489 226.7,-489 226.7,-489 220.7,-489 214.7,-483 214.7,-477 214.7,-477 214.7,-457 214.7,-457 214.7,-451 220.7,-445 226.7,-445 226.7,-445 331.3,-445 331.3,-445 337.3,-445 343.3,-451 343.3,-457 343.3,-457 343.3,-477 343.3,-477 343.3,-483 337.3,-489 331.3,-489"/>
<text text-anchor="middle" x="279" y="-476" font-family="arial" font-size="10.00">Bridge</text>
<text text-anchor="middle" x="279" y="-464" font-family="arial" font-size="10.00"> Collections Management</text>
<text text-anchor="middle" x="279" y="-452" font-family="arial" font-size="10.00"> Impl</text>
</g>
<!-- bridge_collections_management_l1&#45;&gt;dao -->
<!-- bridge_collections_management_l1&#45;&gt;marketplace_l1 -->
<!-- bridge_collections_management_l1&#45;&gt;bridge_collections_management_proxy_l1 -->
<g id="edge2" class="edge">
<title>bridge_collections_management_l1&#45;&gt;bridge_collections_management_proxy_l1</title>
<path fill="none" stroke="black" stroke-dasharray="5,2" d="M313.3,-438.12C337.77,-416.93 370.26,-386.06 393,-354 399.45,-344.9 404.92,-333.79 409,-324.27"/>
<polygon fill="black" stroke="black" points="310.98,-435.49 305.65,-444.65 315.53,-440.81 310.98,-435.49"/>
</g>
<!-- bridge_marketplaces_management_proxy_l2&#45;&gt;bridge_marketplaces_management_proxy_l1 -->
<g id="edge14" class="edge">
<title>bridge_marketplaces_management_proxy_l2&#45;&gt;bridge_marketplaces_management_proxy_l1</title>
<path fill="none" stroke="blue" d="M88.32,-225.2C87.24,-236.18 86.38,-249.8 87,-262 87.13,-264.56 87.31,-267.21 87.52,-269.86"/>
<polygon fill="blue" stroke="blue" points="84.05,-270.34 88.45,-279.98 91.02,-269.7 84.05,-270.34"/>
</g>
<!-- bridge_marketplaces_management_l2 -->
<g id="node9" class="node">
<title>bridge_marketplaces_management_l2</title>
<path fill="none" stroke="black" d="M181.86,-60C181.86,-60 66.14,-60 66.14,-60 60.14,-60 54.14,-54 54.14,-48 54.14,-48 54.14,-28 54.14,-28 54.14,-22 60.14,-16 66.14,-16 66.14,-16 181.86,-16 181.86,-16 187.86,-16 193.86,-22 193.86,-28 193.86,-28 193.86,-48 193.86,-48 193.86,-54 187.86,-60 181.86,-60"/>
<text text-anchor="middle" x="124" y="-47" font-family="arial" font-size="10.00">Bridge</text>
<text text-anchor="middle" x="124" y="-35" font-family="arial" font-size="10.00"> Marketplaces Management</text>
<text text-anchor="middle" x="124" y="-23" font-family="arial" font-size="10.00"> Impl</text>
</g>
<!-- bridge_marketplaces_management_proxy_l2&#45;&gt;bridge_marketplaces_management_l2 -->
<g id="edge7" class="edge">
<title>bridge_marketplaces_management_proxy_l2&#45;&gt;bridge_marketplaces_management_l2</title>
<path fill="none" stroke="black" stroke-dasharray="5,2" d="M63.18,-180.92C39,-159.88 10.25,-126.53 27,-97 34.39,-83.97 46.01,-73.55 58.67,-65.34"/>
<polygon fill="black" stroke="black" points="60.78,-68.15 67.56,-60.01 57.19,-62.15 60.78,-68.15"/>
</g>
<!-- marketplace_l2 -->
<g id="node13" class="node">
<title>marketplace_l2</title>
<path fill="none" stroke="black" d="M284.35,-133C284.35,-133 223.65,-133 223.65,-133 217.65,-133 211.65,-127 211.65,-121 211.65,-121 211.65,-109 211.65,-109 211.65,-103 217.65,-97 223.65,-97 223.65,-97 284.35,-97 284.35,-97 290.35,-97 296.35,-103 296.35,-109 296.35,-109 296.35,-121 296.35,-121 296.35,-127 290.35,-133 284.35,-133"/>
<text text-anchor="middle" x="254" y="-112" font-family="arial" font-size="10.00">Marketplace L2</text>
</g>
<!-- bridge_marketplaces_management_proxy_l2&#45;&gt;marketplace_l2 -->
<g id="edge9" class="edge">
<title>bridge_marketplaces_management_proxy_l2&#45;&gt;marketplace_l2</title>
<path fill="none" stroke="blue" d="M130.87,-180.96C155.72,-167.85 187.62,-151.02 212.73,-137.78"/>
<polygon fill="blue" stroke="blue" points="214.43,-140.83 221.64,-133.07 211.17,-134.64 214.43,-140.83"/>
<text text-anchor="middle" x="203.01" y="-154" font-family="arial" font-size="10.00" fill="blue">set fee</text>
</g>
<!-- bid_l2 -->
<g id="node14" class="node">
<title>bid_l2</title>
<path fill="none" stroke="black" d="M78,-133C78,-133 48,-133 48,-133 42,-133 36,-127 36,-121 36,-121 36,-109 36,-109 36,-103 42,-97 48,-97 48,-97 78,-97 78,-97 84,-97 90,-103 90,-109 90,-109 90,-121 90,-121 90,-127 84,-133 78,-133"/>
<text text-anchor="middle" x="63" y="-112" font-family="arial" font-size="10.00">bids L2</text>
</g>
<!-- bridge_marketplaces_management_proxy_l2&#45;&gt;bid_l2 -->
<g id="edge10" class="edge">
<title>bridge_marketplaces_management_proxy_l2&#45;&gt;bid_l2</title>
<path fill="none" stroke="blue" d="M84.08,-180.74C80.36,-169.32 75.73,-155.11 71.77,-142.92"/>
<polygon fill="blue" stroke="blue" points="75.04,-141.69 68.62,-133.26 68.39,-143.86 75.04,-141.69"/>
<text text-anchor="middle" x="93.01" y="-154" font-family="arial" font-size="10.00" fill="blue">set fee</text>
</g>
<!-- store_l2 -->
<g id="node15" class="node">
<title>store_l2</title>
<path fill="none" stroke="black" d="M182.07,-133C182.07,-133 119.93,-133 119.93,-133 113.93,-133 107.93,-127 107.93,-121 107.93,-121 107.93,-109 107.93,-109 107.93,-103 113.93,-97 119.93,-97 119.93,-97 182.07,-97 182.07,-97 188.07,-97 194.07,-103 194.07,-109 194.07,-109 194.07,-121 194.07,-121 194.07,-127 188.07,-133 182.07,-133"/>
<text text-anchor="middle" x="151" y="-112" font-family="arial" font-size="10.00">Collection Store</text>
</g>
<!-- bridge_marketplaces_management_proxy_l2&#45;&gt;store_l2 -->
<g id="edge11" class="edge">
<title>bridge_marketplaces_management_proxy_l2&#45;&gt;store_l2</title>
<path fill="none" stroke="blue" d="M105.83,-180.74C114.12,-168.86 124.51,-153.97 133.23,-141.47"/>
<polygon fill="blue" stroke="blue" points="136.1,-143.47 138.96,-133.26 130.36,-139.46 136.1,-143.47"/>
<text text-anchor="middle" x="142.01" y="-154" font-family="arial" font-size="10.00" fill="blue">set fee</text>
</g>
<!-- bridge_collections_management_proxy_l2&#45;&gt;bridge_collections_management_proxy_l1 -->
<g id="edge16" class="edge">
<title>bridge_collections_management_proxy_l2&#45;&gt;bridge_collections_management_proxy_l1</title>
<path fill="none" stroke="blue" d="M360.75,-225.04C370.27,-235.54 381.62,-248.62 391,-261 393.46,-264.25 395.94,-267.73 398.33,-271.23"/>
<polygon fill="blue" stroke="blue" points="395.61,-273.46 404.06,-279.85 401.44,-269.58 395.61,-273.46"/>
</g>
<!-- bridge_collections_management_l2 -->
<g id="node11" class="node">
<title>bridge_collections_management_l2</title>
<path fill="none" stroke="black" d="M328.3,-60C328.3,-60 223.7,-60 223.7,-60 217.7,-60 211.7,-54 211.7,-48 211.7,-48 211.7,-28 211.7,-28 211.7,-22 217.7,-16 223.7,-16 223.7,-16 328.3,-16 328.3,-16 334.3,-16 340.3,-22 340.3,-28 340.3,-28 340.3,-48 340.3,-48 340.3,-54 334.3,-60 328.3,-60"/>
<text text-anchor="middle" x="276" y="-47" font-family="arial" font-size="10.00">Bridge</text>
<text text-anchor="middle" x="276" y="-35" font-family="arial" font-size="10.00"> Collections Management</text>
<text text-anchor="middle" x="276" y="-23" font-family="arial" font-size="10.00"> Impl</text>
</g>
<!-- bridge_collections_management_proxy_l2&#45;&gt;bridge_collections_management_l2 -->
<g id="edge8" class="edge">
<title>bridge_collections_management_proxy_l2&#45;&gt;bridge_collections_management_l2</title>
<path fill="none" stroke="black" stroke-dasharray="5,2" d="M386.25,-180.77C392.57,-175.83 398.2,-169.95 402,-163 409.74,-148.86 424.84,-137 397,-97 385.55,-80.56 368.14,-68.61 350.06,-60.01"/>
<polygon fill="black" stroke="black" points="351.14,-56.65 340.58,-55.8 348.3,-63.05 351.14,-56.65"/>
</g>
<!-- collection_l2 -->
<g id="node12" class="node">
<title>collection_l2</title>
<path fill="none" stroke="black" d="M375.79,-133C375.79,-133 326.21,-133 326.21,-133 320.21,-133 314.21,-127 314.21,-121 314.21,-121 314.21,-109 314.21,-109 314.21,-103 320.21,-97 326.21,-97 326.21,-97 375.79,-97 375.79,-97 381.79,-97 387.79,-103 387.79,-109 387.79,-109 387.79,-121 387.79,-121 387.79,-127 381.79,-133 375.79,-133"/>
<text text-anchor="middle" x="351" y="-112" font-family="arial" font-size="10.00">Collection L2</text>
</g>
<!-- bridge_collections_management_proxy_l2&#45;&gt;collection_l2 -->
<g id="edge12" class="edge">
<title>bridge_collections_management_proxy_l2&#45;&gt;collection_l2</title>
<path fill="none" stroke="blue" d="M338,-180.78C337.21,-171.57 336.99,-160.7 338.65,-151 339.12,-148.29 339.77,-145.52 340.53,-142.78"/>
<polygon fill="blue" stroke="blue" points="343.9,-143.73 343.65,-133.14 337.24,-141.57 343.9,-143.73"/>
<text text-anchor="middle" x="369.67" y="-154" font-family="arial" font-size="10.00" fill="blue">approve/reject</text>
</g>
<!-- collection_l2&#45;&gt;bridge_marketplaces_management_l2 -->
<!-- collection_l2&#45;&gt;bridge_collections_management_l2 -->
<!-- marketplace_l2&#45;&gt;bridge_marketplaces_management_l2 -->
<!-- marketplace_l2&#45;&gt;bridge_collections_management_l2 -->
<!-- bid_l2&#45;&gt;bridge_marketplaces_management_l2 -->
<!-- bid_l2&#45;&gt;bridge_collections_management_l2 -->
<!-- store_l2&#45;&gt;bridge_marketplaces_management_l2 -->
<!-- store_l2&#45;&gt;bridge_collections_management_l2 -->
</g>
</svg>
