<?xml version="1.0" encoding="UTF-8" standalone="no"?>
<!DOCTYPE svg PUBLIC "-//W3C//DTD SVG 1.1//EN"
 "http://www.w3.org/Graphics/SVG/1.1/DTD/svg11.dtd">
<!-- Generated by graphviz version 2.44.0 (20200518.1210)
 -->
<!-- Pages: 1 -->
<svg width="394pt" height="501pt"
 viewBox="0.00 0.00 393.64 501.00" xmlns="http://www.w3.org/2000/svg" xmlns:xlink="http://www.w3.org/1999/xlink">
<g id="graph0" class="graph" transform="scale(1 1) rotate(0) translate(4 497)">
<polygon fill="white" stroke="transparent" points="-4,4 -4,-497 389.64,-497 389.64,4 -4,4"/>
<g id="clust1" class="cluster">
<title>clusterL1</title>
<polygon fill="none" stroke="green" points="83,-256 83,-485 361,-485 361,-256 83,-256"/>
<text text-anchor="middle" x="222" y="-472" font-family="arial" font-size="10.00" fill="grey">L1 Ethereum</text>
</g>
<g id="clust2" class="cluster">
<title>clusterL2</title>
<polygon fill="none" stroke="blue" points="8,-8 8,-237 376,-237 376,-8 8,-8"/>
<text text-anchor="middle" x="192" y="-224" font-family="arial" font-size="10.00" fill="grey">L2 Main chain</text>
</g>
<!-- marketplace_l1 -->
<g id="node1" class="node">
<title>marketplace_l1</title>
<path fill="none" stroke="black" d="M341.35,-300C341.35,-300 280.65,-300 280.65,-300 274.65,-300 268.65,-294 268.65,-288 268.65,-288 268.65,-276 268.65,-276 268.65,-270 274.65,-264 280.65,-264 280.65,-264 341.35,-264 341.35,-264 347.35,-264 353.35,-270 353.35,-276 353.35,-276 353.35,-288 353.35,-288 353.35,-294 347.35,-300 341.35,-300"/>
<text text-anchor="middle" x="311" y="-279" font-family="arial" font-size="10.00">Marketplace L1</text>
</g>
<!-- bridge_l2 -->
<g id="node10" class="node">
<title>bridge_l2</title>
<path fill="none" stroke="black" d="M268.95,-209C268.95,-209 227.05,-209 227.05,-209 221.05,-209 215.05,-203 215.05,-197 215.05,-197 215.05,-185 215.05,-185 215.05,-179 221.05,-173 227.05,-173 227.05,-173 268.95,-173 268.95,-173 274.95,-173 280.95,-179 280.95,-185 280.95,-185 280.95,-197 280.95,-197 280.95,-203 274.95,-209 268.95,-209"/>
<text text-anchor="middle" x="248" y="-188" font-family="arial" font-size="10.00">bridge Impl</text>
</g>
<!-- marketplace_l1&#45;&gt;bridge_l2 -->
<!-- bid_l1 -->
<g id="node2" class="node">
<title>bid_l1</title>
<path fill="none" stroke="black" d="M239,-300C239,-300 209,-300 209,-300 203,-300 197,-294 197,-288 197,-288 197,-276 197,-276 197,-270 203,-264 209,-264 209,-264 239,-264 239,-264 245,-264 251,-270 251,-276 251,-276 251,-288 251,-288 251,-294 245,-300 239,-300"/>
<text text-anchor="middle" x="224" y="-279" font-family="arial" font-size="10.00">Bids L1</text>
</g>
<!-- bid_l1&#45;&gt;bridge_l2 -->
<!-- bridge_proxy_l1 -->
<g id="node3" class="node">
<title>bridge_proxy_l1</title>
<path fill="none" stroke="black" d="M166.63,-300C166.63,-300 103.37,-300 103.37,-300 97.37,-300 91.37,-294 91.37,-288 91.37,-288 91.37,-276 91.37,-276 91.37,-270 97.37,-264 103.37,-264 103.37,-264 166.63,-264 166.63,-264 172.63,-264 178.63,-270 178.63,-276 178.63,-276 178.63,-288 178.63,-288 178.63,-294 172.63,-300 166.63,-300"/>
<text text-anchor="middle" x="135" y="-279" font-family="arial" font-size="10.00">Bridge Proxy L1</text>
</g>
<!-- bridge_l1 -->
<g id="node4" class="node">
<title>bridge_l1</title>
<path fill="none" stroke="black" d="M321.06,-457C321.06,-457 278.94,-457 278.94,-457 272.94,-457 266.94,-451 266.94,-445 266.94,-445 266.94,-433 266.94,-433 266.94,-427 272.94,-421 278.94,-421 278.94,-421 321.06,-421 321.06,-421 327.06,-421 333.06,-427 333.06,-433 333.06,-433 333.06,-445 333.06,-445 333.06,-451 327.06,-457 321.06,-457"/>
<text text-anchor="middle" x="300" y="-436" font-family="arial" font-size="10.00">Bridge Impl</text>
</g>
<!-- bridge_proxy_l1&#45;&gt;bridge_l1 -->
<g id="edge1" class="edge">
<title>bridge_proxy_l1&#45;&gt;bridge_l1</title>
<path fill="none" stroke="black" stroke-dasharray="5,2" d="M141.15,-300.21C145.05,-309.63 150.73,-321.16 158,-330 187.08,-365.39 229.96,-395.94 260.98,-415.42"/>
<polygon fill="black" stroke="black" points="259.45,-418.59 269.8,-420.87 263.13,-412.63 259.45,-418.59"/>
</g>
<!-- bridge_proxy_l2 -->
<g id="node9" class="node">
<title>bridge_proxy_l2</title>
<path fill="none" stroke="black" d="M204.63,-136C204.63,-136 141.37,-136 141.37,-136 135.37,-136 129.37,-130 129.37,-124 129.37,-124 129.37,-112 129.37,-112 129.37,-106 135.37,-100 141.37,-100 141.37,-100 204.63,-100 204.63,-100 210.63,-100 216.63,-106 216.63,-112 216.63,-112 216.63,-124 216.63,-124 216.63,-130 210.63,-136 204.63,-136"/>
<text text-anchor="middle" x="173" y="-115" font-family="arial" font-size="10.00">Bridge Proxy L2</text>
</g>
<!-- bridge_proxy_l1&#45;&gt;bridge_proxy_l2 -->
<g id="edge10" class="edge">
<title>bridge_proxy_l1&#45;&gt;bridge_proxy_l2</title>
<path fill="none" stroke="blue" d="M137.16,-263.91C140.5,-239.29 147.76,-192.56 159,-154 159.81,-151.23 160.75,-148.38 161.76,-145.55"/>
<polygon fill="blue" stroke="blue" points="165.03,-146.8 165.34,-136.21 158.49,-144.3 165.03,-146.8"/>
</g>
<!-- bridge_proxy_l1&#45;&gt;bridge_l2 -->
<!-- bridge_l1&#45;&gt;marketplace_l1 -->
<!-- dao -->
<g id="node5" class="node">
<title>dao</title>
<path fill="none" stroke="black" d="M282,-384C282,-384 252,-384 252,-384 246,-384 240,-378 240,-372 240,-372 240,-360 240,-360 240,-354 246,-348 252,-348 252,-348 282,-348 282,-348 288,-348 294,-354 294,-360 294,-360 294,-372 294,-372 294,-378 288,-384 282,-384"/>
<text text-anchor="middle" x="267" y="-363" font-family="arial" font-size="10.00">DAO</text>
</g>
<!-- bridge_l1&#45;&gt;dao -->
<!-- bridge_l1&#45;&gt;bridge_l2 -->
<!-- dao&#45;&gt;marketplace_l1 -->
<g id="edge2" class="edge">
<title>dao&#45;&gt;marketplace_l1</title>
<path fill="none" stroke="green" d="M268.83,-347.7C270.34,-338.47 273.07,-327.15 277.99,-318 279.89,-314.46 282.24,-311.01 284.81,-307.75"/>
<polygon fill="green" stroke="green" points="287.57,-309.91 291.5,-300.07 282.29,-305.31 287.57,-309.91"/>
<text text-anchor="middle" x="292.01" y="-321" font-family="arial" font-size="10.00" fill="green">set fee</text>
</g>
<!-- dao&#45;&gt;bid_l1 -->
<g id="edge3" class="edge">
<title>dao&#45;&gt;bid_l1</title>
<path fill="none" stroke="green" d="M239.84,-348.19C233.89,-343.13 228.36,-337.01 224.99,-330 222.11,-324.02 220.96,-317.09 220.73,-310.42"/>
<polygon fill="green" stroke="green" points="224.23,-310.42 221.02,-300.33 217.23,-310.22 224.23,-310.42"/>
<text text-anchor="middle" x="239.01" y="-321" font-family="arial" font-size="10.00" fill="green">set fee</text>
</g>
<!-- dao&#45;&gt;bridge_proxy_l1 -->
<g id="edge4" class="edge">
<title>dao&#45;&gt;bridge_proxy_l1</title>
<path fill="none" stroke="green" d="M239.82,-358.6C220.45,-353.15 194.47,-343.95 174.76,-330 166.43,-324.11 158.78,-316.07 152.47,-308.31"/>
<polygon fill="green" stroke="green" points="155.04,-305.92 146.17,-300.12 149.49,-310.18 155.04,-305.92"/>
<text text-anchor="middle" x="195.12" y="-321" font-family="arial" font-size="10.00" fill="green">Act on L2</text>
</g>
<!-- dao&#45;&gt;bridge_l2 -->
<!-- collection_l2 -->
<g id="node6" class="node">
<title>collection_l2</title>
<path fill="none" stroke="black" d="M77.79,-52C77.79,-52 28.21,-52 28.21,-52 22.21,-52 16.21,-46 16.21,-40 16.21,-40 16.21,-28 16.21,-28 16.21,-22 22.21,-16 28.21,-16 28.21,-16 77.79,-16 77.79,-16 83.79,-16 89.79,-22 89.79,-28 89.79,-28 89.79,-40 89.79,-40 89.79,-46 83.79,-52 77.79,-52"/>
<text text-anchor="middle" x="53" y="-31" font-family="arial" font-size="10.00">Collection L2</text>
</g>
<!-- marketplace_l2 -->
<g id="node7" class="node">
<title>marketplace_l2</title>
<path fill="none" stroke="black" d="M180.35,-52C180.35,-52 119.65,-52 119.65,-52 113.65,-52 107.65,-46 107.65,-40 107.65,-40 107.65,-28 107.65,-28 107.65,-22 113.65,-16 119.65,-16 119.65,-16 180.35,-16 180.35,-16 186.35,-16 192.35,-22 192.35,-28 192.35,-28 192.35,-40 192.35,-40 192.35,-46 186.35,-52 180.35,-52"/>
<text text-anchor="middle" x="150" y="-31" font-family="arial" font-size="10.00">Marketplace L2</text>
</g>
<!-- bid_l2 -->
<g id="node8" class="node">
<title>bid_l2</title>
<path fill="none" stroke="black" d="M252,-52C252,-52 222,-52 222,-52 216,-52 210,-46 210,-40 210,-40 210,-28 210,-28 210,-22 216,-16 222,-16 222,-16 252,-16 252,-16 258,-16 264,-22 264,-28 264,-28 264,-40 264,-40 264,-46 258,-52 252,-52"/>
<text text-anchor="middle" x="237" y="-31" font-family="arial" font-size="10.00">Bids L2</text>
</g>
<!-- bridge_proxy_l2&#45;&gt;bridge_proxy_l1 -->
<g id="edge11" class="edge">
<title>bridge_proxy_l2&#45;&gt;bridge_proxy_l1</title>
<path fill="none" stroke="blue" d="M172.98,-136.23C172.51,-159.61 170.03,-202.41 159,-237 157.1,-242.95 154.38,-249.02 151.45,-254.67"/>
<polygon fill="blue" stroke="blue" points="148.23,-253.27 146.43,-263.71 154.35,-256.67 148.23,-253.27"/>
</g>
<!-- bridge_proxy_l2&#45;&gt;collection_l2 -->
<g id="edge8" class="edge">
<title>bridge_proxy_l2&#45;&gt;collection_l2</title>
<path fill="none" stroke="blue" d="M129.31,-102.26C116.82,-96.94 103.63,-90.18 92.65,-82 84.61,-76 77.12,-68.07 70.87,-60.44"/>
<polygon fill="blue" stroke="blue" points="73.51,-58.13 64.61,-52.38 67.98,-62.42 73.51,-58.13"/>
<text text-anchor="middle" x="124.67" y="-73" font-family="arial" font-size="10.00" fill="blue">approve/reject</text>
</g>
<!-- bridge_proxy_l2&#45;&gt;marketplace_l2 -->
<g id="edge6" class="edge">
<title>bridge_proxy_l2&#45;&gt;marketplace_l2</title>
<path fill="none" stroke="blue" d="M168.12,-99.61C165.05,-88.66 161.03,-74.31 157.55,-61.92"/>
<polygon fill="blue" stroke="blue" points="160.86,-60.77 154.79,-52.08 154.12,-62.66 160.86,-60.77"/>
<text text-anchor="middle" x="177.01" y="-73" font-family="arial" font-size="10.00" fill="blue">set fee</text>
</g>
<!-- bridge_proxy_l2&#45;&gt;bid_l2 -->
<g id="edge7" class="edge">
<title>bridge_proxy_l2&#45;&gt;bid_l2</title>
<path fill="none" stroke="blue" d="M186.57,-99.61C195.54,-88.12 207.44,-72.87 217.43,-60.07"/>
<polygon fill="blue" stroke="blue" points="220.27,-62.12 223.67,-52.08 214.75,-57.81 220.27,-62.12"/>
<text text-anchor="middle" x="223.01" y="-73" font-family="arial" font-size="10.00" fill="blue">set fee</text>
</g>
<!-- store_l2 -->
<g id="node11" class="node">
<title>store_l2</title>
<path fill="none" stroke="black" d="M356.07,-52C356.07,-52 293.93,-52 293.93,-52 287.93,-52 281.93,-46 281.93,-40 281.93,-40 281.93,-28 281.93,-28 281.93,-22 287.93,-16 293.93,-16 293.93,-16 356.07,-16 356.07,-16 362.07,-16 368.07,-22 368.07,-28 368.07,-28 368.07,-40 368.07,-40 368.07,-46 362.07,-52 356.07,-52"/>
<text text-anchor="middle" x="325" y="-31" font-family="arial" font-size="10.00">Collection Store</text>
</g>
<!-- bridge_proxy_l2&#45;&gt;store_l2 -->
<g id="edge9" class="edge">
<title>bridge_proxy_l2&#45;&gt;store_l2</title>
<path fill="none" stroke="blue" d="M207.56,-99.86C218.61,-94.27 230.87,-87.97 242,-82 256.72,-74.1 272.73,-65.13 286.73,-57.15"/>
<polygon fill="blue" stroke="blue" points="288.66,-60.08 295.6,-52.08 285.19,-54.01 288.66,-60.08"/>
<text text-anchor="middle" x="277.01" y="-73" font-family="arial" font-size="10.00" fill="blue">set fee</text>
</g>
<!-- bridge_l2&#45;&gt;bridge_proxy_l2 -->
<g id="edge5" class="edge">
<title>bridge_l2&#45;&gt;bridge_proxy_l2</title>
<path fill="none" stroke="black" stroke-dasharray="5,2" d="M222.28,-165.65C211.98,-155.9 200.36,-144.9 190.99,-136.03"/>
<polygon fill="black" stroke="black" points="220.18,-168.48 229.84,-172.81 224.99,-163.4 220.18,-168.48"/>
</g>
</g>
</svg>
