<?xml version="1.0" encoding="UTF-8"?>
<!DOCTYPE svg PUBLIC "-//W3C//DTD SVG 1.1//EN" "http://www.w3.org/Graphics/SVG/1.1/DTD/svg11.dtd">
<svg width="420" height="246" xmlns="http://www.w3.org/2000/svg" x-original-source="Title: Social service
participant Social client
participant Social service
participant Matrix

Social client -> Social service: Create channel
Note over Social service: Max channels was reached
Social service --> Social client: 400 Max reached">
<rect width="100%" height="100%" fill="white"/><defs><marker viewBox="0 0 5 5" markerWidth="5" markerHeight="5" orient="auto" refX="5" refY="2.5" id="markerArrowBlock"><path d="M 0 0 L 5 2.5 L 0 5 z"></path></marker><marker viewBox="0 0 9.6 16" markerWidth="4" markerHeight="16" orient="auto" refX="9.6" refY="8" id="markerArrowOpen"><path d="M 9.6,8 1.92,16 0,13.7 5.76,8 0,2.286 1.92,0 9.6,8 z"></path></marker></defs><rect x="10" y="10" width="130" height="31" stroke="#000000" fill="#ffffff" style="stroke-width: 2px;"></rect><text x="20" y="31" text-anchor="start" style="font: 14px Menlo, Monaco, &quot;Courier New&quot;, monospace;"><tspan x="20" y="31">Social client</tspan></text><rect x="10" y="164" width="130" height="31" stroke="#000000" fill="#ffffff" style="stroke-width: 2px;"></rect><text x="20" y="185" text-anchor="start" style="font: 14px Menlo, Monaco, &quot;Courier New&quot;, monospace;"><tspan x="20" y="185">Social client</tspan></text><line x1="75" x2="75" y1="41" y2="164" stroke="#000000" fill="none" style="stroke-width: 2px;"></line><rect x="160" y="10" width="139" height="31" stroke="#000000" fill="#ffffff" style="stroke-width: 2px;"></rect><text x="170" y="31" text-anchor="start" style="font: 14px Menlo, Monaco, &quot;Courier New&quot;, monospace;"><tspan x="170" y="31">Social service</tspan></text><rect x="160" y="164" width="139" height="31" stroke="#000000" fill="#ffffff" style="stroke-width: 2px;"></rect><text x="170" y="185" text-anchor="start" style="font: 14px Menlo, Monaco, &quot;Courier New&quot;, monospace;"><tspan x="170" y="185">Social service</tspan></text><line x1="229" x2="229" y1="41" y2="164" stroke="#000000" fill="none" style="stroke-width: 2px;"></line><rect x="319" y="10" width="71" height="31" stroke="#000000" fill="#ffffff" style="stroke-width: 2px;"></rect><text x="329" y="31" text-anchor="start" style="font: 14px Menlo, Monaco, &quot;Courier New&quot;, monospace;"><tspan x="329" y="31">Matrix</tspan></text><rect x="319" y="164" width="71" height="31" stroke="#000000" fill="#ffffff" style="stroke-width: 2px;"></rect><text x="329" y="185" text-anchor="start" style="font: 14px Menlo, Monaco, &quot;Courier New&quot;, monospace;"><tspan x="329" y="185">Matrix</tspan></text><line x1="354" x2="354" y1="41" y2="164" stroke="#000000" fill="none" style="stroke-width: 2px;"></line><text x="92" y="72" text-anchor="start" style="font: 14px Menlo, Monaco, &quot;Courier New&quot;, monospace;"><tspan x="92" y="72">Create channel</tspan></text><line x1="75" x2="229" y1="77" y2="77" stroke="#000000" fill="none" marker-end="url(#markerArrowBlock)" style="stroke-width: 2px;"></line><rect x="123" y="92" width="213" height="21" stroke="#000000" fill="#ffffff" style="stroke-width: 2px;"></rect><text x="128" y="108" text-anchor="start" style="font: 14px Menlo, Monaco, &quot;Courier New&quot;, monospace;"><tspan x="128" y="108">Max channels was reached</tspan></text><text x="88" y="144" text-anchor="start" style="font: 14px Menlo, Monaco, &quot;Courier New&quot;, monospace;"><tspan x="88" y="144">400 Max reached</tspan></text><line x1="229" x2="75" y1="149" y2="149" stroke="#000000" fill="none" stroke-dasharray="6px, 2px" marker-end="url(#markerArrowBlock)" style="stroke-width: 2px;"></line></svg>