<?xml version="1.0" encoding="UTF-8"?>
<!DOCTYPE svg PUBLIC "-//W3C//DTD SVG 1.1//EN" "http://www.w3.org/Graphics/SVG/1.1/DTD/svg11.dtd">
<svg width="504" height="255" xmlns="http://www.w3.org/2000/svg" x-original-source="Title: Social service
participant Social client
participant Social service
participant Matrix

Social client -> Social service: send message to user 2
Note over Social service: Verify user 2 hasn't blocked owner
Social service -> Matrix: send message
"><rect width="100%" height="100%" fill="white"/>
<defs><marker viewBox="0 0 5 5" markerWidth="5" markerHeight="5" orient="auto" refX="5" refY="2.5" id="markerArrowBlock"><path d="M 0 0 L 5 2.5 L 0 5 z"></path></marker><marker viewBox="0 0 9.6 16" markerWidth="4" markerHeight="16" orient="auto" refX="9.6" refY="8" id="markerArrowOpen"><path d="M 9.6,8 1.92,16 0,13.7 5.76,8 0,2.286 1.92,0 9.6,8 z"></path></marker></defs><rect x="10" y="10" width="130" height="31" stroke="#000000" fill="#ffffff" style="stroke-width: 2px;"></rect><text x="20" y="31" text-anchor="start" style="font: 14px Menlo, Monaco, &quot;Courier New&quot;, monospace;"><tspan x="20" y="31">Social client</tspan></text><rect x="10" y="173" width="130" height="31" stroke="#000000" fill="#ffffff" style="stroke-width: 2px;"></rect><text x="20" y="194" text-anchor="start" style="font: 14px Menlo, Monaco, &quot;Courier New&quot;, monospace;"><tspan x="20" y="194">Social client</tspan></text><line x1="75" x2="75" y1="41" y2="173" stroke="#000000" fill="none" style="stroke-width: 2px;"></line><rect x="211" y="10" width="139" height="31" stroke="#000000" fill="#ffffff" style="stroke-width: 2px;"></rect><text x="221" y="31" text-anchor="start" style="font: 14px Menlo, Monaco, &quot;Courier New&quot;, monospace;"><tspan x="221" y="31">Social service</tspan></text><rect x="211" y="173" width="139" height="31" stroke="#000000" fill="#ffffff" style="stroke-width: 2px;"></rect><text x="221" y="194" text-anchor="start" style="font: 14px Menlo, Monaco, &quot;Courier New&quot;, monospace;"><tspan x="221" y="194">Social service</tspan></text><line x1="280" x2="280" y1="41" y2="173" stroke="#000000" fill="none" style="stroke-width: 2px;"></line><rect x="403" y="10" width="71" height="31" stroke="#000000" fill="#ffffff" style="stroke-width: 2px;"></rect><text x="413" y="31" text-anchor="start" style="font: 14px Menlo, Monaco, &quot;Courier New&quot;, monospace;"><tspan x="413" y="31">Matrix</tspan></text><rect x="403" y="173" width="71" height="31" stroke="#000000" fill="#ffffff" style="stroke-width: 2px;"></rect><text x="413" y="194" text-anchor="start" style="font: 14px Menlo, Monaco, &quot;Courier New&quot;, monospace;"><tspan x="413" y="194">Matrix</tspan></text><line x1="438" x2="438" y1="41" y2="173" stroke="#000000" fill="none" style="stroke-width: 2px;"></line><text x="84" y="75" text-anchor="start" style="font: 14px Menlo, Monaco, &quot;Courier New&quot;, monospace;"><tspan x="84" y="75">send message to user 2</tspan></text><line x1="75" x2="280" y1="80" y2="80" stroke="#000000" fill="none" marker-end="url(#markerArrowBlock)" style="stroke-width: 2px;"></line><rect x="132" y="95" width="297" height="24" stroke="#000000" fill="#ffffff" style="stroke-width: 2px;"></rect><text x="137" y="114" text-anchor="start" style="font: 14px Menlo, Monaco, &quot;Courier New&quot;, monospace;"><tspan x="137" y="114">Verify user 2 hasn't blocked owner</tspan></text><text x="308" y="153" text-anchor="start" style="font: 14px Menlo, Monaco, &quot;Courier New&quot;, monospace;"><tspan x="308" y="153">send message</tspan></text><line x1="280" x2="438" y1="158" y2="158" stroke="#000000" fill="none" marker-end="url(#markerArrowBlock)" style="stroke-width: 2px;"></line></svg>