<?xml version="1.0" encoding="UTF-8"?>
<!DOCTYPE svg PUBLIC "-//W3C//DTD SVG 1.1//EN" "http://www.w3.org/Graphics/SVG/1.1/DTD/svg11.dtd">
<svg width="1548" height="459" xmlns="http://www.w3.org/2000/svg" x-original-source="participant Committee as C
participant Builder server as PT
participant Builder as B
participant Matic Collection as M
participant DAO Peer as P
B->PT: Fetch all \nitems from a collection
C->B: approve(content_hashes[])
B-->B: Create new deployments for the catalyst using\nspecific assets from content hashes
B->M: sendTx: approve(content_hashes)
M-->M: Update item hashes &amp; approve collection
M-->B: txMined
B->P: Deploy entitities
M-->P: approved content_hashes[]
P->P: Check and accept deployments"><defs><marker viewBox="0 0 5 5" markerWidth="5" markerHeight="5" orient="auto" refX="5" refY="2.5" id="markerArrowBlock"><path d="M 0 0 L 5 2.5 L 0 5 z"></path></marker><marker viewBox="0 0 9.6 16" markerWidth="4" markerHeight="16" orient="auto" refX="9.6" refY="8" id="markerArrowOpen"><path d="M 9.6,8 1.92,16 0,13.7 5.76,8 0,2.286 1.92,0 9.6,8 z"></path></marker></defs><rect x="10" y="10" width="96" height="31" stroke="#000000" fill="#ffffff" style="stroke-width: 2px;"></rect><text x="20" y="31" text-anchor="start" style="font: 14px Menlo, Monaco, &quot;Courier New&quot;, monospace;"><tspan x="20" y="31">Committee</tspan></text><rect x="10" y="398" width="96" height="31" stroke="#000000" fill="#ffffff" style="stroke-width: 2px;"></rect><text x="20" y="419" text-anchor="start" style="font: 14px Menlo, Monaco, &quot;Courier New&quot;, monospace;"><tspan x="20" y="419">Committee</tspan></text><line x1="58" x2="58" y1="41" y2="398" stroke="#000000" fill="none" style="stroke-width: 2px;"></line><rect x="126" y="10" width="139" height="31" stroke="#000000" fill="#ffffff" style="stroke-width: 2px;"></rect><text x="136" y="31" text-anchor="start" style="font: 14px Menlo, Monaco, &quot;Courier New&quot;, monospace;"><tspan x="136" y="31">Builder server</tspan></text><rect x="126" y="398" width="139" height="31" stroke="#000000" fill="#ffffff" style="stroke-width: 2px;"></rect><text x="136" y="419" text-anchor="start" style="font: 14px Menlo, Monaco, &quot;Courier New&quot;, monospace;"><tspan x="136" y="419">Builder server</tspan></text><line x1="195" x2="195" y1="41" y2="398" stroke="#000000" fill="none" style="stroke-width: 2px;"></line><rect x="369" y="10" width="80" height="31" stroke="#000000" fill="#ffffff" style="stroke-width: 2px;"></rect><text x="379" y="31" text-anchor="start" style="font: 14px Menlo, Monaco, &quot;Courier New&quot;, monospace;"><tspan x="379" y="31">Builder</tspan></text><rect x="369" y="398" width="80" height="31" stroke="#000000" fill="#ffffff" style="stroke-width: 2px;"></rect><text x="379" y="419" text-anchor="start" style="font: 14px Menlo, Monaco, &quot;Courier New&quot;, monospace;"><tspan x="379" y="419">Builder</tspan></text><line x1="409" x2="409" y1="41" y2="398" stroke="#000000" fill="none" style="stroke-width: 2px;"></line><rect x="751" y="10" width="155" height="31" stroke="#000000" fill="#ffffff" style="stroke-width: 2px;"></rect><text x="761" y="31" text-anchor="start" style="font: 14px Menlo, Monaco, &quot;Courier New&quot;, monospace;"><tspan x="761" y="31">Matic Collection</tspan></text><rect x="751" y="398" width="155" height="31" stroke="#000000" fill="#ffffff" style="stroke-width: 2px;"></rect><text x="761" y="419" text-anchor="start" style="font: 14px Menlo, Monaco, &quot;Courier New&quot;, monospace;"><tspan x="761" y="419">Matic Collection</tspan></text><line x1="828" x2="828" y1="41" y2="398" stroke="#000000" fill="none" style="stroke-width: 2px;"></line><rect x="1153" y="10" width="88" height="31" stroke="#000000" fill="#ffffff" style="stroke-width: 2px;"></rect><text x="1163" y="31" text-anchor="start" style="font: 14px Menlo, Monaco, &quot;Courier New&quot;, monospace;"><tspan x="1163" y="31">DAO Peer</tspan></text><rect x="1153" y="398" width="88" height="31" stroke="#000000" fill="#ffffff" style="stroke-width: 2px;"></rect><text x="1163" y="419" text-anchor="start" style="font: 14px Menlo, Monaco, &quot;Courier New&quot;, monospace;"><tspan x="1163" y="419">DAO Peer</tspan></text><line x1="1197" x2="1197" y1="41" y2="398" stroke="#000000" fill="none" style="stroke-width: 2px;"></line><text x="205" y="72" text-anchor="start" style="font: 14px Menlo, Monaco, &quot;Courier New&quot;, monospace;"><tspan x="205" y="72">Fetch all </tspan><tspan x="205" dy="1.2em">items from a collection</tspan></text><line x1="409" x2="195" y1="94" y2="94" stroke="#000000" fill="none" marker-end="url(#markerArrowBlock)" style="stroke-width: 2px;"></line><text x="128" y="124" text-anchor="start" style="font: 14px Menlo, Monaco, &quot;Courier New&quot;, monospace;"><tspan x="128" y="124">approve(content_hashes[])</tspan></text><line x1="58" x2="409" y1="129" y2="129" stroke="#000000" fill="none" marker-end="url(#markerArrowBlock)" style="stroke-width: 2px;"></line><line x1="409" x2="429" y1="144" y2="144" stroke="#000000" fill="none" stroke-dasharray="6px, 2px" style="stroke-width: 2px;"></line><line x1="429" x2="429" y1="144" y2="180" stroke="#000000" fill="none" stroke-dasharray="6px, 2px" style="stroke-width: 2px;"></line><line x1="429" x2="409" y1="180" y2="180" stroke="#000000" fill="none" stroke-dasharray="6px, 2px" marker-end="url(#markerArrowBlock)" style="stroke-width: 2px;"></line><text x="434" y="169" text-anchor="start" style="font: 14px Menlo, Monaco, &quot;Courier New&quot;, monospace;"><tspan x="434" y="169">Create new deployments for the catalyst using</tspan><tspan x="434" dy="1.2em">specific assets from content hashes</tspan></text><text x="487" y="210" text-anchor="start" style="font: 14px Menlo, Monaco, &quot;Courier New&quot;, monospace;"><tspan x="487" y="210">sendTx: approve(content_hashes)</tspan></text><line x1="409" x2="828" y1="215" y2="215" stroke="#000000" fill="none" marker-end="url(#markerArrowBlock)" style="stroke-width: 2px;"></line><line x1="828" x2="848" y1="230" y2="230" stroke="#000000" fill="none" stroke-dasharray="6px, 2px" style="stroke-width: 2px;"></line><line x1="848" x2="848" y1="230" y2="249" stroke="#000000" fill="none" stroke-dasharray="6px, 2px" style="stroke-width: 2px;"></line><line x1="848" x2="828" y1="249" y2="249" stroke="#000000" fill="none" stroke-dasharray="6px, 2px" marker-end="url(#markerArrowBlock)" style="stroke-width: 2px;"></line><text x="853" y="246" text-anchor="start" style="font: 14px Menlo, Monaco, &quot;Courier New&quot;, monospace;"><tspan x="853" y="246">Update item hashes &amp; approve collection</tspan></text><text x="588" y="275" text-anchor="start" style="font: 14px Menlo, Monaco, &quot;Courier New&quot;, monospace;"><tspan x="588" y="275">txMined</tspan></text><line x1="828" x2="409" y1="280" y2="280" stroke="#000000" fill="none" stroke-dasharray="6px, 2px" marker-end="url(#markerArrowBlock)" style="stroke-width: 2px;"></line><text x="731" y="309" text-anchor="start" style="font: 14px Menlo, Monaco, &quot;Courier New&quot;, monospace;"><tspan x="731" y="309">Deploy entitities</tspan></text><line x1="409" x2="1197" y1="314" y2="314" stroke="#000000" fill="none" marker-end="url(#markerArrowBlock)" style="stroke-width: 2px;"></line><text x="907" y="344" text-anchor="start" style="font: 14px Menlo, Monaco, &quot;Courier New&quot;, monospace;"><tspan x="907" y="344">approved content_hashes[]</tspan></text><line x1="828" x2="1197" y1="349" y2="349" stroke="#000000" fill="none" stroke-dasharray="6px, 2px" marker-end="url(#markerArrowBlock)" style="stroke-width: 2px;"></line><line x1="1197" x2="1217" y1="364" y2="364" stroke="#000000" fill="none" style="stroke-width: 2px;"></line><line x1="1217" x2="1217" y1="364" y2="383" stroke="#000000" fill="none" style="stroke-width: 2px;"></line><line x1="1217" x2="1197" y1="383" y2="383" stroke="#000000" fill="none" marker-end="url(#markerArrowBlock)" style="stroke-width: 2px;"></line><text x="1222" y="380" text-anchor="start" style="font: 14px Menlo, Monaco, &quot;Courier New&quot;, monospace;"><tspan x="1222" y="380">Check and accept deployments</tspan></text></svg>