<?xml version="1.0" encoding="UTF-8"?>
<!DOCTYPE svg PUBLIC "-//W3C//DTD SVG 1.1//EN" "http://www.w3.org/Graphics/SVG/1.1/DTD/svg11.dtd">
<svg width="568" height="218" xmlns="http://www.w3.org/2000/svg" x-original-source="participant User as U
participant Builder as B
participant Builder Server as PT
U->B: Upload new version of item
B-->B: Edit item metadata
B->PT: Save item"><defs><marker viewBox="0 0 5 5" markerWidth="5" markerHeight="5" orient="auto" refX="5" refY="2.5" id="markerArrowBlock"><path d="M 0 0 L 5 2.5 L 0 5 z"></path></marker><marker viewBox="0 0 9.6 16" markerWidth="4" markerHeight="16" orient="auto" refX="9.6" refY="8" id="markerArrowOpen"><path d="M 9.6,8 1.92,16 0,13.7 5.76,8 0,2.286 1.92,0 9.6,8 z"></path></marker></defs><rect x="10" y="10" width="54" height="31" stroke="#000000" fill="#ffffff" style="stroke-width: 2px;"></rect><text x="20" y="31" text-anchor="start" style="font: 14px Menlo, Monaco, &quot;Courier New&quot;, monospace;"><tspan x="20" y="31">User</tspan></text><rect x="10" y="157" width="54" height="31" stroke="#000000" fill="#ffffff" style="stroke-width: 2px;"></rect><text x="20" y="178" text-anchor="start" style="font: 14px Menlo, Monaco, &quot;Courier New&quot;, monospace;"><tspan x="20" y="178">User</tspan></text><line x1="37" x2="37" y1="41" y2="157" stroke="#000000" fill="none" style="stroke-width: 2px;"></line><rect x="237" y="10" width="80" height="31" stroke="#000000" fill="#ffffff" style="stroke-width: 2px;"></rect><text x="247" y="31" text-anchor="start" style="font: 14px Menlo, Monaco, &quot;Courier New&quot;, monospace;"><tspan x="247" y="31">Builder</tspan></text><rect x="237" y="157" width="80" height="31" stroke="#000000" fill="#ffffff" style="stroke-width: 2px;"></rect><text x="247" y="178" text-anchor="start" style="font: 14px Menlo, Monaco, &quot;Courier New&quot;, monospace;"><tspan x="247" y="178">Builder</tspan></text><line x1="277" x2="277" y1="41" y2="157" stroke="#000000" fill="none" style="stroke-width: 2px;"></line><rect x="399" y="10" width="139" height="31" stroke="#000000" fill="#ffffff" style="stroke-width: 2px;"></rect><text x="409" y="31" text-anchor="start" style="font: 14px Menlo, Monaco, &quot;Courier New&quot;, monospace;"><tspan x="409" y="31">Builder Server</tspan></text><rect x="399" y="157" width="139" height="31" stroke="#000000" fill="#ffffff" style="stroke-width: 2px;"></rect><text x="409" y="178" text-anchor="start" style="font: 14px Menlo, Monaco, &quot;Courier New&quot;, monospace;"><tspan x="409" y="178">Builder Server</tspan></text><line x1="468" x2="468" y1="41" y2="157" stroke="#000000" fill="none" style="stroke-width: 2px;"></line><text x="47" y="75" text-anchor="start" style="font: 14px Menlo, Monaco, &quot;Courier New&quot;, monospace;"><tspan x="47" y="75">Upload new version of item</tspan></text><line x1="37" x2="277" y1="80" y2="80" stroke="#000000" fill="none" marker-end="url(#markerArrowBlock)" style="stroke-width: 2px;"></line><line x1="277" x2="297" y1="95" y2="95" stroke="#000000" fill="none" stroke-dasharray="6px, 2px" style="stroke-width: 2px;"></line><line x1="297" x2="297" y1="95" y2="111" stroke="#000000" fill="none" stroke-dasharray="6px, 2px" style="stroke-width: 2px;"></line><line x1="297" x2="277" y1="111" y2="111" stroke="#000000" fill="none" stroke-dasharray="6px, 2px" marker-end="url(#markerArrowBlock)" style="stroke-width: 2px;"></line><text x="302" y="108" text-anchor="start" style="font: 14px Menlo, Monaco, &quot;Courier New&quot;, monospace;"><tspan x="302" y="108">Edit item metadata</tspan></text><text x="334" y="137" text-anchor="start" style="font: 14px Menlo, Monaco, &quot;Courier New&quot;, monospace;"><tspan x="334" y="137">Save item</tspan></text><line x1="277" x2="468" y1="142" y2="142" stroke="#000000" fill="none" marker-end="url(#markerArrowBlock)" style="stroke-width: 2px;"></line></svg>