<?xml version="1.0" encoding="UTF-8"?>
<!DOCTYPE svg PUBLIC "-//W3C//DTD SVG 1.1//EN" "http://www.w3.org/Graphics/SVG/1.1/DTD/svg11.dtd">
<svg width="962" height="303" xmlns="http://www.w3.org/2000/svg" x-original-source="participant Creator as C
participant Builder as B
participant Builder Server as PT
participant Matic Collection Factory as M
participant Matic Collection as MC

C->B: Create collection &amp;\n upload items
B-->PT: Save collection &amp; items
C->B: Publish collection
B-->M: Deploy collection
M-->MC: Create collection"><defs><marker viewBox="0 0 5 5" markerWidth="5" markerHeight="5" orient="auto" refX="5" refY="2.5" id="markerArrowBlock"><path d="M 0 0 L 5 2.5 L 0 5 z"></path></marker><marker viewBox="0 0 9.6 16" markerWidth="4" markerHeight="16" orient="auto" refX="9.6" refY="8" id="markerArrowOpen"><path d="M 9.6,8 1.92,16 0,13.7 5.76,8 0,2.286 1.92,0 9.6,8 z"></path></marker></defs><rect x="10" y="10" width="80" height="34" stroke="#000000" fill="#ffffff" style="stroke-width: 2px;"></rect><text x="20" y="32" text-anchor="start" style="font: 14px Menlo, Monaco, &quot;Courier New&quot;, monospace;"><tspan x="20" y="32">Creator</tspan></text><rect x="10" y="239" width="80" height="34" stroke="#000000" fill="#ffffff" style="stroke-width: 2px;"></rect><text x="20" y="261" text-anchor="start" style="font: 14px Menlo, Monaco, &quot;Courier New&quot;, monospace;"><tspan x="20" y="261">Creator</tspan></text><line x1="50" x2="50" y1="44" y2="239" stroke="#000000" fill="none" style="stroke-width: 2px;"></line><rect x="191" y="10" width="80" height="34" stroke="#000000" fill="#ffffff" style="stroke-width: 2px;"></rect><text x="201" y="32" text-anchor="start" style="font: 14px Menlo, Monaco, &quot;Courier New&quot;, monospace;"><tspan x="201" y="32">Builder</tspan></text><rect x="191" y="239" width="80" height="34" stroke="#000000" fill="#ffffff" style="stroke-width: 2px;"></rect><text x="201" y="261" text-anchor="start" style="font: 14px Menlo, Monaco, &quot;Courier New&quot;, monospace;"><tspan x="201" y="261">Builder</tspan></text><line x1="231" x2="231" y1="44" y2="239" stroke="#000000" fill="none" style="stroke-width: 2px;"></line><rect x="375" y="10" width="139" height="34" stroke="#000000" fill="#ffffff" style="stroke-width: 2px;"></rect><text x="385" y="32" text-anchor="start" style="font: 14px Menlo, Monaco, &quot;Courier New&quot;, monospace;"><tspan x="385" y="32">Builder Server</tspan></text><rect x="375" y="239" width="139" height="34" stroke="#000000" fill="#ffffff" style="stroke-width: 2px;"></rect><text x="385" y="261" text-anchor="start" style="font: 14px Menlo, Monaco, &quot;Courier New&quot;, monospace;"><tspan x="385" y="261">Builder Server</tspan></text><line x1="444" x2="444" y1="44" y2="239" stroke="#000000" fill="none" style="stroke-width: 2px;"></line><rect x="534" y="10" width="223" height="34" stroke="#000000" fill="#ffffff" style="stroke-width: 2px;"></rect><text x="544" y="34" text-anchor="start" style="font: 14px Menlo, Monaco, &quot;Courier New&quot;, monospace;"><tspan x="544" y="34">Matic Collection Factory</tspan></text><rect x="534" y="239" width="223" height="34" stroke="#000000" fill="#ffffff" style="stroke-width: 2px;"></rect><text x="544" y="263" text-anchor="start" style="font: 14px Menlo, Monaco, &quot;Courier New&quot;, monospace;"><tspan x="544" y="263">Matic Collection Factory</tspan></text><line x1="645" x2="645" y1="44" y2="239" stroke="#000000" fill="none" style="stroke-width: 2px;"></line><rect x="777" y="10" width="155" height="34" stroke="#000000" fill="#ffffff" style="stroke-width: 2px;"></rect><text x="787" y="32" text-anchor="start" style="font: 14px Menlo, Monaco, &quot;Courier New&quot;, monospace;"><tspan x="787" y="32">Matic Collection</tspan></text><rect x="777" y="239" width="155" height="34" stroke="#000000" fill="#ffffff" style="stroke-width: 2px;"></rect><text x="787" y="261" text-anchor="start" style="font: 14px Menlo, Monaco, &quot;Courier New&quot;, monospace;"><tspan x="787" y="261">Matic Collection</tspan></text><line x1="854" x2="854" y1="44" y2="239" stroke="#000000" fill="none" style="stroke-width: 2px;"></line><text x="60" y="75" text-anchor="start" style="font: 14px Menlo, Monaco, &quot;Courier New&quot;, monospace;"><tspan x="60" y="75">Create collection &amp;</tspan><tspan x="60" dy="1.2em"> upload items</tspan></text><line x1="50" x2="231" y1="97" y2="97" stroke="#000000" fill="none" marker-end="url(#markerArrowBlock)" style="stroke-width: 2px;"></line><text x="240" y="123" text-anchor="start" style="font: 14px Menlo, Monaco, &quot;Courier New&quot;, monospace;"><tspan x="240" y="123">Save collection &amp; items</tspan></text><line x1="231" x2="444" y1="128" y2="128" stroke="#000000" fill="none" stroke-dasharray="6px, 2px" marker-end="url(#markerArrowBlock)" style="stroke-width: 2px;"></line><text x="64" y="154" text-anchor="start" style="font: 14px Menlo, Monaco, &quot;Courier New&quot;, monospace;"><tspan x="64" y="154">Publish collection</tspan></text><line x1="50" x2="231" y1="159" y2="159" stroke="#000000" fill="none" marker-end="url(#markerArrowBlock)" style="stroke-width: 2px;"></line><text x="366" y="188" text-anchor="start" style="font: 14px Menlo, Monaco, &quot;Courier New&quot;, monospace;"><tspan x="366" y="188">Deploy collection</tspan></text><line x1="231" x2="645" y1="193" y2="193" stroke="#000000" fill="none" stroke-dasharray="6px, 2px" marker-end="url(#markerArrowBlock)" style="stroke-width: 2px;"></line><text x="678" y="219" text-anchor="start" style="font: 14px Menlo, Monaco, &quot;Courier New&quot;, monospace;"><tspan x="678" y="219">Create collection</tspan></text><line x1="645" x2="854" y1="224" y2="224" stroke="#000000" fill="none" stroke-dasharray="6px, 2px" marker-end="url(#markerArrowBlock)" style="stroke-width: 2px;"></line></svg>