<?xml version="1.0" encoding="UTF-8"?>
<!DOCTYPE svg PUBLIC "-//W3C//DTD SVG 1.1//EN" "http://www.w3.org/Graphics/SVG/1.1/DTD/svg11.dtd">
<svg width="1199" height="885" xmlns="http://www.w3.org/2000/svg" x-original-source="participant Creator as Ct
participant Builder as B
participant Builder Server as BS
participant Committee as C
participant Matic Collection as M
participant DAO Catalyst as peer
note over Ct: Play and upload collection
Ct->B: Upload new versions
B-->BS: save item
Ct->B: Upload new versions
B-->BS: save item
Ct->B: Upload new versions
B-->BS: save item
Ct->B: Upload new versions
B-->BS: save item
Ct->B: Item/collection ready to review
Ct-->M: Publish if needed(first time)
B-->C:Collection ready for review
note over C: Review by committee
C->C: Approve hash1 + category
C->C: Approve hash2 + category
C->B: approve items with hashes
B-->M: sendTx: approve(content_hashes)
B->B: Wait for tx
M-->B: txMined
note over B: Upload approved content to catalyst
B->peer: Upload hashed entity, using any signer
peer->M: Validate hashes"><defs><marker viewBox="0 0 5 5" markerWidth="5" markerHeight="5" orient="auto" refX="5" refY="2.5" id="markerArrowBlock"><path d="M 0 0 L 5 2.5 L 0 5 z"></path></marker><marker viewBox="0 0 9.6 16" markerWidth="4" markerHeight="16" orient="auto" refX="9.6" refY="8" id="markerArrowOpen"><path d="M 9.6,8 1.92,16 0,13.7 5.76,8 0,2.286 1.92,0 9.6,8 z"></path></marker></defs><rect x="85" y="10" width="80" height="34" stroke="#000000" fill="#ffffff" style="stroke-width: 2px;"></rect><text x="95" y="32" text-anchor="start" style="font: 14px Menlo, Monaco, &quot;Courier New&quot;, monospace;"><tspan x="95" y="32">Creator</tspan></text><rect x="85" y="821" width="80" height="34" stroke="#000000" fill="#ffffff" style="stroke-width: 2px;"></rect><text x="95" y="843" text-anchor="start" style="font: 14px Menlo, Monaco, &quot;Courier New&quot;, monospace;"><tspan x="95" y="843">Creator</tspan></text><line x1="125" x2="125" y1="44" y2="821" stroke="#000000" fill="none" style="stroke-width: 2px;"></line><rect x="367" y="10" width="80" height="34" stroke="#000000" fill="#ffffff" style="stroke-width: 2px;"></rect><text x="377" y="32" text-anchor="start" style="font: 14px Menlo, Monaco, &quot;Courier New&quot;, monospace;"><tspan x="377" y="32">Builder</tspan></text><rect x="367" y="821" width="80" height="34" stroke="#000000" fill="#ffffff" style="stroke-width: 2px;"></rect><text x="377" y="843" text-anchor="start" style="font: 14px Menlo, Monaco, &quot;Courier New&quot;, monospace;"><tspan x="377" y="843">Builder</tspan></text><line x1="407" x2="407" y1="44" y2="821" stroke="#000000" fill="none" style="stroke-width: 2px;"></line><rect x="500" y="10" width="139" height="34" stroke="#000000" fill="#ffffff" style="stroke-width: 2px;"></rect><text x="510" y="32" text-anchor="start" style="font: 14px Menlo, Monaco, &quot;Courier New&quot;, monospace;"><tspan x="510" y="32">Builder Server</tspan></text><rect x="500" y="821" width="139" height="34" stroke="#000000" fill="#ffffff" style="stroke-width: 2px;"></rect><text x="510" y="843" text-anchor="start" style="font: 14px Menlo, Monaco, &quot;Courier New&quot;, monospace;"><tspan x="510" y="843">Builder Server</tspan></text><line x1="569" x2="569" y1="44" y2="821" stroke="#000000" fill="none" style="stroke-width: 2px;"></line><rect x="659" y="10" width="96" height="34" stroke="#000000" fill="#ffffff" style="stroke-width: 2px;"></rect><text x="669" y="32" text-anchor="start" style="font: 14px Menlo, Monaco, &quot;Courier New&quot;, monospace;"><tspan x="669" y="32">Committee</tspan></text><rect x="659" y="821" width="96" height="34" stroke="#000000" fill="#ffffff" style="stroke-width: 2px;"></rect><text x="669" y="843" text-anchor="start" style="font: 14px Menlo, Monaco, &quot;Courier New&quot;, monospace;"><tspan x="669" y="843">Committee</tspan></text><line x1="707" x2="707" y1="44" y2="821" stroke="#000000" fill="none" style="stroke-width: 2px;"></line><rect x="872" y="10" width="155" height="34" stroke="#000000" fill="#ffffff" style="stroke-width: 2px;"></rect><text x="882" y="32" text-anchor="start" style="font: 14px Menlo, Monaco, &quot;Courier New&quot;, monospace;"><tspan x="882" y="32">Matic Collection</tspan></text><rect x="872" y="821" width="155" height="34" stroke="#000000" fill="#ffffff" style="stroke-width: 2px;"></rect><text x="882" y="843" text-anchor="start" style="font: 14px Menlo, Monaco, &quot;Courier New&quot;, monospace;"><tspan x="882" y="843">Matic Collection</tspan></text><line x1="949" x2="949" y1="44" y2="821" stroke="#000000" fill="none" style="stroke-width: 2px;"></line><rect x="1047" y="10" width="122" height="34" stroke="#000000" fill="#ffffff" style="stroke-width: 2px;"></rect><text x="1057" y="34" text-anchor="start" style="font: 14px Menlo, Monaco, &quot;Courier New&quot;, monospace;"><tspan x="1057" y="34">DAO Catalyst</tspan></text><rect x="1047" y="821" width="122" height="34" stroke="#000000" fill="#ffffff" style="stroke-width: 2px;"></rect><text x="1057" y="845" text-anchor="start" style="font: 14px Menlo, Monaco, &quot;Courier New&quot;, monospace;"><tspan x="1057" y="845">DAO Catalyst</tspan></text><line x1="1108" x2="1108" y1="44" y2="821" stroke="#000000" fill="none" style="stroke-width: 2px;"></line><rect x="10" y="64" width="230" height="24" stroke="#000000" fill="#ffffff" style="stroke-width: 2px;"></rect><text x="15" y="83" text-anchor="start" style="font: 14px Menlo, Monaco, &quot;Courier New&quot;, monospace;"><tspan x="15" y="83">Play and upload collection</tspan></text><text x="185" y="122" text-anchor="start" style="font: 14px Menlo, Monaco, &quot;Courier New&quot;, monospace;"><tspan x="185" y="122">Upload new versions</tspan></text><line x1="125" x2="407" y1="127" y2="127" stroke="#000000" fill="none" marker-end="url(#markerArrowBlock)" style="stroke-width: 2px;"></line><text x="450" y="153" text-anchor="start" style="font: 14px Menlo, Monaco, &quot;Courier New&quot;, monospace;"><tspan x="450" y="153">save item</tspan></text><line x1="407" x2="569" y1="158" y2="158" stroke="#000000" fill="none" stroke-dasharray="6px, 2px" marker-end="url(#markerArrowBlock)" style="stroke-width: 2px;"></line><text x="185" y="187" text-anchor="start" style="font: 14px Menlo, Monaco, &quot;Courier New&quot;, monospace;"><tspan x="185" y="187">Upload new versions</tspan></text><line x1="125" x2="407" y1="192" y2="192" stroke="#000000" fill="none" marker-end="url(#markerArrowBlock)" style="stroke-width: 2px;"></line><text x="450" y="218" text-anchor="start" style="font: 14px Menlo, Monaco, &quot;Courier New&quot;, monospace;"><tspan x="450" y="218">save item</tspan></text><line x1="407" x2="569" y1="223" y2="223" stroke="#000000" fill="none" stroke-dasharray="6px, 2px" marker-end="url(#markerArrowBlock)" style="stroke-width: 2px;"></line><text x="185" y="252" text-anchor="start" style="font: 14px Menlo, Monaco, &quot;Courier New&quot;, monospace;"><tspan x="185" y="252">Upload new versions</tspan></text><line x1="125" x2="407" y1="257" y2="257" stroke="#000000" fill="none" marker-end="url(#markerArrowBlock)" style="stroke-width: 2px;"></line><text x="450" y="283" text-anchor="start" style="font: 14px Menlo, Monaco, &quot;Courier New&quot;, monospace;"><tspan x="450" y="283">save item</tspan></text><line x1="407" x2="569" y1="288" y2="288" stroke="#000000" fill="none" stroke-dasharray="6px, 2px" marker-end="url(#markerArrowBlock)" style="stroke-width: 2px;"></line><text x="185" y="317" text-anchor="start" style="font: 14px Menlo, Monaco, &quot;Courier New&quot;, monospace;"><tspan x="185" y="317">Upload new versions</tspan></text><line x1="125" x2="407" y1="322" y2="322" stroke="#000000" fill="none" marker-end="url(#markerArrowBlock)" style="stroke-width: 2px;"></line><text x="450" y="348" text-anchor="start" style="font: 14px Menlo, Monaco, &quot;Courier New&quot;, monospace;"><tspan x="450" y="348">save item</tspan></text><line x1="407" x2="569" y1="353" y2="353" stroke="#000000" fill="none" stroke-dasharray="6px, 2px" marker-end="url(#markerArrowBlock)" style="stroke-width: 2px;"></line><text x="135" y="382" text-anchor="start" style="font: 14px Menlo, Monaco, &quot;Courier New&quot;, monospace;"><tspan x="135" y="382">Item/collection ready to review</tspan></text><line x1="125" x2="407" y1="387" y2="387" stroke="#000000" fill="none" marker-end="url(#markerArrowBlock)" style="stroke-width: 2px;"></line><text x="414" y="415" text-anchor="start" style="font: 14px Menlo, Monaco, &quot;Courier New&quot;, monospace;"><tspan x="414" y="415">Publish if needed(first time)</tspan></text><line x1="125" x2="949" y1="420" y2="420" stroke="#000000" fill="none" stroke-dasharray="6px, 2px" marker-end="url(#markerArrowBlock)" style="stroke-width: 2px;"></line><text x="443" y="449" text-anchor="start" style="font: 14px Menlo, Monaco, &quot;Courier New&quot;, monospace;"><tspan x="443" y="449">Collection ready for review</tspan></text><line x1="407" x2="707" y1="454" y2="454" stroke="#000000" fill="none" stroke-dasharray="6px, 2px" marker-end="url(#markerArrowBlock)" style="stroke-width: 2px;"></line><rect x="621" y="469" width="171" height="24" stroke="#000000" fill="#ffffff" style="stroke-width: 2px;"></rect><text x="626" y="488" text-anchor="start" style="font: 14px Menlo, Monaco, &quot;Courier New&quot;, monospace;"><tspan x="626" y="488">Review by committee</tspan></text><line x1="707" x2="727" y1="513" y2="513" stroke="#000000" fill="none" style="stroke-width: 2px;"></line><line x1="727" x2="727" y1="513" y2="532" stroke="#000000" fill="none" style="stroke-width: 2px;"></line><line x1="727" x2="707" y1="532" y2="532" stroke="#000000" fill="none" marker-end="url(#markerArrowBlock)" style="stroke-width: 2px;"></line><text x="732" y="529" text-anchor="start" style="font: 14px Menlo, Monaco, &quot;Courier New&quot;, monospace;"><tspan x="732" y="529">Approve hash1 + category</tspan></text><line x1="707" x2="727" y1="547" y2="547" stroke="#000000" fill="none" style="stroke-width: 2px;"></line><line x1="727" x2="727" y1="547" y2="566" stroke="#000000" fill="none" style="stroke-width: 2px;"></line><line x1="727" x2="707" y1="566" y2="566" stroke="#000000" fill="none" marker-end="url(#markerArrowBlock)" style="stroke-width: 2px;"></line><text x="732" y="563" text-anchor="start" style="font: 14px Menlo, Monaco, &quot;Courier New&quot;, monospace;"><tspan x="732" y="563">Approve hash2 + category</tspan></text><text x="451" y="595" text-anchor="start" style="font: 14px Menlo, Monaco, &quot;Courier New&quot;, monospace;"><tspan x="451" y="595">approve items with hashes</tspan></text><line x1="707" x2="407" y1="600" y2="600" stroke="#000000" fill="none" marker-end="url(#markerArrowBlock)" style="stroke-width: 2px;"></line><text x="547" y="630" text-anchor="start" style="font: 14px Menlo, Monaco, &quot;Courier New&quot;, monospace;"><tspan x="547" y="630">sendTx: approve(content_hashes)</tspan></text><line x1="407" x2="949" y1="635" y2="635" stroke="#000000" fill="none" stroke-dasharray="6px, 2px" marker-end="url(#markerArrowBlock)" style="stroke-width: 2px;"></line><line x1="407" x2="427" y1="650" y2="650" stroke="#000000" fill="none" style="stroke-width: 2px;"></line><line x1="427" x2="427" y1="650" y2="666" stroke="#000000" fill="none" style="stroke-width: 2px;"></line><line x1="427" x2="407" y1="666" y2="666" stroke="#000000" fill="none" marker-end="url(#markerArrowBlock)" style="stroke-width: 2px;"></line><text x="432" y="663" text-anchor="start" style="font: 14px Menlo, Monaco, &quot;Courier New&quot;, monospace;"><tspan x="432" y="663">Wait for tx</tspan></text><text x="648" y="692" text-anchor="start" style="font: 14px Menlo, Monaco, &quot;Courier New&quot;, monospace;"><tspan x="648" y="692">txMined</tspan></text><line x1="949" x2="407" y1="697" y2="697" stroke="#000000" fill="none" stroke-dasharray="6px, 2px" marker-end="url(#markerArrowBlock)" style="stroke-width: 2px;"></line><rect x="254" y="712" width="306" height="24" stroke="#000000" fill="#ffffff" style="stroke-width: 2px;"></rect><text x="259" y="731" text-anchor="start" style="font: 14px Menlo, Monaco, &quot;Courier New&quot;, monospace;"><tspan x="259" y="731">Upload approved content to catalyst</tspan></text><text x="597" y="770" text-anchor="start" style="font: 14px Menlo, Monaco, &quot;Courier New&quot;, monospace;"><tspan x="597" y="770">Upload hashed entity, using any signer</tspan></text><line x1="407" x2="1108" y1="775" y2="775" stroke="#000000" fill="none" marker-end="url(#markerArrowBlock)" style="stroke-width: 2px;"></line><text x="965" y="801" text-anchor="start" style="font: 14px Menlo, Monaco, &quot;Courier New&quot;, monospace;"><tspan x="965" y="801">Validate hashes</tspan></text><line x1="1108" x2="949" y1="806" y2="806" stroke="#000000" fill="none" marker-end="url(#markerArrowBlock)" style="stroke-width: 2px;"></line></svg>