<?xml version="1.0" encoding="UTF-8" standalone="no"?>
<!DOCTYPE svg PUBLIC "-//W3C//DTD SVG 1.1//EN"
 "http://www.w3.org/Graphics/SVG/1.1/DTD/svg11.dtd">
<!-- Generated by graphviz version 2.44.0 (20200518.1210)
 -->
<!-- Title: G Pages: 1 -->
<svg width="492pt" height="440pt"
 viewBox="0.00 0.00 492.00 440.00" xmlns="http://www.w3.org/2000/svg" xmlns:xlink="http://www.w3.org/1999/xlink">
<g id="graph0" class="graph" transform="scale(1 1) rotate(0) translate(4 436)">
<title>G</title>
<polygon fill="white" stroke="transparent" points="-4,4 -4,-436 488,-436 488,4 -4,4"/>
<g id="clust1" class="cluster">
<title>cluster_0</title>
<polygon fill="lightgrey" stroke="lightgrey" points="8,-152 8,-306.4 162,-306.4 162,-152 8,-152"/>
<text text-anchor="middle" x="85" y="-289.8" font-family="Times,serif" font-size="14.00">Unity</text>
</g>
<g id="clust2" class="cluster">
<title>cluster_1</title>
<polygon fill="none" stroke="blue" points="170,-8 170,-424 476,-424 476,-8 170,-8"/>
<text text-anchor="middle" x="323" y="-407.4" font-family="Times,serif" font-size="14.00">Kernel</text>
</g>
<g id="clust3" class="cluster">
<title>cluster_2</title>
<polygon fill="none" stroke="black" points="388,-314.4 388,-391.2 468,-391.2 468,-314.4 388,-314.4"/>
<text text-anchor="middle" x="428" y="-374.6" font-family="Times,serif" font-size="14.00">shared</text>
</g>
<!-- C# -->
<g id="node1" class="node">
<title>C#</title>
<ellipse fill="white" stroke="white" cx="85" cy="-255.6" rx="27" ry="18"/>
<text text-anchor="middle" x="85" y="-251.4" font-family="Times,serif" font-size="14.00">C#</text>
</g>
<!-- decentraland&#45;renderer -->
<g id="node2" class="node">
<title>decentraland&#45;renderer</title>
<polygon fill="white" stroke="black" points="154.3,-201.4 19.7,-201.4 15.7,-197.4 15.7,-160.2 150.3,-160.2 154.3,-164.2 154.3,-201.4"/>
<polyline fill="none" stroke="black" points="150.3,-197.4 15.7,-197.4 "/>
<polyline fill="none" stroke="black" points="150.3,-197.4 150.3,-160.2 "/>
<polyline fill="none" stroke="black" points="150.3,-197.4 154.3,-201.4 "/>
<text text-anchor="middle" x="85" y="-185" font-family="Times,serif" font-size="14.00">decentraland&#45;renderer</text>
<text text-anchor="middle" x="85" y="-168.2" font-family="Times,serif" font-size="14.00">(wasm)</text>
</g>
<!-- C#&#45;&gt;decentraland&#45;renderer -->
<g id="edge1" class="edge">
<title>C#&#45;&gt;decentraland&#45;renderer</title>
<path fill="none" stroke="black" d="M85,-237.35C85,-229.69 85,-220.46 85,-211.74"/>
<polygon fill="black" stroke="black" points="88.5,-211.5 85,-201.5 81.5,-211.5 88.5,-211.5"/>
</g>
<!-- entrypoints -->
<g id="node9" class="node">
<title>entrypoints</title>
<ellipse fill="lightgrey" stroke="black" cx="270" cy="-106" rx="54.47" ry="18"/>
<text text-anchor="middle" x="270" y="-101.8" font-family="Times,serif" font-size="14.00">entrypoints</text>
</g>
<!-- decentraland&#45;renderer&#45;&gt;entrypoints -->
<g id="edge15" class="edge">
<title>decentraland&#45;renderer&#45;&gt;entrypoints</title>
<path fill="none" stroke="black" d="M135.06,-160.1C163.78,-148.8 199.46,-134.76 226.92,-123.95"/>
<polygon fill="black" stroke="black" points="228.24,-127.19 236.27,-120.27 225.68,-120.68 228.24,-127.19"/>
</g>
<!-- build&#45;ecs -->
<g id="node3" class="node">
<title>build&#45;ecs</title>
<polygon fill="lightgrey" stroke="black" points="377.82,-358.4 314.18,-358.4 310.18,-354.4 310.18,-322.4 373.82,-322.4 377.82,-326.4 377.82,-358.4"/>
<polyline fill="none" stroke="black" points="373.82,-354.4 310.18,-354.4 "/>
<polyline fill="none" stroke="black" points="373.82,-354.4 373.82,-322.4 "/>
<polyline fill="none" stroke="black" points="373.82,-354.4 377.82,-358.4 "/>
<text text-anchor="middle" x="344" y="-336.2" font-family="Times,serif" font-size="14.00">build&#45;ecs</text>
</g>
<!-- ecs -->
<g id="node5" class="node">
<title>ecs</title>
<polygon fill="lightgrey" stroke="black" points="450,-273.6 400,-273.6 396,-269.6 396,-237.6 446,-237.6 450,-241.6 450,-273.6"/>
<polyline fill="none" stroke="black" points="446,-269.6 396,-269.6 "/>
<polyline fill="none" stroke="black" points="446,-269.6 446,-237.6 "/>
<polyline fill="none" stroke="black" points="446,-269.6 450,-273.6 "/>
<text text-anchor="middle" x="423" y="-251.4" font-family="Times,serif" font-size="14.00">ecs</text>
</g>
<!-- build&#45;ecs&#45;&gt;ecs -->
<g id="edge2" class="edge">
<title>build&#45;ecs&#45;&gt;ecs</title>
<path fill="none" stroke="black" d="M369.14,-322.06C375.28,-317.31 381.62,-311.93 387,-306.4 394.1,-299.1 400.91,-290.31 406.66,-282.17"/>
<polygon fill="black" stroke="black" points="409.7,-283.92 412.45,-273.69 403.92,-279.98 409.7,-283.92"/>
</g>
<!-- amd -->
<g id="node4" class="node">
<title>amd</title>
<polygon fill="lightgrey" stroke="black" points="292,-358.4 242,-358.4 238,-354.4 238,-322.4 288,-322.4 292,-326.4 292,-358.4"/>
<polyline fill="none" stroke="black" points="288,-354.4 238,-354.4 "/>
<polyline fill="none" stroke="black" points="288,-354.4 288,-322.4 "/>
<polyline fill="none" stroke="black" points="288,-354.4 292,-358.4 "/>
<text text-anchor="middle" x="265" y="-336.2" font-family="Times,serif" font-size="14.00">amd</text>
</g>
<!-- amd&#45;&gt;ecs -->
<g id="edge3" class="edge">
<title>amd&#45;&gt;ecs</title>
<path fill="none" stroke="black" d="M285.69,-322.39C290.47,-319.23 295.71,-316.33 301,-314.4 337.06,-301.24 353.66,-325.43 387,-306.4 396.59,-300.92 404.31,-291.74 410.1,-282.73"/>
<polygon fill="black" stroke="black" points="413.22,-284.33 415.25,-273.93 407.18,-280.8 413.22,-284.33"/>
</g>
<!-- scene&#45;system -->
<g id="node13" class="node">
<title>scene&#45;system</title>
<polygon fill="lightgrey" stroke="black" points="462.13,-198.8 377.87,-198.8 377.87,-162.8 468.13,-162.8 468.13,-192.8 462.13,-198.8"/>
<polyline fill="none" stroke="black" points="462.13,-198.8 462.13,-192.8 "/>
<polyline fill="none" stroke="black" points="468.13,-192.8 462.13,-192.8 "/>
<text text-anchor="middle" x="423" y="-176.6" font-family="Times,serif" font-size="14.00">scene&#45;system</text>
</g>
<!-- ecs&#45;&gt;scene&#45;system -->
<g id="edge9" class="edge">
<title>ecs&#45;&gt;scene&#45;system</title>
<path fill="none" stroke="black" d="M423,-237.35C423,-228.92 423,-218.57 423,-209.1"/>
<polygon fill="black" stroke="black" points="426.5,-208.93 423,-198.93 419.5,-208.93 426.5,-208.93"/>
</g>
<!-- rpc -->
<g id="node6" class="node">
<title>rpc</title>
<polygon fill="lightgrey" stroke="black" points="378,-273.6 328,-273.6 324,-269.6 324,-237.6 374,-237.6 378,-241.6 378,-273.6"/>
<polyline fill="none" stroke="black" points="374,-269.6 324,-269.6 "/>
<polyline fill="none" stroke="black" points="374,-269.6 374,-237.6 "/>
<polyline fill="none" stroke="black" points="374,-269.6 378,-273.6 "/>
<text text-anchor="middle" x="351" y="-251.4" font-family="Times,serif" font-size="14.00">rpc</text>
</g>
<!-- rpc&#45;&gt;entrypoints -->
<g id="edge11" class="edge">
<title>rpc&#45;&gt;entrypoints</title>
<path fill="none" stroke="black" d="M355.47,-237.59C360.12,-216.04 364.75,-178.5 349,-152 341.67,-139.66 329.58,-130.41 317.03,-123.61"/>
<polygon fill="black" stroke="black" points="318.4,-120.38 307.88,-119.08 315.29,-126.66 318.4,-120.38"/>
</g>
<!-- rpc&#45;&gt;scene&#45;system -->
<g id="edge10" class="edge">
<title>rpc&#45;&gt;scene&#45;system</title>
<path fill="none" stroke="black" d="M368.06,-237.35C377.3,-228.01 388.86,-216.32 398.99,-206.08"/>
<polygon fill="black" stroke="black" points="401.52,-208.5 406.06,-198.93 396.54,-203.58 401.52,-208.5"/>
</g>
<!-- voice -->
<g id="node7" class="node">
<title>voice</title>
<polygon fill="lightgrey" stroke="black" points="468,-124 465,-128 444,-128 441,-124 414,-124 414,-88 468,-88 468,-124"/>
<text text-anchor="middle" x="441" y="-101.8" font-family="Times,serif" font-size="14.00">voice</text>
</g>
<!-- unity -->
<g id="node11" class="node">
<title>unity</title>
<polygon fill="lightgrey" stroke="black" points="390,-52 342,-52 342,-16 396,-16 396,-46 390,-52"/>
<polyline fill="none" stroke="black" points="390,-52 390,-46 "/>
<polyline fill="none" stroke="black" points="396,-46 390,-46 "/>
<text text-anchor="middle" x="369" y="-29.8" font-family="Times,serif" font-size="14.00">unity</text>
</g>
<!-- voice&#45;&gt;unity -->
<g id="edge7" class="edge">
<title>voice&#45;&gt;unity</title>
<path fill="none" stroke="black" d="M423.2,-87.7C414.4,-79.14 403.62,-68.66 394,-59.3"/>
<polygon fill="black" stroke="black" points="396.2,-56.57 386.59,-52.1 391.32,-61.58 396.2,-56.57"/>
</g>
<!-- ui -->
<g id="node8" class="node">
<title>ui</title>
<polygon fill="lightgrey" stroke="black" points="333.69,-198.8 250.31,-198.8 250.31,-162.8 339.69,-162.8 339.69,-192.8 333.69,-198.8"/>
<polyline fill="none" stroke="black" points="333.69,-198.8 333.69,-192.8 "/>
<polyline fill="none" stroke="black" points="339.69,-192.8 333.69,-192.8 "/>
<text text-anchor="middle" x="295" y="-176.6" font-family="Times,serif" font-size="14.00">UI + Avatars</text>
</g>
<!-- ui&#45;&gt;entrypoints -->
<g id="edge4" class="edge">
<title>ui&#45;&gt;entrypoints</title>
<path fill="none" stroke="black" d="M289.08,-162.55C286.12,-153.93 282.47,-143.32 279.17,-133.69"/>
<polygon fill="black" stroke="black" points="282.44,-132.45 275.88,-124.13 275.82,-134.72 282.44,-132.45"/>
</g>
<!-- entrypoints&#45;&gt;unity -->
<g id="edge14" class="edge">
<title>entrypoints&#45;&gt;unity</title>
<path fill="none" stroke="black" d="M291.97,-89.46C305.02,-80.24 321.81,-68.37 336.38,-58.06"/>
<polygon fill="black" stroke="black" points="338.51,-60.84 344.66,-52.21 334.47,-55.13 338.51,-60.84"/>
</g>
<!-- preview -->
<g id="node15" class="node">
<title>preview</title>
<polygon fill="lightgrey" stroke="black" points="239.59,-52 184.41,-52 184.41,-16 245.59,-16 245.59,-46 239.59,-52"/>
<polyline fill="none" stroke="black" points="239.59,-52 239.59,-46 "/>
<polyline fill="none" stroke="black" points="245.59,-46 239.59,-46 "/>
<text text-anchor="middle" x="215" y="-29.8" font-family="Times,serif" font-size="14.00">preview</text>
</g>
<!-- entrypoints&#45;&gt;preview -->
<g id="edge12" class="edge">
<title>entrypoints&#45;&gt;preview</title>
<path fill="none" stroke="black" d="M256.97,-88.41C250.38,-80.03 242.25,-69.68 234.9,-60.33"/>
<polygon fill="black" stroke="black" points="237.64,-58.15 228.71,-52.45 232.13,-62.47 237.64,-58.15"/>
</g>
<!-- builder -->
<g id="node16" class="node">
<title>builder</title>
<polygon fill="lightgrey" stroke="black" points="312.66,-52 263.34,-52 263.34,-16 318.66,-16 318.66,-46 312.66,-52"/>
<polyline fill="none" stroke="black" points="312.66,-52 312.66,-46 "/>
<polyline fill="none" stroke="black" points="318.66,-46 312.66,-46 "/>
<text text-anchor="middle" x="291" y="-29.8" font-family="Times,serif" font-size="14.00">builder</text>
</g>
<!-- entrypoints&#45;&gt;builder -->
<g id="edge13" class="edge">
<title>entrypoints&#45;&gt;builder</title>
<path fill="none" stroke="black" d="M275.08,-88.05C277.42,-80.26 280.25,-70.82 282.88,-62.08"/>
<polygon fill="black" stroke="black" points="286.3,-62.86 285.82,-52.28 279.59,-60.85 286.3,-62.86"/>
</g>
<!-- loader -->
<g id="node10" class="node">
<title>loader</title>
<polygon fill="lightgrey" stroke="black" points="390,-124 342,-124 342,-88 396,-88 396,-118 390,-124"/>
<polyline fill="none" stroke="black" points="390,-124 390,-118 "/>
<polyline fill="none" stroke="black" points="396,-118 390,-118 "/>
<text text-anchor="middle" x="369" y="-101.8" font-family="Times,serif" font-size="14.00">loader</text>
</g>
<!-- loader&#45;&gt;unity -->
<g id="edge5" class="edge">
<title>loader&#45;&gt;unity</title>
<path fill="none" stroke="black" d="M369,-87.7C369,-79.98 369,-70.71 369,-62.11"/>
<polygon fill="black" stroke="black" points="372.5,-62.1 369,-52.1 365.5,-62.1 372.5,-62.1"/>
</g>
<!-- gif -->
<g id="node12" class="node">
<title>gif</title>
<polygon fill="lightgrey" stroke="black" points="226,-198.8 178,-198.8 178,-162.8 232,-162.8 232,-192.8 226,-198.8"/>
<polyline fill="none" stroke="black" points="226,-198.8 226,-192.8 "/>
<polyline fill="none" stroke="black" points="232,-192.8 226,-192.8 "/>
<text text-anchor="middle" x="205" y="-176.6" font-family="Times,serif" font-size="14.00">gif</text>
</g>
<!-- gif&#45;&gt;entrypoints -->
<g id="edge6" class="edge">
<title>gif&#45;&gt;entrypoints</title>
<path fill="none" stroke="black" d="M220.4,-162.55C228.78,-153.17 239.28,-141.41 248.45,-131.13"/>
<polygon fill="black" stroke="black" points="251.1,-133.42 255.15,-123.63 245.88,-128.76 251.1,-133.42"/>
</g>
<!-- scene&#45;system&#45;&gt;entrypoints -->
<g id="edge8" class="edge">
<title>scene&#45;system&#45;&gt;entrypoints</title>
<path fill="none" stroke="black" d="M387.13,-162.73C363.74,-151.6 333.2,-137.07 309.18,-125.64"/>
<polygon fill="black" stroke="black" points="310.52,-122.4 299.99,-121.27 307.51,-128.72 310.52,-122.4"/>
</g>
<!-- sagas -->
<g id="node14" class="node">
<title>sagas</title>
<ellipse fill="lightgrey" stroke="black" cx="428" cy="-340.4" rx="31.9" ry="18"/>
<text text-anchor="middle" x="428" y="-336.2" font-family="Times,serif" font-size="14.00">sagas</text>
</g>
</g>
</svg>
