<svg width="800" height="828" viewBox="0 0 800 828" fill="none" xmlns="http://www.w3.org/2000/svg">
<g clip-path="url(#clip0_101_2)">
<rect width="800" height="828" fill="white"/>
<path d="M400 -7.99998L400 828" stroke="#B8B8B8" stroke-width="5"/>
<rect x="39.5" y="292.5" width="327" height="482" rx="7.5" fill="white" stroke="#AFAFAF"/>
<rect x="433.5" y="396.5" width="327" height="342" rx="7.5" fill="white" stroke="#AFAFAF"/>
<rect x="36.5" y="101.5" width="327" height="153" rx="7.5" fill="white" stroke="#AFAFAF"/>
<text fill="black" xml:space="preserve" style="white-space: pre" font-family="JetBrains Mono" font-size="12" letter-spacing="0em"><tspan x="47.2031" y="481.32">await EngineApi.crdtSendToRenderer(messages)</tspan></text>
<text fill="#FF8080" xml:space="preserve" style="white-space: pre" font-family="JetBrains Mono" font-size="10" letter-spacing="0em"><tspan x="628.041" y="586.1">waitForLoadedAssets()</tspan></text>
<text fill="#FF8080" xml:space="preserve" style="white-space: pre" font-family="JetBrains Mono" font-size="12" letter-spacing="0em"><tspan x="97.0703" y="168.32">await EngineApi.crdtGetState()</tspan></text>
<text fill="black" xml:space="preserve" style="white-space: pre" font-family="JetBrains Mono" font-size="12" letter-spacing="0em"><tspan x="8.46094" y="810.32">loop while scene is active</tspan></text>
<text fill="black" xml:space="preserve" style="white-space: pre" font-family="JetBrains Mono" font-size="10" letter-spacing="0em"><tspan x="273.029" y="690.1">resolve promise</tspan></text>
<path d="M199 458H199.5H199ZM599 470.5H599.5V470.462L599.494 470.424L599 470.5ZM599 478L601.887 473H596.113L599 478ZM198.5 449V458H199.5V449H198.5ZM198.5 458C198.5 460.311 199.012 461.978 200.158 463.052C201.297 464.12 202.956 464.5 205 464.5V463.5C203.044 463.5 201.703 463.13 200.842 462.323C199.988 461.522 199.5 460.189 199.5 458L198.5 458ZM205 464.5H592.5V463.5H205V464.5ZM592.5 464.5C594.509 464.5 595.916 465.48 596.878 466.741C597.85 468.015 598.349 469.557 598.506 470.576L599.494 470.424C599.318 469.276 598.767 467.568 597.672 466.134C596.568 464.686 594.891 463.5 592.5 463.5V464.5ZM598.5 470.5V473.5H599.5V470.5H598.5Z" fill="black"/>
<path d="M800 30L0 30.0001" stroke="#B8B8B8" stroke-width="5"/>
<text fill="black" xml:space="preserve" style="white-space: pre" font-family="Inter" font-size="12" font-weight="bold" letter-spacing="0em"><tspan x="10.2852" y="18.8636">Scene</tspan></text>
<text fill="black" xml:space="preserve" style="white-space: pre" font-family="Inter" font-size="12" font-weight="bold" letter-spacing="0em"><tspan x="428.688" y="19.3636">Engine</tspan></text>
<rect x="497.719" y="43.5" width="197.75" height="28.9365" fill="#B6D7FF" stroke="black"/>
<rect x="497.719" y="43.5" width="197.75" height="28.9365" fill="#B6D7FF" stroke="black"/>
<text fill="black" xml:space="preserve" style="white-space: pre" font-family="Inter" font-size="15" letter-spacing="0em"><tspan x="533.299" y="62.9545">load main.crdt file</tspan></text>
<rect x="100.713" y="377.5" width="196.756" height="28.9365" fill="#B6D7FF" stroke="black"/>
<rect x="99.5" y="377.5" width="198" height="29" fill="#B6D7FF" stroke="black"/>
<text fill="black" xml:space="preserve" style="white-space: pre" font-family="Inter" font-size="12" letter-spacing="0em"><tspan x="119.869" y="396.364">ECS.runSystems(deltaTime)</tspan></text>
<rect x="99.7189" y="334.5" width="197.75" height="28.9365" fill="#B6D7FF" stroke="black"/>
<rect x="99.7189" y="334.5" width="197.75" height="28.9365" fill="#B6D7FF" stroke="black"/>
<text fill="black" xml:space="preserve" style="white-space: pre" font-family="Inter" font-size="12" letter-spacing="0em"><tspan x="110.668" y="352.864">ECS.applyIncomingMessages()</tspan></text>
<rect x="99.7189" y="710.5" width="197.75" height="28.9365" fill="#B6D7FF" stroke="black"/>
<rect x="99.7189" y="710.5" width="197.75" height="28.9365" fill="#B6D7FF" stroke="black"/>
<text fill="black" xml:space="preserve" style="white-space: pre" font-family="Inter" font-size="12" letter-spacing="0em"><tspan x="127.344" y="728.864">ECS.enqueueMessages()</tspan></text>
<rect x="99.7189" y="195.5" width="197.75" height="28.9365" fill="#B6D7FF" stroke="black"/>
<rect x="99.7189" y="195.5" width="197.75" height="28.9365" fill="#B6D7FF" stroke="black"/>
<text fill="black" xml:space="preserve" style="white-space: pre" font-family="Inter" font-size="12" letter-spacing="0em"><tspan x="127.344" y="213.864">ECS.enqueueMessages()</tspan></text>
<rect x="99.7189" y="420.5" width="197.75" height="28.9365" fill="#B6D7FF" stroke="black"/>
<rect x="99.7189" y="420.5" width="197.75" height="28.9365" fill="#B6D7FF" stroke="black"/>
<text fill="black" xml:space="preserve" style="white-space: pre" font-family="Inter" font-size="12" letter-spacing="0em"><tspan x="107.686" y="438.864">ECS.produceUpdateMessages()</tspan></text>
<rect x="475.773" y="478.5" width="246.688" height="28.9365" fill="#B6D7FF" stroke="black"/>
<rect x="475.773" y="478.5" width="246.688" height="28.9365" fill="#B6D7FF" stroke="black"/>
<text fill="black" xml:space="preserve" style="white-space: pre" font-family="Inter" font-size="12" letter-spacing="0em"><tspan x="499.525" y="496.864">SceneContext.enqueueMessages()</tspan></text>
<rect x="475.773" y="539.5" width="246.688" height="28.9365" fill="#B6D7FF" stroke="black"/>
<rect x="475.773" y="539.5" width="246.688" height="28.9365" fill="#B6D7FF" stroke="black"/>
<text fill="black" xml:space="preserve" style="white-space: pre" font-family="Inter" font-size="12" letter-spacing="0em"><tspan x="479.404" y="557.864">SceneContext.processQueuedMessages()</tspan></text>
<text fill="black" xml:space="preserve" style="white-space: pre" font-family="Inter" font-size="12" letter-spacing="0em"><tspan x="479.404" y="557.864">SceneContext.processQueuedMessages()</tspan></text>
<rect x="475.773" y="657.5" width="246.688" height="28.9365" fill="#B6D7FF" stroke="black"/>
<rect x="475.773" y="657.5" width="246.688" height="28.9365" fill="#B6D7FF" stroke="black"/>
<text fill="black" xml:space="preserve" style="white-space: pre" font-family="Inter" font-size="12" letter-spacing="0em"><tspan x="492.207" y="675.864">SceneContext.produceStaticEntities()</tspan></text>
<rect x="475.773" y="598.5" width="246.688" height="28.9365" fill="#B6D7FF" stroke="black"/>
<rect x="475.773" y="598.5" width="246.688" height="28.9365" fill="#B6D7FF" stroke="black"/>
<text fill="black" xml:space="preserve" style="white-space: pre" font-family="Inter" font-size="12" letter-spacing="0em"><tspan x="513.922" y="616.864">SceneContext.PhysicsPhase()</tspan></text>
<text fill="black" xml:space="preserve" style="white-space: pre" font-family="JetBrains Mono" font-size="13" letter-spacing="0em"><tspan x="67.4863" y="310.18">async function onUpdate(deltaTime)&#x2028;</tspan><tspan x="149.333" y="327.18">(A.K.A. Tick)</tspan></text>
<text fill="black" xml:space="preserve" style="white-space: pre" font-family="JetBrains Mono" font-size="13" letter-spacing="0em"><tspan x="105.461" y="123.18">async function onStart()</tspan></text>
<path d="M198.646 690.354C198.842 690.549 199.158 690.549 199.354 690.354L202.536 687.172C202.731 686.976 202.731 686.66 202.536 686.464C202.34 686.269 202.024 686.269 201.828 686.464L199 689.293L196.172 686.464C195.976 686.269 195.66 686.269 195.464 686.464C195.269 686.66 195.269 686.976 195.464 687.172L198.646 690.354ZM198.5 469V470.005H199.5V469H198.5ZM198.5 472.014V474.023H199.5V472.014H198.5ZM198.5 476.032V478.041H199.5V476.032H198.5ZM198.5 480.05V482.059H199.5V480.05H198.5ZM198.5 484.068V486.077H199.5V484.068H198.5ZM198.5 488.086V490.095H199.5V488.086H198.5ZM198.5 492.105V494.114H199.5V492.105H198.5ZM198.5 496.123V498.132H199.5V496.123H198.5ZM198.5 500.141V502.15H199.5V500.141H198.5ZM198.5 504.159V506.168H199.5V504.159H198.5ZM198.5 508.177V510.186H199.5V508.177H198.5ZM198.5 512.195V514.205H199.5V512.195H198.5ZM198.5 516.214V518.223H199.5V516.214H198.5ZM198.5 520.232V522.241H199.5V520.232H198.5ZM198.5 524.25V526.259H199.5V524.25H198.5ZM198.5 528.268V530.277H199.5V528.268H198.5ZM198.5 532.286V534.295H199.5V532.286H198.5ZM198.5 536.305V538.314H199.5V536.305H198.5ZM198.5 540.323V542.332H199.5V540.323H198.5ZM198.5 544.341V546.35H199.5V544.341H198.5ZM198.5 548.359V550.368H199.5V548.359H198.5ZM198.5 552.377V554.386H199.5V552.377H198.5ZM198.5 556.395V558.405H199.5V556.395H198.5ZM198.5 560.414V562.423H199.5V560.414H198.5ZM198.5 564.432V566.441H199.5V564.432H198.5ZM198.5 568.45V570.459H199.5V568.45H198.5ZM198.5 572.468V574.477H199.5V572.468H198.5ZM198.5 576.486V578.496H199.5V576.486H198.5ZM198.5 580.505V582.514H199.5V580.505H198.5ZM198.5 584.523V586.532H199.5V584.523H198.5ZM198.5 588.541V590.55H199.5V588.541H198.5ZM198.5 592.559V594.568H199.5V592.559H198.5ZM198.5 596.577V598.586H199.5V596.577H198.5ZM198.5 600.596V602.605H199.5V600.596H198.5ZM198.5 604.614V606.623H199.5V604.614H198.5ZM198.5 608.632V610.641H199.5V608.632H198.5ZM198.5 612.65V614.659H199.5V612.65H198.5ZM198.5 616.668V618.677H199.5V616.668H198.5ZM198.5 620.686V622.696H199.5V620.686H198.5ZM198.5 624.705V626.714H199.5V624.705H198.5ZM198.5 628.723V630.732H199.5V628.723H198.5ZM198.5 632.741V634.75H199.5V632.741H198.5ZM198.5 636.759V638.768H199.5V636.759H198.5ZM198.5 640.777V642.787H199.5V640.777H198.5ZM198.5 644.796V646.805H199.5V644.796H198.5ZM198.5 648.814V650.823H199.5V648.814H198.5ZM198.5 652.832V654.841H199.5V652.832H198.5ZM198.5 656.85V658.859H199.5V656.85H198.5ZM198.5 660.868V662.877H199.5V660.868H198.5ZM198.5 664.887V666.896H199.5V664.887H198.5ZM198.5 668.905V670.914H199.5V668.905H198.5ZM198.5 672.923V674.932H199.5V672.923H198.5ZM198.5 676.941V678.95H199.5V676.941H198.5ZM198.5 680.959V682.968H199.5V680.959H198.5ZM198.5 684.978V686.987H199.5V684.978H198.5ZM198.5 688.996V690H199.5V688.996H198.5Z" fill="#AFAFAF"/>
<path d="M190 795L190.028 794.501L190.014 794.5H190V795ZM12.5 786.5H12V786.544L12.0076 786.587L12.5 786.5ZM181.5 292L184.387 287H178.613L181.5 292ZM198.5 774.5V786.5H199.5V774.5H198.5ZM198.5 786.5C198.5 789.936 197.081 791.945 195.348 793.096C193.585 794.268 191.449 794.58 190.028 794.501L189.972 795.499C191.551 795.587 193.915 795.249 195.902 793.929C197.919 792.589 199.5 790.264 199.5 786.5H198.5ZM190 794.5H22.5V795.5H190V794.5ZM22.5 794.5C19.2575 794.5 17.0133 793.156 15.5098 791.479C13.9934 789.787 13.2286 787.752 12.9924 786.413L12.0076 786.587C12.2714 788.081 13.1066 790.296 14.7652 792.146C16.4367 794.011 18.9425 795.5 22.5 795.5V794.5ZM13 786.5V281.5H12V786.5H13ZM13 281.5C13 277.035 14.6102 274.307 16.5689 272.685C18.5477 271.047 20.9289 270.5 22.5 270.5V269.5C20.7378 269.5 18.119 270.103 15.9311 271.915C13.7231 273.743 12 276.765 12 281.5H13ZM22.5 270.5H171.5V269.5H22.5V270.5ZM171.5 270.5C175.306 270.5 177.655 272.308 179.076 274.578C180.514 276.874 181 279.651 181 281.5H182C182 279.516 181.486 276.542 179.924 274.047C178.345 271.525 175.694 269.5 171.5 269.5V270.5ZM181 281.5V287.5H182V281.5H181Z" fill="black"/>
<path d="M190 795L190.028 794.501L190.014 794.5H190V795ZM12.5 786.5H12V786.544L12.0076 786.587L12.5 786.5ZM181.5 292L184.387 287H178.613L181.5 292ZM198.5 774.5V786.5H199.5V774.5H198.5ZM198.5 786.5C198.5 789.936 197.081 791.945 195.348 793.096C193.585 794.268 191.449 794.58 190.028 794.501L189.972 795.499C191.551 795.587 193.915 795.249 195.902 793.929C197.919 792.589 199.5 790.264 199.5 786.5H198.5ZM190 794.5H22.5V795.5H190V794.5ZM22.5 794.5C19.2575 794.5 17.0133 793.156 15.5098 791.479C13.9934 789.787 13.2286 787.752 12.9924 786.413L12.0076 786.587C12.2714 788.081 13.1066 790.296 14.7652 792.146C16.4367 794.011 18.9425 795.5 22.5 795.5V794.5ZM13 786.5V281.5H12V786.5H13ZM13 281.5C13 277.035 14.6102 274.307 16.5689 272.685C18.5477 271.047 20.9289 270.5 22.5 270.5V269.5C20.7378 269.5 18.119 270.103 15.9311 271.915C13.7231 273.743 12 276.765 12 281.5H13ZM22.5 270.5H171.5V269.5H22.5V270.5ZM171.5 270.5C175.306 270.5 177.655 272.308 179.076 274.578C180.514 276.874 181 279.651 181 281.5H182C182 279.516 181.486 276.542 179.924 274.047C178.345 271.525 175.694 269.5 171.5 269.5V270.5ZM181 281.5V287.5H182V281.5H181Z" fill="black"/>
<path d="M199 293L201.887 288L196.113 288L199 293ZM198.5 225L198.5 288.5L199.5 288.5L199.5 225L198.5 225Z" fill="#FF8080"/>
<path d="M599 539L601.887 534L596.113 534L599 539ZM598.5 508L598.5 534.5L599.5 534.5L599.5 508L598.5 508Z" fill="black"/>
<path d="M599 598L601.887 593L596.113 593L599 598ZM598.5 569L598.5 593.5L599.5 593.5L599.5 569L598.5 569Z" fill="black"/>
<path d="M599 657L601.887 652L596.113 652L599 657ZM598.5 628L598.5 652.5L599.5 652.5L599.5 628L598.5 628Z" fill="black"/>
<path d="M199 377L201.887 372H196.113L199 377ZM198.5 364V372.5H199.5V364H198.5Z" fill="black"/>
<path d="M199 420L201.887 415L196.113 415L199 420ZM198.5 407L198.5 415.5L199.5 415.5L199.5 407L198.5 407Z" fill="black"/>
<path d="M623 478L625.887 473L620.113 473L623 478ZM622.5 429L622.5 473.5L623.5 473.5L623.5 429L622.5 429Z" fill="#FF8080"/>
<path d="M623 539L625.887 534H620.113L623 539ZM622.5 508V534.5H623.5V508H622.5Z" fill="#FF8080"/>
<path d="M623 598L625.887 593H620.113L623 598ZM622.5 569V593.5H623.5V569H622.5Z" fill="#FF8080"/>
<path d="M623 657L625.887 652H620.113L623 657ZM622.5 628V652.5H623.5V628H622.5Z" fill="#FF8080"/>
<path d="M623 172V73" stroke="#FF8080"/>
<path d="M623 416L623 179" stroke="#FF8080"/>
<path d="M786 696.5L786.499 696.525L786.5 696.513V696.5H786ZM776 175L776 174.5H776V175ZM199 185L198.5 185V185H199ZM199 194.5L201.887 189.5H196.113L199 194.5ZM622.5 687V697H623.5V687H622.5ZM622.5 697C622.5 700.871 623.797 703.4 625.683 704.949C627.551 706.483 629.927 707 632 707V706C630.073 706 627.949 705.517 626.317 704.176C624.703 702.85 623.5 700.629 623.5 697H622.5ZM632 707H776V706H632V707ZM776 707C779.972 707 782.575 705.247 784.191 703.046C785.79 700.867 786.412 698.267 786.499 696.525L785.501 696.475C785.421 698.066 784.844 700.466 783.384 702.454C781.942 704.42 779.628 706 776 706V707ZM786.5 696.5V185H785.5V696.5H786.5ZM786.5 185C786.5 180.925 785.481 178.253 783.575 176.62C781.687 175.002 779.036 174.5 776 174.5L776 175.5C778.964 175.5 781.313 175.998 782.925 177.38C784.519 178.747 785.5 181.075 785.5 185H786.5ZM776 174.5H209V175.5H776V174.5ZM209 174.5C203.884 174.5 201.19 176.172 199.822 178.428C198.489 180.628 198.5 183.271 198.5 185L199.5 185C199.5 183.229 199.511 180.872 200.678 178.947C201.81 177.078 204.116 175.5 209 175.5V174.5ZM198.5 185V190H199.5V185H198.5Z" fill="#FF8080"/>
<path d="M599 690H598.5H599ZM199 702.5H198.5V702.462L198.506 702.424L199 702.5ZM199 710L196.113 705H201.887L199 710ZM599.5 686.5V690H598.5V686.5H599.5ZM599.5 690C599.5 692.311 598.988 693.978 597.842 695.052C596.703 696.12 595.044 696.5 593 696.5V695.5C594.956 695.5 596.297 695.13 597.158 694.323C598.012 693.522 598.5 692.189 598.5 690H599.5ZM593 696.5H205.5V695.5H593V696.5ZM205.5 696.5C203.491 696.5 202.084 697.48 201.122 698.741C200.15 700.015 199.651 701.557 199.494 702.576L198.506 702.424C198.682 701.276 199.233 699.568 200.328 698.134C201.432 696.686 203.109 695.5 205.5 695.5V696.5ZM199.5 702.5V705.5H198.5V702.5H199.5Z" fill="black"/>
<text fill="black" xml:space="preserve" style="white-space: pre" font-family="JetBrains Mono" font-size="13" letter-spacing="0em"><tspan x="548.333" y="427.18">Renderer Tick</tspan></text>
</g>
<defs>
<clipPath id="clip0_101_2">
<rect width="800" height="828" fill="white"/>
</clipPath>
</defs>
</svg>
