<?xml version="1.0" encoding="UTF-8" standalone="no"?>
<!DOCTYPE svg PUBLIC "-//W3C//DTD SVG 1.1//EN"
 "http://www.w3.org/Graphics/SVG/1.1/DTD/svg11.dtd">
<!-- Generated by graphviz version 2.44.0 (20200518.1210)
 -->
<!-- Title: G Pages: 1 -->
<svg width="1106pt" height="556pt"
 viewBox="0.00 0.00 1106.00 556.00" xmlns="http://www.w3.org/2000/svg" xmlns:xlink="http://www.w3.org/1999/xlink">
<g id="graph0" class="graph" transform="scale(1 1) rotate(0) translate(4 552)">
<title>G</title>
<polygon fill="white" stroke="transparent" points="-4,4 -4,-552 1102,-552 1102,4 -4,4"/>
<g id="clust2" class="cluster">
<title>cluster_1</title>
<polygon fill="none" stroke="blue" points="640,-154.8 640,-540 1090,-540 1090,-154.8 640,-154.8"/>
<text text-anchor="middle" x="865" y="-523.4" font-family="Times,serif" font-size="14.00">Kernel</text>
</g>
<g id="clust3" class="cluster">
<title>cluster_3</title>
<polygon fill="none" stroke="black" points="8,-8 8,-234.4 632,-234.4 632,-8 8,-8"/>
<text text-anchor="middle" x="320" y="-217.8" font-family="Times,serif" font-size="14.00">website/shell</text>
</g>
<g id="clust1" class="cluster">
<title>cluster_0</title>
<polygon fill="lightgrey" stroke="lightgrey" points="520,-242.4 520,-319.2 590,-319.2 590,-242.4 520,-242.4"/>
<text text-anchor="middle" x="555" y="-302.6" font-family="Times,serif" font-size="14.00">Unity</text>
</g>
<!-- C# -->
<g id="node1" class="node">
<title>C#</title>
<ellipse fill="white" stroke="white" cx="555" cy="-268.4" rx="27" ry="18"/>
<text text-anchor="middle" x="555" y="-264.2" font-family="Times,serif" font-size="14.00">C#</text>
</g>
<!-- decentraland&#45;renderer -->
<g id="node2" class="node">
<title>decentraland&#45;renderer</title>
<polygon fill="white" stroke="black" points="624.3,-201.4 489.7,-201.4 485.7,-197.4 485.7,-160.2 620.3,-160.2 624.3,-164.2 624.3,-201.4"/>
<polyline fill="none" stroke="black" points="620.3,-197.4 485.7,-197.4 "/>
<polyline fill="none" stroke="black" points="620.3,-197.4 620.3,-160.2 "/>
<polyline fill="none" stroke="black" points="620.3,-197.4 624.3,-201.4 "/>
<text text-anchor="middle" x="555" y="-185" font-family="Times,serif" font-size="14.00">decentraland&#45;renderer</text>
<text text-anchor="middle" x="555" y="-168.2" font-family="Times,serif" font-size="14.00">(wasm)</text>
</g>
<!-- C#&#45;&gt;decentraland&#45;renderer -->
<g id="edge1" class="edge">
<title>C#&#45;&gt;decentraland&#45;renderer</title>
<path fill="none" stroke="black" d="M555,-250.08C555,-239.09 555,-224.57 555,-211.75"/>
<polygon fill="black" stroke="black" points="558.5,-211.49 555,-201.49 551.5,-211.49 558.5,-211.49"/>
</g>
<!-- entrypoints -->
<g id="node9" class="node">
<title>entrypoints</title>
<ellipse fill="lightgrey" stroke="black" cx="791" cy="-268.4" rx="54.47" ry="18"/>
<text text-anchor="middle" x="791" y="-264.2" font-family="Times,serif" font-size="14.00">entrypoints</text>
</g>
<!-- decentraland&#45;renderer&#45;&gt;entrypoints -->
<g id="edge15" class="edge">
<title>decentraland&#45;renderer&#45;&gt;entrypoints</title>
<path fill="none" stroke="black" d="M579.92,-201.42C595.29,-212.62 615.86,-226.06 636,-234.4 665.9,-246.79 701.05,-254.76 730.31,-259.76"/>
<polygon fill="black" stroke="black" points="729.96,-263.25 740.39,-261.4 731.09,-256.34 729.96,-263.25"/>
</g>
<!-- build&#45;ecs -->
<g id="node3" class="node">
<title>build&#45;ecs</title>
<polygon fill="lightgrey" stroke="black" points="1079.82,-507.2 1016.18,-507.2 1012.18,-503.2 1012.18,-471.2 1075.82,-471.2 1079.82,-475.2 1079.82,-507.2"/>
<polyline fill="none" stroke="black" points="1075.82,-503.2 1012.18,-503.2 "/>
<polyline fill="none" stroke="black" points="1075.82,-503.2 1075.82,-471.2 "/>
<polyline fill="none" stroke="black" points="1075.82,-503.2 1079.82,-507.2 "/>
<text text-anchor="middle" x="1046" y="-485" font-family="Times,serif" font-size="14.00">build&#45;ecs</text>
</g>
<!-- ecs -->
<g id="node5" class="node">
<title>ecs</title>
<polygon fill="lightgrey" stroke="black" points="1072,-435.2 1022,-435.2 1018,-431.2 1018,-399.2 1068,-399.2 1072,-403.2 1072,-435.2"/>
<polyline fill="none" stroke="black" points="1068,-431.2 1018,-431.2 "/>
<polyline fill="none" stroke="black" points="1068,-431.2 1068,-399.2 "/>
<polyline fill="none" stroke="black" points="1068,-431.2 1072,-435.2 "/>
<text text-anchor="middle" x="1045" y="-413" font-family="Times,serif" font-size="14.00">ecs</text>
</g>
<!-- build&#45;ecs&#45;&gt;ecs -->
<g id="edge2" class="edge">
<title>build&#45;ecs&#45;&gt;ecs</title>
<path fill="none" stroke="black" d="M1045.75,-470.9C1045.64,-463.18 1045.51,-453.91 1045.39,-445.31"/>
<polygon fill="black" stroke="black" points="1048.89,-445.25 1045.24,-435.3 1041.89,-445.35 1048.89,-445.25"/>
</g>
<!-- amd -->
<g id="node4" class="node">
<title>amd</title>
<polygon fill="lightgrey" stroke="black" points="994,-507.2 944,-507.2 940,-503.2 940,-471.2 990,-471.2 994,-475.2 994,-507.2"/>
<polyline fill="none" stroke="black" points="990,-503.2 940,-503.2 "/>
<polyline fill="none" stroke="black" points="990,-503.2 990,-471.2 "/>
<polyline fill="none" stroke="black" points="990,-503.2 994,-507.2 "/>
<text text-anchor="middle" x="967" y="-485" font-family="Times,serif" font-size="14.00">amd</text>
</g>
<!-- amd&#45;&gt;ecs -->
<g id="edge3" class="edge">
<title>amd&#45;&gt;ecs</title>
<path fill="none" stroke="black" d="M986.28,-470.9C995.92,-462.25 1007.73,-451.65 1018.23,-442.23"/>
<polygon fill="black" stroke="black" points="1020.84,-444.59 1025.94,-435.3 1016.16,-439.38 1020.84,-444.59"/>
</g>
<!-- scene&#45;system -->
<g id="node12" class="node">
<title>scene&#45;system</title>
<polygon fill="lightgrey" stroke="black" points="1076.13,-363.2 991.87,-363.2 991.87,-327.2 1082.13,-327.2 1082.13,-357.2 1076.13,-363.2"/>
<polyline fill="none" stroke="black" points="1076.13,-363.2 1076.13,-357.2 "/>
<polyline fill="none" stroke="black" points="1082.13,-357.2 1076.13,-357.2 "/>
<text text-anchor="middle" x="1037" y="-341" font-family="Times,serif" font-size="14.00">scene&#45;system</text>
</g>
<!-- ecs&#45;&gt;scene&#45;system -->
<g id="edge9" class="edge">
<title>ecs&#45;&gt;scene&#45;system</title>
<path fill="none" stroke="black" d="M1043.02,-398.9C1042.14,-391.18 1041.08,-381.91 1040.1,-373.31"/>
<polygon fill="black" stroke="black" points="1043.57,-372.84 1038.95,-363.3 1036.61,-373.64 1043.57,-372.84"/>
</g>
<!-- rpc -->
<g id="node6" class="node">
<title>rpc</title>
<polygon fill="lightgrey" stroke="black" points="1000,-435.2 950,-435.2 946,-431.2 946,-399.2 996,-399.2 1000,-403.2 1000,-435.2"/>
<polyline fill="none" stroke="black" points="996,-431.2 946,-431.2 "/>
<polyline fill="none" stroke="black" points="996,-431.2 996,-399.2 "/>
<polyline fill="none" stroke="black" points="996,-431.2 1000,-435.2 "/>
<text text-anchor="middle" x="973" y="-413" font-family="Times,serif" font-size="14.00">rpc</text>
</g>
<!-- rpc&#45;&gt;entrypoints -->
<g id="edge11" class="edge">
<title>rpc&#45;&gt;entrypoints</title>
<path fill="none" stroke="black" d="M976.08,-399.09C978.59,-379.5 979.41,-347.52 963,-327.2 936.86,-294.83 891.91,-280.47 854.51,-274.16"/>
<polygon fill="black" stroke="black" points="854.6,-270.64 844.19,-272.59 853.55,-277.55 854.6,-270.64"/>
</g>
<!-- rpc&#45;&gt;scene&#45;system -->
<g id="edge10" class="edge">
<title>rpc&#45;&gt;scene&#45;system</title>
<path fill="none" stroke="black" d="M988.82,-398.9C996.57,-390.42 1006.04,-380.06 1014.52,-370.78"/>
<polygon fill="black" stroke="black" points="1017.2,-373.05 1021.36,-363.3 1012.03,-368.32 1017.2,-373.05"/>
</g>
<!-- voice -->
<g id="node7" class="node">
<title>voice</title>
<polygon fill="lightgrey" stroke="black" points="954,-363.2 951,-367.2 930,-367.2 927,-363.2 900,-363.2 900,-327.2 954,-327.2 954,-363.2"/>
<text text-anchor="middle" x="927" y="-341" font-family="Times,serif" font-size="14.00">voice</text>
</g>
<!-- voice&#45;&gt;entrypoints -->
<g id="edge7" class="edge">
<title>voice&#45;&gt;entrypoints</title>
<path fill="none" stroke="black" d="M899.81,-329.24C878.96,-317.78 849.99,-301.84 827.19,-289.3"/>
<polygon fill="black" stroke="black" points="828.6,-286.08 818.15,-284.33 825.22,-292.22 828.6,-286.08"/>
</g>
<!-- ui -->
<g id="node8" class="node">
<title>ui</title>
<polygon fill="lightgrey" stroke="black" points="875.69,-363.2 792.31,-363.2 792.31,-327.2 881.69,-327.2 881.69,-357.2 875.69,-363.2"/>
<polyline fill="none" stroke="black" points="875.69,-363.2 875.69,-357.2 "/>
<polyline fill="none" stroke="black" points="881.69,-357.2 875.69,-357.2 "/>
<text text-anchor="middle" x="837" y="-341" font-family="Times,serif" font-size="14.00">UI + Avatars</text>
</g>
<!-- ui&#45;&gt;entrypoints -->
<g id="edge4" class="edge">
<title>ui&#45;&gt;entrypoints</title>
<path fill="none" stroke="black" d="M826.33,-326.85C820.5,-317.37 813.17,-305.45 806.7,-294.93"/>
<polygon fill="black" stroke="black" points="809.51,-292.82 801.29,-286.14 803.55,-296.49 809.51,-292.82"/>
</g>
<!-- preview -->
<g id="node13" class="node">
<title>preview</title>
<polygon fill="lightgrey" stroke="black" points="703.59,-198.8 648.41,-198.8 648.41,-162.8 709.59,-162.8 709.59,-192.8 703.59,-198.8"/>
<polyline fill="none" stroke="black" points="703.59,-198.8 703.59,-192.8 "/>
<polyline fill="none" stroke="black" points="709.59,-192.8 703.59,-192.8 "/>
<text text-anchor="middle" x="679" y="-176.6" font-family="Times,serif" font-size="14.00">preview</text>
</g>
<!-- entrypoints&#45;&gt;preview -->
<g id="edge12" class="edge">
<title>entrypoints&#45;&gt;preview</title>
<path fill="none" stroke="black" d="M754.03,-254.98C741.79,-249.8 728.61,-242.96 718,-234.4 708.88,-227.04 700.78,-217.09 694.36,-207.81"/>
<polygon fill="black" stroke="black" points="697.15,-205.68 688.74,-199.24 691.3,-209.52 697.15,-205.68"/>
</g>
<!-- builder -->
<g id="node14" class="node">
<title>builder</title>
<polygon fill="lightgrey" stroke="black" points="776.66,-198.8 727.34,-198.8 727.34,-162.8 782.66,-162.8 782.66,-192.8 776.66,-198.8"/>
<polyline fill="none" stroke="black" points="776.66,-198.8 776.66,-192.8 "/>
<polyline fill="none" stroke="black" points="782.66,-192.8 776.66,-192.8 "/>
<text text-anchor="middle" x="755" y="-176.6" font-family="Times,serif" font-size="14.00">builder</text>
</g>
<!-- entrypoints&#45;&gt;builder -->
<g id="edge13" class="edge">
<title>entrypoints&#45;&gt;builder</title>
<path fill="none" stroke="black" d="M783.89,-250.49C778.84,-238.49 771.97,-222.15 766.19,-208.41"/>
<polygon fill="black" stroke="black" points="769.32,-206.83 762.22,-198.97 762.87,-209.54 769.32,-206.83"/>
</g>
<!-- unity -->
<g id="node15" class="node">
<title>unity</title>
<polygon fill="lightgrey" stroke="black" points="855,-198.8 805,-198.8 801,-194.8 801,-162.8 851,-162.8 855,-166.8 855,-198.8"/>
<polyline fill="none" stroke="black" points="851,-194.8 801,-194.8 "/>
<polyline fill="none" stroke="black" points="851,-194.8 851,-162.8 "/>
<polyline fill="none" stroke="black" points="851,-194.8 855,-198.8 "/>
<text text-anchor="middle" x="828" y="-176.6" font-family="Times,serif" font-size="14.00">unity</text>
</g>
<!-- entrypoints&#45;&gt;unity -->
<g id="edge14" class="edge">
<title>entrypoints&#45;&gt;unity</title>
<path fill="none" stroke="black" d="M798.31,-250.49C803.5,-238.49 810.56,-222.15 816.5,-208.41"/>
<polygon fill="black" stroke="black" points="819.82,-209.54 820.58,-198.97 813.4,-206.76 819.82,-209.54"/>
</g>
<!-- loader -->
<g id="node10" class="node">
<title>loader</title>
<polygon fill="lightgrey" stroke="black" points="768,-363.2 720,-363.2 720,-327.2 774,-327.2 774,-357.2 768,-363.2"/>
<polyline fill="none" stroke="black" points="768,-363.2 768,-357.2 "/>
<polyline fill="none" stroke="black" points="774,-357.2 768,-357.2 "/>
<text text-anchor="middle" x="747" y="-341" font-family="Times,serif" font-size="14.00">loader</text>
</g>
<!-- loader&#45;&gt;entrypoints -->
<g id="edge5" class="edge">
<title>loader&#45;&gt;entrypoints</title>
<path fill="none" stroke="black" d="M757.21,-326.85C762.78,-317.37 769.79,-305.45 775.98,-294.93"/>
<polygon fill="black" stroke="black" points="779.1,-296.53 781.15,-286.14 773.07,-292.98 779.1,-296.53"/>
</g>
<!-- gif -->
<g id="node11" class="node">
<title>gif</title>
<polygon fill="lightgrey" stroke="black" points="696,-363.2 648,-363.2 648,-327.2 702,-327.2 702,-357.2 696,-363.2"/>
<polyline fill="none" stroke="black" points="696,-363.2 696,-357.2 "/>
<polyline fill="none" stroke="black" points="702,-357.2 696,-357.2 "/>
<text text-anchor="middle" x="675" y="-341" font-family="Times,serif" font-size="14.00">gif</text>
</g>
<!-- gif&#45;&gt;entrypoints -->
<g id="edge6" class="edge">
<title>gif&#45;&gt;entrypoints</title>
<path fill="none" stroke="black" d="M701.61,-327.04C718.63,-316.07 740.8,-301.77 758.8,-290.16"/>
<polygon fill="black" stroke="black" points="760.76,-293.06 767.27,-284.7 756.97,-287.18 760.76,-293.06"/>
</g>
<!-- scene&#45;system&#45;&gt;entrypoints -->
<g id="edge8" class="edge">
<title>scene&#45;system&#45;&gt;entrypoints</title>
<path fill="none" stroke="black" d="M991.59,-330.39C948.36,-317.25 883.5,-297.53 839.32,-284.09"/>
<polygon fill="black" stroke="black" points="840.26,-280.72 829.67,-281.16 838.22,-287.42 840.26,-280.72"/>
</g>
<!-- app -->
<g id="node17" class="node">
<title>app</title>
<polygon fill="none" stroke="black" points="405.69,-124 310.31,-124 306.31,-120 306.31,-88 401.69,-88 405.69,-92 405.69,-124"/>
<polyline fill="none" stroke="black" points="401.69,-120 306.31,-120 "/>
<polyline fill="none" stroke="black" points="401.69,-120 401.69,-88 "/>
<polyline fill="none" stroke="black" points="401.69,-120 405.69,-124 "/>
<text text-anchor="middle" x="356" y="-101.8" font-family="Times,serif" font-size="14.00">app &amp; preview</text>
</g>
<!-- preview&#45;&gt;app -->
<g id="edge22" class="edge">
<title>preview&#45;&gt;app</title>
<path fill="none" stroke="black" d="M652.89,-162.65C647.47,-159.66 641.68,-156.86 636,-154.8 562.85,-128.28 473.51,-116.29 415.72,-111"/>
<polygon fill="black" stroke="black" points="415.93,-107.5 405.67,-110.11 415.32,-114.48 415.93,-107.5"/>
</g>
<!-- unity&#45;&gt;app -->
<g id="edge21" class="edge">
<title>unity&#45;&gt;app</title>
<path fill="none" stroke="black" d="M806.89,-162.6C802.22,-159.54 797.13,-156.72 792,-154.8 724.6,-129.58 519.06,-115.54 416.1,-109.93"/>
<polygon fill="black" stroke="black" points="416.04,-106.42 405.86,-109.38 415.66,-113.41 416.04,-106.42"/>
</g>
<!-- sagas -->
<g id="node16" class="node">
<title>sagas</title>
<ellipse fill="none" stroke="black" cx="436" cy="-180.8" rx="31.9" ry="18"/>
<text text-anchor="middle" x="436" y="-176.6" font-family="Times,serif" font-size="14.00">sagas</text>
</g>
<!-- sagas&#45;&gt;app -->
<g id="edge16" class="edge">
<title>sagas&#45;&gt;app</title>
<path fill="none" stroke="black" d="M419.81,-165.07C409,-155.23 394.53,-142.07 382.11,-130.76"/>
<polygon fill="black" stroke="black" points="384.44,-128.15 374.69,-124.01 379.73,-133.33 384.44,-128.15"/>
</g>
<!-- website -->
<g id="node22" class="node">
<title>website</title>
<ellipse fill="none" stroke="black" cx="301" cy="-34" rx="40.57" ry="18"/>
<text text-anchor="middle" x="301" y="-29.8" font-family="Times,serif" font-size="14.00">website</text>
</g>
<!-- app&#45;&gt;website -->
<g id="edge23" class="edge">
<title>app&#45;&gt;website</title>
<path fill="none" stroke="black" d="M342.4,-87.7C335.61,-79.05 327.29,-68.46 319.89,-59.04"/>
<polygon fill="black" stroke="black" points="322.62,-56.85 313.69,-51.14 317.11,-61.17 322.62,-56.85"/>
</g>
<!-- preview.js -->
<g id="node23" class="node">
<title>preview.js</title>
<ellipse fill="none" stroke="black" cx="411" cy="-34" rx="50.98" ry="18"/>
<text text-anchor="middle" x="411" y="-29.8" font-family="Times,serif" font-size="14.00">preview.js</text>
</g>
<!-- app&#45;&gt;preview.js -->
<g id="edge24" class="edge">
<title>app&#45;&gt;preview.js</title>
<path fill="none" stroke="black" d="M369.6,-87.7C376.22,-79.27 384.31,-68.97 391.57,-59.73"/>
<polygon fill="black" stroke="black" points="394.51,-61.65 397.94,-51.62 389.01,-57.32 394.51,-61.65"/>
</g>
<!-- react -->
<g id="node18" class="node">
<title>react</title>
<ellipse fill="none" stroke="black" cx="356" cy="-180.8" rx="29.59" ry="18"/>
<text text-anchor="middle" x="356" y="-176.6" font-family="Times,serif" font-size="14.00">react</text>
</g>
<!-- react&#45;&gt;app -->
<g id="edge17" class="edge">
<title>react&#45;&gt;app</title>
<path fill="none" stroke="black" d="M356,-162.55C356,-154.12 356,-143.77 356,-134.3"/>
<polygon fill="black" stroke="black" points="359.5,-134.13 356,-124.13 352.5,-134.13 359.5,-134.13"/>
</g>
<!-- css -->
<g id="node19" class="node">
<title>css</title>
<ellipse fill="none" stroke="black" cx="281" cy="-180.8" rx="27" ry="18"/>
<text text-anchor="middle" x="281" y="-176.6" font-family="Times,serif" font-size="14.00">css</text>
</g>
<!-- css&#45;&gt;app -->
<g id="edge18" class="edge">
<title>css&#45;&gt;app</title>
<path fill="none" stroke="black" d="M295.82,-165.42C305.83,-155.7 319.31,-142.62 330.97,-131.3"/>
<polygon fill="black" stroke="black" points="333.57,-133.65 338.31,-124.17 328.7,-128.62 333.57,-133.65"/>
</g>
<!-- redux -->
<g id="node20" class="node">
<title>redux</title>
<ellipse fill="none" stroke="black" cx="203" cy="-180.8" rx="33.05" ry="18"/>
<text text-anchor="middle" x="203" y="-176.6" font-family="Times,serif" font-size="14.00">redux</text>
</g>
<!-- redux&#45;&gt;app -->
<g id="edge19" class="edge">
<title>redux&#45;&gt;app</title>
<path fill="none" stroke="black" d="M224.06,-166.53C230.67,-162.57 238.05,-158.35 245,-154.8 263.71,-145.26 284.75,-135.87 303.45,-127.97"/>
<polygon fill="black" stroke="black" points="304.83,-131.19 312.7,-124.11 302.13,-124.73 304.83,-131.19"/>
</g>
<!-- web3providers -->
<g id="node21" class="node">
<title>web3providers</title>
<ellipse fill="none" stroke="black" cx="84" cy="-180.8" rx="68.34" ry="18"/>
<text text-anchor="middle" x="84" y="-176.6" font-family="Times,serif" font-size="14.00">web3providers</text>
</g>
<!-- web3providers&#45;&gt;app -->
<g id="edge20" class="edge">
<title>web3providers&#45;&gt;app</title>
<path fill="none" stroke="black" d="M124.19,-166.13C136,-162.29 148.97,-158.22 161,-154.8 205.93,-142.02 257.26,-129.52 295.98,-120.51"/>
<polygon fill="black" stroke="black" points="297.09,-123.84 306.04,-118.18 295.51,-117.02 297.09,-123.84"/>
</g>
</g>
</svg>
