<?xml version="1.0" encoding="UTF-8"?>
<!DOCTYPE svg PUBLIC "-//W3C//DTD SVG 1.1//EN" "http://www.w3.org/Graphics/SVG/1.1/DTD/svg11.dtd">
<svg width="904" height="377" xmlns="http://www.w3.org/2000/svg"><defs><marker viewBox="0 0 5 5" markerWidth="5" markerHeight="5" orient="auto" refX="5" refY="2.5" id="markerArrowBlock"><path d="M 0 0 L 5 2.5 L 0 5 z"></path></marker><marker viewBox="0 0 9.6 16" markerWidth="4" markerHeight="16" orient="auto" refX="9.6" refY="8" id="markerArrowOpen"><path d="M 9.6,8 1.92,16 0,13.7 5.76,8 0,2.286 1.92,0 9.6,8 z"></path></marker></defs><rect x="10" y="10" width="53" height="33" style="stroke-width: 2px;" stroke="#000000" fill="#ffffff"></rect><text x="20" y="30" style="font: 14px Menlo, Monaco, &quot;Courier New&quot;, monospace;" text-anchor="start"><tspan x="20" y="30">user</tspan></text><rect x="10" y="314" width="53" height="33" style="stroke-width: 2px;" stroke="#000000" fill="#ffffff"></rect><text x="20" y="335" style="font: 14px Menlo, Monaco, &quot;Courier New&quot;, monospace;" text-anchor="start"><tspan x="20" y="335">user</tspan></text><line x1="36" x2="36" y1="43" y2="314" style="stroke-width: 2px;" stroke="#000000" fill="none"></line><rect x="113" y="10" width="70" height="33" style="stroke-width: 2px;" stroke="#000000" fill="#ffffff"></rect><text x="123" y="31" style="font: 14px Menlo, Monaco, &quot;Courier New&quot;, monospace;" text-anchor="start"><tspan x="123" y="31">worker</tspan></text><rect x="113" y="314" width="70" height="33" style="stroke-width: 2px;" stroke="#000000" fill="#ffffff"></rect><text x="123" y="336" style="font: 14px Menlo, Monaco, &quot;Courier New&quot;, monospace;" text-anchor="start"><tspan x="123" y="336">worker</tspan></text><line x1="148" x2="148" y1="43" y2="314" style="stroke-width: 2px;" stroke="#000000" fill="none"></line><rect x="248" y="10" width="104" height="33" style="stroke-width: 2px;" stroke="#000000" fill="#ffffff"></rect><text x="258" y="33" style="font: 14px Menlo, Monaco, &quot;Courier New&quot;, monospace;" text-anchor="start"><tspan x="258" y="33">new_worker</tspan></text><rect x="248" y="314" width="104" height="33" style="stroke-width: 2px;" stroke="#000000" fill="#ffffff"></rect><text x="258" y="337" style="font: 14px Menlo, Monaco, &quot;Courier New&quot;, monospace;" text-anchor="start"><tspan x="258" y="337">new_worker</tspan></text><line x1="300" x2="300" y1="43" y2="314" style="stroke-width: 2px;" stroke="#000000" fill="none"></line><rect x="411" y="10" width="138" height="33" style="stroke-width: 2px;" stroke="#000000" fill="#ffffff"></rect><text x="421" y="32" style="font: 14px Menlo, Monaco, &quot;Courier New&quot;, monospace;" text-anchor="start"><tspan x="421" y="32">content_server</tspan></text><rect x="411" y="314" width="138" height="33" style="stroke-width: 2px;" stroke="#000000" fill="#ffffff"></rect><text x="421" y="337" style="font: 14px Menlo, Monaco, &quot;Courier New&quot;, monospace;" text-anchor="start"><tspan x="421" y="337">content_server</tspan></text><line x1="480" x2="480" y1="43" y2="314" style="stroke-width: 2px;" stroke="#000000" fill="none"></line><rect x="569" y="10" width="87" height="33" style="stroke-width: 2px;" stroke="#000000" fill="#ffffff"></rect><text x="579" y="31" style="font: 14px Menlo, Monaco, &quot;Courier New&quot;, monospace;" text-anchor="start"><tspan x="579" y="31">renderer</tspan></text><rect x="569" y="314" width="87" height="33" style="stroke-width: 2px;" stroke="#000000" fill="#ffffff"></rect><text x="579" y="336" style="font: 14px Menlo, Monaco, &quot;Courier New&quot;, monospace;" text-anchor="start"><tspan x="579" y="336">renderer</tspan></text><line x1="612" x2="612" y1="43" y2="314" style="stroke-width: 2px;" stroke="#000000" fill="none"></line><rect x="829" y="10" width="45" height="33" style="stroke-width: 2px;" stroke="#000000" fill="#ffffff"></rect><text x="839" y="33" style="font: 14px Menlo, Monaco, &quot;Courier New&quot;, monospace;" text-anchor="start"><tspan x="839" y="33">p2p</tspan></text><rect x="829" y="314" width="45" height="33" style="stroke-width: 2px;" stroke="#000000" fill="#ffffff"></rect><text x="839" y="338" style="font: 14px Menlo, Monaco, &quot;Courier New&quot;, monospace;" text-anchor="start"><tspan x="839" y="338">p2p</tspan></text><line x1="851" x2="851" y1="43" y2="314" style="stroke-width: 2px;" stroke="#000000" fill="none"></line><text x="46" y="73" style="font: 14px Menlo, Monaco, &quot;Courier New&quot;, monospace;" text-anchor="start"><tspan x="46" y="73">kill worker</tspan></text><line x1="36" x2="148" y1="78" y2="78" style="stroke-width: 2px;" stroke="#000000" fill="none" marker-end="url(#markerArrowBlock)"></line><text x="46" y="108" style="font: 14px Menlo, Monaco, &quot;Courier New&quot;, monospace;" text-anchor="start"><tspan x="46" y="108">create for edition (scene xy)</tspan></text><line x1="36" x2="300" y1="113" y2="113" style="stroke-width: 2px;" stroke="#000000" fill="none" marker-end="url(#markerArrowBlock)"></line><text x="309" y="142" style="font: 14px Menlo, Monaco, &quot;Courier New&quot;, monospace;" text-anchor="start"><tspan x="309" y="142">get JSON (scene xy)</tspan></text><line x1="300" x2="480" y1="147" y2="147" style="stroke-width: 2px;" stroke="#000000" fill="none" marker-end="url(#markerArrowBlock)"></line><text x="390" y="162" style="font: 14px Menlo, Monaco, &quot;Courier New&quot;, monospace;" text-anchor="start"><tspan x="390" y="162"></tspan></text><line x1="480" x2="300" y1="167" y2="167" style="stroke-width: 2px;" stroke="#000000" fill="none" marker-end="url(#markerArrowBlock)"></line><text x="401" y="193" style="font: 14px Menlo, Monaco, &quot;Courier New&quot;, monospace;" text-anchor="start"><tspan x="401" y="193">initial state</tspan></text><line x1="300" x2="612" y1="198" y2="198" style="stroke-width: 2px;" stroke="#000000" fill="none" marker-end="url(#markerArrowBlock)"></line><text x="414" y="226" style="font: 14px Menlo, Monaco, &quot;Courier New&quot;, monospace;" text-anchor="start"><tspan x="414" y="226">update-msg</tspan></text><line x1="612" x2="300" y1="231" y2="231" style="stroke-width: 2px;" stroke="#000000" fill="none" stroke-dasharray="6px, 2px" marker-end="url(#markerArrowBlock)"></line><text x="622" y="261" style="font: 14px Menlo, Monaco, &quot;Courier New&quot;, monospace;" text-anchor="start"><tspan x="622" y="261">update-msg (for broadcast)</tspan></text><line x1="612" x2="851" y1="266" y2="266" style="stroke-width: 2px;" stroke="#000000" fill="none" stroke-dasharray="6px, 2px" marker-end="url(#markerArrowBlock)"></line><text x="533" y="294" style="font: 14px Menlo, Monaco, &quot;Courier New&quot;, monospace;" text-anchor="start"><tspan x="533" y="294">update-msg</tspan></text><line x1="851" x2="300" y1="299" y2="299" style="stroke-width: 2px;" stroke="#000000" fill="none" stroke-dasharray="6px, 2px" marker-end="url(#markerArrowBlock)"></line></svg>