<?xml version="1.0" encoding="UTF-8"?>
<!DOCTYPE svg PUBLIC "-//W3C//DTD SVG 1.1//EN" "http://www.w3.org/Graphics/SVG/1.1/DTD/svg11.dtd">
<svg width="925" height="322" xmlns="http://www.w3.org/2000/svg"><defs><marker viewBox="0 0 5 5" markerWidth="5" markerHeight="5" orient="auto" refX="5" refY="2.5" id="markerArrowBlock"><path d="M 0 0 L 5 2.5 L 0 5 z"></path></marker><marker viewBox="0 0 9.6 16" markerWidth="4" markerHeight="16" orient="auto" refX="9.6" refY="8" id="markerArrowOpen"><path d="M 9.6,8 1.92,16 0,13.7 5.76,8 0,2.286 1.92,0 9.6,8 z"></path></marker></defs><rect x="10" y="10" width="53" height="33" stroke="#000000" fill="#ffffff" style="stroke-width: 2px;"></rect><text x="20" y="31" text-anchor="start" style="font: 14px Menlo, Monaco, &quot;Courier New&quot;, monospace;"><tspan x="20" y="31">User</tspan></text><rect x="10" y="259" width="53" height="33" stroke="#000000" fill="#ffffff" style="stroke-width: 2px;"></rect><text x="20" y="281" text-anchor="start" style="font: 14px Menlo, Monaco, &quot;Courier New&quot;, monospace;"><tspan x="20" y="281">User</tspan></text><line x1="36" x2="36" y1="43" y2="259" stroke="#000000" fill="none" style="stroke-width: 2px;"></line><rect x="168" y="10" width="146" height="33" stroke="#000000" fill="#ffffff" style="stroke-width: 2px;"></rect><text x="178" y="33" text-anchor="start" style="font: 14px Menlo, Monaco, &quot;Courier New&quot;, monospace;"><tspan x="178" y="33">L2_Collection_1</tspan></text><rect x="168" y="259" width="146" height="33" stroke="#000000" fill="#ffffff" style="stroke-width: 2px;"></rect><text x="178" y="282" text-anchor="start" style="font: 14px Menlo, Monaco, &quot;Courier New&quot;, monospace;"><tspan x="178" y="282">L2_Collection_1</tspan></text><line x1="241" x2="241" y1="43" y2="259" stroke="#000000" fill="none" style="stroke-width: 2px;"></line><rect x="334" y="10" width="95" height="33" stroke="#000000" fill="#ffffff" style="stroke-width: 2px;"></rect><text x="344" y="33" text-anchor="start" style="font: 14px Menlo, Monaco, &quot;Courier New&quot;, monospace;"><tspan x="344" y="33">L2_Bridge</tspan></text><rect x="334" y="259" width="95" height="33" stroke="#000000" fill="#ffffff" style="stroke-width: 2px;"></rect><text x="344" y="283" text-anchor="start" style="font: 14px Menlo, Monaco, &quot;Courier New&quot;, monospace;"><tspan x="344" y="283">L2_Bridge</tspan></text><line x1="382" x2="382" y1="43" y2="259" stroke="#000000" fill="none" style="stroke-width: 2px;"></line><rect x="450" y="10" width="121" height="33" stroke="#000000" fill="#ffffff" style="stroke-width: 2px;"></rect><text x="460" y="33" text-anchor="start" style="font: 14px Menlo, Monaco, &quot;Courier New&quot;, monospace;"><tspan x="460" y="33">L2_Validator</tspan></text><rect x="450" y="259" width="121" height="33" stroke="#000000" fill="#ffffff" style="stroke-width: 2px;"></rect><text x="460" y="282" text-anchor="start" style="font: 14px Menlo, Monaco, &quot;Courier New&quot;, monospace;"><tspan x="460" y="282">L2_Validator</tspan></text><line x1="510" x2="510" y1="43" y2="259" stroke="#000000" fill="none" style="stroke-width: 2px;"></line><rect x="650" y="10" width="95" height="33" stroke="#000000" fill="#ffffff" style="stroke-width: 2px;"></rect><text x="660" y="33" text-anchor="start" style="font: 14px Menlo, Monaco, &quot;Courier New&quot;, monospace;"><tspan x="660" y="33">L1_Bridge</tspan></text><rect x="650" y="259" width="95" height="33" stroke="#000000" fill="#ffffff" style="stroke-width: 2px;"></rect><text x="660" y="283" text-anchor="start" style="font: 14px Menlo, Monaco, &quot;Courier New&quot;, monospace;"><tspan x="660" y="283">L1_Bridge</tspan></text><line x1="697" x2="697" y1="43" y2="259" stroke="#000000" fill="none" style="stroke-width: 2px;"></line><rect x="765" y="10" width="129" height="33" stroke="#000000" fill="#ffffff" style="stroke-width: 2px;"></rect><text x="775" y="33" text-anchor="start" style="font: 14px Menlo, Monaco, &quot;Courier New&quot;, monospace;"><tspan x="775" y="33">L1_Collection</tspan></text><rect x="765" y="259" width="129" height="33" stroke="#000000" fill="#ffffff" style="stroke-width: 2px;"></rect><text x="775" y="282" text-anchor="start" style="font: 14px Menlo, Monaco, &quot;Courier New&quot;, monospace;"><tspan x="775" y="282">L1_Collection</tspan></text><line x1="830" x2="830" y1="43" y2="259" stroke="#000000" fill="none" style="stroke-width: 2px;"></line><text x="46" y="76" text-anchor="start" style="font: 14px Menlo, Monaco, &quot;Courier New&quot;, monospace;"><tspan x="46" y="76">Transfer token_1 to L1</tspan></text><line x1="36" x2="241" y1="81" y2="81" stroke="#000000" fill="none" marker-end="url(#markerArrowBlock)" style="stroke-width: 2px;"></line><text x="261" y="109" text-anchor="start" style="font: 14px Menlo, Monaco, &quot;Courier New&quot;, monospace;"><tspan x="261" y="109">Lock token_1</tspan></text><line x1="241" x2="382" y1="114" y2="114" stroke="#000000" fill="none" marker-end="url(#markerArrowBlock)" style="stroke-width: 2px;"></line><text x="396" y="142" text-anchor="start" style="font: 14px Menlo, Monaco, &quot;Courier New&quot;, monospace;"><tspan x="396" y="142">Compute lock</tspan></text><line x1="510" x2="382" y1="147" y2="147" stroke="#000000" fill="none" stroke-dasharray="6px, 2px" marker-end="url(#markerArrowBlock)" style="stroke-width: 2px;"></line><line x1="510" x2="530" y1="162" y2="162" stroke="#000000" fill="none" style="stroke-width: 2px;"></line><line x1="530" x2="530" y1="162" y2="178" stroke="#000000" fill="none" style="stroke-width: 2px;"></line><line x1="530" x2="510" y1="178" y2="178" stroke="#000000" fill="none" marker-end="url(#markerArrowBlock)" style="stroke-width: 2px;"></line><text x="535" y="176" text-anchor="start" style="font: 14px Menlo, Monaco, &quot;Courier New&quot;, monospace;"><tspan x="535" y="176">Validate lock</tspan></text><text x="520" y="206" text-anchor="start" style="font: 14px Menlo, Monaco, &quot;Courier New&quot;, monospace;"><tspan x="520" y="206">Process token_1 lock</tspan></text><line x1="510" x2="697" y1="211" y2="211" stroke="#000000" fill="none" marker-end="url(#markerArrowBlock)" style="stroke-width: 2px;"></line><text x="713" y="239" text-anchor="start" style="font: 14px Menlo, Monaco, &quot;Courier New&quot;, monospace;"><tspan x="713" y="239">Mint token_1</tspan></text><line x1="697" x2="830" y1="244" y2="244" stroke="#000000" fill="none" marker-end="url(#markerArrowBlock)" style="stroke-width: 2px;"></line></svg>