<?xml version="1.0" encoding="UTF-8"?>
<!DOCTYPE svg PUBLIC "-//W3C//DTD SVG 1.1//EN" "http://www.w3.org/Graphics/SVG/1.1/DTD/svg11.dtd">
<svg width="581" height="251" xmlns="http://www.w3.org/2000/svg"><defs><marker viewBox="0 0 5 5" markerWidth="5" markerHeight="5" orient="auto" refX="5" refY="2.5" id="markerArrowBlock"><path d="M 0 0 L 5 2.5 L 0 5 z"></path></marker><marker viewBox="0 0 9.6 16" markerWidth="4" markerHeight="16" orient="auto" refX="9.6" refY="8" id="markerArrowOpen"><path d="M 9.6,8 1.92,16 0,13.7 5.76,8 0,2.286 1.92,0 9.6,8 z"></path></marker></defs><rect x="10" y="10" width="53" height="33" style="stroke-width: 2px;" stroke="#000000" fill="#ffffff"></rect><text x="20" y="30" style="font: 14px Menlo, Monaco, &quot;Courier New&quot;, monospace;" text-anchor="start"><tspan x="20" y="30">user</tspan></text><rect x="10" y="188" width="53" height="33" style="stroke-width: 2px;" stroke="#000000" fill="#ffffff"></rect><text x="20" y="208" style="font: 14px Menlo, Monaco, &quot;Courier New&quot;, monospace;" text-anchor="start"><tspan x="20" y="208">user</tspan></text><line x1="36" x2="36" y1="43" y2="188" style="stroke-width: 2px;" stroke="#000000" fill="none"></line><rect x="105" y="10" width="70" height="33" style="stroke-width: 2px;" stroke="#000000" fill="#ffffff"></rect><text x="115" y="31" style="font: 14px Menlo, Monaco, &quot;Courier New&quot;, monospace;" text-anchor="start"><tspan x="115" y="31">kernel</tspan></text><rect x="105" y="188" width="70" height="33" style="stroke-width: 2px;" stroke="#000000" fill="#ffffff"></rect><text x="115" y="209" style="font: 14px Menlo, Monaco, &quot;Courier New&quot;, monospace;" text-anchor="start"><tspan x="115" y="209">kernel</tspan></text><line x1="140" x2="140" y1="43" y2="188" style="stroke-width: 2px;" stroke="#000000" fill="none"></line><rect x="234" y="10" width="70" height="33" style="stroke-width: 2px;" stroke="#000000" fill="#ffffff"></rect><text x="244" y="31" style="font: 14px Menlo, Monaco, &quot;Courier New&quot;, monospace;" text-anchor="start"><tspan x="244" y="31">worker</tspan></text><rect x="234" y="188" width="70" height="33" style="stroke-width: 2px;" stroke="#000000" fill="#ffffff"></rect><text x="244" y="209" style="font: 14px Menlo, Monaco, &quot;Courier New&quot;, monospace;" text-anchor="start"><tspan x="244" y="209">worker</tspan></text><line x1="269" x2="269" y1="43" y2="188" style="stroke-width: 2px;" stroke="#000000" fill="none"></line><rect x="399" y="10" width="87" height="33" style="stroke-width: 2px;" stroke="#000000" fill="#ffffff"></rect><text x="409" y="31" style="font: 14px Menlo, Monaco, &quot;Courier New&quot;, monospace;" text-anchor="start"><tspan x="409" y="31">renderer</tspan></text><rect x="399" y="188" width="87" height="33" style="stroke-width: 2px;" stroke="#000000" fill="#ffffff"></rect><text x="409" y="209" style="font: 14px Menlo, Monaco, &quot;Courier New&quot;, monospace;" text-anchor="start"><tspan x="409" y="209">renderer</tspan></text><line x1="442" x2="442" y1="43" y2="188" style="stroke-width: 2px;" stroke="#000000" fill="none"></line><rect x="506" y="10" width="45" height="33" style="stroke-width: 2px;" stroke="#000000" fill="#ffffff"></rect><text x="516" y="33" style="font: 14px Menlo, Monaco, &quot;Courier New&quot;, monospace;" text-anchor="start"><tspan x="516" y="33">p2p</tspan></text><rect x="506" y="188" width="45" height="33" style="stroke-width: 2px;" stroke="#000000" fill="#ffffff"></rect><text x="516" y="211" style="font: 14px Menlo, Monaco, &quot;Courier New&quot;, monospace;" text-anchor="start"><tspan x="516" y="211">p2p</tspan></text><line x1="529" x2="529" y1="43" y2="188" style="stroke-width: 2px;" stroke="#000000" fill="none"></line><text x="46" y="73" style="font: 14px Menlo, Monaco, &quot;Courier New&quot;, monospace;" text-anchor="start"><tspan x="46" y="73">load scene</tspan></text><line x1="36" x2="140" y1="78" y2="78" style="stroke-width: 2px;" stroke="#000000" fill="none" marker-end="url(#markerArrowBlock)"></line><text x="149" y="104" style="font: 14px Menlo, Monaco, &quot;Courier New&quot;, monospace;" text-anchor="start"><tspan x="149" y="104">create worker</tspan></text><line x1="140" x2="269" y1="109" y2="109" style="stroke-width: 2px;" stroke="#000000" fill="none" marker-end="url(#markerArrowBlock)"></line><line x1="269" x2="289" y1="124" y2="124" style="stroke-width: 2px;" stroke="#000000" fill="none"></line><line x1="289" x2="289" y1="124" y2="142" style="stroke-width: 2px;" stroke="#000000" fill="none"></line><line x1="289" x2="269" y1="142" y2="142" style="stroke-width: 2px;" stroke="#000000" fill="none" marker-end="url(#markerArrowBlock)"></line><text x="294" y="139" style="font: 14px Menlo, Monaco, &quot;Courier New&quot;, monospace;" text-anchor="start"><tspan x="294" y="139">load scene (???)</tspan></text><text x="305" y="168" style="font: 14px Menlo, Monaco, &quot;Courier New&quot;, monospace;" text-anchor="start"><tspan x="305" y="168">inform state</tspan></text><line x1="269" x2="442" y1="173" y2="173" style="stroke-width: 2px;" stroke="#000000" fill="none" stroke-dasharray="6px, 2px" marker-end="url(#markerArrowBlock)"></line></svg>