<?xml version="1.0" encoding="UTF-8"?>
<!DOCTYPE svg PUBLIC "-//W3C//DTD SVG 1.1//EN" "http://www.w3.org/Graphics/SVG/1.1/DTD/svg11.dtd">
<svg width="1461" height="424" xmlns="http://www.w3.org/2000/svg"><defs><marker viewBox="0 0 5 5" markerWidth="5" markerHeight="5" orient="auto" refX="5" refY="2.5" id="markerArrowBlock"><path d="M 0 0 L 5 2.5 L 0 5 z"></path></marker><marker viewBox="0 0 9.6 16" markerWidth="4" markerHeight="16" orient="auto" refX="9.6" refY="8" id="markerArrowOpen"><path d="M 9.6,8 1.92,16 0,13.7 5.76,8 0,2.286 1.92,0 9.6,8 z"></path></marker></defs><rect x="10" y="10" width="53" height="33" stroke="#000000" fill="#ffffff" style="stroke-width: 2px;"></rect><text x="20" y="31" text-anchor="start" style="font: 14px Menlo, Monaco, &quot;Courier New&quot;, monospace;"><tspan x="20" y="31">User</tspan></text><rect x="10" y="361" width="53" height="33" stroke="#000000" fill="#ffffff" style="stroke-width: 2px;"></rect><text x="20" y="383" text-anchor="start" style="font: 14px Menlo, Monaco, &quot;Courier New&quot;, monospace;"><tspan x="20" y="383">User</tspan></text><line x1="36" x2="36" y1="43" y2="361" stroke="#000000" fill="none" style="stroke-width: 2px;"></line><rect x="168" y="10" width="146" height="33" stroke="#000000" fill="#ffffff" style="stroke-width: 2px;"></rect><text x="178" y="33" text-anchor="start" style="font: 14px Menlo, Monaco, &quot;Courier New&quot;, monospace;"><tspan x="178" y="33">L2_Collection_1</tspan></text><rect x="168" y="361" width="146" height="33" stroke="#000000" fill="#ffffff" style="stroke-width: 2px;"></rect><text x="178" y="384" text-anchor="start" style="font: 14px Menlo, Monaco, &quot;Courier New&quot;, monospace;"><tspan x="178" y="384">L2_Collection_1</tspan></text><line x1="241" x2="241" y1="43" y2="361" stroke="#000000" fill="none" style="stroke-width: 2px;"></line><rect x="334" y="10" width="95" height="33" stroke="#000000" fill="#ffffff" style="stroke-width: 2px;"></rect><text x="344" y="33" text-anchor="start" style="font: 14px Menlo, Monaco, &quot;Courier New&quot;, monospace;"><tspan x="344" y="33">L2_Bridge</tspan></text><rect x="334" y="361" width="95" height="33" stroke="#000000" fill="#ffffff" style="stroke-width: 2px;"></rect><text x="344" y="384" text-anchor="start" style="font: 14px Menlo, Monaco, &quot;Courier New&quot;, monospace;"><tspan x="344" y="384">L2_Bridge</tspan></text><line x1="382" x2="382" y1="43" y2="361" stroke="#000000" fill="none" style="stroke-width: 2px;"></line><rect x="450" y="10" width="121" height="33" stroke="#000000" fill="#ffffff" style="stroke-width: 2px;"></rect><text x="460" y="33" text-anchor="start" style="font: 14px Menlo, Monaco, &quot;Courier New&quot;, monospace;"><tspan x="460" y="33">L2_Validator</tspan></text><rect x="450" y="361" width="121" height="33" stroke="#000000" fill="#ffffff" style="stroke-width: 2px;"></rect><text x="460" y="384" text-anchor="start" style="font: 14px Menlo, Monaco, &quot;Courier New&quot;, monospace;"><tspan x="460" y="384">L2_Validator</tspan></text><line x1="510" x2="510" y1="43" y2="361" stroke="#000000" fill="none" style="stroke-width: 2px;"></line><rect x="650" y="10" width="95" height="33" stroke="#000000" fill="#ffffff" style="stroke-width: 2px;"></rect><text x="660" y="33" text-anchor="start" style="font: 14px Menlo, Monaco, &quot;Courier New&quot;, monospace;"><tspan x="660" y="33">L1_Bridge</tspan></text><rect x="650" y="361" width="95" height="33" stroke="#000000" fill="#ffffff" style="stroke-width: 2px;"></rect><text x="660" y="384" text-anchor="start" style="font: 14px Menlo, Monaco, &quot;Courier New&quot;, monospace;"><tspan x="660" y="384">L1_Bridge</tspan></text><line x1="697" x2="697" y1="43" y2="361" stroke="#000000" fill="none" style="stroke-width: 2px;"></line><rect x="976" y="10" width="104" height="33" stroke="#000000" fill="#ffffff" style="stroke-width: 2px;/* stroke: #a5a5a5; */"></rect><text x="986" y="33" text-anchor="start" style="font: 14px Menlo, Monaco, &quot;Courier New&quot;, monospace;"><tspan x="986" y="33">L1_Factory</tspan></text><rect x="976" y="361" width="104" height="33" stroke="#000000" fill="#ffffff" style="stroke-width: 2px;"></rect><text x="986" y="384" text-anchor="start" style="font: 14px Menlo, Monaco, &quot;Courier New&quot;, monospace;"><tspan x="986" y="384">L1_Factory</tspan></text><line x1="1028" x2="1028" y1="43" y2="361" stroke="#000000" fill="none" style="stroke-width: 2px;/* stroke: #a5a5a587; */"></line><rect x="1285" y="10" width="146" height="33" stroke="#000000" fill="#ffffff" style="stroke-width: 2px;"></rect><text x="1295" y="33" text-anchor="start" style="font: 14px Menlo, Monaco, &quot;Courier New&quot;, monospace;"><tspan x="1295" y="33">L1_Collection_1</tspan></text><rect x="1285" y="361" width="146" height="33" stroke="#000000" fill="#ffffff" style="stroke-width: 2px;"></rect><text x="1295" y="384" text-anchor="start" style="font: 14px Menlo, Monaco, &quot;Courier New&quot;, monospace;"><tspan x="1295" y="384">L1_Collection_1</tspan></text><line x1="1358" x2="1358" y1="43" y2="361" stroke="#000000" fill="none" style="stroke-width: 2px;"></line><text x="46" y="76" text-anchor="start" style="font: 14px Menlo, Monaco, &quot;Courier New&quot;, monospace;"><tspan x="46" y="76">Transfer token_1 to L1</tspan></text><line x1="36" x2="241" y1="81" y2="81" stroke="#000000" fill="none" marker-end="url(#markerArrowBlock)" style="stroke-width: 2px;"></line><text x="261" y="109" text-anchor="start" style="font: 14px Menlo, Monaco, &quot;Courier New&quot;, monospace;"><tspan x="261" y="109">Lock token_1</tspan></text><line x1="241" x2="382" y1="114" y2="114" stroke="#000000" fill="none" marker-end="url(#markerArrowBlock)" style="stroke-width: 2px;"></line><text x="396" y="142" text-anchor="start" style="font: 14px Menlo, Monaco, &quot;Courier New&quot;, monospace;"><tspan x="396" y="142">Compute lock</tspan></text><line x1="510" x2="382" y1="147" y2="147" stroke="#000000" fill="none" style="stroke-width: 2px;" stroke-dasharray="6px, 2px" marker-end="url(#markerArrowBlock)"></line><line x1="510" x2="530" y1="162" y2="162" stroke="#000000" fill="none" style="stroke-width: 2px;"></line><line x1="530" x2="530" y1="162" y2="178" stroke="#000000" fill="none" style="stroke-width: 2px;"></line><line x1="530" x2="510" y1="178" y2="178" stroke="#000000" fill="none" marker-end="url(#markerArrowBlock)" style="stroke-width: 2px;"></line><text x="535" y="176" text-anchor="start" style="font: 14px Menlo, Monaco, &quot;Courier New&quot;, monospace;"><tspan x="535" y="176">Validate lock</tspan></text><text x="520" y="206" text-anchor="start" style="font: 14px Menlo, Monaco, &quot;Courier New&quot;, monospace;"><tspan x="520" y="206">Process token_1 lock</tspan></text><line x1="510" x2="697" y1="211" y2="211" stroke="#000000" fill="none" marker-end="url(#markerArrowBlock)" style="stroke-width: 2px;"></line><text x="901" y="239" text-anchor="start" style="font: 14px Menlo, Monaco, &quot;Courier New&quot;, monospace;"><tspan x="901" y="239">Check if exist L1_Collection_1</tspan></text><line x1="697" x2="1358" y1="244" y2="244" stroke="#000000" fill="none" style="stroke-width: 2px;" stroke-dasharray="6px, 2px" marker-end="url(#markerArrowBlock)"></line><text x="707" y="274" text-anchor="start" style="font: 14px Menlo, Monaco, &quot;Courier New&quot;, monospace;"><tspan x="707" y="274">Deploy L1_Collection_1 (if not exist)</tspan></text><line x1="697" x2="1028" y1="279" y2="279" stroke="#000000" fill="none" marker-end="url(#markerArrowBlock)" style="stroke-width: 2px;"></line><text x="1037" y="308" text-anchor="start" style="font: 14px Menlo, Monaco, &quot;Courier New&quot;, monospace;"><tspan x="1037" y="308">Deploy L1_Collection_1 (if not exist)</tspan></text><line x1="1028" x2="1358" y1="313" y2="313" stroke="#000000" fill="none" marker-end="url(#markerArrowBlock)" style="stroke-width: 2px;"></line><text x="977" y="341" text-anchor="start" style="font: 14px Menlo, Monaco, &quot;Courier New&quot;, monospace;"><tspan x="977" y="341">Mint token_1</tspan></text><line x1="697" x2="1358" y1="346" y2="346" stroke="#000000" fill="none" marker-end="url(#markerArrowBlock)" style="stroke-width: 2px;"></line></svg>