<svg width="1095" height="311" viewBox="0 0 1095 311" fill="none" xmlns="http://www.w3.org/2000/svg">
<rect x="565" y="40" width="529" height="270" rx="9" stroke="#439F3A" stroke-width="2"/>
<rect x="1" y="40" width="529" height="270" rx="9" stroke="#1DAEFF" stroke-width="2"/>
<rect x="221.5" y="67.5" width="86" height="32" rx="9.5" fill="white" stroke="#F18142"/>
<path d="M241.756 85.1582C241.689 86.0762 241.35 86.7988 240.736 87.3262C240.127 87.8535 239.322 88.1172 238.322 88.1172C237.229 88.1172 236.367 87.75 235.738 87.0156C235.113 86.2773 234.801 85.2656 234.801 83.9805V83.459C234.801 82.6387 234.945 81.916 235.234 81.291C235.523 80.666 235.936 80.1875 236.471 79.8555C237.01 79.5195 237.635 79.3516 238.346 79.3516C239.33 79.3516 240.123 79.6152 240.725 80.1426C241.326 80.6699 241.674 81.4102 241.768 82.3633H240.01C239.967 81.8125 239.812 81.4141 239.547 81.168C239.285 80.918 238.885 80.793 238.346 80.793C237.76 80.793 237.32 81.0039 237.027 81.4258C236.738 81.8438 236.59 82.4941 236.582 83.377V84.0215C236.582 84.9434 236.721 85.6172 236.998 86.043C237.279 86.4688 237.721 86.6816 238.322 86.6816C238.865 86.6816 239.27 86.5586 239.535 86.3125C239.805 86.0625 239.959 85.6777 239.998 85.1582H241.756ZM242.535 84.7715C242.535 84.1426 242.656 83.582 242.898 83.0898C243.141 82.5977 243.488 82.2168 243.941 81.9473C244.398 81.6777 244.928 81.543 245.529 81.543C246.385 81.543 247.082 81.8047 247.621 82.3281C248.164 82.8516 248.467 83.5625 248.529 84.4609L248.541 84.8945C248.541 85.8672 248.27 86.6484 247.727 87.2383C247.184 87.8242 246.455 88.1172 245.541 88.1172C244.627 88.1172 243.896 87.8242 243.35 87.2383C242.807 86.6523 242.535 85.8555 242.535 84.8477V84.7715ZM244.229 84.8945C244.229 85.4961 244.342 85.957 244.568 86.2773C244.795 86.5938 245.119 86.752 245.541 86.752C245.951 86.752 246.271 86.5957 246.502 86.2832C246.732 85.9668 246.848 85.4629 246.848 84.7715C246.848 84.1816 246.732 83.7246 246.502 83.4004C246.271 83.0762 245.947 82.9141 245.529 82.9141C245.115 82.9141 244.795 83.0762 244.568 83.4004C244.342 83.7207 244.229 84.2188 244.229 84.8945ZM251.371 88H249.672V79H251.371V88ZM254.559 88H252.859V79H254.559V88ZM258.877 88.1172C257.947 88.1172 257.189 87.832 256.604 87.2617C256.021 86.6914 255.73 85.9316 255.73 84.9824V84.8184C255.73 84.1816 255.854 83.6133 256.1 83.1133C256.346 82.6094 256.693 82.2227 257.143 81.9531C257.596 81.6797 258.111 81.543 258.689 81.543C259.557 81.543 260.238 81.8164 260.734 82.3633C261.234 82.9102 261.484 83.6855 261.484 84.6895V85.3809H257.447C257.502 85.7949 257.666 86.127 257.939 86.377C258.217 86.627 258.566 86.752 258.988 86.752C259.641 86.752 260.15 86.5156 260.518 86.043L261.35 86.9746C261.096 87.334 260.752 87.6152 260.318 87.8184C259.885 88.0176 259.404 88.1172 258.877 88.1172ZM258.684 82.9141C258.348 82.9141 258.074 83.0273 257.863 83.2539C257.656 83.4805 257.523 83.8047 257.465 84.2266H259.82V84.0918C259.812 83.7168 259.711 83.4277 259.516 83.2246C259.32 83.0176 259.043 82.9141 258.684 82.9141ZM265.088 86.752C265.4 86.752 265.654 86.666 265.85 86.4941C266.045 86.3223 266.146 86.0938 266.154 85.8086H267.742C267.738 86.2383 267.621 86.6328 267.391 86.9922C267.16 87.3477 266.844 87.625 266.441 87.8242C266.043 88.0195 265.602 88.1172 265.117 88.1172C264.211 88.1172 263.496 87.8301 262.973 87.2559C262.449 86.6777 262.188 85.8809 262.188 84.8652V84.7539C262.188 83.7773 262.447 82.998 262.967 82.416C263.486 81.834 264.199 81.543 265.105 81.543C265.898 81.543 266.533 81.7695 267.01 82.2227C267.49 82.6719 267.734 83.2715 267.742 84.0215H266.154C266.146 83.6934 266.045 83.4277 265.85 83.2246C265.654 83.0176 265.396 82.9141 265.076 82.9141C264.682 82.9141 264.383 83.0586 264.18 83.3477C263.98 83.6328 263.881 84.0977 263.881 84.7422V84.918C263.881 85.5703 263.98 86.0391 264.18 86.3242C264.379 86.6094 264.682 86.752 265.088 86.752ZM270.736 80.1016V81.6602H271.82V82.9023H270.736V86.0664C270.736 86.3008 270.781 86.4688 270.871 86.5703C270.961 86.6719 271.133 86.7227 271.387 86.7227C271.574 86.7227 271.74 86.709 271.885 86.6816V87.9648C271.553 88.0664 271.211 88.1172 270.859 88.1172C269.672 88.1172 269.066 87.5176 269.043 86.3184V82.9023H268.117V81.6602H269.043V80.1016H270.736ZM274.551 88H272.852V81.6602H274.551V88ZM272.752 80.0195C272.752 79.7656 272.836 79.5566 273.004 79.3926C273.176 79.2285 273.408 79.1465 273.701 79.1465C273.99 79.1465 274.221 79.2285 274.393 79.3926C274.564 79.5566 274.65 79.7656 274.65 80.0195C274.65 80.2773 274.562 80.4883 274.387 80.6523C274.215 80.8164 273.986 80.8984 273.701 80.8984C273.416 80.8984 273.186 80.8164 273.01 80.6523C272.838 80.4883 272.752 80.2773 272.752 80.0195ZM275.688 84.7715C275.688 84.1426 275.809 83.582 276.051 83.0898C276.293 82.5977 276.641 82.2168 277.094 81.9473C277.551 81.6777 278.08 81.543 278.682 81.543C279.537 81.543 280.234 81.8047 280.773 82.3281C281.316 82.8516 281.619 83.5625 281.682 84.4609L281.693 84.8945C281.693 85.8672 281.422 86.6484 280.879 87.2383C280.336 87.8242 279.607 88.1172 278.693 88.1172C277.779 88.1172 277.049 87.8242 276.502 87.2383C275.959 86.6523 275.688 85.8555 275.688 84.8477V84.7715ZM277.381 84.8945C277.381 85.4961 277.494 85.957 277.721 86.2773C277.947 86.5938 278.271 86.752 278.693 86.752C279.104 86.752 279.424 86.5957 279.654 86.2832C279.885 85.9668 280 85.4629 280 84.7715C280 84.1816 279.885 83.7246 279.654 83.4004C279.424 83.0762 279.1 82.9141 278.682 82.9141C278.268 82.9141 277.947 83.0762 277.721 83.4004C277.494 83.7207 277.381 84.2188 277.381 84.8945ZM284.295 81.6602L284.348 82.3926C284.801 81.8262 285.408 81.543 286.17 81.543C286.842 81.543 287.342 81.7402 287.67 82.1348C287.998 82.5293 288.166 83.1191 288.174 83.9043V88H286.48V83.9453C286.48 83.5859 286.402 83.3262 286.246 83.166C286.09 83.002 285.83 82.9199 285.467 82.9199C284.99 82.9199 284.633 83.123 284.395 83.5293V88H282.701V81.6602H284.295ZM293.506 88H291.812V81.4727L289.791 82.0996V80.7227L293.324 79.457H293.506V88Z" fill="black"/>
<rect x="387.5" y="60.5" width="100" height="43.8525" rx="9.5" fill="white" stroke="#4288F1"/>
<path d="M413.317 88V79.4688H416.305C417.34 79.4688 418.125 79.668 418.66 80.0664C419.196 80.4609 419.463 81.041 419.463 81.8066C419.463 82.2246 419.356 82.5938 419.141 82.9141C418.926 83.2305 418.627 83.4629 418.244 83.6113C418.682 83.7207 419.026 83.9414 419.276 84.2734C419.53 84.6055 419.656 85.0117 419.656 85.4922C419.656 86.3125 419.395 86.9336 418.871 87.3555C418.348 87.7773 417.602 87.9922 416.633 88H413.317ZM415.074 84.2852V86.5879H416.58C416.994 86.5879 417.317 86.4902 417.547 86.2949C417.781 86.0957 417.899 85.8223 417.899 85.4746C417.899 84.6934 417.494 84.2969 416.686 84.2852H415.074ZM415.074 83.043H416.375C417.262 83.0273 417.705 82.6738 417.705 81.9824C417.705 81.5957 417.592 81.3184 417.365 81.1504C417.143 80.9785 416.789 80.8926 416.305 80.8926H415.074V83.043ZM424.432 83.248C424.201 83.2168 423.998 83.2012 423.822 83.2012C423.182 83.2012 422.762 83.418 422.563 83.8516V88H420.869V81.6602H422.469L422.516 82.416C422.856 81.834 423.326 81.543 423.928 81.543C424.115 81.543 424.291 81.5684 424.455 81.6191L424.432 83.248ZM427.039 88H425.34V81.6602H427.039V88ZM425.24 80.0195C425.24 79.7656 425.324 79.5566 425.492 79.3926C425.664 79.2285 425.897 79.1465 426.19 79.1465C426.479 79.1465 426.709 79.2285 426.881 79.3926C427.053 79.5566 427.139 79.7656 427.139 80.0195C427.139 80.2773 427.051 80.4883 426.875 80.6523C426.703 80.8164 426.475 80.8984 426.19 80.8984C425.905 80.8984 425.674 80.8164 425.498 80.6523C425.326 80.4883 425.24 80.2773 425.24 80.0195ZM428.176 84.7832C428.176 83.7949 428.397 83.0078 428.838 82.4219C429.283 81.8359 429.891 81.543 430.66 81.543C431.278 81.543 431.787 81.7734 432.19 82.2344V79H433.889V88H432.36L432.278 87.3262C431.856 87.8535 431.313 88.1172 430.649 88.1172C429.903 88.1172 429.303 87.8242 428.85 87.2383C428.401 86.6484 428.176 85.8301 428.176 84.7832ZM429.869 84.9062C429.869 85.5 429.973 85.9551 430.18 86.2715C430.387 86.5879 430.688 86.7461 431.082 86.7461C431.606 86.7461 431.975 86.5254 432.19 86.084V83.582C431.979 83.1406 431.613 82.9199 431.094 82.9199C430.278 82.9199 429.869 83.582 429.869 84.9062ZM434.955 84.7832C434.955 83.8105 435.186 83.0273 435.647 82.4336C436.112 81.8398 436.737 81.543 437.522 81.543C438.217 81.543 438.758 81.7812 439.145 82.2578L439.215 81.6602H440.75V87.7891C440.75 88.3438 440.623 88.8262 440.369 89.2363C440.119 89.6465 439.766 89.959 439.309 90.1738C438.852 90.3887 438.317 90.4961 437.703 90.4961C437.238 90.4961 436.785 90.4023 436.344 90.2148C435.903 90.0312 435.569 89.793 435.342 89.5L436.092 88.4688C436.514 88.9414 437.026 89.1777 437.627 89.1777C438.076 89.1777 438.426 89.0566 438.676 88.8145C438.926 88.5762 439.051 88.2363 439.051 87.7949V87.4551C438.66 87.8965 438.147 88.1172 437.51 88.1172C436.748 88.1172 436.131 87.8203 435.658 87.2266C435.19 86.6289 434.955 85.8379 434.955 84.8535V84.7832ZM436.649 84.9062C436.649 85.4805 436.764 85.9316 436.994 86.2598C437.225 86.584 437.541 86.7461 437.944 86.7461C438.459 86.7461 438.828 86.5527 439.051 86.166V83.5C438.824 83.1133 438.459 82.9199 437.955 82.9199C437.549 82.9199 437.229 83.0859 436.994 83.418C436.764 83.75 436.649 84.2461 436.649 84.9062ZM444.975 88.1172C444.045 88.1172 443.287 87.832 442.701 87.2617C442.119 86.6914 441.828 85.9316 441.828 84.9824V84.8184C441.828 84.1816 441.951 83.6133 442.197 83.1133C442.444 82.6094 442.791 82.2227 443.24 81.9531C443.694 81.6797 444.209 81.543 444.787 81.543C445.655 81.543 446.336 81.8164 446.832 82.3633C447.332 82.9102 447.582 83.6855 447.582 84.6895V85.3809H443.545C443.6 85.7949 443.764 86.127 444.037 86.377C444.315 86.627 444.664 86.752 445.086 86.752C445.738 86.752 446.248 86.5156 446.615 86.043L447.447 86.9746C447.194 87.334 446.85 87.6152 446.416 87.8184C445.983 88.0176 445.502 88.1172 444.975 88.1172ZM444.781 82.9141C444.446 82.9141 444.172 83.0273 443.961 83.2539C443.754 83.4805 443.621 83.8047 443.563 84.2266H445.918V84.0918C445.91 83.7168 445.809 83.4277 445.613 83.2246C445.418 83.0176 445.141 82.9141 444.781 82.9141ZM453.406 86.5879H457.139V88H451.649V79.4688H453.406V86.5879ZM463.819 88H457.971V86.8398L460.731 83.8984C461.11 83.4844 461.389 83.123 461.569 82.8145C461.752 82.5059 461.844 82.2129 461.844 81.9355C461.844 81.5566 461.748 81.2598 461.557 81.0449C461.365 80.8262 461.092 80.7168 460.737 80.7168C460.354 80.7168 460.051 80.8496 459.828 81.1152C459.61 81.377 459.5 81.7227 459.5 82.1523H457.801C457.801 81.6328 457.924 81.1582 458.17 80.7285C458.42 80.2988 458.772 79.9629 459.225 79.7207C459.678 79.4746 460.192 79.3516 460.766 79.3516C461.645 79.3516 462.326 79.5625 462.811 79.9844C463.299 80.4062 463.543 81.002 463.543 81.7715C463.543 82.1934 463.434 82.623 463.215 83.0605C462.996 83.498 462.621 84.0078 462.09 84.5898L460.151 86.6348H463.819V88Z" fill="black"/>
<rect x="41.5" y="60.5" width="100" height="43.8525" rx="9.5" fill="white" stroke="#4288F1"/>
<path d="M70.0002 84.5137H66.6252V88H64.8674V79.4688H70.4221V80.8926H66.6252V83.0957H70.0002V84.5137ZM74.8049 88C74.7268 87.8477 74.6701 87.6582 74.635 87.4316C74.2248 87.8887 73.6916 88.1172 73.0354 88.1172C72.4143 88.1172 71.8987 87.9375 71.4885 87.5781C71.0822 87.2188 70.8791 86.7656 70.8791 86.2188C70.8791 85.5469 71.1272 85.0312 71.6233 84.6719C72.1233 84.3125 72.844 84.1309 73.7854 84.127H74.5647V83.7637C74.5647 83.4707 74.4885 83.2363 74.3362 83.0605C74.1877 82.8848 73.9514 82.7969 73.6272 82.7969C73.342 82.7969 73.1174 82.8652 72.9533 83.002C72.7932 83.1387 72.7131 83.3262 72.7131 83.5645H71.0197C71.0197 83.1973 71.133 82.8574 71.3596 82.5449C71.5862 82.2324 71.9065 81.9883 72.3205 81.8125C72.7346 81.6328 73.1994 81.543 73.7151 81.543C74.4963 81.543 75.1154 81.7402 75.5725 82.1348C76.0334 82.5254 76.2639 83.0762 76.2639 83.7871V86.5352C76.2678 87.1367 76.3518 87.5918 76.5158 87.9004V88H74.8049ZM73.4045 86.8223C73.6545 86.8223 73.885 86.7676 74.0959 86.6582C74.3069 86.5449 74.4631 86.3945 74.5647 86.207V85.1172H73.9319C73.0842 85.1172 72.633 85.4102 72.5783 85.9961L72.5725 86.0957C72.5725 86.3066 72.6467 86.4805 72.7951 86.6172C72.9436 86.7539 73.1467 86.8223 73.4045 86.8223ZM80.2014 86.752C80.5139 86.752 80.7678 86.666 80.9631 86.4941C81.1584 86.3223 81.26 86.0938 81.2678 85.8086H82.8557C82.8518 86.2383 82.7346 86.6328 82.5041 86.9922C82.2737 87.3477 81.9572 87.625 81.5549 87.8242C81.1565 88.0195 80.7151 88.1172 80.2307 88.1172C79.3244 88.1172 78.6096 87.8301 78.0862 87.2559C77.5627 86.6777 77.301 85.8809 77.301 84.8652V84.7539C77.301 83.7773 77.5608 82.998 78.0803 82.416C78.5998 81.834 79.3127 81.543 80.219 81.543C81.0119 81.543 81.6467 81.7695 82.1233 82.2227C82.6037 82.6719 82.8479 83.2715 82.8557 84.0215H81.2678C81.26 83.6934 81.1584 83.4277 80.9631 83.2246C80.7678 83.0176 80.51 82.9141 80.1897 82.9141C79.7951 82.9141 79.4963 83.0586 79.2932 83.3477C79.094 83.6328 78.9944 84.0977 78.9944 84.7422V84.918C78.9944 85.5703 79.094 86.0391 79.2932 86.3242C79.4924 86.6094 79.7951 86.752 80.2014 86.752ZM85.8498 80.1016V81.6602H86.9338V82.9023H85.8498V86.0664C85.8498 86.3008 85.8947 86.4688 85.9846 86.5703C86.0744 86.6719 86.2463 86.7227 86.5002 86.7227C86.6877 86.7227 86.8537 86.709 86.9983 86.6816V87.9648C86.6662 88.0664 86.3244 88.1172 85.9729 88.1172C84.7854 88.1172 84.1799 87.5176 84.1565 86.3184V82.9023H83.2307V81.6602H84.1565V80.1016H85.8498ZM87.4377 84.7715C87.4377 84.1426 87.5588 83.582 87.801 83.0898C88.0432 82.5977 88.3908 82.2168 88.844 81.9473C89.301 81.6777 89.8303 81.543 90.4319 81.543C91.2873 81.543 91.9846 81.8047 92.5237 82.3281C93.0666 82.8516 93.3694 83.5625 93.4319 84.4609L93.4436 84.8945C93.4436 85.8672 93.1721 86.6484 92.6291 87.2383C92.0862 87.8242 91.3576 88.1172 90.4436 88.1172C89.5295 88.1172 88.799 87.8242 88.2522 87.2383C87.7092 86.6523 87.4377 85.8555 87.4377 84.8477V84.7715ZM89.1311 84.8945C89.1311 85.4961 89.2444 85.957 89.4709 86.2773C89.6975 86.5938 90.0217 86.752 90.4436 86.752C90.8537 86.752 91.174 86.5957 91.4045 86.2832C91.635 85.9668 91.7502 85.4629 91.7502 84.7715C91.7502 84.1816 91.635 83.7246 91.4045 83.4004C91.174 83.0762 90.8498 82.9141 90.4319 82.9141C90.0178 82.9141 89.6975 83.0762 89.4709 83.4004C89.2444 83.7207 89.1311 84.2188 89.1311 84.8945ZM98.049 83.248C97.8186 83.2168 97.6154 83.2012 97.4397 83.2012C96.799 83.2012 96.3791 83.418 96.1799 83.8516V88H94.4865V81.6602H96.0862L96.133 82.416C96.4729 81.834 96.9436 81.543 97.5451 81.543C97.7326 81.543 97.9084 81.5684 98.0725 81.6191L98.049 83.248ZM101.342 85.6035L102.514 81.6602H104.33L101.781 88.9844L101.641 89.3184C101.262 90.1465 100.637 90.5605 99.7658 90.5605C99.5197 90.5605 99.2697 90.5234 99.0158 90.4492V89.166L99.2737 89.1719C99.594 89.1719 99.8322 89.123 99.9885 89.0254C100.149 88.9277 100.274 88.7656 100.363 88.5391L100.563 88.0176L98.342 81.6602H100.164L101.342 85.6035ZM109.856 86.5879H113.588V88H108.098V79.4688H109.856V86.5879ZM120.268 88H114.42V86.8398L117.18 83.8984C117.559 83.4844 117.838 83.123 118.018 82.8145C118.201 82.5059 118.293 82.2129 118.293 81.9355C118.293 81.5566 118.197 81.2598 118.006 81.0449C117.815 80.8262 117.541 80.7168 117.186 80.7168C116.803 80.7168 116.5 80.8496 116.278 81.1152C116.059 81.377 115.949 81.7227 115.949 82.1523H114.25C114.25 81.6328 114.373 81.1582 114.619 80.7285C114.869 80.2988 115.221 79.9629 115.674 79.7207C116.127 79.4746 116.641 79.3516 117.215 79.3516C118.094 79.3516 118.776 79.5625 119.26 79.9844C119.748 80.4062 119.992 81.002 119.992 81.7715C119.992 82.1934 119.883 82.623 119.664 83.0605C119.446 83.498 119.071 84.0078 118.539 84.5898L116.6 86.6348H120.268V88Z" fill="black"/>
<rect x="221.5" y="115.5" width="86" height="32" rx="9.5" fill="white" stroke="#F18142"/>
<path d="M241.756 133.158C241.689 134.076 241.35 134.799 240.736 135.326C240.127 135.854 239.322 136.117 238.322 136.117C237.229 136.117 236.367 135.75 235.738 135.016C235.113 134.277 234.801 133.266 234.801 131.98V131.459C234.801 130.639 234.945 129.916 235.234 129.291C235.523 128.666 235.936 128.188 236.471 127.855C237.01 127.52 237.635 127.352 238.346 127.352C239.33 127.352 240.123 127.615 240.725 128.143C241.326 128.67 241.674 129.41 241.768 130.363H240.01C239.967 129.812 239.812 129.414 239.547 129.168C239.285 128.918 238.885 128.793 238.346 128.793C237.76 128.793 237.32 129.004 237.027 129.426C236.738 129.844 236.59 130.494 236.582 131.377V132.021C236.582 132.943 236.721 133.617 236.998 134.043C237.279 134.469 237.721 134.682 238.322 134.682C238.865 134.682 239.27 134.559 239.535 134.312C239.805 134.062 239.959 133.678 239.998 133.158H241.756ZM242.535 132.771C242.535 132.143 242.656 131.582 242.898 131.09C243.141 130.598 243.488 130.217 243.941 129.947C244.398 129.678 244.928 129.543 245.529 129.543C246.385 129.543 247.082 129.805 247.621 130.328C248.164 130.852 248.467 131.562 248.529 132.461L248.541 132.895C248.541 133.867 248.27 134.648 247.727 135.238C247.184 135.824 246.455 136.117 245.541 136.117C244.627 136.117 243.896 135.824 243.35 135.238C242.807 134.652 242.535 133.855 242.535 132.848V132.771ZM244.229 132.895C244.229 133.496 244.342 133.957 244.568 134.277C244.795 134.594 245.119 134.752 245.541 134.752C245.951 134.752 246.271 134.596 246.502 134.283C246.732 133.967 246.848 133.463 246.848 132.771C246.848 132.182 246.732 131.725 246.502 131.4C246.271 131.076 245.947 130.914 245.529 130.914C245.115 130.914 244.795 131.076 244.568 131.4C244.342 131.721 244.229 132.219 244.229 132.895ZM251.371 136H249.672V127H251.371V136ZM254.559 136H252.859V127H254.559V136ZM258.877 136.117C257.947 136.117 257.189 135.832 256.604 135.262C256.021 134.691 255.73 133.932 255.73 132.982V132.818C255.73 132.182 255.854 131.613 256.1 131.113C256.346 130.609 256.693 130.223 257.143 129.953C257.596 129.68 258.111 129.543 258.689 129.543C259.557 129.543 260.238 129.816 260.734 130.363C261.234 130.91 261.484 131.686 261.484 132.689V133.381H257.447C257.502 133.795 257.666 134.127 257.939 134.377C258.217 134.627 258.566 134.752 258.988 134.752C259.641 134.752 260.15 134.516 260.518 134.043L261.35 134.975C261.096 135.334 260.752 135.615 260.318 135.818C259.885 136.018 259.404 136.117 258.877 136.117ZM258.684 130.914C258.348 130.914 258.074 131.027 257.863 131.254C257.656 131.48 257.523 131.805 257.465 132.227H259.82V132.092C259.812 131.717 259.711 131.428 259.516 131.225C259.32 131.018 259.043 130.914 258.684 130.914ZM265.088 134.752C265.4 134.752 265.654 134.666 265.85 134.494C266.045 134.322 266.146 134.094 266.154 133.809H267.742C267.738 134.238 267.621 134.633 267.391 134.992C267.16 135.348 266.844 135.625 266.441 135.824C266.043 136.02 265.602 136.117 265.117 136.117C264.211 136.117 263.496 135.83 262.973 135.256C262.449 134.678 262.188 133.881 262.188 132.865V132.754C262.188 131.777 262.447 130.998 262.967 130.416C263.486 129.834 264.199 129.543 265.105 129.543C265.898 129.543 266.533 129.77 267.01 130.223C267.49 130.672 267.734 131.271 267.742 132.021H266.154C266.146 131.693 266.045 131.428 265.85 131.225C265.654 131.018 265.396 130.914 265.076 130.914C264.682 130.914 264.383 131.059 264.18 131.348C263.98 131.633 263.881 132.098 263.881 132.742V132.918C263.881 133.57 263.98 134.039 264.18 134.324C264.379 134.609 264.682 134.752 265.088 134.752ZM270.736 128.102V129.66H271.82V130.902H270.736V134.066C270.736 134.301 270.781 134.469 270.871 134.57C270.961 134.672 271.133 134.723 271.387 134.723C271.574 134.723 271.74 134.709 271.885 134.682V135.965C271.553 136.066 271.211 136.117 270.859 136.117C269.672 136.117 269.066 135.518 269.043 134.318V130.902H268.117V129.66H269.043V128.102H270.736ZM274.551 136H272.852V129.66H274.551V136ZM272.752 128.02C272.752 127.766 272.836 127.557 273.004 127.393C273.176 127.229 273.408 127.146 273.701 127.146C273.99 127.146 274.221 127.229 274.393 127.393C274.564 127.557 274.65 127.766 274.65 128.02C274.65 128.277 274.562 128.488 274.387 128.652C274.215 128.816 273.986 128.898 273.701 128.898C273.416 128.898 273.186 128.816 273.01 128.652C272.838 128.488 272.752 128.277 272.752 128.02ZM275.688 132.771C275.688 132.143 275.809 131.582 276.051 131.09C276.293 130.598 276.641 130.217 277.094 129.947C277.551 129.678 278.08 129.543 278.682 129.543C279.537 129.543 280.234 129.805 280.773 130.328C281.316 130.852 281.619 131.562 281.682 132.461L281.693 132.895C281.693 133.867 281.422 134.648 280.879 135.238C280.336 135.824 279.607 136.117 278.693 136.117C277.779 136.117 277.049 135.824 276.502 135.238C275.959 134.652 275.688 133.855 275.688 132.848V132.771ZM277.381 132.895C277.381 133.496 277.494 133.957 277.721 134.277C277.947 134.594 278.271 134.752 278.693 134.752C279.104 134.752 279.424 134.596 279.654 134.283C279.885 133.967 280 133.463 280 132.771C280 132.182 279.885 131.725 279.654 131.4C279.424 131.076 279.1 130.914 278.682 130.914C278.268 130.914 277.947 131.076 277.721 131.4C277.494 131.721 277.381 132.219 277.381 132.895ZM284.295 129.66L284.348 130.393C284.801 129.826 285.408 129.543 286.17 129.543C286.842 129.543 287.342 129.74 287.67 130.135C287.998 130.529 288.166 131.119 288.174 131.904V136H286.48V131.945C286.48 131.586 286.402 131.326 286.246 131.166C286.09 131.002 285.83 130.92 285.467 130.92C284.99 130.92 284.633 131.123 284.395 131.529V136H282.701V129.66H284.295ZM295.24 136H289.393V134.84L292.152 131.898C292.531 131.484 292.811 131.123 292.99 130.814C293.174 130.506 293.266 130.213 293.266 129.936C293.266 129.557 293.17 129.26 292.979 129.045C292.787 128.826 292.514 128.717 292.158 128.717C291.775 128.717 291.473 128.85 291.25 129.115C291.031 129.377 290.922 129.723 290.922 130.152H289.223C289.223 129.633 289.346 129.158 289.592 128.729C289.842 128.299 290.193 127.963 290.646 127.721C291.1 127.475 291.613 127.352 292.188 127.352C293.066 127.352 293.748 127.562 294.232 127.984C294.721 128.406 294.965 129.002 294.965 129.771C294.965 130.193 294.855 130.623 294.637 131.061C294.418 131.498 294.043 132.008 293.512 132.59L291.572 134.635H295.24V136Z" fill="black"/>
<rect x="221.5" y="163.5" width="86" height="32" rx="9.5" fill="white" stroke="#F18142"/>
<path d="M241.756 181.158C241.689 182.076 241.35 182.799 240.736 183.326C240.127 183.854 239.322 184.117 238.322 184.117C237.229 184.117 236.367 183.75 235.738 183.016C235.113 182.277 234.801 181.266 234.801 179.98V179.459C234.801 178.639 234.945 177.916 235.234 177.291C235.523 176.666 235.936 176.188 236.471 175.855C237.01 175.52 237.635 175.352 238.346 175.352C239.33 175.352 240.123 175.615 240.725 176.143C241.326 176.67 241.674 177.41 241.768 178.363H240.01C239.967 177.812 239.812 177.414 239.547 177.168C239.285 176.918 238.885 176.793 238.346 176.793C237.76 176.793 237.32 177.004 237.027 177.426C236.738 177.844 236.59 178.494 236.582 179.377V180.021C236.582 180.943 236.721 181.617 236.998 182.043C237.279 182.469 237.721 182.682 238.322 182.682C238.865 182.682 239.27 182.559 239.535 182.312C239.805 182.062 239.959 181.678 239.998 181.158H241.756ZM242.535 180.771C242.535 180.143 242.656 179.582 242.898 179.09C243.141 178.598 243.488 178.217 243.941 177.947C244.398 177.678 244.928 177.543 245.529 177.543C246.385 177.543 247.082 177.805 247.621 178.328C248.164 178.852 248.467 179.562 248.529 180.461L248.541 180.895C248.541 181.867 248.27 182.648 247.727 183.238C247.184 183.824 246.455 184.117 245.541 184.117C244.627 184.117 243.896 183.824 243.35 183.238C242.807 182.652 242.535 181.855 242.535 180.848V180.771ZM244.229 180.895C244.229 181.496 244.342 181.957 244.568 182.277C244.795 182.594 245.119 182.752 245.541 182.752C245.951 182.752 246.271 182.596 246.502 182.283C246.732 181.967 246.848 181.463 246.848 180.771C246.848 180.182 246.732 179.725 246.502 179.4C246.271 179.076 245.947 178.914 245.529 178.914C245.115 178.914 244.795 179.076 244.568 179.4C244.342 179.721 244.229 180.219 244.229 180.895ZM251.371 184H249.672V175H251.371V184ZM254.559 184H252.859V175H254.559V184ZM258.877 184.117C257.947 184.117 257.189 183.832 256.604 183.262C256.021 182.691 255.73 181.932 255.73 180.982V180.818C255.73 180.182 255.854 179.613 256.1 179.113C256.346 178.609 256.693 178.223 257.143 177.953C257.596 177.68 258.111 177.543 258.689 177.543C259.557 177.543 260.238 177.816 260.734 178.363C261.234 178.91 261.484 179.686 261.484 180.689V181.381H257.447C257.502 181.795 257.666 182.127 257.939 182.377C258.217 182.627 258.566 182.752 258.988 182.752C259.641 182.752 260.15 182.516 260.518 182.043L261.35 182.975C261.096 183.334 260.752 183.615 260.318 183.818C259.885 184.018 259.404 184.117 258.877 184.117ZM258.684 178.914C258.348 178.914 258.074 179.027 257.863 179.254C257.656 179.48 257.523 179.805 257.465 180.227H259.82V180.092C259.812 179.717 259.711 179.428 259.516 179.225C259.32 179.018 259.043 178.914 258.684 178.914ZM265.088 182.752C265.4 182.752 265.654 182.666 265.85 182.494C266.045 182.322 266.146 182.094 266.154 181.809H267.742C267.738 182.238 267.621 182.633 267.391 182.992C267.16 183.348 266.844 183.625 266.441 183.824C266.043 184.02 265.602 184.117 265.117 184.117C264.211 184.117 263.496 183.83 262.973 183.256C262.449 182.678 262.188 181.881 262.188 180.865V180.754C262.188 179.777 262.447 178.998 262.967 178.416C263.486 177.834 264.199 177.543 265.105 177.543C265.898 177.543 266.533 177.77 267.01 178.223C267.49 178.672 267.734 179.271 267.742 180.021H266.154C266.146 179.693 266.045 179.428 265.85 179.225C265.654 179.018 265.396 178.914 265.076 178.914C264.682 178.914 264.383 179.059 264.18 179.348C263.98 179.633 263.881 180.098 263.881 180.742V180.918C263.881 181.57 263.98 182.039 264.18 182.324C264.379 182.609 264.682 182.752 265.088 182.752ZM270.736 176.102V177.66H271.82V178.902H270.736V182.066C270.736 182.301 270.781 182.469 270.871 182.57C270.961 182.672 271.133 182.723 271.387 182.723C271.574 182.723 271.74 182.709 271.885 182.682V183.965C271.553 184.066 271.211 184.117 270.859 184.117C269.672 184.117 269.066 183.518 269.043 182.318V178.902H268.117V177.66H269.043V176.102H270.736ZM274.551 184H272.852V177.66H274.551V184ZM272.752 176.02C272.752 175.766 272.836 175.557 273.004 175.393C273.176 175.229 273.408 175.146 273.701 175.146C273.99 175.146 274.221 175.229 274.393 175.393C274.564 175.557 274.65 175.766 274.65 176.02C274.65 176.277 274.562 176.488 274.387 176.652C274.215 176.816 273.986 176.898 273.701 176.898C273.416 176.898 273.186 176.816 273.01 176.652C272.838 176.488 272.752 176.277 272.752 176.02ZM275.688 180.771C275.688 180.143 275.809 179.582 276.051 179.09C276.293 178.598 276.641 178.217 277.094 177.947C277.551 177.678 278.08 177.543 278.682 177.543C279.537 177.543 280.234 177.805 280.773 178.328C281.316 178.852 281.619 179.562 281.682 180.461L281.693 180.895C281.693 181.867 281.422 182.648 280.879 183.238C280.336 183.824 279.607 184.117 278.693 184.117C277.779 184.117 277.049 183.824 276.502 183.238C275.959 182.652 275.688 181.855 275.688 180.848V180.771ZM277.381 180.895C277.381 181.496 277.494 181.957 277.721 182.277C277.947 182.594 278.271 182.752 278.693 182.752C279.104 182.752 279.424 182.596 279.654 182.283C279.885 181.967 280 181.463 280 180.771C280 180.182 279.885 179.725 279.654 179.4C279.424 179.076 279.1 178.914 278.682 178.914C278.268 178.914 277.947 179.076 277.721 179.4C277.494 179.721 277.381 180.219 277.381 180.895ZM284.295 177.66L284.348 178.393C284.801 177.826 285.408 177.543 286.17 177.543C286.842 177.543 287.342 177.74 287.67 178.135C287.998 178.529 288.166 179.119 288.174 179.904V184H286.48V179.945C286.48 179.586 286.402 179.326 286.246 179.166C286.09 179.002 285.83 178.92 285.467 178.92C284.99 178.92 284.633 179.123 284.395 179.529V184H282.701V177.66H284.295ZM291.115 178.984H292.018C292.447 178.984 292.766 178.877 292.973 178.662C293.18 178.447 293.283 178.162 293.283 177.807C293.283 177.463 293.18 177.195 292.973 177.004C292.77 176.812 292.488 176.717 292.129 176.717C291.805 176.717 291.533 176.807 291.314 176.986C291.096 177.162 290.986 177.393 290.986 177.678H289.293C289.293 177.232 289.412 176.834 289.65 176.482C289.893 176.127 290.229 175.85 290.658 175.65C291.092 175.451 291.568 175.352 292.088 175.352C292.99 175.352 293.697 175.568 294.209 176.002C294.721 176.432 294.977 177.025 294.977 177.783C294.977 178.174 294.857 178.533 294.619 178.861C294.381 179.189 294.068 179.441 293.682 179.617C294.162 179.789 294.52 180.047 294.754 180.391C294.992 180.734 295.111 181.141 295.111 181.609C295.111 182.367 294.834 182.975 294.279 183.432C293.729 183.889 292.998 184.117 292.088 184.117C291.236 184.117 290.539 183.893 289.996 183.443C289.457 182.994 289.188 182.4 289.188 181.662H290.881C290.881 181.982 291 182.244 291.238 182.447C291.48 182.65 291.777 182.752 292.129 182.752C292.531 182.752 292.846 182.646 293.072 182.436C293.303 182.221 293.418 181.938 293.418 181.586C293.418 180.734 292.949 180.309 292.012 180.309H291.115V178.984Z" fill="black"/>
<rect x="221.5" y="211.5" width="86" height="32" rx="9.5" fill="white" stroke="#F18142"/>
<path d="M241.756 229.158C241.689 230.076 241.35 230.799 240.736 231.326C240.127 231.854 239.322 232.117 238.322 232.117C237.229 232.117 236.367 231.75 235.738 231.016C235.113 230.277 234.801 229.266 234.801 227.98V227.459C234.801 226.639 234.945 225.916 235.234 225.291C235.523 224.666 235.936 224.188 236.471 223.855C237.01 223.52 237.635 223.352 238.346 223.352C239.33 223.352 240.123 223.615 240.725 224.143C241.326 224.67 241.674 225.41 241.768 226.363H240.01C239.967 225.812 239.812 225.414 239.547 225.168C239.285 224.918 238.885 224.793 238.346 224.793C237.76 224.793 237.32 225.004 237.027 225.426C236.738 225.844 236.59 226.494 236.582 227.377V228.021C236.582 228.943 236.721 229.617 236.998 230.043C237.279 230.469 237.721 230.682 238.322 230.682C238.865 230.682 239.27 230.559 239.535 230.312C239.805 230.062 239.959 229.678 239.998 229.158H241.756ZM242.535 228.771C242.535 228.143 242.656 227.582 242.898 227.09C243.141 226.598 243.488 226.217 243.941 225.947C244.398 225.678 244.928 225.543 245.529 225.543C246.385 225.543 247.082 225.805 247.621 226.328C248.164 226.852 248.467 227.562 248.529 228.461L248.541 228.895C248.541 229.867 248.27 230.648 247.727 231.238C247.184 231.824 246.455 232.117 245.541 232.117C244.627 232.117 243.896 231.824 243.35 231.238C242.807 230.652 242.535 229.855 242.535 228.848V228.771ZM244.229 228.895C244.229 229.496 244.342 229.957 244.568 230.277C244.795 230.594 245.119 230.752 245.541 230.752C245.951 230.752 246.271 230.596 246.502 230.283C246.732 229.967 246.848 229.463 246.848 228.771C246.848 228.182 246.732 227.725 246.502 227.4C246.271 227.076 245.947 226.914 245.529 226.914C245.115 226.914 244.795 227.076 244.568 227.4C244.342 227.721 244.229 228.219 244.229 228.895ZM251.371 232H249.672V223H251.371V232ZM254.559 232H252.859V223H254.559V232ZM258.877 232.117C257.947 232.117 257.189 231.832 256.604 231.262C256.021 230.691 255.73 229.932 255.73 228.982V228.818C255.73 228.182 255.854 227.613 256.1 227.113C256.346 226.609 256.693 226.223 257.143 225.953C257.596 225.68 258.111 225.543 258.689 225.543C259.557 225.543 260.238 225.816 260.734 226.363C261.234 226.91 261.484 227.686 261.484 228.689V229.381H257.447C257.502 229.795 257.666 230.127 257.939 230.377C258.217 230.627 258.566 230.752 258.988 230.752C259.641 230.752 260.15 230.516 260.518 230.043L261.35 230.975C261.096 231.334 260.752 231.615 260.318 231.818C259.885 232.018 259.404 232.117 258.877 232.117ZM258.684 226.914C258.348 226.914 258.074 227.027 257.863 227.254C257.656 227.48 257.523 227.805 257.465 228.227H259.82V228.092C259.812 227.717 259.711 227.428 259.516 227.225C259.32 227.018 259.043 226.914 258.684 226.914ZM265.088 230.752C265.4 230.752 265.654 230.666 265.85 230.494C266.045 230.322 266.146 230.094 266.154 229.809H267.742C267.738 230.238 267.621 230.633 267.391 230.992C267.16 231.348 266.844 231.625 266.441 231.824C266.043 232.02 265.602 232.117 265.117 232.117C264.211 232.117 263.496 231.83 262.973 231.256C262.449 230.678 262.188 229.881 262.188 228.865V228.754C262.188 227.777 262.447 226.998 262.967 226.416C263.486 225.834 264.199 225.543 265.105 225.543C265.898 225.543 266.533 225.77 267.01 226.223C267.49 226.672 267.734 227.271 267.742 228.021H266.154C266.146 227.693 266.045 227.428 265.85 227.225C265.654 227.018 265.396 226.914 265.076 226.914C264.682 226.914 264.383 227.059 264.18 227.348C263.98 227.633 263.881 228.098 263.881 228.742V228.918C263.881 229.57 263.98 230.039 264.18 230.324C264.379 230.609 264.682 230.752 265.088 230.752ZM270.736 224.102V225.66H271.82V226.902H270.736V230.066C270.736 230.301 270.781 230.469 270.871 230.57C270.961 230.672 271.133 230.723 271.387 230.723C271.574 230.723 271.74 230.709 271.885 230.682V231.965C271.553 232.066 271.211 232.117 270.859 232.117C269.672 232.117 269.066 231.518 269.043 230.318V226.902H268.117V225.66H269.043V224.102H270.736ZM274.551 232H272.852V225.66H274.551V232ZM272.752 224.02C272.752 223.766 272.836 223.557 273.004 223.393C273.176 223.229 273.408 223.146 273.701 223.146C273.99 223.146 274.221 223.229 274.393 223.393C274.564 223.557 274.65 223.766 274.65 224.02C274.65 224.277 274.562 224.488 274.387 224.652C274.215 224.816 273.986 224.898 273.701 224.898C273.416 224.898 273.186 224.816 273.01 224.652C272.838 224.488 272.752 224.277 272.752 224.02ZM275.688 228.771C275.688 228.143 275.809 227.582 276.051 227.09C276.293 226.598 276.641 226.217 277.094 225.947C277.551 225.678 278.08 225.543 278.682 225.543C279.537 225.543 280.234 225.805 280.773 226.328C281.316 226.852 281.619 227.562 281.682 228.461L281.693 228.895C281.693 229.867 281.422 230.648 280.879 231.238C280.336 231.824 279.607 232.117 278.693 232.117C277.779 232.117 277.049 231.824 276.502 231.238C275.959 230.652 275.688 229.855 275.688 228.848V228.771ZM277.381 228.895C277.381 229.496 277.494 229.957 277.721 230.277C277.947 230.594 278.271 230.752 278.693 230.752C279.104 230.752 279.424 230.596 279.654 230.283C279.885 229.967 280 229.463 280 228.771C280 228.182 279.885 227.725 279.654 227.4C279.424 227.076 279.1 226.914 278.682 226.914C278.268 226.914 277.947 227.076 277.721 227.4C277.494 227.721 277.381 228.219 277.381 228.895ZM284.295 225.66L284.348 226.393C284.801 225.826 285.408 225.543 286.17 225.543C286.842 225.543 287.342 225.74 287.67 226.135C287.998 226.529 288.166 227.119 288.174 227.904V232H286.48V227.945C286.48 227.586 286.402 227.326 286.246 227.166C286.09 227.002 285.83 226.92 285.467 226.92C284.99 226.92 284.633 227.123 284.395 227.529V232H282.701V225.66H284.295ZM294.402 228.789H295.369V230.154H294.402V232H292.709V230.154H289.211L289.135 229.088L292.691 223.469H294.402V228.789ZM290.822 228.789H292.709V225.777L292.598 225.971L290.822 228.789Z" fill="black"/>
<rect x="221.5" y="259.5" width="86" height="32" rx="9.5" fill="white" stroke="#F18142"/>
<path d="M241.756 277.158C241.689 278.076 241.35 278.799 240.736 279.326C240.127 279.854 239.322 280.117 238.322 280.117C237.229 280.117 236.367 279.75 235.738 279.016C235.113 278.277 234.801 277.266 234.801 275.98V275.459C234.801 274.639 234.945 273.916 235.234 273.291C235.523 272.666 235.936 272.188 236.471 271.855C237.01 271.52 237.635 271.352 238.346 271.352C239.33 271.352 240.123 271.615 240.725 272.143C241.326 272.67 241.674 273.41 241.768 274.363H240.01C239.967 273.812 239.812 273.414 239.547 273.168C239.285 272.918 238.885 272.793 238.346 272.793C237.76 272.793 237.32 273.004 237.027 273.426C236.738 273.844 236.59 274.494 236.582 275.377V276.021C236.582 276.943 236.721 277.617 236.998 278.043C237.279 278.469 237.721 278.682 238.322 278.682C238.865 278.682 239.27 278.559 239.535 278.312C239.805 278.062 239.959 277.678 239.998 277.158H241.756ZM242.535 276.771C242.535 276.143 242.656 275.582 242.898 275.09C243.141 274.598 243.488 274.217 243.941 273.947C244.398 273.678 244.928 273.543 245.529 273.543C246.385 273.543 247.082 273.805 247.621 274.328C248.164 274.852 248.467 275.562 248.529 276.461L248.541 276.895C248.541 277.867 248.27 278.648 247.727 279.238C247.184 279.824 246.455 280.117 245.541 280.117C244.627 280.117 243.896 279.824 243.35 279.238C242.807 278.652 242.535 277.855 242.535 276.848V276.771ZM244.229 276.895C244.229 277.496 244.342 277.957 244.568 278.277C244.795 278.594 245.119 278.752 245.541 278.752C245.951 278.752 246.271 278.596 246.502 278.283C246.732 277.967 246.848 277.463 246.848 276.771C246.848 276.182 246.732 275.725 246.502 275.4C246.271 275.076 245.947 274.914 245.529 274.914C245.115 274.914 244.795 275.076 244.568 275.4C244.342 275.721 244.229 276.219 244.229 276.895ZM251.371 280H249.672V271H251.371V280ZM254.559 280H252.859V271H254.559V280ZM258.877 280.117C257.947 280.117 257.189 279.832 256.604 279.262C256.021 278.691 255.73 277.932 255.73 276.982V276.818C255.73 276.182 255.854 275.613 256.1 275.113C256.346 274.609 256.693 274.223 257.143 273.953C257.596 273.68 258.111 273.543 258.689 273.543C259.557 273.543 260.238 273.816 260.734 274.363C261.234 274.91 261.484 275.686 261.484 276.689V277.381H257.447C257.502 277.795 257.666 278.127 257.939 278.377C258.217 278.627 258.566 278.752 258.988 278.752C259.641 278.752 260.15 278.516 260.518 278.043L261.35 278.975C261.096 279.334 260.752 279.615 260.318 279.818C259.885 280.018 259.404 280.117 258.877 280.117ZM258.684 274.914C258.348 274.914 258.074 275.027 257.863 275.254C257.656 275.48 257.523 275.805 257.465 276.227H259.82V276.092C259.812 275.717 259.711 275.428 259.516 275.225C259.32 275.018 259.043 274.914 258.684 274.914ZM265.088 278.752C265.4 278.752 265.654 278.666 265.85 278.494C266.045 278.322 266.146 278.094 266.154 277.809H267.742C267.738 278.238 267.621 278.633 267.391 278.992C267.16 279.348 266.844 279.625 266.441 279.824C266.043 280.02 265.602 280.117 265.117 280.117C264.211 280.117 263.496 279.83 262.973 279.256C262.449 278.678 262.188 277.881 262.188 276.865V276.754C262.188 275.777 262.447 274.998 262.967 274.416C263.486 273.834 264.199 273.543 265.105 273.543C265.898 273.543 266.533 273.77 267.01 274.223C267.49 274.672 267.734 275.271 267.742 276.021H266.154C266.146 275.693 266.045 275.428 265.85 275.225C265.654 275.018 265.396 274.914 265.076 274.914C264.682 274.914 264.383 275.059 264.18 275.348C263.98 275.633 263.881 276.098 263.881 276.742V276.918C263.881 277.57 263.98 278.039 264.18 278.324C264.379 278.609 264.682 278.752 265.088 278.752ZM270.736 272.102V273.66H271.82V274.902H270.736V278.066C270.736 278.301 270.781 278.469 270.871 278.57C270.961 278.672 271.133 278.723 271.387 278.723C271.574 278.723 271.74 278.709 271.885 278.682V279.965C271.553 280.066 271.211 280.117 270.859 280.117C269.672 280.117 269.066 279.518 269.043 278.318V274.902H268.117V273.66H269.043V272.102H270.736ZM274.551 280H272.852V273.66H274.551V280ZM272.752 272.02C272.752 271.766 272.836 271.557 273.004 271.393C273.176 271.229 273.408 271.146 273.701 271.146C273.99 271.146 274.221 271.229 274.393 271.393C274.564 271.557 274.65 271.766 274.65 272.02C274.65 272.277 274.562 272.488 274.387 272.652C274.215 272.816 273.986 272.898 273.701 272.898C273.416 272.898 273.186 272.816 273.01 272.652C272.838 272.488 272.752 272.277 272.752 272.02ZM275.688 276.771C275.688 276.143 275.809 275.582 276.051 275.09C276.293 274.598 276.641 274.217 277.094 273.947C277.551 273.678 278.08 273.543 278.682 273.543C279.537 273.543 280.234 273.805 280.773 274.328C281.316 274.852 281.619 275.562 281.682 276.461L281.693 276.895C281.693 277.867 281.422 278.648 280.879 279.238C280.336 279.824 279.607 280.117 278.693 280.117C277.779 280.117 277.049 279.824 276.502 279.238C275.959 278.652 275.688 277.855 275.688 276.848V276.771ZM277.381 276.895C277.381 277.496 277.494 277.957 277.721 278.277C277.947 278.594 278.271 278.752 278.693 278.752C279.104 278.752 279.424 278.596 279.654 278.283C279.885 277.967 280 277.463 280 276.771C280 276.182 279.885 275.725 279.654 275.4C279.424 275.076 279.1 274.914 278.682 274.914C278.268 274.914 277.947 275.076 277.721 275.4C277.494 275.721 277.381 276.219 277.381 276.895ZM284.295 273.66L284.348 274.393C284.801 273.826 285.408 273.543 286.17 273.543C286.842 273.543 287.342 273.74 287.67 274.135C287.998 274.529 288.166 275.119 288.174 275.904V280H286.48V275.945C286.48 275.586 286.402 275.326 286.246 275.166C286.09 275.002 285.83 274.92 285.467 274.92C284.99 274.92 284.633 275.123 284.395 275.529V280H282.701V273.66H284.295ZM289.645 275.805L290.137 271.469H294.918V272.881H291.525L291.314 274.715C291.717 274.5 292.145 274.393 292.598 274.393C293.41 274.393 294.047 274.645 294.508 275.148C294.969 275.652 295.199 276.357 295.199 277.264C295.199 277.814 295.082 278.309 294.848 278.746C294.617 279.18 294.285 279.518 293.852 279.76C293.418 279.998 292.906 280.117 292.316 280.117C291.801 280.117 291.322 280.014 290.881 279.807C290.439 279.596 290.09 279.301 289.832 278.922C289.578 278.543 289.443 278.111 289.428 277.627H291.104C291.139 277.982 291.262 278.26 291.473 278.459C291.688 278.654 291.967 278.752 292.311 278.752C292.693 278.752 292.988 278.615 293.195 278.342C293.402 278.064 293.506 277.674 293.506 277.17C293.506 276.686 293.387 276.314 293.148 276.057C292.91 275.799 292.572 275.67 292.135 275.67C291.732 275.67 291.406 275.775 291.156 275.986L290.992 276.139L289.645 275.805Z" fill="black"/>
<path d="M523.469 15.1758H530.934V18H519.953V0.9375H523.469V15.1758ZM544.293 18H532.598V15.6797L538.117 9.79688C538.875 8.96875 539.434 8.24609 539.793 7.62891C540.16 7.01172 540.344 6.42578 540.344 5.87109C540.344 5.11328 540.152 4.51953 539.77 4.08984C539.387 3.65234 538.84 3.43359 538.129 3.43359C537.363 3.43359 536.758 3.69922 536.312 4.23047C535.875 4.75391 535.656 5.44531 535.656 6.30469H532.258C532.258 5.26562 532.504 4.31641 532.996 3.45703C533.496 2.59766 534.199 1.92578 535.105 1.44141C536.012 0.949219 537.039 0.703125 538.188 0.703125C539.945 0.703125 541.309 1.125 542.277 1.96875C543.254 2.8125 543.742 4.00391 543.742 5.54297C543.742 6.38672 543.523 7.24609 543.086 8.12109C542.648 8.99609 541.898 10.0156 540.836 11.1797L536.957 15.2695H544.293V18ZM555.238 10.7578L561.918 13.1133V16.3945L551.828 12.1172V9.35156L561.918 5.07422V8.35547L555.238 10.7578ZM571.621 10.7227L564.812 8.34375V5.08594L575.02 9.36328V12.1172L564.812 16.4062V13.1367L571.621 10.7227ZM586.82 15.1758H594.285V18H583.305V0.9375H586.82V15.1758ZM604.176 18H600.789V4.94531L596.746 6.19922V3.44531L603.812 0.914062H604.176V18Z" fill="black"/>
<path d="M221 83.5L215.998 80.6168L216.002 86.3903L221 83.5ZM142 84.5C157.71 84.5 168.906 84.3864 179.888 84.2675C190.87 84.1486 201.638 84.0245 216.497 84.0032L216.496 83.0032C201.631 83.0245 190.859 83.1487 179.877 83.2676C168.896 83.3865 157.705 83.5 142 83.5V84.5Z" fill="black"/>
<circle cx="142" cy="84" r="1.5" fill="white" stroke="black"/>
<path d="M221 179.5L216.279 176.176L215.761 181.926L221 179.5ZM142 84.5C151.605 84.5 158.78 89.8835 164.728 98.2041C170.684 106.537 175.352 117.736 179.948 129.213C184.533 140.662 189.046 152.386 194.686 161.661C200.326 170.934 207.157 177.868 216.429 179.588L216.611 178.604C207.759 176.963 201.128 170.329 195.54 161.141C189.954 151.955 185.475 140.325 180.876 128.841C176.288 117.384 171.58 106.07 165.541 97.6226C159.494 89.1631 152.055 83.5 142 83.5V84.5Z" fill="black"/>
<circle cx="142" cy="84" r="1.5" fill="white" stroke="black"/>
<path d="M221 227.5L216.356 224.069L215.707 229.806L221 227.5ZM142 84.5C152.515 84.5 159.981 92.6006 165.88 105.248C171.769 117.874 175.996 134.826 180.125 152.131C184.246 169.409 188.268 187.035 193.749 200.917C199.215 214.762 206.21 225.096 216.409 227.48L216.637 226.506C206.976 224.248 200.141 214.387 194.679 200.55C189.231 186.751 185.227 169.209 181.097 151.899C176.974 134.617 172.726 117.561 166.786 104.826C160.857 92.1131 153.143 83.5 142 83.5V84.5Z" fill="black"/>
<circle cx="142" cy="84" r="1.5" fill="white" stroke="black"/>
<path d="M221 275.5L216.405 272.005L215.675 277.732L221 275.5ZM142 84.5C147.732 84.5 152.527 87.2094 156.632 92.059C160.747 96.9209 164.146 103.91 167.05 112.39C172.857 129.349 176.631 152.1 180.287 175.264C183.939 198.403 187.473 221.95 192.804 240.423C195.47 249.659 198.593 257.66 202.426 263.718C206.258 269.776 210.832 273.944 216.412 275.415L216.667 274.448C211.425 273.066 207.031 269.128 203.271 263.184C199.512 257.24 196.419 249.343 193.765 240.145C188.455 221.748 184.932 198.275 181.275 175.108C177.623 151.966 173.837 129.124 167.996 112.066C165.075 103.538 161.628 96.4132 157.395 91.413C153.153 86.4006 148.098 83.5 142 83.5V84.5Z" fill="black"/>
<circle cx="142" cy="84" r="1.5" fill="white" stroke="black"/>
<path d="M221 131.5L216.165 128.345L215.85 134.109L221 131.5ZM142 84.5C159.415 84.5 169.686 95.2192 179.795 106.582C189.861 117.898 199.783 129.889 216.447 131.751L216.558 130.757C200.345 128.946 190.677 117.31 180.542 105.917C170.448 94.5714 159.907 83.5 142 83.5V84.5Z" fill="black"/>
<circle cx="142" cy="84" r="1.5" fill="white" stroke="black"/>
<path d="M488 84L498.004 89.7661L497.996 78.2191L488 84ZM598 83.5L587.996 77.7339L588.004 89.2809L598 83.5ZM496.996 84.9934C515.304 84.966 529.157 84.858 543.008 84.75C556.858 84.642 570.706 84.534 589.007 84.5066L589.004 82.5066C570.696 82.534 556.843 82.642 542.992 82.75C529.142 82.858 515.294 82.966 496.993 82.9934L496.996 84.9934Z" fill="#FC2323"/>
<rect x="794.5" y="67.5" width="86" height="32" rx="9.5" fill="white" stroke="#F18142"/>
<path d="M818.201 85.1582C818.135 86.0762 817.795 86.7988 817.182 87.3262C816.572 87.8535 815.768 88.1172 814.768 88.1172C813.674 88.1172 812.812 87.75 812.184 87.0156C811.559 86.2773 811.246 85.2656 811.246 83.9805V83.459C811.246 82.6387 811.391 81.916 811.68 81.291C811.969 80.666 812.381 80.1875 812.916 79.8555C813.455 79.5195 814.08 79.3516 814.791 79.3516C815.775 79.3516 816.568 79.6152 817.17 80.1426C817.771 80.6699 818.119 81.4102 818.213 82.3633H816.455C816.412 81.8125 816.258 81.4141 815.992 81.168C815.73 80.918 815.33 80.793 814.791 80.793C814.205 80.793 813.766 81.0039 813.473 81.4258C813.184 81.8438 813.035 82.4941 813.027 83.377V84.0215C813.027 84.9434 813.166 85.6172 813.443 86.043C813.725 86.4688 814.166 86.6816 814.768 86.6816C815.311 86.6816 815.715 86.5586 815.98 86.3125C816.25 86.0625 816.404 85.6777 816.443 85.1582H818.201ZM818.98 84.7715C818.98 84.1426 819.102 83.582 819.344 83.0898C819.586 82.5977 819.934 82.2168 820.387 81.9473C820.844 81.6777 821.373 81.543 821.975 81.543C822.83 81.543 823.527 81.8047 824.066 82.3281C824.609 82.8516 824.912 83.5625 824.975 84.4609L824.986 84.8945C824.986 85.8672 824.715 86.6484 824.172 87.2383C823.629 87.8242 822.9 88.1172 821.986 88.1172C821.072 88.1172 820.342 87.8242 819.795 87.2383C819.252 86.6523 818.98 85.8555 818.98 84.8477V84.7715ZM820.674 84.8945C820.674 85.4961 820.787 85.957 821.014 86.2773C821.24 86.5938 821.564 86.752 821.986 86.752C822.396 86.752 822.717 86.5957 822.947 86.2832C823.178 85.9668 823.293 85.4629 823.293 84.7715C823.293 84.1816 823.178 83.7246 822.947 83.4004C822.717 83.0762 822.393 82.9141 821.975 82.9141C821.561 82.9141 821.24 83.0762 821.014 83.4004C820.787 83.7207 820.674 84.2188 820.674 84.8945ZM827.816 88H826.117V79H827.816V88ZM831.004 88H829.305V79H831.004V88ZM835.322 88.1172C834.393 88.1172 833.635 87.832 833.049 87.2617C832.467 86.6914 832.176 85.9316 832.176 84.9824V84.8184C832.176 84.1816 832.299 83.6133 832.545 83.1133C832.791 82.6094 833.139 82.2227 833.588 81.9531C834.041 81.6797 834.557 81.543 835.135 81.543C836.002 81.543 836.684 81.8164 837.18 82.3633C837.68 82.9102 837.93 83.6855 837.93 84.6895V85.3809H833.893C833.947 85.7949 834.111 86.127 834.385 86.377C834.662 86.627 835.012 86.752 835.434 86.752C836.086 86.752 836.596 86.5156 836.963 86.043L837.795 86.9746C837.541 87.334 837.197 87.6152 836.764 87.8184C836.33 88.0176 835.85 88.1172 835.322 88.1172ZM835.129 82.9141C834.793 82.9141 834.52 83.0273 834.309 83.2539C834.102 83.4805 833.969 83.8047 833.91 84.2266H836.266V84.0918C836.258 83.7168 836.156 83.4277 835.961 83.2246C835.766 83.0176 835.488 82.9141 835.129 82.9141ZM841.533 86.752C841.846 86.752 842.1 86.666 842.295 86.4941C842.49 86.3223 842.592 86.0938 842.6 85.8086H844.188C844.184 86.2383 844.066 86.6328 843.836 86.9922C843.605 87.3477 843.289 87.625 842.887 87.8242C842.488 88.0195 842.047 88.1172 841.562 88.1172C840.656 88.1172 839.941 87.8301 839.418 87.2559C838.895 86.6777 838.633 85.8809 838.633 84.8652V84.7539C838.633 83.7773 838.893 82.998 839.412 82.416C839.932 81.834 840.645 81.543 841.551 81.543C842.344 81.543 842.979 81.7695 843.455 82.2227C843.936 82.6719 844.18 83.2715 844.188 84.0215H842.6C842.592 83.6934 842.49 83.4277 842.295 83.2246C842.1 83.0176 841.842 82.9141 841.521 82.9141C841.127 82.9141 840.828 83.0586 840.625 83.3477C840.426 83.6328 840.326 84.0977 840.326 84.7422V84.918C840.326 85.5703 840.426 86.0391 840.625 86.3242C840.824 86.6094 841.127 86.752 841.533 86.752ZM847.182 80.1016V81.6602H848.266V82.9023H847.182V86.0664C847.182 86.3008 847.227 86.4688 847.316 86.5703C847.406 86.6719 847.578 86.7227 847.832 86.7227C848.02 86.7227 848.186 86.709 848.33 86.6816V87.9648C847.998 88.0664 847.656 88.1172 847.305 88.1172C846.117 88.1172 845.512 87.5176 845.488 86.3184V82.9023H844.562V81.6602H845.488V80.1016H847.182ZM850.996 88H849.297V81.6602H850.996V88ZM849.197 80.0195C849.197 79.7656 849.281 79.5566 849.449 79.3926C849.621 79.2285 849.854 79.1465 850.146 79.1465C850.436 79.1465 850.666 79.2285 850.838 79.3926C851.01 79.5566 851.096 79.7656 851.096 80.0195C851.096 80.2773 851.008 80.4883 850.832 80.6523C850.66 80.8164 850.432 80.8984 850.146 80.8984C849.861 80.8984 849.631 80.8164 849.455 80.6523C849.283 80.4883 849.197 80.2773 849.197 80.0195ZM852.133 84.7715C852.133 84.1426 852.254 83.582 852.496 83.0898C852.738 82.5977 853.086 82.2168 853.539 81.9473C853.996 81.6777 854.525 81.543 855.127 81.543C855.982 81.543 856.68 81.8047 857.219 82.3281C857.762 82.8516 858.064 83.5625 858.127 84.4609L858.139 84.8945C858.139 85.8672 857.867 86.6484 857.324 87.2383C856.781 87.8242 856.053 88.1172 855.139 88.1172C854.225 88.1172 853.494 87.8242 852.947 87.2383C852.404 86.6523 852.133 85.8555 852.133 84.8477V84.7715ZM853.826 84.8945C853.826 85.4961 853.939 85.957 854.166 86.2773C854.393 86.5938 854.717 86.752 855.139 86.752C855.549 86.752 855.869 86.5957 856.1 86.2832C856.33 85.9668 856.445 85.4629 856.445 84.7715C856.445 84.1816 856.33 83.7246 856.1 83.4004C855.869 83.0762 855.545 82.9141 855.127 82.9141C854.713 82.9141 854.393 83.0762 854.166 83.4004C853.939 83.7207 853.826 84.2188 853.826 84.8945ZM860.74 81.6602L860.793 82.3926C861.246 81.8262 861.854 81.543 862.615 81.543C863.287 81.543 863.787 81.7402 864.115 82.1348C864.443 82.5293 864.611 83.1191 864.619 83.9043V88H862.926V83.9453C862.926 83.5859 862.848 83.3262 862.691 83.166C862.535 83.002 862.275 82.9199 861.912 82.9199C861.436 82.9199 861.078 83.123 860.84 83.5293V88H859.146V81.6602H860.74Z" fill="black"/>
<rect x="598.5" y="61.5" width="110.786" height="41.0492" rx="9.5" fill="white" stroke="#54AD68"/>
<path d="M632.021 88V79.4688H635.01C636.045 79.4688 636.83 79.668 637.365 80.0664C637.9 80.4609 638.168 81.041 638.168 81.8066C638.168 82.2246 638.061 82.5938 637.846 82.9141C637.631 83.2305 637.332 83.4629 636.949 83.6113C637.387 83.7207 637.73 83.9414 637.98 84.2734C638.234 84.6055 638.361 85.0117 638.361 85.4922C638.361 86.3125 638.1 86.9336 637.576 87.3555C637.053 87.7773 636.307 87.9922 635.338 88H632.021ZM633.779 84.2852V86.5879H635.285C635.699 86.5879 636.021 86.4902 636.252 86.2949C636.486 86.0957 636.604 85.8223 636.604 85.4746C636.604 84.6934 636.199 84.2969 635.391 84.2852H633.779ZM633.779 83.043H635.08C635.967 83.0273 636.41 82.6738 636.41 81.9824C636.41 81.5957 636.297 81.3184 636.07 81.1504C635.848 80.9785 635.494 80.8926 635.01 80.8926H633.779V83.043ZM643.137 83.248C642.906 83.2168 642.703 83.2012 642.527 83.2012C641.887 83.2012 641.467 83.418 641.268 83.8516V88H639.574V81.6602H641.174L641.221 82.416C641.561 81.834 642.031 81.543 642.633 81.543C642.82 81.543 642.996 81.5684 643.16 81.6191L643.137 83.248ZM645.744 88H644.045V81.6602H645.744V88ZM643.945 80.0195C643.945 79.7656 644.029 79.5566 644.197 79.3926C644.369 79.2285 644.602 79.1465 644.895 79.1465C645.184 79.1465 645.414 79.2285 645.586 79.3926C645.758 79.5566 645.844 79.7656 645.844 80.0195C645.844 80.2773 645.756 80.4883 645.58 80.6523C645.408 80.8164 645.18 80.8984 644.895 80.8984C644.609 80.8984 644.379 80.8164 644.203 80.6523C644.031 80.4883 643.945 80.2773 643.945 80.0195ZM646.881 84.7832C646.881 83.7949 647.102 83.0078 647.543 82.4219C647.988 81.8359 648.596 81.543 649.365 81.543C649.982 81.543 650.492 81.7734 650.895 82.2344V79H652.594V88H651.064L650.982 87.3262C650.561 87.8535 650.018 88.1172 649.354 88.1172C648.607 88.1172 648.008 87.8242 647.555 87.2383C647.105 86.6484 646.881 85.8301 646.881 84.7832ZM648.574 84.9062C648.574 85.5 648.678 85.9551 648.885 86.2715C649.092 86.5879 649.393 86.7461 649.787 86.7461C650.311 86.7461 650.68 86.5254 650.895 86.084V83.582C650.684 83.1406 650.318 82.9199 649.799 82.9199C648.982 82.9199 648.574 83.582 648.574 84.9062ZM653.66 84.7832C653.66 83.8105 653.891 83.0273 654.352 82.4336C654.816 81.8398 655.441 81.543 656.227 81.543C656.922 81.543 657.463 81.7812 657.85 82.2578L657.92 81.6602H659.455V87.7891C659.455 88.3438 659.328 88.8262 659.074 89.2363C658.824 89.6465 658.471 89.959 658.014 90.1738C657.557 90.3887 657.021 90.4961 656.408 90.4961C655.943 90.4961 655.49 90.4023 655.049 90.2148C654.607 90.0312 654.273 89.793 654.047 89.5L654.797 88.4688C655.219 88.9414 655.73 89.1777 656.332 89.1777C656.781 89.1777 657.131 89.0566 657.381 88.8145C657.631 88.5762 657.756 88.2363 657.756 87.7949V87.4551C657.365 87.8965 656.852 88.1172 656.215 88.1172C655.453 88.1172 654.836 87.8203 654.363 87.2266C653.895 86.6289 653.66 85.8379 653.66 84.8535V84.7832ZM655.354 84.9062C655.354 85.4805 655.469 85.9316 655.699 86.2598C655.93 86.584 656.246 86.7461 656.648 86.7461C657.164 86.7461 657.533 86.5527 657.756 86.166V83.5C657.529 83.1133 657.164 82.9199 656.66 82.9199C656.254 82.9199 655.934 83.0859 655.699 83.418C655.469 83.75 655.354 84.2461 655.354 84.9062ZM663.68 88.1172C662.75 88.1172 661.992 87.832 661.406 87.2617C660.824 86.6914 660.533 85.9316 660.533 84.9824V84.8184C660.533 84.1816 660.656 83.6133 660.902 83.1133C661.148 82.6094 661.496 82.2227 661.945 81.9531C662.398 81.6797 662.914 81.543 663.492 81.543C664.359 81.543 665.041 81.8164 665.537 82.3633C666.037 82.9102 666.287 83.6855 666.287 84.6895V85.3809H662.25C662.305 85.7949 662.469 86.127 662.742 86.377C663.02 86.627 663.369 86.752 663.791 86.752C664.443 86.752 664.953 86.5156 665.32 86.043L666.152 86.9746C665.898 87.334 665.555 87.6152 665.121 87.8184C664.687 88.0176 664.207 88.1172 663.68 88.1172ZM663.486 82.9141C663.15 82.9141 662.877 83.0273 662.666 83.2539C662.459 83.4805 662.326 83.8047 662.268 84.2266H664.623V84.0918C664.615 83.7168 664.514 83.4277 664.318 83.2246C664.123 83.0176 663.846 82.9141 663.486 82.9141ZM672.111 86.5879H675.844V88H670.354V79.4688H672.111V86.5879ZM680.789 88H679.096V81.4727L677.074 82.0996V80.7227L680.607 79.457H680.789V88Z" fill="black"/>
<path d="M308 83.5L312.998 86.3903L313.002 80.6168L308 83.5ZM387 84L382.002 81.1097L381.998 86.8832L387 84ZM312.503 84.0032C326.632 84.0234 337.062 84.1367 347.495 84.25C357.927 84.3633 368.362 84.4766 382.496 84.4968L382.497 83.4968C368.368 83.4766 357.938 83.3633 347.505 83.25C337.073 83.1367 326.638 83.0234 312.504 83.0032L312.503 84.0032Z" fill="#113366"/>
<path d="M308 131.5L313.15 134.109L312.835 128.345L308 131.5ZM387 84L381.85 81.3905L382.165 87.1554L387 84ZM312.553 131.751C328.488 129.971 338.252 118.932 347.874 108.082C357.539 97.1836 367.062 86.474 382.558 84.7428L382.447 83.749C366.512 85.5292 356.748 96.568 347.126 107.418C337.461 118.316 327.938 129.026 312.442 130.757L312.553 131.751Z" fill="#113366"/>
<path d="M308 179.5L313.239 181.926L312.721 176.176L308 179.5ZM387 84L381.761 81.574L382.279 87.3242L387 84ZM312.571 179.588C321.477 177.936 328.13 171.474 333.638 162.751C339.146 154.029 343.566 142.953 347.964 131.935C352.372 120.894 356.758 109.912 362.207 101.283C367.656 92.6538 374.11 86.4724 382.611 84.8956L382.429 83.9124C373.523 85.5641 366.87 92.0263 361.362 100.749C355.854 109.471 351.434 120.547 347.036 131.565C342.628 142.606 338.242 153.588 332.793 162.217C327.344 170.846 320.89 177.028 312.389 178.604L312.571 179.588Z" fill="#113366"/>
<path d="M308 227.5L313.293 229.806L312.644 224.069L308 227.5ZM387 84L381.707 81.694L382.356 87.4309L387 84ZM312.591 227.48C322.425 225.181 329.279 215.492 334.653 202.402C340.042 189.28 344.02 172.546 347.986 155.866C351.959 139.162 355.919 122.512 361.272 109.477C366.637 96.4104 373.325 87.1702 382.637 84.9937L382.409 84.02C372.575 86.3186 365.721 96.0079 360.347 109.098C354.958 122.22 350.98 138.954 347.014 155.634C343.041 172.338 339.081 188.988 333.728 202.023C328.363 215.09 321.675 224.33 312.363 226.506L312.591 227.48Z" fill="#113366"/>
<path d="M308 275.5L313.325 277.732L312.595 272.005L308 275.5ZM387 84L381.675 81.7682L382.405 87.4955L387 84ZM312.588 275.415C317.985 273.992 322.441 270.047 326.194 264.309C329.947 258.572 333.028 250.998 335.665 242.227C340.938 224.686 344.469 202.232 347.994 179.828C351.522 157.401 355.043 135.023 360.293 117.561C362.917 108.83 365.965 101.36 369.643 95.738C373.321 90.1163 377.597 86.3883 382.667 85.0517L382.412 84.0847C377.015 85.5076 372.559 89.4532 368.806 95.1906C365.053 100.928 361.972 108.502 359.335 117.273C354.062 134.814 350.531 157.268 347.006 179.672C343.478 202.099 339.957 224.477 334.707 241.939C332.083 250.67 329.035 258.14 325.357 263.762C321.679 269.384 317.403 273.112 312.333 274.448L312.588 275.415Z" fill="#113366"/>
<path d="M712 83.5L717 86.3868V80.6132L712 83.5ZM794 83.5L789 80.6132V86.3868L794 83.5ZM716.498 84C716.556 84 716.613 84 716.671 84C716.728 84 716.786 84 716.843 84C716.9 84 716.958 84 717.015 84C717.072 84 717.129 84 717.187 84C717.244 84 717.301 84 717.358 84C717.415 84 717.472 84 717.528 84C717.585 84 717.642 84 717.699 84C717.756 84 717.812 84 717.869 84C717.926 84 717.982 84 718.039 84C718.095 84 718.152 84 718.208 84C718.265 84 718.321 84 718.377 84C718.434 84 718.49 84 718.546 84C718.602 84 718.659 84 718.715 84C718.771 84 718.827 84 718.883 84C718.939 84 718.995 84 719.051 84C719.106 84 719.162 84 719.218 84C719.274 84 719.329 84 719.385 84C719.441 84 719.496 84 719.552 84C719.607 84 719.663 84 719.718 84C719.774 84 719.829 84 719.884 84C719.94 84 719.995 84 720.05 84C720.105 84 720.161 84 720.216 84C720.271 84 720.326 84 720.381 84C720.436 84 720.491 84 720.546 84C720.6 84 720.655 84 720.71 84C720.765 84 720.82 84 720.874 84C720.929 84 720.984 84 721.038 84C721.093 84 721.147 84 721.202 84C721.256 84 721.311 84 721.365 84C721.419 84 721.474 84 721.528 84C721.582 84 721.636 84 721.69 84C721.745 84 721.799 84 721.853 84C721.907 84 721.961 84 722.015 84C722.069 84 722.123 84 722.176 84C722.23 84 722.284 84 722.338 84C722.391 84 722.445 84 722.499 84C722.552 84 722.606 84 722.66 84C722.713 84 722.767 84 722.82 84C722.873 84 722.927 84 722.98 84C723.034 84 723.087 84 723.14 84C723.193 84 723.246 84 723.3 84C723.353 84 723.406 84 723.459 84C723.512 84 723.565 84 723.618 84C723.671 84 723.724 84 723.777 84C723.829 84 723.882 84 723.935 84C723.988 84 724.04 84 724.093 84C724.146 84 724.198 84 724.251 84C724.303 84 724.356 84 724.408 84C724.461 84 724.513 84 724.566 84C724.618 84 724.67 84 724.722 84C724.775 84 724.827 84 724.879 84C724.931 84 724.983 84 725.036 84C725.088 84 725.14 84 725.192 84C725.244 84 725.296 84 725.347 84C725.399 84 725.451 84 725.503 84C725.555 84 725.607 84 725.658 84C725.71 84 725.762 84 725.813 84C725.865 84 725.916 84 725.968 84C726.019 84 726.071 84 726.122 84C726.174 84 726.225 84 726.276 84C726.328 84 726.379 84 726.43 84C726.482 84 726.533 84 726.584 84C726.635 84 726.686 84 726.737 84C726.788 84 726.839 84 726.89 84C726.941 84 726.992 84 727.043 84C727.094 84 727.145 84 727.196 84C727.247 84 727.297 84 727.348 84C727.399 84 727.449 84 727.5 84C727.551 84 727.601 84 727.652 84C727.702 84 727.753 84 727.803 84C727.854 84 727.904 84 727.955 84C728.005 84 728.055 84 728.106 84C728.156 84 728.206 84 728.256 84C728.307 84 728.357 84 728.407 84C728.457 84 728.507 84 728.557 84C728.607 84 728.657 84 728.707 84C728.757 84 728.807 84 728.857 84C728.907 84 728.957 84 729.006 84C729.056 84 729.106 84 729.156 84C729.205 84 729.255 84 729.305 84C729.354 84 729.404 84 729.453 84C729.503 84 729.552 84 729.602 84C729.651 84 729.701 84 729.75 84C729.8 84 729.849 84 729.898 84C729.948 84 729.997 84 730.046 84C730.095 84 730.145 84 730.194 84C730.243 84 730.292 84 730.341 84C730.39 84 730.439 84 730.488 84C730.537 84 730.586 84 730.635 84C730.684 84 730.733 84 730.782 84C730.83 84 730.879 84 730.928 84C730.977 84 731.026 84 731.074 84C731.123 84 731.172 84 731.22 84C731.269 84 731.317 84 731.366 84C731.414 84 731.463 84 731.511 84C731.56 84 731.608 84 731.657 84C731.705 84 731.753 84 731.802 84C731.85 84 731.898 84 731.947 84C731.995 84 732.043 84 732.091 84C732.139 84 732.188 84 732.236 84C732.284 84 732.332 84 732.38 84C732.428 84 732.476 84 732.524 84C732.572 84 732.62 84 732.668 84C732.715 84 732.763 84 732.811 84C732.859 84 732.907 84 732.955 84C733.002 84 733.05 84 733.098 84C733.145 84 733.193 84 733.241 84C733.288 84 733.336 84 733.383 84C733.431 84 733.478 84 733.526 84C733.573 84 733.621 84 733.668 84C733.716 84 733.763 84 733.81 84C733.858 84 733.905 84 733.952 84C733.999 84 734.047 84 734.094 84C734.141 84 734.188 84 734.235 84C734.283 84 734.33 84 734.377 84C734.424 84 734.471 84 734.518 84C734.565 84 734.612 84 734.659 84C734.706 84 734.753 84 734.8 84C734.846 84 734.893 84 734.94 84C734.987 84 735.034 84 735.08 84C735.127 84 735.174 84 735.221 84C735.267 84 735.314 84 735.361 84C735.407 84 735.454 84 735.5 84C735.547 84 735.594 84 735.64 84C735.687 84 735.733 84 735.78 84C735.826 84 735.872 84 735.919 84C735.965 84 736.012 84 736.058 84C736.104 84 736.151 84 736.197 84C736.243 84 736.289 84 736.336 84C736.382 84 736.428 84 736.474 84C736.52 84 736.566 84 736.612 84C736.659 84 736.705 84 736.751 84C736.797 84 736.843 84 736.889 84C736.935 84 736.981 84 737.027 84C737.072 84 737.118 84 737.164 84C737.21 84 737.256 84 737.302 84C737.348 84 737.393 84 737.439 84C737.485 84 737.531 84 737.576 84C737.622 84 737.668 84 737.713 84C737.759 84 737.805 84 737.85 84C737.896 84 737.941 84 737.987 84C738.032 84 738.078 84 738.124 84C738.169 84 738.214 84 738.26 84C738.305 84 738.351 84 738.396 84C738.442 84 738.487 84 738.532 84C738.578 84 738.623 84 738.668 84C738.713 84 738.759 84 738.804 84C738.849 84 738.894 84 738.94 84C738.985 84 739.03 84 739.075 84C739.12 84 739.165 84 739.21 84C739.255 84 739.301 84 739.346 84C739.391 84 739.436 84 739.481 84C739.526 84 739.571 84 739.616 84C739.66 84 739.705 84 739.75 84C739.795 84 739.84 84 739.885 84C739.93 84 739.975 84 740.019 84C740.064 84 740.109 84 740.154 84C740.198 84 740.243 84 740.288 84C740.333 84 740.377 84 740.422 84C740.467 84 740.511 84 740.556 84C740.601 84 740.645 84 740.69 84C740.734 84 740.779 84 740.823 84C740.868 84 740.912 84 740.957 84C741.001 84 741.046 84 741.09 84C741.135 84 741.179 84 741.224 84C741.268 84 741.312 84 741.357 84C741.401 84 741.445 84 741.49 84C741.534 84 741.578 84 741.623 84C741.667 84 741.711 84 741.756 84C741.8 84 741.844 84 741.888 84C741.932 84 741.977 84 742.021 84C742.065 84 742.109 84 742.153 84C742.197 84 742.241 84 742.285 84C742.33 84 742.374 84 742.418 84C742.462 84 742.506 84 742.55 84C742.594 84 742.638 84 742.682 84C742.726 84 742.77 84 742.814 84C742.858 84 742.901 84 742.945 84C742.989 84 743.033 84 743.077 84C743.121 84 743.165 84 743.209 84C743.252 84 743.296 84 743.34 84C743.384 84 743.428 84 743.471 84C743.515 84 743.559 84 743.603 84C743.646 84 743.69 84 743.734 84C743.777 84 743.821 84 743.865 84C743.908 84 743.952 84 743.996 84C744.039 84 744.083 84 744.127 84C744.17 84 744.214 84 744.257 84C744.301 84 744.344 84 744.388 84C744.431 84 744.475 84 744.519 84C744.562 84 744.605 84 744.649 84C744.692 84 744.736 84 744.779 84C744.823 84 744.866 84 744.91 84C744.953 84 744.996 84 745.04 84C745.083 84 745.127 84 745.17 84C745.213 84 745.257 84 745.3 84C745.343 84 745.387 84 745.43 84C745.473 84 745.517 84 745.56 84C745.603 84 745.646 84 745.69 84C745.733 84 745.776 84 745.819 84C745.863 84 745.906 84 745.949 84C745.992 84 746.035 84 746.078 84C746.122 84 746.165 84 746.208 84C746.251 84 746.294 84 746.337 84C746.38 84 746.424 84 746.467 84C746.51 84 746.553 84 746.596 84C746.639 84 746.682 84 746.725 84C746.768 84 746.811 84 746.854 84C746.897 84 746.94 84 746.983 84C747.026 84 747.069 84 747.112 84C747.155 84 747.198 84 747.241 84C747.284 84 747.327 84 747.37 84C747.413 84 747.456 84 747.499 84C747.542 84 747.585 84 747.628 84C747.671 84 747.714 84 747.756 84C747.799 84 747.842 84 747.885 84C747.928 84 747.971 84 748.014 84C748.056 84 748.099 84 748.142 84C748.185 84 748.228 84 748.271 84C748.313 84 748.356 84 748.399 84C748.442 84 748.485 84 748.527 84C748.57 84 748.613 84 748.656 84C748.699 84 748.741 84 748.784 84C748.827 84 748.87 84 748.912 84C748.955 84 748.998 84 749.04 84C749.083 84 749.126 84 749.169 84C749.211 84 749.254 84 749.297 84C749.339 84 749.382 84 749.425 84C749.467 84 749.51 84 749.553 84C749.595 84 749.638 84 749.681 84C749.723 84 749.766 84 749.809 84C749.851 84 749.894 84 749.937 84C749.979 84 750.022 84 750.065 84C750.107 84 750.15 84 750.192 84C750.235 84 750.278 84 750.32 84C750.363 84 750.405 84 750.448 84C750.491 84 750.533 84 750.576 84C750.618 84 750.661 84 750.704 84C750.746 84 750.789 84 750.831 84C750.874 84 750.916 84 750.959 84C751.002 84 751.044 84 751.087 84C751.129 84 751.172 84 751.214 84C751.257 84 751.299 84 751.342 84C751.384 84 751.427 84 751.47 84C751.512 84 751.555 84 751.597 84C751.64 84 751.682 84 751.725 84C751.767 84 751.81 84 751.852 84C751.895 84 751.937 84 751.98 84C752.022 84 752.065 84 752.107 84C752.15 84 752.192 84 752.235 84C752.277 84 752.32 84 752.362 84C752.405 84 752.447 84 752.49 84C752.532 84 752.575 84 752.617 84C752.66 84 752.702 84 752.745 84C752.787 84 752.83 84 752.872 84C752.915 84 752.957 84 753 84C753.043 84 753.085 84 753.128 84C753.17 84 753.213 84 753.255 84C753.298 84 753.34 84 753.383 84C753.425 84 753.468 84 753.51 84C753.553 84 753.595 84 753.638 84C753.68 84 753.723 84 753.765 84C753.808 84 753.85 84 753.893 84C753.935 84 753.978 84 754.02 84C754.063 84 754.105 84 754.148 84C754.19 84 754.233 84 754.275 84C754.318 84 754.36 84 754.403 84C754.445 84 754.488 84 754.53 84C754.573 84 754.616 84 754.658 84C754.701 84 754.743 84 754.786 84C754.828 84 754.871 84 754.913 84C754.956 84 754.998 84 755.041 84C755.084 84 755.126 84 755.169 84C755.211 84 755.254 84 755.296 84C755.339 84 755.382 84 755.424 84C755.467 84 755.509 84 755.552 84C755.595 84 755.637 84 755.68 84C755.722 84 755.765 84 755.808 84C755.85 84 755.893 84 755.935 84C755.978 84 756.021 84 756.063 84C756.106 84 756.149 84 756.191 84C756.234 84 756.277 84 756.319 84C756.362 84 756.405 84 756.447 84C756.49 84 756.533 84 756.575 84C756.618 84 756.661 84 756.703 84C756.746 84 756.789 84 756.831 84C756.874 84 756.917 84 756.96 84C757.002 84 757.045 84 757.088 84C757.13 84 757.173 84 757.216 84C757.259 84 757.301 84 757.344 84C757.387 84 757.43 84 757.473 84C757.515 84 757.558 84 757.601 84C757.644 84 757.687 84 757.729 84C757.772 84 757.815 84 757.858 84C757.901 84 757.944 84 757.986 84C758.029 84 758.072 84 758.115 84C758.158 84 758.201 84 758.244 84C758.286 84 758.329 84 758.372 84C758.415 84 758.458 84 758.501 84C758.544 84 758.587 84 758.63 84C758.673 84 758.716 84 758.759 84C758.802 84 758.845 84 758.888 84C758.931 84 758.974 84 759.017 84C759.06 84 759.103 84 759.146 84C759.189 84 759.232 84 759.275 84C759.318 84 759.361 84 759.404 84C759.447 84 759.49 84 759.533 84C759.576 84 759.62 84 759.663 84C759.706 84 759.749 84 759.792 84C759.835 84 759.878 84 759.922 84C759.965 84 760.008 84 760.051 84C760.094 84 760.137 84 760.181 84C760.224 84 760.267 84 760.31 84C760.354 84 760.397 84 760.44 84C760.483 84 760.527 84 760.57 84C760.613 84 760.657 84 760.7 84C760.743 84 760.787 84 760.83 84C760.873 84 760.917 84 760.96 84C761.004 84 761.047 84 761.09 84C761.134 84 761.177 84 761.221 84C761.264 84 761.308 84 761.351 84C761.395 84 761.438 84 761.481 84C761.525 84 761.569 84 761.612 84C761.656 84 761.699 84 761.743 84C761.786 84 761.83 84 761.873 84C761.917 84 761.961 84 762.004 84C762.048 84 762.092 84 762.135 84C762.179 84 762.223 84 762.266 84C762.31 84 762.354 84 762.397 84C762.441 84 762.485 84 762.529 84C762.572 84 762.616 84 762.66 84C762.704 84 762.748 84 762.791 84C762.835 84 762.879 84 762.923 84C762.967 84 763.011 84 763.055 84C763.099 84 763.142 84 763.186 84C763.23 84 763.274 84 763.318 84C763.362 84 763.406 84 763.45 84C763.494 84 763.538 84 763.582 84C763.626 84 763.67 84 763.714 84C763.759 84 763.803 84 763.847 84C763.891 84 763.935 84 763.979 84C764.023 84 764.068 84 764.112 84C764.156 84 764.2 84 764.244 84C764.289 84 764.333 84 764.377 84C764.422 84 764.466 84 764.51 84C764.554 84 764.599 84 764.643 84C764.688 84 764.732 84 764.776 84C764.821 84 764.865 84 764.91 84C764.954 84 764.999 84 765.043 84C765.088 84 765.132 84 765.177 84C765.221 84 765.266 84 765.31 84C765.355 84 765.399 84 765.444 84C765.489 84 765.533 84 765.578 84C765.623 84 765.667 84 765.712 84C765.757 84 765.802 84 765.846 84C765.891 84 765.936 84 765.981 84C766.025 84 766.07 84 766.115 84C766.16 84 766.205 84 766.25 84C766.295 84 766.34 84 766.384 84C766.429 84 766.474 84 766.519 84C766.564 84 766.609 84 766.654 84C766.699 84 766.745 84 766.79 84C766.835 84 766.88 84 766.925 84C766.97 84 767.015 84 767.06 84C767.106 84 767.151 84 767.196 84C767.241 84 767.287 84 767.332 84C767.377 84 767.422 84 767.468 84C767.513 84 767.558 84 767.604 84C767.649 84 767.695 84 767.74 84C767.786 84 767.831 84 767.876 84C767.922 84 767.967 84 768.013 84C768.059 84 768.104 84 768.15 84C768.195 84 768.241 84 768.287 84C768.332 84 768.378 84 768.424 84C768.469 84 768.515 84 768.561 84C768.607 84 768.652 84 768.698 84C768.744 84 768.79 84 768.836 84C768.882 84 768.928 84 768.973 84C769.019 84 769.065 84 769.111 84C769.157 84 769.203 84 769.249 84C769.295 84 769.341 84 769.388 84C769.434 84 769.48 84 769.526 84C769.572 84 769.618 84 769.664 84C769.711 84 769.757 84 769.803 84C769.849 84 769.896 84 769.942 84C769.988 84 770.035 84 770.081 84C770.128 84 770.174 84 770.22 84C770.267 84 770.313 84 770.36 84C770.406 84 770.453 84 770.5 84C770.546 84 770.593 84 770.639 84C770.686 84 770.733 84 770.779 84C770.826 84 770.873 84 770.92 84C770.966 84 771.013 84 771.06 84C771.107 84 771.154 84 771.2 84C771.247 84 771.294 84 771.341 84C771.388 84 771.435 84 771.482 84C771.529 84 771.576 84 771.623 84C771.67 84 771.717 84 771.765 84C771.812 84 771.859 84 771.906 84C771.953 84 772.001 84 772.048 84C772.095 84 772.142 84 772.19 84C772.237 84 772.284 84 772.332 84C772.379 84 772.427 84 772.474 84C772.522 84 772.569 84 772.617 84C772.664 84 772.712 84 772.759 84C772.807 84 772.855 84 772.902 84C772.95 84 772.998 84 773.045 84C773.093 84 773.141 84 773.189 84C773.237 84 773.285 84 773.332 84C773.38 84 773.428 84 773.476 84C773.524 84 773.572 84 773.62 84C773.668 84 773.716 84 773.764 84C773.812 84 773.861 84 773.909 84C773.957 84 774.005 84 774.053 84C774.102 84 774.15 84 774.198 84C774.247 84 774.295 84 774.343 84C774.392 84 774.44 84 774.489 84C774.537 84 774.586 84 774.634 84C774.683 84 774.731 84 774.78 84C774.828 84 774.877 84 774.926 84C774.974 84 775.023 84 775.072 84C775.121 84 775.17 84 775.218 84C775.267 84 775.316 84 775.365 84C775.414 84 775.463 84 775.512 84C775.561 84 775.61 84 775.659 84C775.708 84 775.757 84 775.806 84C775.855 84 775.905 84 775.954 84C776.003 84 776.052 84 776.102 84C776.151 84 776.2 84 776.25 84C776.299 84 776.349 84 776.398 84C776.448 84 776.497 84 776.547 84C776.596 84 776.646 84 776.695 84C776.745 84 776.795 84 776.844 84C776.894 84 776.944 84 776.994 84C777.043 84 777.093 84 777.143 84C777.193 84 777.243 84 777.293 84C777.343 84 777.393 84 777.443 84C777.493 84 777.543 84 777.593 84C777.643 84 777.693 84 777.744 84C777.794 84 777.844 84 777.894 84C777.945 84 777.995 84 778.045 84C778.096 84 778.146 84 778.197 84C778.247 84 778.298 84 778.348 84C778.399 84 778.449 84 778.5 84C778.551 84 778.601 84 778.652 84C778.703 84 778.753 84 778.804 84C778.855 84 778.906 84 778.957 84C779.008 84 779.059 84 779.11 84C779.161 84 779.212 84 779.263 84C779.314 84 779.365 84 779.416 84C779.467 84 779.518 84 779.57 84C779.621 84 779.672 84 779.724 84C779.775 84 779.826 84 779.878 84C779.929 84 779.981 84 780.032 84C780.084 84 780.135 84 780.187 84C780.238 84 780.29 84 780.342 84C780.393 84 780.445 84 780.497 84C780.549 84 780.601 84 780.653 84C780.704 84 780.756 84 780.808 84C780.86 84 780.912 84 780.964 84C781.017 84 781.069 84 781.121 84C781.173 84 781.225 84 781.278 84C781.33 84 781.382 84 781.434 84C781.487 84 781.539 84 781.592 84C781.644 84 781.697 84 781.749 84C781.802 84 781.854 84 781.907 84C781.96 84 782.012 84 782.065 84C782.118 84 782.171 84 782.223 84C782.276 84 782.329 84 782.382 84C782.435 84 782.488 84 782.541 84C782.594 84 782.647 84 782.7 84C782.754 84 782.807 84 782.86 84C782.913 84 782.966 84 783.02 84C783.073 84 783.127 84 783.18 84C783.233 84 783.287 84 783.34 84C783.394 84 783.448 84 783.501 84C783.555 84 783.609 84 783.662 84C783.716 84 783.77 84 783.824 84C783.877 84 783.931 84 783.985 84C784.039 84 784.093 84 784.147 84C784.201 84 784.255 84 784.31 84C784.364 84 784.418 84 784.472 84C784.526 84 784.581 84 784.635 84C784.689 84 784.744 84 784.798 84C784.853 84 784.907 84 784.962 84C785.016 84 785.071 84 785.126 84C785.18 84 785.235 84 785.29 84C785.345 84 785.4 84 785.454 84C785.509 84 785.564 84 785.619 84C785.674 84 785.729 84 785.784 84C785.839 84 785.895 84 785.95 84C786.005 84 786.06 84 786.116 84C786.171 84 786.226 84 786.282 84C786.337 84 786.393 84 786.448 84C786.504 84 786.559 84 786.615 84C786.671 84 786.726 84 786.782 84C786.838 84 786.894 84 786.949 84C787.005 84 787.061 84 787.117 84C787.173 84 787.229 84 787.285 84C787.341 84 787.398 84 787.454 84C787.51 84 787.566 84 787.623 84C787.679 84 787.735 84 787.792 84C787.848 84 787.905 84 787.961 84C788.018 84 788.074 84 788.131 84C788.188 84 788.244 84 788.301 84C788.358 84 788.415 84 788.472 84C788.528 84 788.585 84 788.642 84C788.699 84 788.756 84 788.813 84C788.871 84 788.928 84 788.985 84C789.042 84 789.1 84 789.157 84C789.214 84 789.272 84 789.329 84C789.387 84 789.444 84 789.502 84V83C789.444 83 789.387 83 789.329 83C789.272 83 789.214 83 789.157 83C789.1 83 789.042 83 788.985 83C788.928 83 788.871 83 788.813 83C788.756 83 788.699 83 788.642 83C788.585 83 788.528 83 788.472 83C788.415 83 788.358 83 788.301 83C788.244 83 788.188 83 788.131 83C788.074 83 788.018 83 787.961 83C787.905 83 787.848 83 787.792 83C787.735 83 787.679 83 787.623 83C787.566 83 787.51 83 787.454 83C787.398 83 787.341 83 787.285 83C787.229 83 787.173 83 787.117 83C787.061 83 787.005 83 786.949 83C786.894 83 786.838 83 786.782 83C786.726 83 786.671 83 786.615 83C786.559 83 786.504 83 786.448 83C786.393 83 786.337 83 786.282 83C786.226 83 786.171 83 786.116 83C786.06 83 786.005 83 785.95 83C785.895 83 785.839 83 785.784 83C785.729 83 785.674 83 785.619 83C785.564 83 785.509 83 785.454 83C785.4 83 785.345 83 785.29 83C785.235 83 785.18 83 785.126 83C785.071 83 785.016 83 784.962 83C784.907 83 784.853 83 784.798 83C784.744 83 784.689 83 784.635 83C784.581 83 784.526 83 784.472 83C784.418 83 784.364 83 784.31 83C784.255 83 784.201 83 784.147 83C784.093 83 784.039 83 783.985 83C783.931 83 783.877 83 783.824 83C783.77 83 783.716 83 783.662 83C783.609 83 783.555 83 783.501 83C783.448 83 783.394 83 783.34 83C783.287 83 783.233 83 783.18 83C783.127 83 783.073 83 783.02 83C782.966 83 782.913 83 782.86 83C782.807 83 782.754 83 782.7 83C782.647 83 782.594 83 782.541 83C782.488 83 782.435 83 782.382 83C782.329 83 782.276 83 782.223 83C782.171 83 782.118 83 782.065 83C782.012 83 781.96 83 781.907 83C781.854 83 781.802 83 781.749 83C781.697 83 781.644 83 781.592 83C781.539 83 781.487 83 781.434 83C781.382 83 781.33 83 781.278 83C781.225 83 781.173 83 781.121 83C781.069 83 781.017 83 780.964 83C780.912 83 780.86 83 780.808 83C780.756 83 780.704 83 780.653 83C780.601 83 780.549 83 780.497 83C780.445 83 780.393 83 780.342 83C780.29 83 780.238 83 780.187 83C780.135 83 780.084 83 780.032 83C779.981 83 779.929 83 779.878 83C779.826 83 779.775 83 779.724 83C779.672 83 779.621 83 779.57 83C779.518 83 779.467 83 779.416 83C779.365 83 779.314 83 779.263 83C779.212 83 779.161 83 779.11 83C779.059 83 779.008 83 778.957 83C778.906 83 778.855 83 778.804 83C778.753 83 778.703 83 778.652 83C778.601 83 778.551 83 778.5 83C778.449 83 778.399 83 778.348 83C778.298 83 778.247 83 778.197 83C778.146 83 778.096 83 778.045 83C777.995 83 777.945 83 777.894 83C777.844 83 777.794 83 777.744 83C777.693 83 777.643 83 777.593 83C777.543 83 777.493 83 777.443 83C777.393 83 777.343 83 777.293 83C777.243 83 777.193 83 777.143 83C777.093 83 777.043 83 776.994 83C776.944 83 776.894 83 776.844 83C776.795 83 776.745 83 776.695 83C776.646 83 776.596 83 776.547 83C776.497 83 776.448 83 776.398 83C776.349 83 776.299 83 776.25 83C776.2 83 776.151 83 776.102 83C776.052 83 776.003 83 775.954 83C775.905 83 775.855 83 775.806 83C775.757 83 775.708 83 775.659 83C775.61 83 775.561 83 775.512 83C775.463 83 775.414 83 775.365 83C775.316 83 775.267 83 775.218 83C775.17 83 775.121 83 775.072 83C775.023 83 774.974 83 774.926 83C774.877 83 774.828 83 774.78 83C774.731 83 774.683 83 774.634 83C774.586 83 774.537 83 774.489 83C774.44 83 774.392 83 774.343 83C774.295 83 774.247 83 774.198 83C774.15 83 774.102 83 774.053 83C774.005 83 773.957 83 773.909 83C773.861 83 773.812 83 773.764 83C773.716 83 773.668 83 773.62 83C773.572 83 773.524 83 773.476 83C773.428 83 773.38 83 773.332 83C773.285 83 773.237 83 773.189 83C773.141 83 773.093 83 773.045 83C772.998 83 772.95 83 772.902 83C772.855 83 772.807 83 772.759 83C772.712 83 772.664 83 772.617 83C772.569 83 772.522 83 772.474 83C772.427 83 772.379 83 772.332 83C772.284 83 772.237 83 772.19 83C772.142 83 772.095 83 772.048 83C772.001 83 771.953 83 771.906 83C771.859 83 771.812 83 771.765 83C771.717 83 771.67 83 771.623 83C771.576 83 771.529 83 771.482 83C771.435 83 771.388 83 771.341 83C771.294 83 771.247 83 771.2 83C771.154 83 771.107 83 771.06 83C771.013 83 770.966 83 770.92 83C770.873 83 770.826 83 770.779 83C770.733 83 770.686 83 770.639 83C770.593 83 770.546 83 770.5 83C770.453 83 770.406 83 770.36 83C770.313 83 770.267 83 770.22 83C770.174 83 770.128 83 770.081 83C770.035 83 769.988 83 769.942 83C769.896 83 769.849 83 769.803 83C769.757 83 769.711 83 769.664 83C769.618 83 769.572 83 769.526 83C769.48 83 769.434 83 769.388 83C769.341 83 769.295 83 769.249 83C769.203 83 769.157 83 769.111 83C769.065 83 769.019 83 768.973 83C768.928 83 768.882 83 768.836 83C768.79 83 768.744 83 768.698 83C768.652 83 768.607 83 768.561 83C768.515 83 768.469 83 768.424 83C768.378 83 768.332 83 768.287 83C768.241 83 768.195 83 768.15 83C768.104 83 768.059 83 768.013 83C767.967 83 767.922 83 767.876 83C767.831 83 767.786 83 767.74 83C767.695 83 767.649 83 767.604 83C767.558 83 767.513 83 767.468 83C767.422 83 767.377 83 767.332 83C767.287 83 767.241 83 767.196 83C767.151 83 767.106 83 767.06 83C767.015 83 766.97 83 766.925 83C766.88 83 766.835 83 766.79 83C766.745 83 766.699 83 766.654 83C766.609 83 766.564 83 766.519 83C766.474 83 766.429 83 766.384 83C766.34 83 766.295 83 766.25 83C766.205 83 766.16 83 766.115 83C766.07 83 766.025 83 765.981 83C765.936 83 765.891 83 765.846 83C765.802 83 765.757 83 765.712 83C765.667 83 765.623 83 765.578 83C765.533 83 765.489 83 765.444 83C765.399 83 765.355 83 765.31 83C765.266 83 765.221 83 765.177 83C765.132 83 765.088 83 765.043 83C764.999 83 764.954 83 764.91 83C764.865 83 764.821 83 764.776 83C764.732 83 764.688 83 764.643 83C764.599 83 764.554 83 764.51 83C764.466 83 764.422 83 764.377 83C764.333 83 764.289 83 764.244 83C764.2 83 764.156 83 764.112 83C764.068 83 764.023 83 763.979 83C763.935 83 763.891 83 763.847 83C763.803 83 763.759 83 763.714 83C763.67 83 763.626 83 763.582 83C763.538 83 763.494 83 763.45 83C763.406 83 763.362 83 763.318 83C763.274 83 763.23 83 763.186 83C763.142 83 763.099 83 763.055 83C763.011 83 762.967 83 762.923 83C762.879 83 762.835 83 762.791 83C762.748 83 762.704 83 762.66 83C762.616 83 762.572 83 762.529 83C762.485 83 762.441 83 762.397 83C762.354 83 762.31 83 762.266 83C762.223 83 762.179 83 762.135 83C762.092 83 762.048 83 762.004 83C761.961 83 761.917 83 761.873 83C761.83 83 761.786 83 761.743 83C761.699 83 761.656 83 761.612 83C761.569 83 761.525 83 761.481 83C761.438 83 761.395 83 761.351 83C761.308 83 761.264 83 761.221 83C761.177 83 761.134 83 761.09 83C761.047 83 761.004 83 760.96 83C760.917 83 760.873 83 760.83 83C760.787 83 760.743 83 760.7 83C760.657 83 760.613 83 760.57 83C760.527 83 760.483 83 760.44 83C760.397 83 760.354 83 760.31 83C760.267 83 760.224 83 760.181 83C760.137 83 760.094 83 760.051 83C760.008 83 759.965 83 759.922 83C759.878 83 759.835 83 759.792 83C759.749 83 759.706 83 759.663 83C759.62 83 759.576 83 759.533 83C759.49 83 759.447 83 759.404 83C759.361 83 759.318 83 759.275 83C759.232 83 759.189 83 759.146 83C759.103 83 759.06 83 759.017 83C758.974 83 758.931 83 758.888 83C758.845 83 758.802 83 758.759 83C758.716 83 758.673 83 758.63 83C758.587 83 758.544 83 758.501 83C758.458 83 758.415 83 758.372 83C758.329 83 758.286 83 758.244 83C758.201 83 758.158 83 758.115 83C758.072 83 758.029 83 757.986 83C757.944 83 757.901 83 757.858 83C757.815 83 757.772 83 757.729 83C757.687 83 757.644 83 757.601 83C757.558 83 757.515 83 757.473 83C757.43 83 757.387 83 757.344 83C757.301 83 757.259 83 757.216 83C757.173 83 757.13 83 757.088 83C757.045 83 757.002 83 756.96 83C756.917 83 756.874 83 756.831 83C756.789 83 756.746 83 756.703 83C756.661 83 756.618 83 756.575 83C756.533 83 756.49 83 756.447 83C756.405 83 756.362 83 756.319 83C756.277 83 756.234 83 756.191 83C756.149 83 756.106 83 756.063 83C756.021 83 755.978 83 755.935 83C755.893 83 755.85 83 755.808 83C755.765 83 755.722 83 755.68 83C755.637 83 755.595 83 755.552 83C755.509 83 755.467 83 755.424 83C755.382 83 755.339 83 755.296 83C755.254 83 755.211 83 755.169 83C755.126 83 755.084 83 755.041 83C754.998 83 754.956 83 754.913 83C754.871 83 754.828 83 754.786 83C754.743 83 754.701 83 754.658 83C754.616 83 754.573 83 754.53 83C754.488 83 754.445 83 754.403 83C754.36 83 754.318 83 754.275 83C754.233 83 754.19 83 754.148 83C754.105 83 754.063 83 754.02 83C753.978 83 753.935 83 753.893 83C753.85 83 753.808 83 753.765 83C753.723 83 753.68 83 753.638 83C753.595 83 753.553 83 753.51 83C753.468 83 753.425 83 753.383 83C753.34 83 753.298 83 753.255 83C753.213 83 753.17 83 753.128 83C753.085 83 753.043 83 753 83C752.957 83 752.915 83 752.872 83C752.83 83 752.787 83 752.745 83C752.702 83 752.66 83 752.617 83C752.575 83 752.532 83 752.49 83C752.447 83 752.405 83 752.362 83C752.32 83 752.277 83 752.235 83C752.192 83 752.15 83 752.107 83C752.065 83 752.022 83 751.98 83C751.937 83 751.895 83 751.852 83C751.81 83 751.767 83 751.725 83C751.682 83 751.64 83 751.597 83C751.555 83 751.512 83 751.47 83C751.427 83 751.384 83 751.342 83C751.299 83 751.257 83 751.214 83C751.172 83 751.129 83 751.087 83C751.044 83 751.002 83 750.959 83C750.916 83 750.874 83 750.831 83C750.789 83 750.746 83 750.704 83C750.661 83 750.618 83 750.576 83C750.533 83 750.491 83 750.448 83C750.405 83 750.363 83 750.32 83C750.278 83 750.235 83 750.192 83C750.15 83 750.107 83 750.065 83C750.022 83 749.979 83 749.937 83C749.894 83 749.851 83 749.809 83C749.766 83 749.723 83 749.681 83C749.638 83 749.595 83 749.553 83C749.51 83 749.467 83 749.425 83C749.382 83 749.339 83 749.297 83C749.254 83 749.211 83 749.169 83C749.126 83 749.083 83 749.04 83C748.998 83 748.955 83 748.912 83C748.87 83 748.827 83 748.784 83C748.741 83 748.699 83 748.656 83C748.613 83 748.57 83 748.527 83C748.485 83 748.442 83 748.399 83C748.356 83 748.313 83 748.271 83C748.228 83 748.185 83 748.142 83C748.099 83 748.056 83 748.014 83C747.971 83 747.928 83 747.885 83C747.842 83 747.799 83 747.756 83C747.714 83 747.671 83 747.628 83C747.585 83 747.542 83 747.499 83C747.456 83 747.413 83 747.37 83C747.327 83 747.284 83 747.241 83C747.198 83 747.155 83 747.112 83C747.069 83 747.026 83 746.983 83C746.94 83 746.897 83 746.854 83C746.811 83 746.768 83 746.725 83C746.682 83 746.639 83 746.596 83C746.553 83 746.51 83 746.467 83C746.424 83 746.38 83 746.337 83C746.294 83 746.251 83 746.208 83C746.165 83 746.122 83 746.078 83C746.035 83 745.992 83 745.949 83C745.906 83 745.863 83 745.819 83C745.776 83 745.733 83 745.69 83C745.646 83 745.603 83 745.56 83C745.517 83 745.473 83 745.43 83C745.387 83 745.343 83 745.3 83C745.257 83 745.213 83 745.17 83C745.127 83 745.083 83 745.04 83C744.996 83 744.953 83 744.91 83C744.866 83 744.823 83 744.779 83C744.736 83 744.692 83 744.649 83C744.605 83 744.562 83 744.519 83C744.475 83 744.431 83 744.388 83C744.344 83 744.301 83 744.257 83C744.214 83 744.17 83 744.127 83C744.083 83 744.039 83 743.996 83C743.952 83 743.908 83 743.865 83C743.821 83 743.777 83 743.734 83C743.69 83 743.646 83 743.603 83C743.559 83 743.515 83 743.471 83C743.428 83 743.384 83 743.34 83C743.296 83 743.252 83 743.209 83C743.165 83 743.121 83 743.077 83C743.033 83 742.989 83 742.945 83C742.901 83 742.858 83 742.814 83C742.77 83 742.726 83 742.682 83C742.638 83 742.594 83 742.55 83C742.506 83 742.462 83 742.418 83C742.374 83 742.33 83 742.285 83C742.241 83 742.197 83 742.153 83C742.109 83 742.065 83 742.021 83C741.977 83 741.932 83 741.888 83C741.844 83 741.8 83 741.756 83C741.711 83 741.667 83 741.623 83C741.578 83 741.534 83 741.49 83C741.445 83 741.401 83 741.357 83C741.312 83 741.268 83 741.224 83C741.179 83 741.135 83 741.09 83C741.046 83 741.001 83 740.957 83C740.912 83 740.868 83 740.823 83C740.779 83 740.734 83 740.69 83C740.645 83 740.601 83 740.556 83C740.511 83 740.467 83 740.422 83C740.377 83 740.333 83 740.288 83C740.243 83 740.198 83 740.154 83C740.109 83 740.064 83 740.019 83C739.975 83 739.93 83 739.885 83C739.84 83 739.795 83 739.75 83C739.705 83 739.66 83 739.616 83C739.571 83 739.526 83 739.481 83C739.436 83 739.391 83 739.346 83C739.301 83 739.255 83 739.21 83C739.165 83 739.12 83 739.075 83C739.03 83 738.985 83 738.94 83C738.894 83 738.849 83 738.804 83C738.759 83 738.713 83 738.668 83C738.623 83 738.578 83 738.532 83C738.487 83 738.442 83 738.396 83C738.351 83 738.305 83 738.26 83C738.214 83 738.169 83 738.124 83C738.078 83 738.032 83 737.987 83C737.941 83 737.896 83 737.85 83C737.805 83 737.759 83 737.713 83C737.668 83 737.622 83 737.576 83C737.531 83 737.485 83 737.439 83C737.393 83 737.348 83 737.302 83C737.256 83 737.21 83 737.164 83C737.118 83 737.072 83 737.027 83C736.981 83 736.935 83 736.889 83C736.843 83 736.797 83 736.751 83C736.705 83 736.659 83 736.612 83C736.566 83 736.52 83 736.474 83C736.428 83 736.382 83 736.336 83C736.289 83 736.243 83 736.197 83C736.151 83 736.104 83 736.058 83C736.012 83 735.965 83 735.919 83C735.872 83 735.826 83 735.78 83C735.733 83 735.687 83 735.64 83C735.594 83 735.547 83 735.5 83C735.454 83 735.407 83 735.361 83C735.314 83 735.267 83 735.221 83C735.174 83 735.127 83 735.08 83C735.034 83 734.987 83 734.94 83C734.893 83 734.846 83 734.8 83C734.753 83 734.706 83 734.659 83C734.612 83 734.565 83 734.518 83C734.471 83 734.424 83 734.377 83C734.33 83 734.283 83 734.235 83C734.188 83 734.141 83 734.094 83C734.047 83 733.999 83 733.952 83C733.905 83 733.858 83 733.81 83C733.763 83 733.716 83 733.668 83C733.621 83 733.573 83 733.526 83C733.478 83 733.431 83 733.383 83C733.336 83 733.288 83 733.241 83C733.193 83 733.145 83 733.098 83C733.05 83 733.002 83 732.955 83C732.907 83 732.859 83 732.811 83C732.763 83 732.715 83 732.668 83C732.62 83 732.572 83 732.524 83C732.476 83 732.428 83 732.38 83C732.332 83 732.284 83 732.236 83C732.188 83 732.139 83 732.091 83C732.043 83 731.995 83 731.947 83C731.898 83 731.85 83 731.802 83C731.753 83 731.705 83 731.657 83C731.608 83 731.56 83 731.511 83C731.463 83 731.414 83 731.366 83C731.317 83 731.269 83 731.22 83C731.172 83 731.123 83 731.074 83C731.026 83 730.977 83 730.928 83C730.879 83 730.83 83 730.782 83C730.733 83 730.684 83 730.635 83C730.586 83 730.537 83 730.488 83C730.439 83 730.39 83 730.341 83C730.292 83 730.243 83 730.194 83C730.145 83 730.095 83 730.046 83C729.997 83 729.948 83 729.898 83C729.849 83 729.8 83 729.75 83C729.701 83 729.651 83 729.602 83C729.552 83 729.503 83 729.453 83C729.404 83 729.354 83 729.305 83C729.255 83 729.205 83 729.156 83C729.106 83 729.056 83 729.006 83C728.957 83 728.907 83 728.857 83C728.807 83 728.757 83 728.707 83C728.657 83 728.607 83 728.557 83C728.507 83 728.457 83 728.407 83C728.357 83 728.307 83 728.256 83C728.206 83 728.156 83 728.106 83C728.055 83 728.005 83 727.955 83C727.904 83 727.854 83 727.803 83C727.753 83 727.702 83 727.652 83C727.601 83 727.551 83 727.5 83C727.449 83 727.399 83 727.348 83C727.297 83 727.247 83 727.196 83C727.145 83 727.094 83 727.043 83C726.992 83 726.941 83 726.89 83C726.839 83 726.788 83 726.737 83C726.686 83 726.635 83 726.584 83C726.533 83 726.482 83 726.43 83C726.379 83 726.328 83 726.276 83C726.225 83 726.174 83 726.122 83C726.071 83 726.019 83 725.968 83C725.916 83 725.865 83 725.813 83C725.762 83 725.71 83 725.658 83C725.607 83 725.555 83 725.503 83C725.451 83 725.399 83 725.347 83C725.296 83 725.244 83 725.192 83C725.14 83 725.088 83 725.036 83C724.983 83 724.931 83 724.879 83C724.827 83 724.775 83 724.722 83C724.67 83 724.618 83 724.566 83C724.513 83 724.461 83 724.408 83C724.356 83 724.303 83 724.251 83C724.198 83 724.146 83 724.093 83C724.04 83 723.988 83 723.935 83C723.882 83 723.829 83 723.777 83C723.724 83 723.671 83 723.618 83C723.565 83 723.512 83 723.459 83C723.406 83 723.353 83 723.3 83C723.246 83 723.193 83 723.14 83C723.087 83 723.034 83 722.98 83C722.927 83 722.873 83 722.82 83C722.767 83 722.713 83 722.66 83C722.606 83 722.552 83 722.499 83C722.445 83 722.391 83 722.338 83C722.284 83 722.23 83 722.176 83C722.123 83 722.069 83 722.015 83C721.961 83 721.907 83 721.853 83C721.799 83 721.745 83 721.69 83C721.636 83 721.582 83 721.528 83C721.474 83 721.419 83 721.365 83C721.311 83 721.256 83 721.202 83C721.147 83 721.093 83 721.038 83C720.984 83 720.929 83 720.874 83C720.82 83 720.765 83 720.71 83C720.655 83 720.6 83 720.546 83C720.491 83 720.436 83 720.381 83C720.326 83 720.271 83 720.216 83C720.161 83 720.105 83 720.05 83C719.995 83 719.94 83 719.884 83C719.829 83 719.774 83 719.718 83C719.663 83 719.607 83 719.552 83C719.496 83 719.441 83 719.385 83C719.329 83 719.274 83 719.218 83C719.162 83 719.106 83 719.051 83C718.995 83 718.939 83 718.883 83C718.827 83 718.771 83 718.715 83C718.659 83 718.602 83 718.546 83C718.49 83 718.434 83 718.377 83C718.321 83 718.265 83 718.208 83C718.152 83 718.095 83 718.039 83C717.982 83 717.926 83 717.869 83C717.812 83 717.756 83 717.699 83C717.642 83 717.585 83 717.528 83C717.472 83 717.415 83 717.358 83C717.301 83 717.244 83 717.187 83C717.129 83 717.072 83 717.015 83C716.958 83 716.9 83 716.843 83C716.786 83 716.728 83 716.671 83C716.613 83 716.556 83 716.498 83V84Z" fill="#113366"/>
</svg>
