<?xml version="1.0" encoding="UTF-8"?>
<!DOCTYPE svg PUBLIC "-//W3C//DTD SVG 1.1//EN" "http://www.w3.org/Graphics/SVG/1.1/DTD/svg11.dtd">
<svg width="865" height="412" xmlns="http://www.w3.org/2000/svg" x-original-source="participant Desktop renderer as R
participant Kernel as K
participant WalletConnectBridge as B

R->K: StartAuthentication_Native\n{provider=&quot;wallet_connect&quot;,isGuest=false}
K->K: Create WC provider
B-->K: Get QR
K->R: QR Code
K->K: Wait until login is successful
R-->B: (login with mobile phone, scan QR)
B-->K: Login succesful
K->R: Authenticated"><defs><marker viewBox="0 0 5 5" markerWidth="5" markerHeight="5" orient="auto" refX="5" refY="2.5" id="markerArrowBlock"><path d="M 0 0 L 5 2.5 L 0 5 z"></path></marker><marker viewBox="0 0 9.6 16" markerWidth="4" markerHeight="16" orient="auto" refX="9.6" refY="8" id="markerArrowOpen"><path d="M 9.6,8 1.92,16 0,13.7 5.76,8 0,2.286 1.92,0 9.6,8 z"></path></marker></defs><rect x="10" y="10" width="155" height="34" stroke="#000000" fill="#ffffff" style="stroke-width: 2px;"></rect><text x="20" y="34" text-anchor="start" style="font: 14px Menlo, Monaco, &quot;Courier New&quot;, monospace;"><tspan x="20" y="34">Desktop renderer</tspan></text><rect x="10" y="348" width="155" height="34" stroke="#000000" fill="#ffffff" style="stroke-width: 2px;"></rect><text x="20" y="372" text-anchor="start" style="font: 14px Menlo, Monaco, &quot;Courier New&quot;, monospace;"><tspan x="20" y="372">Desktop renderer</tspan></text><line x1="87" x2="87" y1="44" y2="348" stroke="#000000" fill="none" style="stroke-width: 2px;"></line><rect x="417" y="10" width="71" height="34" stroke="#000000" fill="#ffffff" style="stroke-width: 2px;"></rect><text x="427" y="32" text-anchor="start" style="font: 14px Menlo, Monaco, &quot;Courier New&quot;, monospace;"><tspan x="427" y="32">Kernel</tspan></text><rect x="417" y="348" width="71" height="34" stroke="#000000" fill="#ffffff" style="stroke-width: 2px;"></rect><text x="427" y="370" text-anchor="start" style="font: 14px Menlo, Monaco, &quot;Courier New&quot;, monospace;"><tspan x="427" y="370">Kernel</tspan></text><line x1="452" x2="452" y1="44" y2="348" stroke="#000000" fill="none" style="stroke-width: 2px;"></line><rect x="655" y="10" width="180" height="34" stroke="#000000" fill="#ffffff" style="stroke-width: 2px;"></rect><text x="665" y="34" text-anchor="start" style="font: 14px Menlo, Monaco, &quot;Courier New&quot;, monospace;"><tspan x="665" y="34">WalletConnectBridge</tspan></text><rect x="655" y="348" width="180" height="34" stroke="#000000" fill="#ffffff" style="stroke-width: 2px;"></rect><text x="665" y="372" text-anchor="start" style="font: 14px Menlo, Monaco, &quot;Courier New&quot;, monospace;"><tspan x="665" y="372">WalletConnectBridge</tspan></text><line x1="745" x2="745" y1="44" y2="348" stroke="#000000" fill="none" style="stroke-width: 2px;"></line><text x="97" y="77" text-anchor="start" style="font: 14px Menlo, Monaco, &quot;Courier New&quot;, monospace;"><tspan x="97" y="77">StartAuthentication_Native</tspan><tspan x="97" dy="1.2em">{provider="wallet_connect",isGuest=false}</tspan></text><line x1="87" x2="452" y1="99" y2="99" stroke="#000000" fill="none" marker-end="url(#markerArrowBlock)" style="stroke-width: 2px;"></line><line x1="452" x2="472" y1="114" y2="114" stroke="#000000" fill="none" style="stroke-width: 2px;"></line><line x1="472" x2="472" y1="114" y2="133" stroke="#000000" fill="none" style="stroke-width: 2px;"></line><line x1="472" x2="452" y1="133" y2="133" stroke="#000000" fill="none" marker-end="url(#markerArrowBlock)" style="stroke-width: 2px;"></line><text x="477" y="130" text-anchor="start" style="font: 14px Menlo, Monaco, &quot;Courier New&quot;, monospace;"><tspan x="477" y="130">Create WC provider</tspan></text><text x="573" y="161" text-anchor="start" style="font: 14px Menlo, Monaco, &quot;Courier New&quot;, monospace;"><tspan x="573" y="161">Get QR</tspan></text><line x1="745" x2="452" y1="166" y2="166" stroke="#000000" fill="none" stroke-dasharray="6px, 2px" marker-end="url(#markerArrowBlock)" style="stroke-width: 2px;"></line><text x="240" y="195" text-anchor="start" style="font: 14px Menlo, Monaco, &quot;Courier New&quot;, monospace;"><tspan x="240" y="195">QR Code</tspan></text><line x1="452" x2="87" y1="200" y2="200" stroke="#000000" fill="none" marker-end="url(#markerArrowBlock)" style="stroke-width: 2px;"></line><line x1="452" x2="472" y1="215" y2="215" stroke="#000000" fill="none" style="stroke-width: 2px;"></line><line x1="472" x2="472" y1="215" y2="234" stroke="#000000" fill="none" style="stroke-width: 2px;"></line><line x1="472" x2="452" y1="234" y2="234" stroke="#000000" fill="none" marker-end="url(#markerArrowBlock)" style="stroke-width: 2px;"></line><text x="477" y="231" text-anchor="start" style="font: 14px Menlo, Monaco, &quot;Courier New&quot;, monospace;"><tspan x="477" y="231">Wait until login is successful</tspan></text><text x="273" y="263" text-anchor="start" style="font: 14px Menlo, Monaco, &quot;Courier New&quot;, monospace;"><tspan x="273" y="263">(login with mobile phone, scan QR)</tspan></text><line x1="87" x2="745" y1="268" y2="268" stroke="#000000" fill="none" stroke-dasharray="6px, 2px" marker-end="url(#markerArrowBlock)" style="stroke-width: 2px;"></line><text x="535" y="297" text-anchor="start" style="font: 14px Menlo, Monaco, &quot;Courier New&quot;, monospace;"><tspan x="535" y="297">Login succesful</tspan></text><line x1="745" x2="452" y1="302" y2="302" stroke="#000000" fill="none" stroke-dasharray="6px, 2px" marker-end="url(#markerArrowBlock)" style="stroke-width: 2px;"></line><text x="215" y="328" text-anchor="start" style="font: 14px Menlo, Monaco, &quot;Courier New&quot;, monospace;"><tspan x="215" y="328">Authenticated</tspan></text><line x1="452" x2="87" y1="333" y2="333" stroke="#000000" fill="none" marker-end="url(#markerArrowBlock)" style="stroke-width: 2px;"></line></svg>