<?xml version="1.0" encoding="UTF-8"?>
<!DOCTYPE svg PUBLIC "-//W3C//DTD SVG 1.1//EN" "http://www.w3.org/Graphics/SVG/1.1/DTD/svg11.dtd">
<svg width="511" height="323" xmlns="http://www.w3.org/2000/svg"><defs><marker viewBox="0 0 5 5" markerWidth="5" markerHeight="5" orient="auto" refX="5" refY="2.5" id="markerArrowBlock"><path d="M 0 0 L 5 2.5 L 0 5 z"></path></marker><marker viewBox="0 0 9.6 16" markerWidth="4" markerHeight="16" orient="auto" refX="9.6" refY="8" id="markerArrowOpen"><path d="M 9.6,8 1.92,16 0,13.7 5.76,8 0,2.286 1.92,0 9.6,8 z"></path></marker></defs><rect x="10" y="10" width="53" height="33" style="stroke-width: 2px;" stroke="#000000" fill="#ffffff"></rect><text x="20" y="30" style="font: 14px Menlo, Monaco, &quot;Courier New&quot;, monospace;" text-anchor="start"><tspan x="20" y="30">user</tspan></text><rect x="10" y="260" width="53" height="33" style="stroke-width: 2px;" stroke="#000000" fill="#ffffff"></rect><text x="20" y="281" style="font: 14px Menlo, Monaco, &quot;Courier New&quot;, monospace;" text-anchor="start"><tspan x="20" y="281">user</tspan></text><line x1="36" x2="36" y1="43" y2="260" style="stroke-width: 2px;" stroke="#000000" fill="none"></line><rect x="83" y="10" width="70" height="33" style="stroke-width: 2px;" stroke="#000000" fill="#ffffff"></rect><text x="93" y="31" style="font: 14px Menlo, Monaco, &quot;Courier New&quot;, monospace;" text-anchor="start"><tspan x="93" y="31">kernel</tspan></text><rect x="83" y="260" width="70" height="33" style="stroke-width: 2px;" stroke="#000000" fill="#ffffff"></rect><text x="93" y="282" style="font: 14px Menlo, Monaco, &quot;Courier New&quot;, monospace;" text-anchor="start"><tspan x="93" y="282">kernel</tspan></text><line x1="119" x2="119" y1="43" y2="260" style="stroke-width: 2px;" stroke="#000000" fill="none"></line><rect x="174" y="10" width="70" height="33" style="stroke-width: 2px;" stroke="#000000" fill="#ffffff"></rect><text x="184" y="31" style="font: 14px Menlo, Monaco, &quot;Courier New&quot;, monospace;" text-anchor="start"><tspan x="184" y="31">worker</tspan></text><rect x="174" y="260" width="70" height="33" style="stroke-width: 2px;" stroke="#000000" fill="#ffffff"></rect><text x="184" y="282" style="font: 14px Menlo, Monaco, &quot;Courier New&quot;, monospace;" text-anchor="start"><tspan x="184" y="282">worker</tspan></text><line x1="209" x2="209" y1="43" y2="260" style="stroke-width: 2px;" stroke="#000000" fill="none"></line><rect x="277" y="10" width="87" height="33" style="stroke-width: 2px;" stroke="#000000" fill="#ffffff"></rect><text x="287" y="31" style="font: 14px Menlo, Monaco, &quot;Courier New&quot;, monospace;" text-anchor="start"><tspan x="287" y="31">renderer</tspan></text><rect x="277" y="260" width="87" height="33" style="stroke-width: 2px;" stroke="#000000" fill="#ffffff"></rect><text x="287" y="282" style="font: 14px Menlo, Monaco, &quot;Courier New&quot;, monospace;" text-anchor="start"><tspan x="287" y="282">renderer</tspan></text><line x1="320" x2="320" y1="43" y2="260" style="stroke-width: 2px;" stroke="#000000" fill="none"></line><rect x="436" y="10" width="45" height="33" style="stroke-width: 2px;" stroke="#000000" fill="#ffffff"></rect><text x="446" y="33" style="font: 14px Menlo, Monaco, &quot;Courier New&quot;, monospace;" text-anchor="start"><tspan x="446" y="33">p2p</tspan></text><rect x="436" y="260" width="45" height="33" style="stroke-width: 2px;" stroke="#000000" fill="#ffffff"></rect><text x="446" y="283" style="font: 14px Menlo, Monaco, &quot;Courier New&quot;, monospace;" text-anchor="start"><tspan x="446" y="283">p2p</tspan></text><line x1="458" x2="458" y1="43" y2="260" style="stroke-width: 2px;" stroke="#000000" fill="none"></line><text x="183" y="77" style="font: 14px Menlo, Monaco, &quot;Courier New&quot;, monospace;" text-anchor="start"><tspan x="183" y="77">edition beacon {scene xy}</tspan></text><line x1="458" x2="119" y1="82" y2="82" style="stroke-width: 2px;" stroke="#000000" fill="none" stroke-dasharray="6px, 2px" marker-end="url(#markerArrowBlock)"></line><text x="169" y="108" style="font: 14px Menlo, Monaco, &quot;Courier New&quot;, monospace;" text-anchor="start"><tspan x="169" y="108">edition mode</tspan></text><line x1="119" x2="320" y1="113" y2="113" style="stroke-width: 2px;" stroke="#000000" fill="none" stroke-dasharray="6px, 2px" marker-end="url(#markerArrowBlock)"></line><text x="218" y="139" style="font: 14px Menlo, Monaco, &quot;Courier New&quot;, monospace;" text-anchor="start"><tspan x="218" y="139">kill worker</tspan></text><line x1="320" x2="209" y1="144" y2="144" style="stroke-width: 2px;" stroke="#000000" fill="none" stroke-dasharray="6px, 2px" marker-end="url(#markerArrowBlock)"></line><text x="330" y="172" style="font: 14px Menlo, Monaco, &quot;Courier New&quot;, monospace;" text-anchor="start"><tspan x="330" y="172">process update</tspan></text><line x1="458" x2="320" y1="177" y2="177" style="stroke-width: 2px;" stroke="#000000" fill="none" stroke-dasharray="6px, 2px" marker-end="url(#markerArrowBlock)"></line><text x="60" y="206" style="font: 14px Menlo, Monaco, &quot;Courier New&quot;, monospace;" text-anchor="start"><tspan x="60" y="206">perform changes (if allowed)</tspan></text><line x1="36" x2="320" y1="211" y2="211" style="stroke-width: 2px;" stroke="#000000" fill="none" marker-end="url(#markerArrowBlock)"></line><text x="330" y="240" style="font: 14px Menlo, Monaco, &quot;Courier New&quot;, monospace;" text-anchor="start"><tspan x="330" y="240">process update</tspan></text><line x1="458" x2="320" y1="245" y2="245" style="stroke-width: 2px;" stroke="#000000" fill="none" stroke-dasharray="6px, 2px" marker-end="url(#markerArrowBlock)"></line></svg>