<?xml version="1.0" encoding="UTF-8" standalone="no"?>
<!DOCTYPE svg PUBLIC "-//W3C//DTD SVG 1.1//EN"
 "http://www.w3.org/Graphics/SVG/1.1/DTD/svg11.dtd">
<!-- Generated by graphviz version 2.44.0 (20200518.1210)
 -->
<!-- Title: G Pages: 1 -->
<svg width="1040pt" height="548pt"
 viewBox="0.00 0.00 1040.00 548.00" xmlns="http://www.w3.org/2000/svg" xmlns:xlink="http://www.w3.org/1999/xlink">
<g id="graph0" class="graph" transform="scale(1 1) rotate(0) translate(4 544)">
<title>G</title>
<polygon fill="white" stroke="transparent" points="-4,4 -4,-544 1036,-544 1036,4 -4,4"/>
<g id="clust1" class="cluster">
<title>cluster_0</title>
<polygon fill="lightgrey" stroke="lightgrey" points="8,-300.8 8,-455.2 162,-455.2 162,-300.8 8,-300.8"/>
<text text-anchor="middle" x="85" y="-438.6" font-family="Times,serif" font-size="14.00">Unity</text>
</g>
<g id="clust2" class="cluster">
<title>cluster_1</title>
<polygon fill="none" stroke="blue" points="170,-152 170,-532 620,-532 620,-152 170,-152"/>
<text text-anchor="middle" x="395" y="-515.4" font-family="Times,serif" font-size="14.00">Kernel</text>
</g>
<g id="clust3" class="cluster">
<title>cluster_3</title>
<polygon fill="none" stroke="black" points="628,-8 628,-228.8 1024,-228.8 1024,-8 628,-8"/>
<text text-anchor="middle" x="826" y="-212.2" font-family="Times,serif" font-size="14.00">website/shell</text>
</g>
<!-- C# -->
<g id="node1" class="node">
<title>C#</title>
<ellipse fill="white" stroke="white" cx="85" cy="-404.4" rx="27" ry="18"/>
<text text-anchor="middle" x="85" y="-400.2" font-family="Times,serif" font-size="14.00">C#</text>
</g>
<!-- decentraland&#45;renderer -->
<g id="node2" class="node">
<title>decentraland&#45;renderer</title>
<polygon fill="white" stroke="black" points="154.3,-350.2 19.7,-350.2 15.7,-346.2 15.7,-309 150.3,-309 154.3,-313 154.3,-350.2"/>
<polyline fill="none" stroke="black" points="150.3,-346.2 15.7,-346.2 "/>
<polyline fill="none" stroke="black" points="150.3,-346.2 150.3,-309 "/>
<polyline fill="none" stroke="black" points="150.3,-346.2 154.3,-350.2 "/>
<text text-anchor="middle" x="85" y="-333.8" font-family="Times,serif" font-size="14.00">decentraland&#45;renderer</text>
<text text-anchor="middle" x="85" y="-317" font-family="Times,serif" font-size="14.00">(wasm)</text>
</g>
<!-- C#&#45;&gt;decentraland&#45;renderer -->
<g id="edge1" class="edge">
<title>C#&#45;&gt;decentraland&#45;renderer</title>
<path fill="none" stroke="black" d="M85,-386.15C85,-378.49 85,-369.26 85,-360.54"/>
<polygon fill="black" stroke="black" points="88.5,-360.3 85,-350.3 81.5,-360.3 88.5,-360.3"/>
</g>
<!-- entrypoints -->
<g id="node9" class="node">
<title>entrypoints</title>
<ellipse fill="lightgrey" stroke="black" cx="447" cy="-254.8" rx="54.47" ry="18"/>
<text text-anchor="middle" x="447" y="-250.6" font-family="Times,serif" font-size="14.00">entrypoints</text>
</g>
<!-- decentraland&#45;renderer&#45;&gt;entrypoints -->
<g id="edge15" class="edge">
<title>decentraland&#45;renderer&#45;&gt;entrypoints</title>
<path fill="none" stroke="black" d="M138.2,-308.89C147.39,-305.91 156.91,-303.07 166,-300.8 240.73,-282.14 328.64,-269.52 385.98,-262.5"/>
<polygon fill="black" stroke="black" points="386.45,-265.97 395.96,-261.3 385.62,-259.02 386.45,-265.97"/>
</g>
<!-- build&#45;ecs -->
<g id="node3" class="node">
<title>build&#45;ecs</title>
<polygon fill="lightgrey" stroke="black" points="609.82,-499.2 546.18,-499.2 542.18,-495.2 542.18,-463.2 605.82,-463.2 609.82,-467.2 609.82,-499.2"/>
<polyline fill="none" stroke="black" points="605.82,-495.2 542.18,-495.2 "/>
<polyline fill="none" stroke="black" points="605.82,-495.2 605.82,-463.2 "/>
<polyline fill="none" stroke="black" points="605.82,-495.2 609.82,-499.2 "/>
<text text-anchor="middle" x="576" y="-477" font-family="Times,serif" font-size="14.00">build&#45;ecs</text>
</g>
<!-- ecs -->
<g id="node5" class="node">
<title>ecs</title>
<polygon fill="lightgrey" stroke="black" points="602,-422.4 552,-422.4 548,-418.4 548,-386.4 598,-386.4 602,-390.4 602,-422.4"/>
<polyline fill="none" stroke="black" points="598,-418.4 548,-418.4 "/>
<polyline fill="none" stroke="black" points="598,-418.4 598,-386.4 "/>
<polyline fill="none" stroke="black" points="598,-418.4 602,-422.4 "/>
<text text-anchor="middle" x="575" y="-400.2" font-family="Times,serif" font-size="14.00">ecs</text>
</g>
<!-- build&#45;ecs&#45;&gt;ecs -->
<g id="edge2" class="edge">
<title>build&#45;ecs&#45;&gt;ecs</title>
<path fill="none" stroke="black" d="M575.77,-462.85C575.65,-453.98 575.5,-442.96 575.37,-432.96"/>
<polygon fill="black" stroke="black" points="578.86,-432.61 575.23,-422.65 571.86,-432.7 578.86,-432.61"/>
</g>
<!-- amd -->
<g id="node4" class="node">
<title>amd</title>
<polygon fill="lightgrey" stroke="black" points="524,-499.2 474,-499.2 470,-495.2 470,-463.2 520,-463.2 524,-467.2 524,-499.2"/>
<polyline fill="none" stroke="black" points="520,-495.2 470,-495.2 "/>
<polyline fill="none" stroke="black" points="520,-495.2 520,-463.2 "/>
<polyline fill="none" stroke="black" points="520,-495.2 524,-499.2 "/>
<text text-anchor="middle" x="497" y="-477" font-family="Times,serif" font-size="14.00">amd</text>
</g>
<!-- amd&#45;&gt;ecs -->
<g id="edge3" class="edge">
<title>amd&#45;&gt;ecs</title>
<path fill="none" stroke="black" d="M524.36,-466.13C529.49,-462.9 534.62,-459.21 539,-455.2 546.71,-448.15 553.79,-439.2 559.6,-430.84"/>
<polygon fill="black" stroke="black" points="562.55,-432.71 565.16,-422.44 556.72,-428.85 562.55,-432.71"/>
</g>
<!-- scene&#45;system -->
<g id="node12" class="node">
<title>scene&#45;system</title>
<polygon fill="lightgrey" stroke="black" points="606.13,-347.6 521.87,-347.6 521.87,-311.6 612.13,-311.6 612.13,-341.6 606.13,-347.6"/>
<polyline fill="none" stroke="black" points="606.13,-347.6 606.13,-341.6 "/>
<polyline fill="none" stroke="black" points="612.13,-341.6 606.13,-341.6 "/>
<text text-anchor="middle" x="567" y="-325.4" font-family="Times,serif" font-size="14.00">scene&#45;system</text>
</g>
<!-- ecs&#45;&gt;scene&#45;system -->
<g id="edge9" class="edge">
<title>ecs&#45;&gt;scene&#45;system</title>
<path fill="none" stroke="black" d="M573.1,-386.15C572.18,-377.72 571.04,-367.37 570,-357.9"/>
<polygon fill="black" stroke="black" points="573.45,-357.29 568.88,-347.73 566.5,-358.05 573.45,-357.29"/>
</g>
<!-- rpc -->
<g id="node6" class="node">
<title>rpc</title>
<polygon fill="lightgrey" stroke="black" points="530,-422.4 480,-422.4 476,-418.4 476,-386.4 526,-386.4 530,-390.4 530,-422.4"/>
<polyline fill="none" stroke="black" points="526,-418.4 476,-418.4 "/>
<polyline fill="none" stroke="black" points="526,-418.4 526,-386.4 "/>
<polyline fill="none" stroke="black" points="526,-418.4 530,-422.4 "/>
<text text-anchor="middle" x="503" y="-400.2" font-family="Times,serif" font-size="14.00">rpc</text>
</g>
<!-- rpc&#45;&gt;entrypoints -->
<g id="edge11" class="edge">
<title>rpc&#45;&gt;entrypoints</title>
<path fill="none" stroke="black" d="M504.8,-386.11C506.24,-364.91 506.22,-328.4 493,-300.8 489.04,-292.54 482.91,-284.96 476.39,-278.47"/>
<polygon fill="black" stroke="black" points="478.41,-275.57 468.68,-271.37 473.67,-280.72 478.41,-275.57"/>
</g>
<!-- rpc&#45;&gt;scene&#45;system -->
<g id="edge10" class="edge">
<title>rpc&#45;&gt;scene&#45;system</title>
<path fill="none" stroke="black" d="M518.17,-386.15C526.22,-376.99 536.25,-365.57 545.13,-355.48"/>
<polygon fill="black" stroke="black" points="547.97,-357.55 551.94,-347.73 542.71,-352.93 547.97,-357.55"/>
</g>
<!-- voice -->
<g id="node7" class="node">
<title>voice</title>
<polygon fill="lightgrey" stroke="black" points="484,-347.6 481,-351.6 460,-351.6 457,-347.6 430,-347.6 430,-311.6 484,-311.6 484,-347.6"/>
<text text-anchor="middle" x="457" y="-325.4" font-family="Times,serif" font-size="14.00">voice</text>
</g>
<!-- voice&#45;&gt;entrypoints -->
<g id="edge7" class="edge">
<title>voice&#45;&gt;entrypoints</title>
<path fill="none" stroke="black" d="M454.63,-311.35C453.47,-302.92 452.05,-292.57 450.75,-283.1"/>
<polygon fill="black" stroke="black" points="454.18,-282.36 449.35,-272.93 447.25,-283.31 454.18,-282.36"/>
</g>
<!-- ui -->
<g id="node8" class="node">
<title>ui</title>
<polygon fill="lightgrey" stroke="black" points="405.69,-347.6 322.31,-347.6 322.31,-311.6 411.69,-311.6 411.69,-341.6 405.69,-347.6"/>
<polyline fill="none" stroke="black" points="405.69,-347.6 405.69,-341.6 "/>
<polyline fill="none" stroke="black" points="411.69,-341.6 405.69,-341.6 "/>
<text text-anchor="middle" x="367" y="-325.4" font-family="Times,serif" font-size="14.00">UI + Avatars</text>
</g>
<!-- ui&#45;&gt;entrypoints -->
<g id="edge4" class="edge">
<title>ui&#45;&gt;entrypoints</title>
<path fill="none" stroke="black" d="M385.96,-311.35C396.62,-301.65 410.07,-289.41 421.63,-278.89"/>
<polygon fill="black" stroke="black" points="424.23,-281.25 429.27,-271.93 419.52,-276.07 424.23,-281.25"/>
</g>
<!-- preview -->
<g id="node13" class="node">
<title>preview</title>
<polygon fill="lightgrey" stroke="black" points="460.59,-196 405.41,-196 405.41,-160 466.59,-160 466.59,-190 460.59,-196"/>
<polyline fill="none" stroke="black" points="460.59,-196 460.59,-190 "/>
<polyline fill="none" stroke="black" points="466.59,-190 460.59,-190 "/>
<text text-anchor="middle" x="436" y="-173.8" font-family="Times,serif" font-size="14.00">preview</text>
</g>
<!-- entrypoints&#45;&gt;preview -->
<g id="edge12" class="edge">
<title>entrypoints&#45;&gt;preview</title>
<path fill="none" stroke="black" d="M444.45,-236.45C443.13,-227.48 441.49,-216.33 440.01,-206.24"/>
<polygon fill="black" stroke="black" points="443.46,-205.64 438.54,-196.25 436.53,-206.66 443.46,-205.64"/>
</g>
<!-- builder -->
<g id="node14" class="node">
<title>builder</title>
<polygon fill="lightgrey" stroke="black" points="533.66,-196 484.34,-196 484.34,-160 539.66,-160 539.66,-190 533.66,-196"/>
<polyline fill="none" stroke="black" points="533.66,-196 533.66,-190 "/>
<polyline fill="none" stroke="black" points="539.66,-190 533.66,-190 "/>
<text text-anchor="middle" x="512" y="-173.8" font-family="Times,serif" font-size="14.00">builder</text>
</g>
<!-- entrypoints&#45;&gt;builder -->
<g id="edge13" class="edge">
<title>entrypoints&#45;&gt;builder</title>
<path fill="none" stroke="black" d="M466.61,-238C469.87,-235.06 473.12,-231.93 476,-228.8 482.78,-221.41 489.44,-212.74 495.14,-204.71"/>
<polygon fill="black" stroke="black" points="498.11,-206.57 500.93,-196.36 492.36,-202.59 498.11,-206.57"/>
</g>
<!-- unity -->
<g id="node15" class="node">
<title>unity</title>
<polygon fill="lightgrey" stroke="black" points="612,-196 562,-196 558,-192 558,-160 608,-160 612,-164 612,-196"/>
<polyline fill="none" stroke="black" points="608,-192 558,-192 "/>
<polyline fill="none" stroke="black" points="608,-192 608,-160 "/>
<polyline fill="none" stroke="black" points="608,-192 612,-196 "/>
<text text-anchor="middle" x="585" y="-173.8" font-family="Times,serif" font-size="14.00">unity</text>
</g>
<!-- entrypoints&#45;&gt;unity -->
<g id="edge14" class="edge">
<title>entrypoints&#45;&gt;unity</title>
<path fill="none" stroke="black" d="M498.14,-248.5C515.38,-244.9 534.03,-238.88 549,-228.8 558.03,-222.72 565.57,-213.58 571.39,-204.78"/>
<polygon fill="black" stroke="black" points="574.39,-206.59 576.62,-196.23 568.42,-202.94 574.39,-206.59"/>
</g>
<!-- loader -->
<g id="node10" class="node">
<title>loader</title>
<polygon fill="lightgrey" stroke="black" points="298,-347.6 250,-347.6 250,-311.6 304,-311.6 304,-341.6 298,-347.6"/>
<polyline fill="none" stroke="black" points="298,-347.6 298,-341.6 "/>
<polyline fill="none" stroke="black" points="304,-341.6 298,-341.6 "/>
<text text-anchor="middle" x="277" y="-325.4" font-family="Times,serif" font-size="14.00">loader</text>
</g>
<!-- loader&#45;&gt;entrypoints -->
<g id="edge5" class="edge">
<title>loader&#45;&gt;entrypoints</title>
<path fill="none" stroke="black" d="M296.75,-311.47C301.82,-307.61 307.43,-303.78 313,-300.8 338.6,-287.12 369.16,-276.47 394.62,-268.98"/>
<polygon fill="black" stroke="black" points="395.82,-272.28 404.47,-266.16 393.89,-265.55 395.82,-272.28"/>
</g>
<!-- gif -->
<g id="node11" class="node">
<title>gif</title>
<polygon fill="lightgrey" stroke="black" points="226,-347.6 178,-347.6 178,-311.6 232,-311.6 232,-341.6 226,-347.6"/>
<polyline fill="none" stroke="black" points="226,-347.6 226,-341.6 "/>
<polyline fill="none" stroke="black" points="232,-341.6 226,-341.6 "/>
<text text-anchor="middle" x="205" y="-325.4" font-family="Times,serif" font-size="14.00">gif</text>
</g>
<!-- gif&#45;&gt;entrypoints -->
<g id="edge6" class="edge">
<title>gif&#45;&gt;entrypoints</title>
<path fill="none" stroke="black" d="M224.15,-311.32C229.33,-307.37 235.13,-303.54 241,-300.8 286.82,-279.43 343.16,-268.02 385.33,-262.05"/>
<polygon fill="black" stroke="black" points="386.02,-265.49 395.46,-260.68 385.08,-258.55 386.02,-265.49"/>
</g>
<!-- scene&#45;system&#45;&gt;entrypoints -->
<g id="edge8" class="edge">
<title>scene&#45;system&#45;&gt;entrypoints</title>
<path fill="none" stroke="black" d="M538.87,-311.53C521.48,-300.99 499.07,-287.39 480.74,-276.27"/>
<polygon fill="black" stroke="black" points="482.47,-273.22 472.1,-271.03 478.84,-279.21 482.47,-273.22"/>
</g>
<!-- app -->
<g id="node17" class="node">
<title>app</title>
<ellipse fill="none" stroke="black" cx="750" cy="-106" rx="68.34" ry="18"/>
<text text-anchor="middle" x="750" y="-101.8" font-family="Times,serif" font-size="14.00">app &amp; preview</text>
</g>
<!-- preview&#45;&gt;app -->
<g id="edge22" class="edge">
<title>preview&#45;&gt;app</title>
<path fill="none" stroke="black" d="M459.52,-159.78C464.45,-156.8 469.74,-154.02 475,-152 539.11,-127.42 616.65,-116.26 673.03,-111.2"/>
<polygon fill="black" stroke="black" points="673.64,-114.66 683.3,-110.33 673.04,-107.69 673.64,-114.66"/>
</g>
<!-- unity&#45;&gt;app -->
<g id="edge21" class="edge">
<title>unity&#45;&gt;app</title>
<path fill="none" stroke="black" d="M609.69,-160C614.34,-157.14 619.24,-154.34 624,-152 647.08,-140.67 673.75,-130.72 696.6,-123.08"/>
<polygon fill="black" stroke="black" points="697.73,-126.4 706.14,-119.95 695.55,-119.74 697.73,-126.4"/>
</g>
<!-- css -->
<g id="node16" class="node">
<title>css</title>
<ellipse fill="none" stroke="black" cx="989" cy="-178" rx="27" ry="18"/>
<text text-anchor="middle" x="989" y="-173.8" font-family="Times,serif" font-size="14.00">css</text>
</g>
<!-- css&#45;&gt;app -->
<g id="edge16" class="edge">
<title>css&#45;&gt;app</title>
<path fill="none" stroke="black" d="M972.59,-163.6C966.71,-159.35 959.83,-154.99 953,-152 911.08,-133.65 860.9,-122.44 820.93,-115.8"/>
<polygon fill="black" stroke="black" points="821.42,-112.33 810.99,-114.21 820.31,-119.25 821.42,-112.33"/>
</g>
<!-- website -->
<g id="node22" class="node">
<title>website</title>
<ellipse fill="none" stroke="black" cx="713" cy="-34" rx="40.57" ry="18"/>
<text text-anchor="middle" x="713" y="-29.8" font-family="Times,serif" font-size="14.00">website</text>
</g>
<!-- app&#45;&gt;website -->
<g id="edge23" class="edge">
<title>app&#45;&gt;website</title>
<path fill="none" stroke="black" d="M741.04,-88.05C736.73,-79.89 731.45,-69.91 726.65,-60.82"/>
<polygon fill="black" stroke="black" points="729.64,-58.99 721.87,-51.79 723.45,-62.27 729.64,-58.99"/>
</g>
<!-- preview.js -->
<g id="node23" class="node">
<title>preview.js</title>
<ellipse fill="none" stroke="black" cx="823" cy="-34" rx="50.98" ry="18"/>
<text text-anchor="middle" x="823" y="-29.8" font-family="Times,serif" font-size="14.00">preview.js</text>
</g>
<!-- app&#45;&gt;preview.js -->
<g id="edge24" class="edge">
<title>app&#45;&gt;preview.js</title>
<path fill="none" stroke="black" d="M767.3,-88.41C776.64,-79.45 788.33,-68.25 798.58,-58.42"/>
<polygon fill="black" stroke="black" points="801.28,-60.68 806.08,-51.23 796.44,-55.62 801.28,-60.68"/>
</g>
<!-- redux -->
<g id="node18" class="node">
<title>redux</title>
<ellipse fill="none" stroke="black" cx="911" cy="-178" rx="33.05" ry="18"/>
<text text-anchor="middle" x="911" y="-173.8" font-family="Times,serif" font-size="14.00">redux</text>
</g>
<!-- redux&#45;&gt;app -->
<g id="edge17" class="edge">
<title>redux&#45;&gt;app</title>
<path fill="none" stroke="black" d="M890.46,-163.8C883.76,-159.75 876.19,-155.46 869,-152 847.09,-141.44 822,-131.63 800.53,-123.89"/>
<polygon fill="black" stroke="black" points="801.54,-120.54 790.95,-120.48 799.2,-127.13 801.54,-120.54"/>
</g>
<!-- react -->
<g id="node19" class="node">
<title>react</title>
<ellipse fill="none" stroke="black" cx="830" cy="-178" rx="29.59" ry="18"/>
<text text-anchor="middle" x="830" y="-173.8" font-family="Times,serif" font-size="14.00">react</text>
</g>
<!-- react&#45;&gt;app -->
<g id="edge18" class="edge">
<title>react&#45;&gt;app</title>
<path fill="none" stroke="black" d="M813.81,-162.83C803.1,-153.46 788.81,-140.96 776.46,-130.15"/>
<polygon fill="black" stroke="black" points="778.52,-127.3 768.69,-123.35 773.91,-132.57 778.52,-127.3"/>
</g>
<!-- sagas -->
<g id="node20" class="node">
<title>sagas</title>
<ellipse fill="none" stroke="black" cx="750" cy="-178" rx="31.9" ry="18"/>
<text text-anchor="middle" x="750" y="-173.8" font-family="Times,serif" font-size="14.00">sagas</text>
</g>
<!-- sagas&#45;&gt;app -->
<g id="edge19" class="edge">
<title>sagas&#45;&gt;app</title>
<path fill="none" stroke="black" d="M750,-159.7C750,-151.98 750,-142.71 750,-134.11"/>
<polygon fill="black" stroke="black" points="753.5,-134.1 750,-124.1 746.5,-134.1 753.5,-134.1"/>
</g>
<!-- web3 -->
<g id="node21" class="node">
<title>web3</title>
<ellipse fill="none" stroke="black" cx="668" cy="-178" rx="31.9" ry="18"/>
<text text-anchor="middle" x="668" y="-173.8" font-family="Times,serif" font-size="14.00">web3</text>
</g>
<!-- web3&#45;&gt;app -->
<g id="edge20" class="edge">
<title>web3&#45;&gt;app</title>
<path fill="none" stroke="black" d="M684.99,-162.5C695.92,-153.17 710.36,-140.84 722.86,-130.17"/>
<polygon fill="black" stroke="black" points="725.4,-132.6 730.73,-123.45 720.85,-127.28 725.4,-132.6"/>
</g>
</g>
</svg>
